<?xml version="1.0" encoding="utf-8"?>
<!-- Generator: Adobe Illustrator 27.5.0, SVG Export Plug-In . SVG Version: 6.00 Build 0)  -->
<svg version="1.1" id="Layer_1" xmlns="http://www.w3.org/2000/svg" xmlns:xlink="http://www.w3.org/1999/xlink" x="0px" y="0px"
	 viewBox="0 0 4000 4000" style="enable-background:new 0 0 4000 4000;" xml:space="preserve">
<g>
	<g>
		<g>
			<g>
				<g>
					<rect style="fill:#FEEBCD;" width="4000" height="4000"/>
				</g>
			</g>
		</g>
	</g>
	<g>
		<g style="opacity:0.2;">
			<g>
				<g>
					<g>
						<ellipse style="fill:#371A45;" cx="2045.367" cy="3429.842" rx="848.069" ry="135.158"/>
					</g>
				</g>
			</g>
		</g>
		<g>
			<g>
				<g>
					<g>
						<g>
							<path style="fill:#FFFFFF;" d="M2087.06,3244.022c-1.011,44.749,2.838,89.459,41.717,111.543
								c47.781,27.176,132.887,49.686,283.152,34.679c107.849-10.769,154.814-54.469,154.814-99.723
								c0-52.524-63.255-107.11-168.111-114.614c-35.885,0.622-107.843,10.279-175.14,7.22
								c-111.138-5.052-116.41-27.359-136.704-58.384C2087.799,3162.961,2088.032,3203.006,2087.06,3244.022z"/>
						</g>
					</g>
				</g>
			</g>
			<g>
				<g>
					<g>
						<g>
							<path style="fill:#9CA9B9;" d="M2427.257,3390.253c-150.265,15.007-235.37-7.542-283.152-34.68
								c-38.878-22.122-41.056-66.833-41.717-111.543c-1.827-126.744-5.832-246.101-9.292-332.722
								c-0.894-21.577-1.71-41.133-2.488-58.24c-2.216-49.298-3.81-78.574-3.81-78.574l132.692-32.618l293.922-72.276
								c-3.227,48.365-9.098,92.881-16.757,133.704c-4.044,21.383-8.553,41.717-13.452,61.078
								c-8.592,33.785-18.312,64.499-28.576,92.297c-52.719,142.606-120.135,207.805-120.135,207.805l13.413,12.713
								C2595.406,3151.033,2684.633,3364.554,2427.257,3390.253z"/>
						</g>
					</g>
				</g>
			</g>
			<g>
				<g>
					<g>
						<g>
							<path style="fill:#371A45;" d="M2336.165,3410.638c-84.126,0.002-151.074-13.896-199.734-41.555
								c-48.152-27.368-48.975-83.691-49.573-124.817c-3.596-245.83-15.481-466.729-15.598-468.933
								c-0.467-8.574,6.108-15.906,14.685-16.37c8.482-0.454,15.906,6.106,16.37,14.685c0.122,2.207,12.036,223.689,15.642,470.164
								c0.659,45.132,3.567,81.023,33.843,98.23c41.008,23.311,121.816,47.905,273.909,32.732
								c71.673-7.153,121.377-30.396,136.367-63.767c8.11-18.059,4.966-38.513-8.86-57.595
								c-25.544-35.254-94.219-72.332-203.674-60.737l-7.139,0.754l-30.381-28.855l11.66-11.279
								c1.497-1.458,151.833-151.501,174.202-484.751c0.574-8.567,7.896-15.034,16.56-14.475c8.569,0.576,15.049,7.991,14.475,16.56
								c-19.431,289.468-130.19,443.542-169.771,489.941c115.154-8.77,188.513,32.163,219.255,74.592
								c20.334,28.069,24.724,60.356,12.044,88.589c-19.966,44.451-77.373,73.56-161.648,81.97
								C2395.93,3409.003,2365.034,3410.638,2336.165,3410.638z"/>
						</g>
					</g>
				</g>
			</g>
			<g>
				<g>
					<g>
						<g>
							<path style="fill:#FFFFFF;" d="M2467.957,3184.021c153.778,30.332,176.114,148.699,162.24,190.157
								c-21.361,63.835-160.091,81.687-325.742,62.544c-223.144-25.787-231.931-104.07-231.931-104.07
								c-3.805-32.167,7.45-113.987,14.467-159.728c2.68-17.469,19.342-29.199,36.692-25.831
								c32.185,6.248,82.222,15.256,116.968,18.174c5.807,0.488,9.906-5.521,7.26-10.713c-7.37-14.458-16.639-39.883-5.497-61.709
								c20.909-40.961,139.85-24.679,149.448,0C2401.46,3117.524,2393.233,3169.282,2467.957,3184.021z"/>
						</g>
					</g>
				</g>
			</g>
			<g>
				<g>
					<g>
						<g>
							<path style="fill:#371A45;" d="M2423.577,3459.708c-36.65,0.002-77.109-2.476-120.906-7.537
								c-228.828-26.443-244.561-108.513-245.601-117.786c-3.804-32.17,5.811-106.851,14.551-163.821
								c1.941-12.668,8.782-23.708,19.26-31.086c10.481-7.378,23.186-10.095,35.767-7.651c29.741,5.774,69.729,12.954,101.553,16.57
								c-8.689-23.135-8.638-44.993,0.364-62.625c16.985-33.279,69.695-34.309,91.555-33.188c7.598,0.383,74.57,4.622,86.238,34.622
								c2.458,6.321,3.823,13.254,5.271,20.593c4.968,25.198,10.105,51.252,59.338,60.967l0,0
								c90.803,17.91,134.658,64.319,155.457,100.098c24.295,41.792,26.809,85.486,18.523,110.249
								C2627.419,3431.483,2547.261,3459.708,2423.577,3459.708z M2087.93,3330.49c0.713,3.027,18.599,67.705,218.311,90.784
								c168.049,19.417,292.3-1.492,309.209-52.029c4.897-14.636,4.702-49.285-15.916-84.751
								c-17.573-30.229-55.188-69.553-134.587-85.215l0,0c-69.692-13.748-78.545-58.64-83.833-85.461
								c-1.118-5.671-2.175-11.04-3.538-14.788c-6.143-7.234-44.114-18.367-81.877-15.037c-20.525,1.809-35.266,7.759-39.434,15.92
								c-8.162,15.989-0.056,36.675,5.503,47.581c3.774,7.407,3.245,16.294-1.387,23.188c-4.646,6.917-12.71,10.815-21.033,10.081
								c-34.69-2.913-83.657-11.614-118.628-18.403c-4.197-0.815-8.438,0.09-11.934,2.551c-3.493,2.461-5.774,6.143-6.423,10.369
								C2090.657,3251.608,2085.403,3308.114,2087.93,3330.49z"/>
						</g>
					</g>
				</g>
			</g>
			<g>
				<g>
					<g>
						<g>
							<path style="fill:#5F5272;" d="M2630.213,3319.735c-20.594,61.456-149.781,80.33-307.094,64.525
								c-6.183-0.558-12.366-1.255-18.641-1.953c-223.185-25.801-231.971-104.084-231.971-104.084
								c-3.765-32.169,7.484-113.987,14.504-159.73c2.65-17.479,19.338-29.194,36.678-25.846
								c32.17,6.276,82.236,15.294,116.962,18.177c5.811,0.511,9.901-5.486,7.252-10.692c-7.345-14.458-16.642-39.886-5.486-61.735
								c20.919-40.956,162.273-23.851,171.895,0.787c9.576,24.685-21.091,75.684,53.661,90.421
								c74.566,14.69,118.217,50.113,141.833,87.397C2634.908,3256.652,2637.326,3298.397,2630.213,3319.735z"/>
						</g>
					</g>
				</g>
			</g>
			<g>
				<g>
					<g>
						<g>
							<path style="fill:#FFFFFF;" d="M2630.213,3319.735c-20.594,61.456-149.781,80.33-307.094,64.525
								c12.086-64.944,57.923-221.559,253.402-176.42c11.761,2.743,22.871,5.811,33.284,9.159
								C2634.908,3256.652,2637.326,3298.397,2630.213,3319.735z"/>
						</g>
					</g>
				</g>
			</g>
			<g style="opacity:0.5;">
				<g>
					<g>
						<g>
							<g>
								<path style="fill:#FFFFFF;" d="M2237.333,3057.486c35.935-25.289,137.458-21.937,145.966-0.042
									c9.576,24.685-5.806,88.322,68.945,103.058c143.878,28.403,172.653,133.836,164.425,181.254
									c6.276-6.601,10.832-13.946,13.528-21.989c13.854-41.467-8.461-159.823-162.24-190.18
									c-74.705-14.736-44.021-65.721-53.644-90.406c-9.576-24.685-150.993-41.711-171.912-0.755
									C2239.239,3044.563,2237.751,3051.071,2237.333,3057.486z"/>
							</g>
						</g>
					</g>
				</g>
			</g>
			<g style="opacity:0.3;">
				<g>
					<g>
						<g>
							<path style="fill:#371A45;" d="M2072.536,3278.208c0,0,8.786,78.284,231.925,104.085
								c165.634,19.153,304.398,1.302,325.736-62.525c2.324-6.927,3.626-15.945,3.44-26.359
								c-57.319,28.451-163.263,34.029-283.339,20.129c-223.138-25.801-231.925-104.085-231.925-104.085
								c-2.79-23.429,2.417-73.217,8.182-116.218c-0.976-0.186-1.953-0.372-2.882-0.558c-17.34-3.393-33.982,8.368-36.678,25.801
								C2079.973,3164.221,2068.724,3246.038,2072.536,3278.208z"/>
						</g>
					</g>
				</g>
			</g>
			<g>
				<g>
					<g>
						<g>
							<path style="fill:#371A45;" d="M2306.252,3172.247c-2.332,0-4.636-1.045-6.169-3.035c-2.617-3.403-1.98-8.286,1.423-10.906
								c57.864-44.509,124.607-50.435,223.176-19.817c4.102,1.274,6.392,5.632,5.12,9.734c-1.274,4.102-5.617,6.389-9.734,5.12
								c-93.164-28.945-155.698-23.774-209.079,17.292C2309.575,3171.722,2307.908,3172.247,2306.252,3172.247z"/>
						</g>
					</g>
				</g>
			</g>
			<g>
				<g>
					<g>
						<g>
							<path style="fill:#371A45;" d="M2337.007,3198.844c-2.317,0-4.612-1.033-6.145-3.005c-2.634-3.391-2.021-8.276,1.37-10.911
								c56.667-44.031,128.613-51.375,233.274-23.804c4.153,1.094,6.633,5.347,5.539,9.5c-1.096,4.153-5.354,6.636-9.5,5.54
								c-99.521-26.218-167.3-19.727-219.773,21.045C2340.354,3198.309,2338.674,3198.844,2337.007,3198.844z"/>
						</g>
					</g>
				</g>
			</g>
			<g>
				<g>
					<g>
						<g>
							<path style="fill:#371A45;" d="M2378.142,3227.518c-2.561,0-5.071-1.265-6.555-3.582c-2.317-3.618-1.262-8.425,2.354-10.742
								c80.176-51.348,132.761-49.722,220.315-26.658c4.153,1.094,6.633,5.347,5.539,9.5c-1.096,4.153-5.347,6.641-9.5,5.54
								c-82.988-21.863-132.71-23.481-207.966,24.714C2381.031,3227.123,2379.578,3227.518,2378.142,3227.518z"/>
						</g>
					</g>
				</g>
			</g>
			<g>
				<g>
					<g>
						<g>
							<path style="fill:#371A45;" d="M2423.577,3405.28c-36.65,0-77.109-2.476-120.906-7.537
								c-228.828-26.443-244.561-108.513-245.601-117.786c-3.804-32.168,5.811-106.851,14.551-163.821
								c1.941-12.668,8.782-23.708,19.26-31.086c10.481-7.375,23.186-10.088,35.767-7.651c29.741,5.774,69.727,12.954,101.553,16.57
								c-8.689-23.132-8.638-44.99,0.364-62.622c16.448-32.234,71.641-34.373,103.086-32.788
								c14.231,0.72,85.801,5.789,97.156,34.985c3.813,9.81,3.328,20.693,2.859,31.221c-1.077,24.067-1.853,41.455,39.302,49.573
								c90.803,17.91,134.658,64.319,155.457,100.098c24.295,41.792,26.809,85.486,18.523,110.249
								C2627.419,3377.054,2547.261,3405.28,2423.577,3405.28z M2087.93,3276.061c0.713,3.027,18.599,67.705,218.311,90.784
								c168.049,19.419,292.3-1.492,309.209-52.029c4.897-14.636,4.702-49.285-15.916-84.751
								c-17.573-30.229-55.188-69.553-134.587-85.215c-67.397-13.293-65.493-55.972-64.353-81.472
								c0.3-6.768,0.613-13.745-0.486-17.678c-8.948-8.53-62.227-20.554-106.86-15.015c-23.162,2.871-34.29,9.529-36.98,14.802
								c-8.164,15.989-0.059,36.672,5.498,47.578c3.777,7.41,3.247,16.296-1.387,23.191c-4.648,6.917-12.754,10.781-21.03,10.078
								c-34.69-2.913-83.657-11.614-118.628-18.403c-4.197-0.823-8.438,0.09-11.934,2.551c-3.493,2.461-5.774,6.143-6.423,10.369
								C2090.657,3197.179,2085.403,3253.688,2087.93,3276.061z M2400.544,3046.154L2400.544,3046.154L2400.544,3046.154z"/>
						</g>
					</g>
				</g>
			</g>
			<g>
				<g>
					<g>
						<g>
							<path style="fill:#FFFFFF;" d="M1981.364,3244.022c1.011,44.749-2.838,89.459-41.717,111.543
								c-47.781,27.176-132.887,49.686-283.152,34.679c-107.849-10.769-154.814-54.469-154.814-99.723
								c0-52.524,63.255-107.11,168.111-114.614c35.885,0.622,107.843,10.279,175.14,7.22
								c111.138-5.052,116.41-27.359,136.704-58.384C1980.625,3162.961,1980.392,3203.006,1981.364,3244.022z"/>
						</g>
					</g>
				</g>
			</g>
			<g>
				<g>
					<g>
						<g>
							<path style="fill:#9CA9B9;" d="M1981.631,2774.495c0,0-1.633,29.782-3.849,79.857c-0.777,17.185-1.594,36.74-2.488,58.279
								c-3.46,86.543-7.465,205.318-9.292,331.4c-0.622,44.71-2.799,89.421-41.678,111.543
								c-47.782,27.137-132.886,49.686-283.152,34.68c-257.375-25.699-168.15-239.219,79.352-213.054l13.413-12.713
								c0,0-80.478-77.874-134.364-249.405c-4.821-15.318-9.408-31.414-13.685-48.21c-5.016-19.594-9.642-40.2-13.724-61.855
								c-4.587-24.065-8.553-49.414-11.664-76.085c-2.254-19.089-4.121-38.878-5.481-59.329l12.83,3.149l186.383,45.838
								L1981.631,2774.495z"/>
						</g>
					</g>
				</g>
			</g>
			<g>
				<g>
					<g>
						<g>
							<path style="fill:#371A45;" d="M1732.261,3410.641c-28.874,0-59.758-1.638-92.637-4.919
								c-84.273-8.408-141.682-37.52-161.646-81.97c-12.683-28.23-8.294-60.52,12.043-88.589
								c30.737-42.427,104.15-83.376,219.253-74.592c-39.578-46.399-150.339-200.474-169.768-489.941
								c-0.574-8.572,5.906-15.984,14.475-16.56c8.579-0.508,15.984,5.908,16.56,14.475
								c22.366,333.25,172.705,483.293,174.221,484.768l11.582,11.282l-30.322,28.835l-7.139-0.754
								c-109.473-11.584-178.135,25.483-203.677,60.737c-13.823,19.082-16.97,39.536-8.857,57.595
								c14.988,33.372,64.692,56.614,136.365,63.767c152.092,15.168,232.903-9.419,273.906-32.732
								c30.276-17.207,33.186-53.098,33.848-98.23c3.604-246.475,15.518-467.957,15.64-470.164c0.466-8.579,7.9-15.156,16.37-14.685
								c8.577,0.464,15.151,7.795,14.685,16.37c-0.117,2.205-12.002,223.103-15.596,468.933
								c-0.601,41.125-1.426,97.451-49.578,124.817C1883.34,3396.74,1816.377,3410.638,1732.261,3410.641z"/>
						</g>
					</g>
				</g>
			</g>
			<g style="opacity:0.3;">
				<g>
					<g>
						<g>
							<path style="fill:#6B184E;" d="M1585.887,2866.87c-5.132-1.283-9.72-2.449-13.724-3.538
								c-13.724-3.693-20.838-5.988-20.838-5.988l7.348-56.101c3.344,0.972,7.854,2.255,13.491,3.771
								C1576.245,2826.67,1580.872,2847.276,1585.887,2866.87z"/>
						</g>
					</g>
				</g>
			</g>
			<g style="opacity:0.3;">
				<g>
					<g>
						<g>
							<path style="fill:#6B184E;" d="M2623.36,2832.152c-43.195,11.158-85.455,20.956-126.705,29.47
								c-4.51,0.933-8.981,1.866-13.452,2.76c4.899-19.362,9.408-39.695,13.452-61.078c38.839-8.009,78.534-17.146,119.085-27.526
								L2623.36,2832.152z"/>
						</g>
					</g>
				</g>
			</g>
			<g>
				<g>
					<g>
						<g>
							<path style="fill:#FFFFFF;" d="M2623.36,2773.834c-43.195,11.158-85.455,20.956-126.705,29.47
								c-96.963,20.061-188.288,33.163-273.122,41.094c-46.304,4.354-90.664,7.154-132.925,8.67
								c-39.462,1.438-77.135,1.788-112.825,1.283c-125.733-1.71-227.439-14.035-299.948-26.593
								c-49.22-8.553-84.988-17.184-105.672-22.744c-13.724-3.693-20.838-5.987-20.838-5.987l9.175-70.098l7.349-56.179
								l76.435-583.333l240.075-20.839l413.318-35.846l222.851-19.323L2623.36,2773.834z"/>
						</g>
					</g>
				</g>
			</g>
			<g>
				<g>
					<g>
						<g>
							<path style="fill:#371A45;" d="M2006.221,2870.026c-60.212,0-113.87-2.429-160.159-5.977
								c-187.669-14.375-295.051-48.765-299.531-50.22l-12.288-3.997l94.619-722.444c1.116-8.518,8.904-14.526,17.439-13.401
								c8.516,1.116,14.517,8.923,13.401,17.439l-91.216,696.443c33.271,9.282,132.417,33.96,281.206,45.264
								c170.076,12.927,441.684,10.508,769.768-74.365c8.315-2.151,16.797,2.847,18.95,11.162
								c2.151,8.315-2.847,16.799-11.162,18.95C2383.655,2851.896,2170.623,2870.023,2006.221,2870.026z"/>
						</g>
					</g>
				</g>
			</g>
			<g>
				<g>
					<g>
						<g>
							<g>
								<path style="fill:#FC913A;" d="M933.363,1963.869c4.684,19.26,13.507,36.061,24.962,49.548l0.017,0.071
									c-7.682,32.811-29.69,58.867-60.274,66.305c-46.598,11.333-95.358-24.863-108.971-80.839
									c-13.596-55.903,13.095-110.449,59.693-121.782c30.584-7.438,62.101,5.601,83.992,31.218
									C928.783,1925.561,928.679,1944.609,933.363,1963.869z"/>
							</g>
						</g>
					</g>
				</g>
				<g>
					<g>
						<g>
							<g>
								<path style="fill:#FC913A;" d="M3212.195,1409.645c7.246,29.791,8.259,54.375,6.115,74.149
									c-4.093,37.515-31.766,68.234-68.482,77.163l-675.455,164.274c-160.497,39.034-577.45,96.356-694.546,114.369
									c-117.112,17.938-821.503,173.818-821.503,173.818c-11.455-13.487-20.278-30.289-24.962-49.548s-4.58-38.309-0.581-55.478
									c0,0,697.304-185.02,809.574-222.869c112.289-37.775,508.998-178.34,669.494-217.373l675.455-164.274
									c36.717-8.93,75.406,5.65,96.271,37.095C3194.561,1357.55,3204.95,1379.854,3212.195,1409.645z"/>
							</g>
						</g>
					</g>
				</g>
			</g>
			<g>
				<g>
					<g>
						<g>
							<g>
								<path style="fill:#FC913A;" d="M933.363,1963.869c4.684,19.26,13.507,36.061,24.962,49.548l0.017,0.071
									c-7.682,32.811-29.69,58.867-60.274,66.305c-46.598,11.333-95.358-24.863-108.971-80.839
									c-13.596-55.903,13.095-110.449,59.693-121.782c30.584-7.438,62.101,5.601,83.992,31.218
									C928.783,1925.561,928.679,1944.609,933.363,1963.869z"/>
							</g>
						</g>
					</g>
				</g>
				<g>
					<g>
						<g>
							<g>
								<path style="fill:#FC913A;" d="M3212.195,1409.645c7.246,29.791,8.259,54.375,6.115,74.149
									c-4.093,37.515-31.766,68.234-68.482,77.163l-675.455,164.274c-160.497,39.034-577.45,96.356-694.546,114.369
									c-117.112,17.938-821.503,173.818-821.503,173.818c-11.455-13.487-20.278-30.289-24.962-49.548s-4.58-38.309-0.581-55.478
									c0,0,697.304-185.02,809.574-222.869c112.289-37.775,508.998-178.34,669.494-217.373l675.455-164.274
									c36.717-8.93,75.406,5.65,96.271,37.095C3194.561,1357.55,3204.95,1379.854,3212.195,1409.645z"/>
							</g>
						</g>
					</g>
				</g>
			</g>
			<g style="opacity:0.5;">
				<g>
					<g>
						<g>
							<g>
								<path style="fill:#FFFFFF;" d="M943.083,1997.887c1.628,6.694,3.785,13.07,6.35,19.133c1.606-4.271,2.98-8.685,4.048-13.251
									l-0.017-0.071c-4.746-5.591-9.008-11.779-12.745-18.445C941.296,1989.444,942.053,1993.658,943.083,1997.887z"/>
							</g>
						</g>
					</g>
				</g>
				<g>
					<g>
						<g>
							<g>
								<path style="fill:#FFFFFF;" d="M858.509,1911.191c23.15-5.629,46.826,0.489,66.464,14.897
									c-0.097-9.478,0.916-18.692,2.95-27.417c-21.893-25.616-53.408-38.656-83.993-31.219
									c-46.598,11.333-73.289,65.88-59.692,121.782c2.75,11.312,6.955,21.796,12.268,31.261
									C789.389,1969.174,815.392,1921.679,858.509,1911.191z"/>
							</g>
						</g>
					</g>
				</g>
			</g>
			<g style="opacity:0.3;">
				<g>
					<g>
						<g>
							<g>
								<path style="fill:#371A45;" d="M958.35,1983.487c-7.698,32.814-29.703,58.863-60.301,66.288
									c-46.576,11.353-95.33-24.843-108.938-80.828c-1.633-6.648-2.643-13.257-3.188-19.828
									c21.772,32.114,57.229,49.532,91.559,41.211c26.593-6.492,46.693-27.059,56.53-53.885
									c4.821,18.195,13.374,34.096,24.299,46.964L958.35,1983.487z"/>
							</g>
						</g>
					</g>
				</g>
				<g>
					<g>
						<g>
							<g>
								<path style="fill:#371A45;" d="M3218.318,1453.807c-4.082,37.518-31.764,68.232-68.504,77.135l-675.436,164.301
									c-160.491,39.034-577.462,96.341-694.564,114.341c-117.102,17.962-821.503,173.826-821.503,173.826
									c-10.925-12.869-19.478-28.77-24.299-46.964c-0.234-0.856-0.467-1.711-0.661-2.567c-1.633-6.687-2.683-13.374-3.188-19.944
									c2.372,3.499,4.899,6.843,7.581,9.992c0,0,704.361-155.864,821.503-173.787c117.063-18.039,534.035-75.346,694.525-114.38
									l675.475-164.262c36.701-8.942,64.383-39.656,68.465-77.174c1.944-18.117,1.283-40.239-4.432-66.677
									c7.27,14.074,13.84,31.181,18.934,51.98C3219.445,1409.447,3220.456,1434.018,3218.318,1453.807z"/>
							</g>
						</g>
					</g>
				</g>
			</g>
			<g style="opacity:0.5;">
				<g>
					<g>
						<g>
							<path style="fill:#FFFFFF;" d="M947.362,1952.129c0,0,697.302-185.019,809.574-222.868
								c112.288-37.775,508.996-178.339,669.494-217.375l675.454-164.273c36.717-8.932,75.406,5.648,96.271,37.094
								c5.002,7.548,9.862,16.354,14.378,26.444c-0.123-0.51-0.211-0.994-0.337-1.507c-7.245-29.792-17.636-52.096-28.62-68.676
								c-20.865-31.446-59.554-46.026-96.271-37.094l-675.455,164.273c-160.497,39.035-557.205,179.599-669.494,217.375
								c-112.272,37.849-809.574,222.868-809.574,222.868c-3.998,17.171-4.103,36.218,0.581,55.477
								c2.743,11.279,6.939,21.684,12.216,31.105C943.532,1980.078,944.241,1965.529,947.362,1952.129z"/>
						</g>
					</g>
				</g>
			</g>
			<g style="opacity:0.3;">
				<g>
					<g>
						<g>
							<g>
								<path style="fill:#6B184E;" d="M937.744,1953.926v0.078c-1.011,4.276-2.255,8.437-3.732,12.441
									c-0.234-0.856-0.467-1.711-0.661-2.567c-1.633-6.687-2.683-13.374-3.188-19.944
									C932.534,1947.433,935.062,1950.777,937.744,1953.926z"/>
							</g>
						</g>
					</g>
				</g>
			</g>
			<g>
				<g>
					<g>
						<g>
							<g>
								<path style="fill:#371A45;" d="M880.908,2097.401c-47.827,0-93.281-38.677-106.921-94.77
									c-15.608-64.175,16.299-127.232,71.128-140.566c34.985-8.516,73.12,5.364,99.49,36.226l5.105,5.976l-1.782,7.654
									c-3.584,15.379-3.393,32.07,0.547,48.271l0.002,0.003c3.921,16.135,11.426,31.057,21.702,43.154l2.437,2.869l1.682,7.207
									l-0.813,3.611c-9.253,39.519-36.743,69.358-71.741,77.869C894.81,2096.591,887.832,2097.401,880.908,2097.401z
									 M866.204,1890.641c-4.604,0-9.202,0.54-13.74,1.643c-38.164,9.282-59.81,55.486-48.257,102.998
									c11.563,47.546,51.992,78.667,90.188,69.402c21.887-5.325,39.033-22.942,46.885-47.737
									c-10.74-14.456-18.643-31.375-23.027-49.404c-4.395-18.071-5.151-36.716-2.251-54.421
									C901.453,1898.539,883.794,1890.641,866.204,1890.641z"/>
							</g>
						</g>
					</g>
				</g>
				<g>
					<g>
						<g>
							<g>
								<path style="fill:#371A45;" d="M952.537,2030.626l-6.064-7.141c-13.398-15.776-23.157-35.12-28.218-55.942
									c-5.088-20.908-5.3-42.581-0.62-62.678l2.122-9.107l9.036-2.397c6.97-1.848,698.091-185.322,808.596-222.576
									c21.516-7.239,52.781-18.01,92.361-31.65c167.573-57.744,448.042-154.387,578.428-186.096l675.454-164.275
									c43.252-10.525,88.618,7.009,112.903,43.606c13.501,20.378,23.853,45.139,30.771,73.601
									c6.924,28.462,9.099,55.21,6.468,79.5c-4.766,43.677-37.022,80.081-80.269,90.598l-675.456,164.272
									c-130.418,31.719-424.011,74.683-599.429,100.352c-41.357,6.052-74.023,10.832-96.426,14.277
									c-115.283,17.659-813.469,172.073-820.508,173.63L952.537,2030.626z M946.282,1920.897
									c-1.726,12.783-0.991,26.201,2.192,39.294c3.174,13.049,8.687,25.303,16.116,35.913
									c88.262-19.502,702.664-154.995,812.886-171.877c22.502-3.462,55.22-8.25,96.641-14.312
									c174.878-25.591,467.573-68.42,596.582-99.795l675.457-164.275c30.564-7.434,53.35-33.047,56.697-63.74
									c2.241-20.686,0.303-43.833-5.767-68.787h-0.002c-6.064-24.951-14.973-46.404-26.472-63.762
									c-17.065-25.718-49.08-38.013-79.631-30.574l-675.454,164.275c-128.972,31.367-408.582,127.717-575.644,185.283
									c-39.639,13.66-70.95,24.448-92.566,31.719C1641.66,1735.88,1033.643,1897.687,946.282,1920.897z"/>
							</g>
						</g>
					</g>
				</g>
			</g>
			<g>
				<g>
					<g>
						<g>
							<path style="fill:#FFFFFF;" d="M1781.957,1988.668c0,0,308.928,57.614,568.815,0l1.502,94.897c0,0-262.1,68.21-555.694,1.843
								L1781.957,1988.668z"/>
						</g>
					</g>
				</g>
			</g>
			<g>
				<g>
					<g>
						<g>
							<path style="fill:#371A45;" d="M2065.591,2129.752c-82.268,0.002-175.867-7.344-272.439-29.175l-10.361-2.341l-19.478-128.86
								l21.494,4.004c3.059,0.569,308.916,56.343,562.598,0.105l18.614-4.126l1.999,126.179l-11.826,3.079
								C2354.407,2099.081,2233.674,2129.75,2065.591,2129.752z M1810.361,2072.526c247.527,53.376,472.908,10.51,526.167-1.25
								l-1.008-63.508c-216.287,43.125-462.07,11.067-534.988-0.259L1810.361,2072.526z"/>
						</g>
					</g>
				</g>
			</g>
			<g>
				<g>
					<g>
						<g>
							<g>
								<path style="fill:#FFFFFF;" d="M2798.654,1464.962L2798.654,1464.962c-8.43,0.85-15.952-5.295-16.802-13.725
									l-44.311-439.647c-0.85-8.43,5.295-15.952,13.725-16.801l0,0c88.435-8.913,167.352,55.552,176.265,143.987l15.11,149.921
									C2951.554,1377.132,2887.089,1456.049,2798.654,1464.962z"/>
							</g>
						</g>
					</g>
					<g>
						<g>
							<g>
								<path style="fill:#371A45;" d="M2797.08,1468.563c-4.333,0-8.499-1.48-11.897-4.255c-3.901-3.188-6.328-7.705-6.833-12.717
									l-44.312-439.646c-1.045-10.349,6.526-19.617,16.873-20.659c43.723-4.407,86.516,8.474,120.537,36.265
									c34.021,27.791,55.181,67.166,59.585,110.872l15.112,149.922c9.092,90.227-56.914,171.03-147.139,180.122l0,0
									C2798.362,1468.532,2797.717,1468.563,2797.08,1468.563z M2767.695,997.482c-5.334,0-10.698,0.268-16.077,0.81
									c-6.484,0.654-11.225,6.462-10.574,12.944l44.312,439.646c0.317,3.142,1.838,5.972,4.282,7.969
									c2.446,2,5.532,2.915,8.659,2.607l0,0c86.362-8.706,149.541-86.047,140.84-172.407l-15.112-149.922
									c-4.216-41.836-24.473-79.524-57.036-106.126C2838.613,1009.826,2803.85,997.482,2767.695,997.482z"/>
							</g>
						</g>
					</g>
				</g>
				<g style="opacity:0.35;">
					<g>
						<g>
							<g>
								<path style="fill:#371A45;" d="M2935.555,1218.396l7.102,70.313c8.899,88.406-55.559,167.337-144.01,176.285
									c-8.426,0.859-15.949-5.332-16.807-13.757l-11.818-116.871c2.903,5.089,8.608,8.231,14.8,7.656l10.423-1.08
									C2865.132,1333.914,2920.083,1283.12,2935.555,1218.396z"/>
							</g>
						</g>
					</g>
				</g>
				<g>
					<g>
						<g>
							<g>
								<path style="fill:#371A45;" d="M2797.051,1484.647c-8.027,0-15.745-2.739-22.043-7.886
									c-7.229-5.906-11.724-14.272-12.661-23.559l-44.311-439.646c-1.931-19.17,12.092-36.34,31.264-38.274
									c47.957-4.819,94.973,9.304,132.322,39.812c37.349,30.508,60.579,73.735,65.415,121.716l15.112,149.922
									c9.98,99.048-62.483,187.754-161.531,197.737l0,0C2799.424,1484.589,2798.232,1484.647,2797.051,1484.647z
									 M2796.702,1445.455c-0.005,0-0.01,0-0.015,0l0,0C2796.692,1445.455,2796.697,1445.455,2796.702,1445.455z
									 M2757.481,1013.93l43.445,431.035c75.354-9.868,129.88-78.184,122.21-154.302l-15.113-149.922
									c-3.784-37.561-21.97-71.399-51.206-95.281C2828.682,1022.477,2793.552,1011.356,2757.481,1013.93z"/>
							</g>
						</g>
					</g>
				</g>
				<g>
					<g>
						<g>
							<g>
								<path style="fill:#FFFFFF;" d="M1300.093,1141.05L1300.093,1141.05c8.43-0.85,15.952,5.295,16.802,13.725l44.311,439.647
									c0.85,8.43-5.295,15.952-13.725,16.801h0c-88.435,8.913-167.352-55.552-176.265-143.987l-15.11-149.921
									C1147.193,1228.879,1211.658,1149.963,1300.093,1141.05z"/>
							</g>
						</g>
					</g>
					<g>
						<g>
							<g>
								<path style="fill:#371A45;" d="M1331.038,1615.573c-37.776,0.002-74.092-12.893-103.738-37.112
									c-34.021-27.791-55.183-67.166-59.587-110.872l-15.11-149.922c-4.407-43.709,8.472-86.514,36.262-120.535
									c27.793-34.021,67.168-55.183,110.874-59.587l0,0c10.347-1.035,19.619,6.528,20.659,16.875l44.312,439.649
									c0.505,5.012-0.972,9.922-4.158,13.823c-3.188,3.901-7.705,6.328-12.717,6.833
									C1342.214,1615.292,1336.609,1615.573,1331.038,1615.573z M1300.093,1141.049l0.354,3.503
									c-41.836,4.219-79.526,24.473-106.125,57.036c-26.602,32.563-38.928,73.538-34.712,115.371l15.11,149.922
									c4.216,41.836,24.473,79.524,57.036,106.125c32.563,26.599,73.538,38.926,115.371,34.712
									c3.142-0.317,5.972-1.838,7.969-4.282c1.997-2.444,2.922-5.52,2.607-8.66l-44.312-439.649
									c-0.654-6.487-6.494-11.182-12.944-10.576L1300.093,1141.049z"/>
							</g>
						</g>
					</g>
				</g>
				<g style="opacity:0.35;">
					<g>
						<g>
							<g>
								<path style="fill:#371A45;" d="M1348.948,1472.451l12.279,121.968c0.859,8.426-5.332,15.949-13.757,16.808
									c-46.418,4.658-90.257-10.867-122.698-39.51c-29.296-25.866-49.298-62.469-53.536-104.456l-6.371-63.173
									c30.689,52.894,90.513,85.869,155.352,79.346l16.044-1.62C1342.116,1481.212,1346.769,1477.473,1348.948,1472.451z"/>
							</g>
						</g>
					</g>
				</g>
				<g>
					<g>
						<g>
							<g>
								<path style="fill:#371A45;" d="M1331.006,1631.659c-41.467,0-81.333-14.155-113.882-40.742
									c-37.346-30.508-60.579-73.735-65.415-121.716l-15.11-149.922c-4.836-47.981,9.304-94.973,39.812-132.322
									c30.508-37.346,73.735-60.579,121.716-65.415l0,0c19.148-1.921,36.343,12.095,38.274,31.267l44.312,439.648
									c0.935,9.287-1.802,18.381-7.708,25.61s-14.272,11.724-23.56,12.661C1343.279,1631.349,1337.124,1631.659,1331.006,1631.659
									z M1297.822,1161.044c-35.864,4.685-68.064,22.585-91.045,50.72c-23.884,29.236-34.951,66.023-31.164,103.584l15.11,149.922
									c7.671,76.116,74.729,132.171,150.542,126.812L1297.822,1161.044z"/>
							</g>
						</g>
					</g>
				</g>
				<g>
					<g>
						<g>
							<g>
								<circle style="fill:#FFFFFF;" cx="2049.465" cy="1302.997" r="752.99"/>
							</g>
						</g>
					</g>
					<g>
						<g>
							<g>
								<path style="fill:#371A45;" d="M2049.163,2059.513c-406.938,0-743.818-324.805-755.881-734.231
									c-5.952-201.985,67.107-394.199,205.723-541.233c138.616-147.031,326.194-231.284,528.176-237.236
									c416.987-12.38,766.179,316.938,778.469,733.899c12.285,416.961-316.941,766.182-733.904,778.469
									C2064.214,2059.403,2056.65,2059.513,2049.163,2059.513z M2049.763,553.524c-7.441,0-14.885,0.11-22.375,0.33
									c-200.103,5.896-385.933,89.365-523.257,235.029c-137.327,145.664-209.707,336.086-203.808,536.191
									c12.173,413.076,358.093,739.16,771.216,727.065c413.081-12.175,739.243-358.142,727.07-771.221
									C2786.656,875.331,2452.878,553.524,2049.763,553.524z"/>
							</g>
						</g>
					</g>
				</g>
				<g style="opacity:0.35;">
					<g>
						<g>
							<g>
								<path d="M2791.844,1176.841c5.796,33.891,9.248,68.599,10.298,103.983c12.192,415.674-314.838,762.574-730.508,774.862
									c-415.675,12.194-762.573-314.837-774.862-730.506c-0.36-11.953-0.435-23.926-0.209-35.724
									c61.539,364.894,384.229,637.718,764.564,626.523C2464.843,1904.051,2784.887,1576.51,2791.844,1176.841z"/>
							</g>
						</g>
					</g>
					<g>
						<g>
							<g>
								<path style="fill:#371A45;" d="M2049.258,2059.537c-406.946,0.015-743.901-324.844-756.006-734.253
									c-0.364-12.095-0.434-24.172-0.21-35.894c0.034-1.819,1.448-3.313,3.259-3.447c1.794-0.068,3.433,1.133,3.735,2.927
									c60.581,359.207,376.152,623.897,739.004,623.914c7.319,0,14.626-0.107,21.985-0.325
									c400.857-11.843,720.322-334.993,727.297-735.679c0.032-1.819,1.44-3.313,3.254-3.45c1.836-0.176,3.433,1.128,3.738,2.917
									c5.818,34.014,9.299,69.163,10.349,104.47c12.229,416.934-317.007,766.162-733.923,778.489
									C2064.233,2059.427,2056.719,2059.537,2049.258,2059.537z M1300.364,1327.379
									c13.408,411.963,358.865,736.965,771.169,724.788c413.035-12.212,739.204-358.188,727.09-771.24
									c-0.659-22.178-2.288-44.292-4.858-66.096c-12.117,180.491-87.986,349.517-215.984,479.456
									c-137.368,139.448-320.815,219.431-516.548,225.215c-183.708,5.422-362.746-56.045-504.18-173.037
									C1426.768,1638.698,1336.577,1490.993,1300.364,1327.379z"/>
							</g>
						</g>
					</g>
				</g>
				<g>
					<g>
						<g>
							<g>
								<path style="fill:#371A45;" d="M2800.291,1300.219c6.564,147.203-35.125,285.997-111.804,402.714
									c-57.487,87.504-302.727,247.096-613.602,263.76c-288.248,15.451-557.472-126.595-622.519-208.634
									c-86.764-109.429-140.643-243.961-147.207-391.164c-17.372-389.541,310.106-565.954,722.993-584.367
									C2441.038,764.116,2782.919,910.678,2800.291,1300.219z"/>
							</g>
						</g>
					</g>
				</g>
				<g>
					<g>
						<g>
							<g>
								<path style="fill:#371A45;" d="M2030.249,1987.487c-280.347,0.01-528.428-135.496-593.245-217.246
									c-92.529-116.697-144.893-255.869-151.431-402.471c-8.523-191.101,61.538-341.868,208.235-448.108
									c127.954-92.668,312.424-146.86,533.469-156.719c221.057-9.89,409.607,27.695,545.303,108.608
									c155.571,92.764,238.774,236.694,247.295,427.793c6.538,146.601-33.23,289.883-115.005,414.353
									c-56.711,86.33-299.419,254.91-628.936,272.573C2060.64,1987.089,2045.381,1987.484,2030.249,1987.487z M2095.637,800.607
									c-21.833,0-44.031,0.5-66.611,1.506c-213.367,9.517-390.491,61.145-512.219,149.304
									c-135.342,98.018-199.961,237.512-192.063,414.605c6.17,138.31,55.613,269.663,142.983,379.858
									c58.867,74.246,298.594,202.361,563.223,202.375c14.246,0.002,28.518-0.369,42.886-1.14
									c311.675-16.704,547-176.909,598.267-254.946c77.217-117.537,114.771-252.769,108.604-391.077
									c-7.898-177.095-84.678-310.281-228.206-395.864C2437.068,836.403,2280.103,800.607,2095.637,800.607z"/>
							</g>
						</g>
					</g>
				</g>
				<g>
					<g>
						<g>
							<g>
								<path style="fill:#371A45;" d="M2049.156,2075.597c-415.589,0-759.629-331.711-771.951-749.844
									c-6.079-206.277,68.535-402.576,210.098-552.737c141.563-150.159,333.128-236.201,539.407-242.28
									c425.84-12.505,782.466,323.679,795.017,749.502c0,0,0,0,0,0.002c12.546,425.823-323.679,782.466-749.505,795.017
									C2064.527,2075.485,2056.802,2075.597,2049.156,2075.597z M2049.756,569.606c-7.283,0-14.565,0.107-21.892,0.325
									c-195.811,5.769-377.654,87.446-512.031,229.983c-134.377,142.539-205.205,328.877-199.434,524.685
									c11.909,404.214,350.437,723.42,754.665,711.465c404.216-11.912,723.379-350.457,711.467-754.668
									C2770.835,884.508,2444.221,569.606,2049.756,569.606z"/>
							</g>
						</g>
					</g>
				</g>
				<g style="opacity:0.5;">
					<g>
						<g>
							<g>
								
									<ellipse transform="matrix(0.1343 -0.9909 0.9909 0.1343 965.137 3621.0166)" style="fill:#FFFFFF;" cx="2554.968" cy="1258.136" rx="133.255" ry="96.56"/>
							</g>
						</g>
					</g>
				</g>
				<g style="opacity:0.5;">
					<g>
						<g>
							<g>
								
									<ellipse transform="matrix(0.2699 -0.9629 0.9629 0.2699 317.2248 3472.5972)" style="fill:#FFFFFF;" cx="2448.559" cy="1527.11" rx="61.163" ry="52.487"/>
							</g>
						</g>
					</g>
				</g>
				<g>
					<g>
						<g>
							<g>
								<path style="fill:#220F2D;" d="M2638.687,943.297c95.277,83.13,154.596,200.448,161.594,356.901
									c6.567,147.233-35.151,286.019-111.773,402.737c-57.506,87.504-302.77,247.09-613.637,263.785
									c-109.765,5.914-216.737-11.051-310.778-38.88c381.693-28.667,680.371-224.437,751.66-332.966
									c97.329-148.136,150.23-324.313,141.874-511.1C2655.431,1033.849,2648.931,987.068,2638.687,943.297z"/>
							</g>
						</g>
					</g>
				</g>
				<g>
					<g>
						<g>
							<g>
								<path style="fill:#371A45;" d="M1346.651,1051.823c-4.185,0-8.403-1.336-11.973-4.094
									c-8.208-6.343-10.002-17.913-4.314-26.406c118.87-192.422,365.09-306.443,693.403-321.091
									c321.86-14.378,574.516,73.789,711.641,248.213c6.167,6.907,6.738,17.439,0.872,25.029
									c-6.621,8.567-18.933,10.149-27.5,3.525c-1.472-1.069-2.436-2.078-3.56-3.511
									c-128.943-164.741-370.339-247.883-679.704-234.087c-315.217,14.065-550.349,121.67-662.08,302.993
									c-0.261,0.425-0.539,0.84-0.835,1.245c-0.112,0.154-0.305,0.413-0.422,0.564
									C1358.316,1049.2,1352.515,1051.823,1346.651,1051.823z M1345.664,1031.442l1.001,0.774L1345.664,1031.442z"/>
							</g>
						</g>
					</g>
				</g>
				<g style="opacity:0.5;">
					<g>
						<g>
							<g>
								<path style="fill:#FFFFFF;" d="M1483.381,1591.145c0,0-137.785-378.903,62.489-541.276
									c200.274-162.372,498.264-175.043,492.148-155.623c0,0-326.304,94.568-443.742,361.103
									C1503.718,1460.881,1483.381,1591.145,1483.381,1591.145z"/>
							</g>
						</g>
					</g>
				</g>
			</g>
			<g style="opacity:0.3;">
				<g>
					<g>
						<g>
							<path style="fill:#371A45;" d="M1977.782,2854.351c-0.777,17.185-1.594,36.74-2.488,58.279
								c-124.605-1.827-225.417-14.073-297.459-26.554c-10.925-1.866-21.189-3.771-30.753-5.638
								c-13.024,15.707-29.431,27.37-47.509,34.641c-4.821-15.318-9.408-31.414-13.685-48.21
								c-5.016-19.594-9.642-40.2-13.724-61.855c-5.637-1.516-10.147-2.799-13.491-3.771c-4.86-1.4-7.348-2.216-7.348-2.216
								l9.175-70.098c-2.254-19.089-4.121-38.878-5.481-59.329l12.83,3.149l76.435-583.333l212.704-16.523
								c13.141,21.656,26.904,28.654,44.866,77.874c19.517,53.419,50.62,114.536,45.488,195.131
								c-11.119,174.409-106.06,264.724-193.109,372.69c-27.176,33.629-53.575,69.009-76.396,109.171
								C1750.343,2840.316,1852.049,2852.641,1977.782,2854.351z"/>
						</g>
					</g>
				</g>
			</g>
			<g>
				<g>
					<g>
						<g>
							<path style="fill:#5F5272;" d="M1904.574,2307.02c-15.396,241.475-191.477,321.797-284.901,510.825
								c-35.224,71.186-128.455,89.459-188.716,37.712c-14.385-12.325-28.887-23.716-43.077-33.358
								c-93.386-63.372-170.987-52.486-287.234-95.252c-2.255-0.816-4.432-1.827-6.61-2.838
								c-39.267-17.884-59.095-54.313-60.028-91.365c-1.011-40.317,20.372-81.45,63.372-100.345
								c115.819-50.931,272.927-129.66,347.146-209.555c18.933-20.372,32.502-40.783,38.606-60.845
								c37.401-123.128-17.029-262.702-39.656-312.428c-3.227-7.115,3.382-14.579,10.847-12.324
								c91.675,27.448,180.28,22.316,238.403,13.257c52.214-8.164,104.545,14.113,134.754,57.463
								c23.482,33.746,47.781,79.584,62.944,138.329c2.061,7.931,3.966,16.096,5.637,24.533
								C1904.108,2210.795,1907.801,2256.128,1904.574,2307.02z"/>
						</g>
					</g>
				</g>
			</g>
			<g style="opacity:0.3;">
				<g>
					<g>
						<g>
							<path style="fill:#FFFFFF;" d="M1896.06,2170.829c-20.411,16.795-60.378,39.656-137.435,59.562
								c-55.674,14.385-59.445,45.022-59.445,45.022s-21.967-57.813,14.307-68.193c44.71-12.83,104.583-17.846,131.448-36.585
								c11.391-7.97,29.12-16.873,45.488-24.338C1892.483,2154.228,1894.388,2162.392,1896.06,2170.829z"/>
						</g>
					</g>
				</g>
			</g>
			<g style="opacity:0.3;">
				<g>
					<g>
						<g>
							<path style="fill:#371A45;" d="M1538.689,2319.422c0,0-57.891,120.756-303.058,207.845
								c-113.409,40.278-174.914,72.158-201.624,105.477c-1.011-40.317,20.372-81.45,63.372-100.345
								c115.819-50.931,272.927-129.66,347.146-209.555L1538.689,2319.422z"/>
						</g>
					</g>
				</g>
			</g>
			<g style="opacity:0.3;">
				<g>
					<g>
						<g>
							<path style="fill:#FFFFFF;" d="M1840.853,2028.495c-32.58-33.553-79.857-49.726-127.055-42.378
								c-61.311,9.603-154.814,14.968-251.505-13.996c-3.226-0.972-6.259-0.233-8.553,1.477
								c-3.771-9.408-7.309-17.495-10.264-24.027c-3.227-7.115,3.382-14.579,10.847-12.324
								c91.675,27.448,180.28,22.316,238.403,13.257c52.214-8.164,104.545,14.113,134.754,57.463
								C1831.949,2014.381,1836.42,2021.224,1840.853,2028.495z"/>
						</g>
					</g>
				</g>
			</g>
			<g>
				<g>
					<g>
						<g>
							<path style="fill:#371A45;" d="M1510.466,2900.751c-32.637,0-64.248-11.575-89.648-33.374v-0.002
								c-14.827-12.725-28.848-23.594-41.677-32.3c-54.458-36.963-103.452-47.537-160.183-59.78
								c-36.243-7.822-77.322-16.687-123.669-33.733c-2.478-0.911-4.893-1.997-7.307-3.098
								c-43.374-19.761-69.873-61.555-69.558-109.255c0.325-48.933,28.174-91.489,72.683-111.062
								c221.748-97.515,355.681-190.083,377.127-260.652c35.532-116.912-15.374-249.785-38.909-301.487
								c-4.043-8.875-2.583-18.948,3.813-26.284c6.428-7.373,16.252-10.217,25.662-7.39
								c89.441,26.787,176.125,21.614,233.086,12.551c56.409-8.955,114.255,15.681,147.383,62.803
								c42.078,59.854,90.256,162.278,80.823,310.313c-10.02,157.207-84.407,246.467-163.162,340.969
								c-44.033,52.839-89.568,107.476-123.323,175.752c-18.794,38.013-53.484,64.69-95.181,73.193
								C1529.104,2899.816,1519.744,2900.751,1510.466,2900.751z M1441.077,2843.773c25.278,21.699,58.501,30.325,91.133,23.665
								c32.217-6.57,59.011-27.163,73.516-56.501c35.386-71.577,82.119-127.651,127.31-181.88
								c75.413-90.491,146.643-175.962,156.016-323.035c8.857-139.014-36.018-234.675-75.227-290.449
								c-26.348-37.478-72.327-57.08-117.051-49.971c-57.329,9.119-143.279,14.475-233.491-9.673
								c26.47,61.895,70.615,192.471,34.712,310.608c-30.923,101.75-231.526,208.472-394.368,280.081
								c-33.13,14.568-53.86,46.294-54.099,82.798c-0.237,35.801,18.808,65.918,50.947,80.559c2.122,0.969,3.811,1.758,5.552,2.397
								c44.299,16.292,82.527,24.541,119.495,32.52c57.407,12.39,111.631,24.092,171.086,64.446
								c13.797,9.365,28.757,20.95,44.47,34.438V2843.773z"/>
						</g>
					</g>
				</g>
			</g>
			<g>
				<g>
					<g>
						<g>
							<path style="fill:#5F5272;" d="M1535.172,2322.221c-366.568,53.848-506.923-323.845-506.923-323.845l362.325-79.13
								c0,0,56.199,92.809,173.229,125.118"/>
						</g>
					</g>
				</g>
			</g>
			<g style="opacity:0.3;">
				<g>
					<g>
						<g>
							<path style="fill:#FFFFFF;" d="M1563.804,2044.357l-2.955,28.498c-132.731-28.537-210.994-117.841-229.228-140.74
								l58.94-12.869C1390.562,1919.246,1446.78,2012.049,1563.804,2044.357z"/>
						</g>
					</g>
				</g>
			</g>
			<g style="opacity:0.3;">
				<g>
					<g>
						<g>
							<path style="fill:#371A45;" d="M1535.189,2322.221L1535.189,2322.221c-366.585,53.847-506.936-323.858-506.936-323.858
								l84.133-18.389c38.11,78.49,155.828,275.375,384.405,295.374C1520.399,2277.414,1537.62,2298.647,1535.189,2322.221z"/>
						</g>
					</g>
				</g>
			</g>
			<g>
				<g>
					<g>
						<g>
							<path style="fill:#371A45;" d="M1535.925,2327.351c-6.481,3-13.141,5.374-19.88,7.446
								c-6.734,2.139-13.533,4.155-20.472,5.085c-6.92,1.099-13.885,2.068-20.876,2.734c-3.491,0.461-6.995,0.601-10.51,0.598
								l-10.544,0.166c-28.181,0.732-56.298-4.036-83.688-10.4l-20.477-5.249c-6.761-1.965-13.422-4.28-20.153-6.35
								c-3.34-1.113-6.754-2.019-10.03-3.306l-9.836-3.848c-6.509-2.676-13.228-4.875-19.517-8.049l-19.114-8.958l-18.517-10.093
								c-6.269-3.208-12.026-7.251-18.037-10.881l-8.927-5.588l-8.601-6.052c-46.215-31.938-85.834-72.236-119.666-116.289
								c-16.899-22.087-32.306-45.247-46.302-69.229c-6.895-12.053-13.629-24.197-19.773-36.689c-3.1-6.23-6.113-12.51-8.99-18.887
								c-2.917-6.458-5.613-12.607-8.344-19.719l-6.431-16.748l17.69-3.865l362.324-79.128l10.546-2.302l6.075,9.441
								c1.88,2.922,4.438,6.682,6.959,9.998c2.488,3.438,5.234,6.763,7.901,10.122c5.514,6.616,11.287,13.059,17.347,19.236
								c12.117,12.346,25.183,23.848,39.349,33.76c14.198,9.922,29.576,17.737,44.639,25.959
								c14.985,8.691,30.248,16.14,45.11,29.102l0.259,0.225c2.327,2.031,2.569,5.564,0.539,7.891
								c-0.947,1.086-2.231,1.719-3.558,1.877c-19.872,2.351-39.177-1.887-56.636-9.702c-8.948-3.535-17.167-8.525-25.366-13.459
								c-4.046-2.556-7.881-5.432-11.819-8.132l-5.88-4.087l-5.672-4.36c-7.72-5.603-15.068-11.653-22.398-17.732l-10.585-9.583
								c-3.501-3.223-6.797-6.665-10.2-9.99c-6.667-6.797-13.036-13.896-19.153-21.248c-2.989-3.752-6.024-7.444-8.871-11.365
								c-2.957-3.938-5.56-7.666-8.572-12.4l16.62,7.136l-362.324,79.131l11.259-20.61c2.131,5.552,4.851,11.841,7.529,17.737
								c2.699,5.986,5.555,11.936,8.495,17.847c5.826,11.855,12.258,23.44,18.826,34.929c13.349,22.869,28.048,44.961,44.113,65.955
								c32.164,41.882,69.604,79.883,112.755,109.673c42.876,30.01,91.219,52.214,142.31,62.813
								c25.614,4.846,51.509,7.637,77.603,8.845c13.043,1.306,26.127,0.859,39.384,2.017c13.276,1.121,26.604,1.304,40.579,4.319
								l0.376,0.081c2.915,0.63,4.768,3.501,4.139,6.416C1538.564,2325.3,1537.395,2326.658,1535.925,2327.351z"/>
						</g>
					</g>
				</g>
			</g>
			<g>
				<g>
					<g>
						<g>
							<path style="fill:#371A45;" d="M1687.952,2725.221c-1.555,0-3.137-0.237-4.7-0.73c-8.188-2.593-12.725-11.333-10.132-19.521
								c68.12-215.164,34.648-338.45,14.648-412.109c-10.142-37.354-16.841-62.031-4.204-81.421
								c8.147-12.5,22.393-19.683,46.191-23.293c120.498-18.279,143.657-59.053,143.877-59.46c3.596-7.8,12.737-10.999,20.535-7.402
								s11.106,13.042,7.507,20.842c-2.607,5.657-29.465,55.869-167.256,76.772c-13.496,2.046-22.07,5.339-24.797,9.524
								c-5.024,7.71,1.086,30.222,8.164,56.289c19.524,71.912,55.867,205.767-15.012,429.648
								C1700.674,2720.985,1694.551,2725.221,1687.952,2725.221z"/>
						</g>
					</g>
				</g>
			</g>
			<g>
				<g>
					<g>
						<g>
							<path style="fill:#FFFFFF;" d="M1513.324,2486.334c-33.884,21.966-104.553,61.238-217.79,94.235
								c-14.876,4.335-23.018,20.333-17.947,34.975l12.37,35.714c4.55,13.137,18.276,20.795,31.809,17.607
								c36.062-8.495,113.586-32.21,239.499-96.901c13.601-6.988,18.848-23.755,11.562-37.198l-20.877-38.519
								C1544.403,2482.322,1526.616,2477.718,1513.324,2486.334z"/>
						</g>
					</g>
				</g>
			</g>
			<g style="opacity:0.3;">
				<g>
					<g>
						<g>
							<path style="fill:#371A45;" d="M1561.277,2571.977c-125.927,64.693-203.451,88.41-239.492,96.885
								c-13.568,3.188-27.293-4.471-31.841-17.612l-12.364-35.69c-5.054-14.657,3.071-30.637,17.962-34.99
								c4.432-1.283,8.825-2.605,13.141-3.927l11.002,31.841c4.549,13.102,18.273,20.761,31.802,17.573
								c34.408-8.087,106.644-30.092,222.696-88.371C1579.356,2550.555,1573.913,2565.484,1561.277,2571.977z"/>
						</g>
					</g>
				</g>
			</g>
			<g>
				<g>
					<g>
						<g>
							<path style="fill:#371A45;" d="M1315.503,2685.15c-17.81,0-34.148-11.216-40.239-28.801l-12.371-35.715
								c-3.821-11.03-2.937-23.306,2.422-33.677c5.405-10.461,14.592-18.032,25.869-21.318
								c112.561-32.8,182.192-71.941,213.682-92.354l0,0c9.934-6.445,22.212-8.472,33.706-5.532
								c11.521,2.935,21.382,10.62,27.051,21.084l20.877,38.521c5.522,10.183,6.68,21.892,3.257,32.964
								c-3.433,11.108-11.025,20.156-21.382,25.476c-128.074,65.801-207.246,89.773-243.04,98.206
								C1322.043,2684.777,1318.748,2685.15,1315.503,2685.15z M1521.785,2499.384c-32.92,21.34-105.522,62.205-221.9,96.116
								c-3.017,0.881-5.483,2.917-6.938,5.737c-1.489,2.881-1.726,6.155-0.664,9.216l12.371,35.715
								c1.963,5.667,7.793,8.914,13.55,7.561c34.411-8.108,110.825-31.309,235.957-95.598c2.852-1.465,4.939-3.948,5.879-6.995
								c0.93-3.008,0.618-6.191-0.884-8.958l-20.876-38.523c-1.575-2.905-4.199-4.951-7.388-5.764
								C1527.739,2497.091,1524.509,2497.621,1521.785,2499.384L1521.785,2499.384z"/>
						</g>
					</g>
				</g>
			</g>
			<g style="opacity:0.3;">
				<g>
					<g>
						<g>
							<path style="fill:#371A45;" d="M2623.36,2773.834c-2.527,0.661-5.094,1.322-7.62,1.944
								c-40.551,10.38-80.246,19.517-119.085,27.526c-4.044,21.383-8.553,41.717-13.452,61.078
								c-8.592,33.785-18.312,64.499-28.576,92.297l-49.998,8.475c-61.934,10.458-119.979-17.34-154.542-65.083
								c-8.904,0.933-17.768,1.827-26.554,2.644c-45.41,4.277-88.915,7.037-130.438,8.592c-0.894-21.577-1.71-41.133-2.488-58.24
								c42.261-1.516,86.621-4.316,132.925-8.67c-4.782-17.69-6.882-36.624-5.754-56.258c0.855-14.502,1.4-29.936,1.71-46.265
								c1.439-79.74-4.043-181.874-21.966-311.883c-32.891-238.598,42.416-313.361,85.883-378.444
								c4.51-6.726,9.253-13.024,14.269-18.817l222.851-19.323L2623.36,2773.834z"/>
						</g>
					</g>
				</g>
			</g>
			<g>
				<g>
					<g>
						<g>
							<path style="fill:#5F5272;" d="M2698.279,2876.706l-246.995,41.794c-101.706,17.185-193.032-68.854-186.85-177.014
								c4.86-85.299,1.322-201.468-20.256-358.148c-32.891-238.598,32.23-315.032,75.696-380.076
								c30.83-46.149,83.822-70.215,136.735-61.35c60.068,10.031,152.521,15.979,248.201-14.152
								c7.698-2.449,14.579,5.715,11.236,13.413c-13.53,31.258-25.194,93.114-32.619,166.749
								c-5.404,53.847-8.514,114.031-8.397,173.165c0.349,176.042,56.568,336.882,104.777,442.554
								c2.333,5.093,4.238,10.264,5.676,15.474C2803.056,2800.427,2763.517,2865.665,2698.279,2876.706z"/>
						</g>
					</g>
				</g>
			</g>
			<g style="opacity:0.3;">
				<g>
					<g>
						<g>
							<path style="fill:#FFFFFF;" d="M2254.274,2125.39c0,0,8.849,40.397,92.695,65.419c83.846,25.021,101.676,6.597,93.355,49.091
								c-8.321,42.494-27.636,66.267-27.636,66.267s8.023-60.026-12.778-68.05c-20.801-8.023-117.875-11.769-154.672-64.038
								C2232.164,2155.507,2254.274,2125.39,2254.274,2125.39z"/>
						</g>
					</g>
				</g>
			</g>
			<g style="opacity:0.3;">
				<g>
					<g>
						<g>
							<path style="fill:#FFFFFF;" d="M2704.227,1977.992c-97.896,26.787-191.01,20.45-252.749,10.108
								c-57.813-9.681-115.703,16.64-149.333,66.988c-16.29,24.377-35.379,50.27-51.98,84.25
								c17.379-63.684,46.576-101.473,69.709-136.075c30.83-46.149,83.822-70.215,136.735-61.35
								c60.068,10.031,152.521,15.979,248.201-14.152c7.698-2.449,14.579,5.715,11.236,13.413
								C2711.886,1950.738,2707.921,1963.218,2704.227,1977.992z"/>
						</g>
					</g>
				</g>
			</g>
			<g>
				<g>
					<g>
						<g>
							<path style="fill:#371A45;" d="M2425.483,2936.205c-41.924,0-82.717-15.562-115.103-44.548
								c-42.375-37.932-64.783-92.988-61.472-151.055c5.589-98.035-1.189-217.522-20.146-355.139
								c-31.638-229.651,27.048-315.754,69.9-378.625c2.823-4.143,5.591-8.203,8.277-12.222
								c34.145-51.094,93.921-77.791,152.231-68.047c58.889,9.856,148.499,15.479,240.955-13.648
								c9.309-2.935,19.182-0.232,25.754,7.056c6.68,7.407,8.416,18.149,4.427,27.371c-22.53,52.058-39.973,198.65-39.715,333.728
								c0.334,173.921,56.399,333.167,103.372,436.13c16.165,35.43,14.946,75.522-3.337,110.002
								c-18.381,34.661-51.101,58.291-89.771,64.832l-246.985,41.777C2444.409,2935.416,2434.915,2936.205,2425.483,2936.205z
								 M2451.277,2918.483h0.049H2451.277z M2435.178,1955.682c-39.973,0-78.73,20.825-102.38,56.213
								c-2.737,4.097-5.559,8.235-8.435,12.458c-42.231,61.963-94.792,139.077-64.79,356.865
								c19.231,139.604,26.091,261.113,20.391,361.152c-2.771,48.562,15.879,94.526,51.162,126.108
								c32.576,29.16,75.427,41.794,117.559,34.668l246.985-41.777c29.065-4.915,53.66-22.678,67.478-48.735
								c13.721-25.876,14.638-55.952,2.519-82.52c-48.247-105.757-105.833-269.497-106.179-448.982
								c-0.254-132.49,15.771-271.851,37.92-334.924c-93.989,26.87-183.674,21.025-243.369,11.035
								C2447.756,1956.195,2441.453,1955.682,2435.178,1955.682z"/>
						</g>
					</g>
				</g>
			</g>
			<g>
				<g>
					<g>
						<g>
							<path style="fill:#FFFFFF;" d="M2591.982,2484.351c11.609,39.799,45.75,145.083,99.727,213.899
								c7.408,9.444,2.813,23.336-8.806,26.351l-70.16,18.207c-5.011,1.301-10.365,0.234-14.407-3.001
								c-20.142-16.119-78.926-75.28-101.718-230.102c-1.214-8.245,3.801-16.159,11.807-18.473l63.009-18.209
								C2580.238,2470.48,2589.417,2475.556,2591.982,2484.351z"/>
						</g>
					</g>
				</g>
			</g>
			<g style="opacity:0.3;">
				<g>
					<g>
						<g>
							<path style="fill:#371A45;" d="M2785.483,2739.116c-42.922,12.985-97.002,15.512-162.707,4.237l-54.508-196.22
								c0,0,125.344-38.84,70.214-147.699l24.26-315.732c0,0,7.815,8.709,20.684,24.221c-5.404,53.847-8.514,114.031-8.397,173.165
								c0.349,176.042,56.568,336.882,104.777,442.554C2782.14,2728.735,2784.045,2733.906,2785.483,2739.116z"/>
						</g>
					</g>
				</g>
			</g>
			<g>
				<g>
					<g>
						<g>
							<path style="fill:#5F5272;" d="M2624.494,2358.754c55.119,108.859-56.244,141.735-56.244,141.735l90.553,209.791
								c198.167-21.56,291.157-119.8,239.146-286.282c-59.858-191.601-235.209-386.959-235.209-386.959L2624.494,2358.754z"/>
						</g>
					</g>
				</g>
			</g>
			<g style="opacity:0.3;">
				<g>
					<g>
						<g>
							<path style="fill:#371A45;" d="M2658.817,2710.268l-36.04-83.472c192.099-33.668,278.992-141.517,224.484-315.888
								c-1.944-6.259-4.004-12.48-6.181-18.739c22.782,42.494,42.96,87.244,56.879,131.837
								C2949.978,2590.483,2856.981,2688.729,2658.817,2710.268z"/>
						</g>
					</g>
				</g>
			</g>
			<g>
				<g>
					<g>
						<g>
							<path style="fill:#371A45;" d="M2629.119,2356.414c10.967,11.521,18.789,25.977,23.14,42.322
								c4.339,16.274,3.496,35.039-2.961,51.973c-6.482,16.97-18.234,31.252-31.678,41.648c-6.718,5.278-13.888,9.7-21.258,13.557
								c-3.713,1.88-7.45,3.679-11.304,5.264l-5.847,2.317c-2.09,0.771-3.765,1.389-6.47,2.202l10.067-21.489
								c7.305,17.588,14.751,35.112,22.359,52.568l22.639,52.446l45.276,104.895l-15.959-9.297
								c36.375-4.143,72.49-10.786,106.41-22.698c33.799-11.797,65.765-28.826,89.925-53.284
								c11.959-12.258,21.807-26.267,28.972-41.597c7.238-15.308,11.331-32.051,13.138-49.17
								c3.506-34.417-2.875-70.098-14.181-104.365l-9.017-25.901c-3.018-8.63-6.894-17.004-10.294-25.52l-5.264-12.727
								l-5.862-12.507c-3.976-8.313-7.782-16.697-11.89-24.951c-16.74-32.91-35.272-64.993-54.971-96.411
								c-20.058-31.204-41.029-61.895-63.415-91.558c-5.771-7.285-11.534-14.573-17.53-21.672
								c-5.917-7.161-11.492-14.583-17.018-22.046c-10.791-15.149-20.924-30.798-27.243-49.912l-0.051-0.156
								c-0.969-2.93,0.621-6.089,3.551-7.058c1.441-0.476,2.952-0.327,4.216,0.291c18.463,9.063,32.339,22.268,44.945,36.453
								c12.702,14.133,23.281,29.934,34.263,45.369c22.428,30.535,44.115,61.636,64.546,93.628
								c20.171,32.166,39.21,65.11,56.498,99.106c4.249,8.538,8.21,17.241,12.326,25.857l6.074,12.976l5.502,13.276
								c3.56,8.901,7.564,17.595,10.75,26.67l9.49,27.258c12.073,36.765,19.603,76.604,15.514,117.095
								c-2.109,20.137-7.048,40.374-15.849,59.041c-8.704,18.684-20.76,35.759-35.019,50.337
								c-28.842,29.126-65.087,47.966-101.857,60.845c-36.981,12.959-75.183,19.902-113.294,24.253l-11.387,1.301l-4.574-10.598
								l-45.276-104.895l-22.638-52.446c-7.484-17.51-15.13-34.949-22.917-52.329l-7.101-15.845l17.168-5.645
								c0.843-0.276,2.654-0.94,4.028-1.497c1.482-0.586,2.973-1.233,4.446-1.919c2.963-1.36,5.854-2.913,8.704-4.497
								c5.662-3.245,10.982-6.948,15.839-10.967c9.698-8.096,17.395-17.48,22.134-28.081c2.457-5.271,4.136-10.913,4.967-16.863
								c1.015-5.918,1.385-12.148,1.131-18.633c-0.131-13.035-2.685-26.809-5.141-41.731l-0.012-0.073
								c-0.485-2.949,1.512-5.732,4.462-6.218C2626.142,2354.504,2627.925,2355.178,2629.119,2356.414z"/>
						</g>
					</g>
				</g>
			</g>
			<g>
				<g>
					<g>
						<g>
							<path style="fill:#FFFFFF;" d="M2591.982,2484.351c11.609,39.799,45.75,145.083,99.727,213.899
								c7.408,9.444,2.813,23.336-8.806,26.351l-70.16,18.207c-5.011,1.301-10.365,0.234-14.407-3.001
								c-20.142-16.119-78.926-75.28-101.718-230.102c-1.214-8.245,3.801-16.159,11.807-18.473l63.009-18.209
								C2580.238,2470.48,2589.417,2475.556,2591.982,2484.351z"/>
						</g>
					</g>
				</g>
			</g>
			<g style="opacity:0.3;">
				<g>
					<g>
						<g>
							<path style="fill:#371A45;" d="M2682.922,2724.614l-70.175,18.195c-5.016,1.283-10.381,0.233-14.424-2.994
								c-20.139-16.135-78.923-75.308-101.706-230.122c-1.205-8.243,3.81-16.135,11.819-18.467l2.449-0.7
								c25.932,128.143,76.979,179.23,95.485,194.004c4.043,3.266,9.37,4.315,14.385,3.033l53.419-13.88
								c5.599,8.553,11.43,16.796,17.534,24.571C2699.134,2707.702,2694.507,2721.582,2682.922,2724.614z"/>
						</g>
					</g>
				</g>
			</g>
			<g>
				<g>
					<g>
						<g>
							<path style="fill:#371A45;" d="M2608.577,2758.888c-7.202,0-14.29-2.405-19.956-6.936
								c-24.561-19.658-84.187-82.39-107.385-239.98c-2.344-15.891,7.49-31.233,22.874-35.679l63.01-18.208
								c16.97-4.915,34.837,4.922,39.792,21.912l0,0c11.861,40.664,45.061,142.395,97.034,208.657
								c6.748,8.601,8.696,19.902,5.208,30.229c-3.472,10.276-11.826,18.042-22.344,20.771l-70.159,18.208
								C2613.989,2758.551,2611.274,2758.888,2608.577,2758.888z M2576.042,2487.924c-0.095,0-0.193,0.012-0.291,0.039
								l-63.008,18.208c-0.505,0.146-0.823,0.691-0.737,1.267c22.195,150.781,79.128,206.687,96.047,220.229
								c0.164,0.129,0.481,0.161,0.789,0.088l70.154-18.208c0.21-0.054,0.525-0.134,0.688-0.62c0.19-0.564-0.081-0.911-0.21-1.077
								c-55.32-70.525-90.056-176.748-102.422-219.143C2576.914,2488.229,2576.499,2487.924,2576.042,2487.924z"/>
						</g>
					</g>
				</g>
			</g>
			<g>
				<g>
					<g>
						<g>
							<path style="fill:#371A45;" d="M2265.181,2742.614c-0.652,0-1.308-0.042-1.97-0.125c-8.521-1.079-14.556-8.86-13.479-17.38
								c22.041-174.326,89.917-304.417,134.834-390.503c24.766-47.466,48.159-92.302,40.864-106.672
								c-2.7-5.322-12.578-7.852-20.386-9.036c-137.703-20.889-164.763-70.369-167.397-75.94
								c-3.667-7.766-0.347-17.036,7.419-20.706c7.632-3.604,16.729-0.452,20.52,7.041c0.876,1.492,25.278,40.825,144.121,58.853
								c22.168,3.362,36.384,11.772,43.457,25.71c14.539,28.645-6.375,68.728-41.025,135.139
								c-43.887,84.114-110.21,211.228-131.548,380.015C2279.597,2736.869,2272.9,2742.614,2265.181,2742.614z"/>
						</g>
					</g>
				</g>
			</g>
			<g>
				<g>
					<g>
						<g>
							<path style="fill:#FFFFFF;" d="M1295.149,1839.697c9.78,21.784,32.409,90.871,6.99,118.832
								c-25.419,27.96-157.595,88.965-219.235,44.996c-41.917-29.9-67.007-84.844-48.454-132.213
								C1064.317,1795.056,1253.208,1746.284,1295.149,1839.697z"/>
						</g>
					</g>
				</g>
			</g>
			<g style="opacity:0.3;">
				<g>
					<g>
						<g>
							<path style="fill:#371A45;" d="M1302.152,1958.513c-25.427,27.992-157.613,88.992-219.235,45.021
								c-39.656-28.304-64.305-79.04-51.087-124.566c7.504,28.381,26.36,54.74,51.087,72.352
								c61.622,43.972,193.809-17.028,219.235-44.982c3.966-4.393,6.765-9.759,8.592-15.784
								C1315.565,1915.864,1315.993,1943.273,1302.152,1958.513z"/>
						</g>
					</g>
				</g>
			</g>
			<g>
				<g>
					<g>
						<g>
							<path style="fill:#371A45;" d="M1139.741,2034.364c-24.619,0-47.654-5.186-65.869-18.179
								c-43.84-31.272-76.433-93.025-53.901-150.545c21.604-55.163,106.247-91.045,172.28-92.654
								c56.55-1.34,99.248,20.613,117.085,60.339l0,0c0.422,0.94,41.763,94.463,4.309,135.664
								C1292.141,1992.648,1209.568,2034.364,1139.741,2034.364z M1197.146,1804.032c-1.428,0-2.808,0.017-4.136,0.049
								c-62.136,1.514-129.463,35.581-144.08,72.903c-16.724,42.695,8.975,89.607,43.003,113.88
								c52.219,37.256,174.504-16.179,198.699-42.795c17.087-18.799,2.134-75.711-9.67-102.002l0,0
								C1264.797,1810.065,1223.181,1804.032,1197.146,1804.032z"/>
						</g>
					</g>
				</g>
			</g>
			<g>
				<g>
					<g>
						<g>
							<path style="fill:#FFFFFF;" d="M1600.467,3184.021c-153.778,30.332-176.114,148.699-162.24,190.157
								c21.362,63.835,160.091,81.687,325.742,62.544c223.144-25.787,231.932-104.07,231.932-104.07
								c3.805-32.167-7.45-113.987-14.467-159.728c-2.68-17.469-19.342-29.199-36.692-25.831
								c-32.185,6.248-82.222,15.256-116.968,18.174c-5.807,0.488-9.906-5.521-7.26-10.713c7.37-14.458,16.639-39.883,5.497-61.709
								c-20.909-40.961-139.85-24.679-149.448,0C1666.964,3117.524,1675.191,3169.282,1600.467,3184.021z"/>
						</g>
					</g>
				</g>
			</g>
			<g>
				<g>
					<g>
						<g>
							<path style="fill:#371A45;" d="M1644.846,3459.708c-123.701,0.005-203.84-28.22-221.367-80.596
								c-8.286-24.761-5.774-68.455,18.518-110.247c20.801-35.779,64.653-82.19,155.459-100.1
								c49.231-9.712,54.37-35.769,59.339-60.964c1.448-7.341,2.815-14.275,5.273-20.596c11.667-30,78.633-34.238,86.23-34.622
								c21.873-1.121,74.573-0.09,91.563,33.188c9.002,17.634,9.05,39.495,0.364,62.625c31.826-3.616,71.812-10.796,101.553-16.57
								c12.578-2.449,25.283,0.276,35.762,7.649c10.479,7.378,17.322,18.418,19.265,31.089
								c8.74,56.97,18.354,131.653,14.539,163.914c-1.03,9.18-16.763,91.25-245.591,117.693
								C1721.968,3457.23,1681.487,3459.708,1644.846,3459.708z M1690.85,3099.03c-1.362,3.748-2.422,9.119-3.54,14.79
								c-5.288,26.821-14.143,71.711-83.833,85.459l0,0c-79.399,15.662-117.014,54.988-134.59,85.22
								c-20.613,35.464-20.811,70.11-15.911,84.744c16.907,50.542,141.172,71.453,309.207,52.031
								c199.675-23.074,217.59-87.732,218.31-90.781c2.515-22.527-2.739-78.987-14.431-155.21c-0.649-4.229-2.932-7.91-6.428-10.371
								c-3.494-2.458-7.737-3.359-11.929-2.551c-34.971,6.79-83.938,15.491-118.63,18.406c-8.313,0.701-16.384-3.164-21.033-10.083
								c-4.631-6.897-5.161-15.781-1.384-23.191c5.557-10.903,13.665-31.584,5.5-47.578c-4.165-8.162-18.909-14.114-39.436-15.92
								C1734.961,3080.665,1696.992,3091.796,1690.85,3099.03z M1600.466,3184.022h0.049H1600.466z"/>
						</g>
					</g>
				</g>
			</g>
			<g>
				<g>
					<g>
						<g>
							<path style="fill:#5F5272;" d="M1438.211,3319.735c20.594,61.456,149.782,80.33,307.094,64.525
								c6.183-0.558,12.366-1.255,18.641-1.953c223.185-25.801,231.971-104.084,231.971-104.084
								c3.765-32.169-7.484-113.987-14.504-159.73c-2.65-17.479-19.338-29.194-36.678-25.846
								c-32.17,6.276-82.236,15.294-116.963,18.177c-5.811,0.511-9.901-5.486-7.252-10.692c7.345-14.458,16.642-39.886,5.486-61.735
								c-20.919-40.956-162.273-23.851-171.895,0.787c-9.576,24.685,21.091,75.684-53.661,90.421
								c-74.566,14.69-118.217,50.113-141.833,87.397C1433.516,3256.652,1431.098,3298.397,1438.211,3319.735z"/>
						</g>
					</g>
				</g>
			</g>
			<g>
				<g>
					<g>
						<g>
							<path style="fill:#FFFFFF;" d="M1438.211,3319.735c20.594,61.456,149.782,80.33,307.094,64.525
								c-12.086-64.944-57.923-221.559-253.402-176.42c-11.761,2.743-22.871,5.811-33.284,9.159
								C1433.516,3256.652,1431.098,3298.397,1438.211,3319.735z"/>
						</g>
					</g>
				</g>
			</g>
			<g style="opacity:0.5;">
				<g>
					<g>
						<g>
							<g>
								<path style="fill:#FFFFFF;" d="M1831.091,3057.486c-35.935-25.289-137.458-21.937-145.965-0.042
									c-9.576,24.685,5.806,88.322-68.945,103.058c-143.878,28.403-172.654,133.836-164.425,181.254
									c-6.276-6.601-10.832-13.946-13.528-21.989c-13.853-41.467,8.461-159.823,162.24-190.18
									c74.705-14.736,44.021-65.721,53.644-90.406c9.576-24.685,150.993-41.711,171.912-0.755
									C1829.185,3044.563,1830.673,3051.071,1831.091,3057.486z"/>
							</g>
						</g>
					</g>
				</g>
			</g>
			<g style="opacity:0.3;">
				<g>
					<g>
						<g>
							<path style="fill:#371A45;" d="M1995.888,3278.208c0,0-8.786,78.284-231.924,104.085
								c-165.634,19.153-304.398,1.302-325.736-62.525c-2.324-6.927-3.626-15.945-3.44-26.359
								c57.318,28.451,163.263,34.029,283.339,20.129c223.139-25.801,231.925-104.085,231.925-104.085
								c2.789-23.429-2.417-73.217-8.182-116.218c0.976-0.186,1.953-0.372,2.882-0.558c17.34-3.393,33.982,8.368,36.678,25.801
								C1988.45,3164.221,1999.7,3246.038,1995.888,3278.208z"/>
						</g>
					</g>
				</g>
			</g>
			<g>
				<g>
					<g>
						<g>
							<path style="fill:#371A45;" d="M1762.171,3172.247c-1.655,0-3.323-0.525-4.736-1.614
								c-53.386-41.06-115.913-46.238-209.08-17.29c-4.107,1.257-8.457-1.021-9.734-5.12c-1.272-4.102,1.018-8.459,5.12-9.734
								c98.564-30.623,165.313-24.692,223.176,19.819c3.403,2.617,4.041,7.5,1.421,10.903
								C1766.807,3171.202,1764.502,3172.247,1762.171,3172.247z"/>
						</g>
					</g>
				</g>
			</g>
			<g>
				<g>
					<g>
						<g>
							<path style="fill:#371A45;" d="M1731.416,3198.844c-1.667,0-3.347-0.535-4.766-1.636
								c-52.476-40.774-120.251-47.266-219.773-21.045c-4.167,1.086-8.406-1.389-9.499-5.54c-1.094-4.153,1.387-8.406,5.54-9.5
								c104.658-27.576,176.604-20.225,233.274,23.804c3.391,2.634,4.004,7.52,1.37,10.911
								C1736.028,3197.811,1733.733,3198.844,1731.416,3198.844z"/>
						</g>
					</g>
				</g>
			</g>
			<g>
				<g>
					<g>
						<g>
							<path style="fill:#371A45;" d="M1690.283,3227.518c-1.436,0-2.888-0.396-4.187-1.228
								c-75.256-48.201-124.98-46.577-207.969-24.714c-4.175,1.079-8.406-1.389-9.499-5.54c-1.094-4.153,1.387-8.406,5.54-9.5
								c87.546-23.062,140.137-24.69,220.317,26.658c3.616,2.317,4.671,7.124,2.354,10.742
								C1695.354,3226.254,1692.844,3227.518,1690.283,3227.518z"/>
						</g>
					</g>
				</g>
			</g>
			<g>
				<g>
					<g>
						<g>
							<path style="fill:#371A45;" d="M1644.846,3405.28c-123.701,0-203.84-28.22-221.367-80.596
								c-8.286-24.761-5.774-68.455,18.518-110.247c20.801-35.779,64.653-82.19,155.459-100.1
								c41.155-8.118,40.379-25.505,39.302-49.573c-0.469-10.527-0.955-21.411,2.859-31.221
								c11.355-29.194,82.92-34.265,97.151-34.985c31.413-1.577,86.641,0.554,103.093,32.788
								c9.002,17.634,9.053,39.495,0.364,62.622c31.826-3.616,71.812-10.796,101.553-16.57c12.578-2.446,25.283,0.273,35.762,7.649
								c10.479,7.378,17.322,18.418,19.265,31.089c8.74,56.97,18.354,131.653,14.539,163.916
								c-1.03,9.177-16.763,91.248-245.591,117.69C1721.968,3402.802,1681.487,3405.28,1644.846,3405.28z M1600.466,3129.594
								l3.01,15.256c-79.399,15.662-117.014,54.988-134.59,85.22c-20.613,35.464-20.811,70.11-15.911,84.744
								c16.907,50.542,141.172,71.45,309.207,52.031c199.675-23.074,217.59-87.732,218.31-90.781
								c2.515-22.527-2.739-78.987-14.431-155.21c-0.649-4.229-2.932-7.91-6.428-10.371c-3.494-2.461-7.737-3.364-11.929-2.551
								c-34.971,6.79-83.938,15.491-118.63,18.406c-8.313,0.706-16.382-3.164-21.03-10.083c-4.634-6.892-5.164-15.779-1.387-23.188
								c5.559-10.906,13.665-31.584,5.5-47.578c-2.69-5.273-13.821-11.931-36.985-14.805c-44.643-5.535-97.91,6.487-106.858,15.017
								c-1.099,3.931-0.786,10.911-0.486,17.678c1.14,25.5,3.044,68.179-64.353,81.472L1600.466,3129.594z M1667.879,3046.154
								L1667.879,3046.154L1667.879,3046.154z"/>
						</g>
					</g>
				</g>
			</g>
			<g>
				<g>
					<g>
						<g>
							<path style="fill:#371A45;" d="M1129.205,1921.313c2.62,7.358,5.742,14.905,9.036,22.136
								c3.319,7.266,6.918,14.358,10.758,21.218c3.888,6.833,8.09,13.376,12.534,19.543c4.537,6.079,9.395,11.672,14.477,16.509
								c6.251,5.95,6.494,15.84,0.544,22.092c-5.95,6.25-15.84,6.492-22.091,0.542c-0.719-0.684-1.359-1.421-1.919-2.2l-0.065-0.095
								c-10.904-15.356-17.783-31.501-23.257-47.7c-2.665-8.125-4.968-16.277-6.931-24.473c-1.955-8.235-3.604-16.333-4.875-24.841
								c-0.495-3.315,1.791-6.404,5.106-6.899c2.919-0.435,5.662,1.284,6.614,3.965L1129.205,1921.313z"/>
						</g>
					</g>
				</g>
			</g>
			<g>
				<g>
					<g>
						<g>
							<path style="fill:#371A45;" d="M1239.152,1887.666c4.703,7.202,8.667,14.28,12.501,21.694
								c3.792,7.375,7.34,14.905,10.529,22.615c6.461,15.396,11.685,31.453,15.611,48.064c1.998,8.396-3.19,16.821-11.586,18.821
								c-8.397,1.997-16.824-3.191-18.821-11.587c-0.236-0.989-0.372-2.087-0.415-3.069c-0.534-15.178-2.314-30.564-5.418-45.815
								c-1.508-7.642-3.395-15.232-5.544-22.766c-2.141-7.48-4.653-15.12-7.452-22.112l-0.111-0.276
								c-1.245-3.11,0.266-6.641,3.376-7.886C1234.55,1884.258,1237.605,1885.293,1239.152,1887.666z"/>
						</g>
					</g>
				</g>
			</g>
			<g style="opacity:0.3;">
				<g>
					<g>
						<g>
							<path style="fill:#371A45;" d="M1704.03,2293.401c0,0-52.963,9.497-52.963,46.048s80.916,212.643,8.81,409.425
								c0,0,84.76-160.92,69.177-266.897S1704.03,2293.401,1704.03,2293.401z"/>
						</g>
					</g>
				</g>
			</g>
			<g style="opacity:0.3;">
				<g>
					<g>
						<g>
							<path style="fill:#371A45;" d="M2416.566,2293.401c0,0,63.578,43.707,63.578,80.258s-145.707,154.075-215.706,388.408
								c0,0,5.316-164.089,70.803-289.7C2387.327,2372.463,2416.566,2293.401,2416.566,2293.401z"/>
						</g>
					</g>
				</g>
			</g>
			<g style="opacity:0.3;">
				<g>
					<g>
						<g>
							<path style="fill:#371A45;" d="M2398.723,2351.336c0,0-64.335,85.285-113.813,74.587
								c-49.477-10.698-43.806-59.729-43.806-59.729l21.968,202.393l-4.015,122.998l60.758-146.203L2398.723,2351.336z"/>
						</g>
					</g>
				</g>
			</g>
			<g style="opacity:0.3;">
				<g>
					<g>
						<g>
							<path style="fill:#371A45;" d="M1709.31,2416.711c0,0,17.568,103.595,62.552,77.277
								c74.439-43.549,131.438-171.1,131.438-171.1s-96.224,315.814-206.768,358.302
								C1696.532,2681.19,1733.677,2469.903,1709.31,2416.711z"/>
						</g>
					</g>
				</g>
			</g>
		</g>
	</g>
</g>
</svg>
