<?xml version="1.0" encoding="utf-8"?>
<!-- Generator: Adobe Illustrator 27.5.0, SVG Export Plug-In . SVG Version: 6.00 Build 0)  -->
<svg version="1.1" id="Layer_1" xmlns="http://www.w3.org/2000/svg" xmlns:xlink="http://www.w3.org/1999/xlink" x="0px" y="0px"
	 viewBox="0 0 4000 4000" style="enable-background:new 0 0 4000 4000;" xml:space="preserve">
<g>
	<g>
		<rect style="fill:#450BA0;" width="4000" height="4000"/>
	</g>
	<g>
		<g>
			<g>
				<g>
					<path style="fill:#FFFFFF;" d="M1631.635,1950.029c-1.739,113.671-36.267,256.554-212.486,184.615
						c-277.271-113.124-369.529-338.229-369.529-338.229c-90.47-41.533-123.756-131.457-123.756-131.457s-20.319,7.303-41.682-0.795
						c-15.352-5.813-31.2-19.525-40.54-49.532c-22.357-71.839,23.946-97.425,23.946-97.425
						c7.204-69.454,50.277-60.661,50.277-60.661c-41.484-142.933,10.98-149.342,29.56-144.522
						c24.741,6.409,53.507,97.425,53.507,97.425s-10.384-89.426,18.382-115.807c14.358-13.166,26.331-11.377,34.727-6.26
						c7.8,4.72,12.967,12.818,15.153,21.711c13.464,53.557,31.945,102.443,51.221,144.473
						c10.731,23.449,21.711,44.763,32.144,63.642c32.492,58.674,59.965,93.45,59.965,93.45
						c137.915,108.703,248.903,164.097,320.493,191.919c35.075,13.613,62.996,39.149,79.987,70.895
						C1625.425,1896.473,1632.082,1922.754,1631.635,1950.029z"/>
				</g>
				<g>
					<path style="fill:#000072;" d="M1504.098,2171.437c-27.192,0-57.764-6.89-91.536-20.674
						c-258.086-105.317-358.669-302.846-376.255-341.44c-71.023-35.044-107.356-96.88-120.679-124.487
						c-11.548,1.343-27.813,0.864-44.275-7.324c-20.703-10.303-35.615-29.722-44.324-57.71
						c-18.455-59.316,4.634-96.655,24.292-112.461c4.089-26.943,14.084-46.406,29.768-57.92c4.98-3.657,10.003-6.104,14.731-7.715
						c-16.931-66.704-14.309-110.42,7.905-133.315c14.646-15.098,34.424-16.719,48.049-13.203
						c12.292,3.169,23.66,16.016,33.596,32.627c3.623-18.706,10.322-36.113,22.17-46.973c17.529-16.065,37.759-19.107,55.503-8.335
						c11.35,6.885,19.531,18.374,23.037,32.344c40.208,160.225,127.656,278.706,138.889,293.467
						c136.934,107.705,246.465,161.689,314.341,188.027c66.75,25.898,110.847,91.787,109.731,163.965
						c-1.57,101.733-26.833,169.483-75.09,201.372C1554.027,2164.85,1530.675,2171.432,1504.098,2171.437z M925.773,1647.594
						c7.112,0,13.826,4.321,16.411,11.314c0.3,0.801,32.202,83.848,114.702,121.699c4.009,1.841,7.168,5.132,8.838,9.214
						c0.896,2.168,93.281,219.912,359.978,328.745c55.498,22.646,98.928,24.028,129.08,4.101
						c47.446-31.357,58.54-111.328,59.492-172.895c0.891-57.7-34.289-110.347-87.539-131.006l0,0
						c-70.374-27.305-183.879-83.213-324.983-194.473c-1.067-0.84-2.034-1.807-2.876-2.871
						c-4.143-5.244-101.929-130.396-146.524-308.105c-1.245-4.966-3.923-9.004-7.349-11.084c-2.099-1.265-5.615-3.399-13.96,4.243
						c-15.261,13.989-16.697,67.461-12.842,100.962c1.025,8.901-4.88,17.124-13.642,18.994c-8.76,1.904-17.51-3.213-20.21-11.758
						c-12.886-40.747-32.253-80.64-41.665-85.908c-2.105-0.469-8.884-1.431-13.997,3.838c-5.181,5.342-20.066,29.707,5.901,119.092
						c1.743,6.001,0.571,12.578-3.782,17.06c-4.355,4.487-10.339,6.396-16.389,4.824c0.056,0.078-0.383-0.044-1.123-0.044
						c-2.178,0-7.188,0.459-12.1,4.277c-8.572,6.66-14.211,20.903-16.311,41.196c-0.586,5.669-3.909,10.688-8.894,13.438
						c-3.235,1.924-33.032,21.479-15.752,77.021c5.73,18.423,14.583,30.786,26.309,36.753c15.967,8.125,33.403,2.363,33.579,2.305
						C921.991,1647.892,923.895,1647.594,925.773,1647.594z"/>
				</g>
				<g style="opacity:0.3;">
					<path style="fill:#000072;" d="M1631.635,1950.029c-1.739,113.671-36.267,256.554-212.486,184.615
						c-277.271-113.124-369.529-338.229-369.529-338.229c-90.47-41.533-123.756-131.457-123.756-131.457s-20.319,7.303-41.682-0.795
						c-14.706-47.396,7.899-84.905,7.899-84.905c-4.273-62.847,33.783-101.002,33.783-101.002
						c61.754-41.136,138.412-36.764,194.552-24.691c10.731,23.449,21.711,44.763,32.144,63.642
						c-96.133-38.552-185.957-24.195-185.957-24.195c-97.971,55.345,26.132,107.759,26.132,107.759l92.01,37.013
						c-105.573-7.353-133.245,73.926-35.125,86.247c98.17,12.271,162.905-113.373,162.905-113.373
						c2.136,94.196-92.755,162.855-92.755,162.855c30.398,57.777,64.239,103.252,97.3,138.813
						c67.394,72.489,179.396,78.188,255.943,15.441c60.08-49.249,113.083-55.24,139.992-54.296
						C1625.425,1896.473,1632.082,1922.754,1631.635,1950.029z"/>
				</g>
				<g>
					<g>
						<path style="fill:#000072;" d="M1051.864,1813.659l-4.458-34.492c140.3-18.13,147.5-163.037,147.737-169.194l34.751,1.338
							C1229.823,1613.112,1220.98,1791.803,1051.864,1813.659z"/>
					</g>
					<g>
						<path style="fill:#000072;" d="M1150.717,1542.937c-33.092-13.005-68.336-24.556-102.701-31.353
							c-17.224-3.149-34.487-5.293-50.494-4.277c-15.886,1.177-30.278,5.051-38.827,13.643c-4.514,4.417-7.556,9.617-8.229,13.401
							c-1.023,3.743,0.094,8.435,3.455,14.194c3.369,5.659,8.795,11.521,14.98,16.924c6.177,5.488,13.4,10.354,20.654,15.303
							c29.589,19.504,62.578,36.44,95.211,57.019c-19.462-0.386-38.414-3.826-57.034-8.684
							c-18.58-5.032-36.816-11.726-54.346-21.074c-8.789-4.658-17.33-9.98-25.676-16.318c-8.285-6.401-16.482-13.699-23.485-23.65
							c-3.508-4.907-6.543-10.771-8.693-17.336c-1.079-3.254-1.586-6.938-2.209-10.437c-0.064-3.635-0.349-7.402,0.178-10.994
							c0.996-7.271,3.393-14.106,6.589-19.846c3.135-5.842,7.011-10.774,11.245-15.403c8.685-9.246,19.697-15.742,30.61-19.783
							c10.969-4.153,22.028-5.959,32.711-6.851c21.387-1.514,41.648,0.73,61.099,4.741c19.49,3.884,38.234,9.468,56.467,16.089
							c18.337,6.667,35.754,14.077,53.461,23.301L1150.717,1542.937z"/>
					</g>
					<g>
						<path style="fill:#000072;" d="M947.223,1642.516c-5.11,0-10.203-0.693-15.283-2.09
							c-54.526-14.98-78.674-108.491-81.25-119.106l33.794-8.208c0.002,0.005,0.002,0.01,0.005,0.015l0,0
							c7.915,32.422,30.3,86.543,56.682,93.77c11.121,3.066,24.289-3.11,39.136-18.291l24.863,24.316
							C985.914,1632.609,966.485,1642.516,947.223,1642.516z"/>
					</g>
					<g>
						<path style="fill:#000072;" d="M933.754,1680.441l-15.757-31.006l-0.491,0.264c1.572-0.947,9.314-6.504,7.144-22.671
							l34.468-4.629C963.597,1655.763,945.282,1674.582,933.754,1680.441z"/>
					</g>
					<g>
						<path style="fill:#000072;" d="M927.521,1519.245c-19.656-32.676-26.191-57.29-26.46-58.32l33.643-8.809
							c0.056,0.205,5.752,21.167,22.617,49.199L927.521,1519.245z"/>
					</g>
					<g>
						<path style="fill:#000072;" d="M1003.114,1493.722c-12.568-32.178-19.143-79.932-19.417-81.948l34.46-4.678
							c0.063,0.449,6.301,45.688,17.349,73.979L1003.114,1493.722z"/>
					</g>
				</g>
			</g>
			<g>
				<g>
					<path style="fill:#FFFFFF;" d="M2747.674,1875.955c-52.513,604.521-294.808,933.211-403.113,1052.148
						c-28.765,31.597-75.813,38.553-112.677,16.991l-82.818-48.34l-120.825-58.077l38.255-90.321l417.173-985.576
						c53.854-2.484,97.872,4.62,133.444,16.296C2713.344,1810.723,2747.674,1875.955,2747.674,1875.955z"/>
				</g>
				<g style="opacity:0.3;">
					<path style="fill:#000072;" d="M2193.757,2825.168l-45.458-34.134l-81.803-42.678l417.173-985.576
						c0.539-0.025,1.076-0.049,1.613-0.072c76.518-3.27,141.426,55.614,147.111,131.991
						c28.484,382.712-158.011,732.03-266.387,899.759C2328.358,2852.721,2249.226,2866.819,2193.757,2825.168z"/>
				</g>
				<g>
					<path style="fill:#000072;" d="M2277.538,2974.802c-18.689,0-37.505-4.79-54.431-14.678l-82.185-48.018l-120.21-57.778
						c-8.364-4.023-12.097-13.906-8.479-22.451l455.401-1075.859c2.61-6.167,8.528-10.288,15.217-10.591
						c208.259-9.639,277.361,117.012,280.203,122.402c1.553,2.954,2.227,6.289,1.938,9.609
						c-53.296,613.447-302.781,947.3-407.571,1062.363C2336.542,2962.726,2307.206,2974.802,2277.538,2974.802z M2050.721,2830.163
						l105.901,50.903c0.42,0.205,0.833,0.425,1.238,0.659l82.791,48.369c29.714,17.368,68.008,11.597,91.057-13.711
						c102.097-112.104,344.771-437.056,398.149-1036.411c-12.673-19.941-75.486-103.877-234.526-100.176L2050.721,2830.163z"/>
				</g>
			</g>
			<g>
				<g>
					<path style="fill:#FFFFFF;" d="M3109.651,1773.512c19.128,362.524-199.619,332.168-199.619,332.168
						c-115.012,106.169-405.15,135.729-405.15,135.729c-84.16,309.812-232.011,583.406-442.809,723.954
						c-210.797,140.499-333.212,403.461-347.073,488.615c-13.811,85.203-154.359,133.096-201.209,100.257
						c-46.849-32.84-351.296-200.315-426.911-236.532c-75.565-36.168-70.249-81.974-70.249-81.974
						c3.279-35.621,10.632-65.43,21.015-90.321c77.006-184.764,321.785-97.573,321.785-97.573
						c83.017-191.62,170.854-293.815,170.854-293.815c-14.358-7.999-38.851-20.767-38.851-20.767
						c-155.403,6.409-398.145,138.412-466.308,232.11c-32.194,44.315-74.919,73.826-116.155,86.793
						c-18.978,5.961-37.708,8.446-54.898,7.154c-24.443-1.689-45.856-10.88-61.009-27.97
						c-48.986-55.345-195.893-138.412-283.183-219.293c-87.29-80.93-31.945-166.084-31.945-166.084
						c10.135-12.42,20.22-23.549,30.206-33.485c167.972-167.277,308.322,1.54,308.322,1.54
						c334.305-285.319,533.377-225.702,533.377-225.702c54.302-325.76,204.339-495.073,204.339-495.073c0-0.05,0-0.05,0-0.05
						c258.591-169.413,755.403-54.202,755.403-54.202s87.737,11.476,197.234,14.954c101.349,3.13,221.429-0.596,307.924-26.679
						c179.896-54.252,212.934-183.075,269.322-165.537c55.494,17.239,26.579,108.702,25.635,111.783H3109.651z"/>
				</g>
				<g style="opacity:0.3;">
					<path style="fill:#000072;" d="M2910.032,2105.68c-115.012,106.169-405.15,135.729-405.15,135.729
						c-84.16,309.812-232.011,583.406-442.809,723.954c-210.797,140.499-333.212,403.461-347.073,488.615
						c-13.811,85.203-154.359,133.096-201.209,100.257c-46.849-32.84-351.296-200.315-426.911-236.532
						c-75.565-36.168-70.249-81.974-70.249-81.974c3.279-35.621,10.632-65.43,21.015-90.321
						c98.084,102.682,204.293,154.579,299.556,179.106c150.048,38.631,307.095-28.78,384.081-163.241
						c42.435-74.116,84.172-137.811,121.588-190.447c86.45-121.615,65.892-311.555-89.007-362.124
						c-259.872-84.838-290.103-141.592-290.103-141.592l501.432,82.521l15.252-102.194l153.542,39.356
						c70.023,17.948,143.576-15.662,174.5-81c28.068-59.306,39.053-116.558,41.337-166.273
						c3.951-85.996-69.751-154.824-155.446-146.612c-527.145,50.519-638.124-195.057-640.198-199.664c0-0.05,0-0.05,0-0.05
						c258.591-169.413,755.403-54.202,755.403-54.202s87.737,11.476,197.234,14.954c37.996,57.189,35.262,138.435,27.125,193.858
						c-5.194,35.379,22.466,67.061,58.214,66.221c119.939-2.816,227.702-53.207,227.702-53.207l46.216-15.452
						c31.281-10.459,53.869-38.059,57.448-70.847c0.042-0.387,0.07-0.593,0.07-0.593c-15.153-16.742-0.795-52.761-0.795-52.761
						c-6.409-144.572,186.851-147.652,186.851-147.652C3128.778,2136.036,2910.032,2105.68,2910.032,2105.68z"/>
				</g>
				<g style="opacity:0.3;">
					<path style="fill:#000072;" d="M1687.328,2628.923c-74.522,32.988-157.042,125.097-157.042,125.097
						c-14.358-7.999-38.851-20.767-38.851-20.767c-155.403,6.409-398.145,138.412-466.308,232.11
						c-32.194,44.315-74.919,73.826-116.155,86.793c-18.978,5.961-37.708,8.446-54.898,7.154
						c-24.443-1.689-45.856-10.88-61.009-27.97c-48.986-55.345-195.893-138.412-283.183-219.293
						c-87.29-80.93-31.945-166.084-31.945-166.084c10.135-12.42,20.22-23.549,30.206-33.485
						c2.783,105.422,116.707,185.018,222.379,236.335c87.075,42.286,191.479,31.731,266.101-29.926
						c103.477-85.498,238.271-125.742,315.683-142.958c33.071-7.355,55.989-37.434,54.617-71.285
						c-1.216-30.01,1.876-53.512,5.648-70.293c2.927-13.023,19.983-16.237,27.714-5.356c35.922,50.553,71.367,87.241,95.426,109.608
						c16.128,14.993,39.516,19.291,59.819,10.766C1619.339,2622.577,1687.328,2628.923,1687.328,2628.923z"/>
				</g>
				<g>
					<path style="fill:#000072;" d="M1555.426,3582.042c-20.681,0-38.674-4.502-51.607-13.564
						c-45.117-31.621-350.361-199.6-424.434-235.068c-85.796-41.084-80.303-97.295-80.027-99.668
						c8.147-88.423,41.421-152.061,98.855-188.73c89.329-57.041,209.109-30.586,251.555-18.413
						c62.979-141.685,126.833-231.934,153.948-267.202c-6.353-3.384-12.344-6.538-16.152-8.54
						c-150.964,8.55-382.915,134.736-448.354,224.717c-43.34,59.59-108.201,98.418-169.277,101.338
						c-36.973,1.777-68.906-10.323-89.89-34.038c-23.552-26.631-73.789-61.939-126.973-99.326
						c-52.146-36.65-111.247-78.193-155.005-118.75c-96.917-89.829-35.332-187.334-34.7-188.31c0.344-0.527,0.718-1.04,1.116-1.528
						c61.492-75.234,127.649-113.53,196.636-113.818c0.261,0,0.527,0,0.789,0c75.647,0,132.258,45.947,155.906,69.004
						c276.118-230.972,460.222-230.156,517.93-222.241c56.738-315.454,199.26-479.312,205.408-486.255
						c1.025-1.157,2.197-2.173,3.491-3.017c258.872-169.556,737.395-63.779,768.005-56.768
						c18.086,2.28,327.119,40.063,497.065-11.221c97.576-29.448,149.746-81.397,187.839-119.331
						c31.936-31.812,57.148-56.938,91.692-46.196c16.279,5.063,28.994,15.698,36.77,30.762c18.215,35.293,5.342,85.723,1.143,99.849
						c7.029,142.065-20.942,243.062-83.154,300.195c-50.049,45.962-106.772,48.501-127.917,47.656
						c-108.489,93.775-341.533,127.007-397.544,133.794c-93.245,336.04-251.68,592.344-446.826,722.441
						c-206.458,137.637-326.543,396.973-339.541,476.968c-7.209,44.375-44.81,84.912-100.576,108.438
						C1605.077,3576.403,1578.571,3582.042,1555.426,3582.042z M1233.273,3044.738c-38.926,0-81.123,7.056-116.455,29.653
						c-47.842,30.605-75.723,85.43-82.871,162.954c-0.086,1.382-1.394,35.078,60.459,64.697
						c77.026,36.885,381.97,204.732,429.372,237.959c17.007,11.919,56.668,9.053,94.299-6.826
						c44.67-18.848,74.49-49.492,79.768-81.973c14.153-87.115,136.284-354.8,354.575-500.327
						c190.354-126.904,345.083-380.478,435.686-714.018c1.885-6.943,7.856-12.007,15.017-12.739
						c2.844-0.288,285.737-30.21,395.098-131.211c3.821-3.535,9.031-5.176,14.185-4.448c2.329,0.278,59.27,7.08,108.577-38.618
						c53.535-49.614,78.184-144.844,71.284-275.396c-0.115-2.144,0.171-4.292,0.837-6.328c4.443-13.691,13.474-54.136,1.982-76.333
						c-3.55-6.856-8.689-11.133-16.169-13.457c-13.865-4.326-29.021,9.937-56.829,37.627
						c-38.398,38.237-96.426,96.02-202.329,127.978c-181.401,54.756-498.997,14.072-512.434,12.31
						c-0.559-0.073-1.118-0.176-1.667-0.303c-4.885-1.133-489.924-110.942-739.893,50.435
						c-15.317,18.335-148.84,185.278-198.765,484.814c-0.82,4.927-3.716,9.258-7.954,11.9c-4.236,2.642-9.402,3.345-14.185,1.899
						c-1.836-0.513-195.762-51.987-517.085,222.266c-3.538,3.018-8.137,4.512-12.771,4.097c-4.634-0.396-8.916-2.632-11.89-6.206
						c-0.559-0.669-58.982-69.229-141.233-69.229c-0.308,0-0.608,0-0.915,0c-57.749,0.361-114.558,34.067-168.853,100.19
						c-4.748,7.91-42.483,76.382,29.59,143.184c42.036,38.96,97.615,78.027,151.362,115.811
						c57.288,40.264,106.763,75.044,133.025,104.726c17.759,20.078,43.63,23.233,62.183,22.349
						c50.029-2.393,106.086-36.563,142.81-87.061c71.853-98.799,317.354-232.554,479.641-239.229
						c3.079-0.132,6.062,0.552,8.76,1.958c1.008,0.527,24.854,12.974,39.258,20.977c4.566,2.534,7.744,6.992,8.667,12.134
						c0.923,5.142-0.517,10.425-3.918,14.395c-0.862,1.006-87.256,102.832-168.106,289.414c-3.638,8.398-13.164,12.544-21.792,9.463
						C1352.718,3063.917,1297.448,3044.738,1233.273,3044.738z"/>
				</g>
				<g>
					<g>
						<path style="fill:#000072;" d="M828.652,2626.45c-3.911,2.903-8.165,5.891-12.497,8.643
							c-4.314,2.813-8.761,5.522-13.238,8.235c-4.517,2.676-9.008,5.398-13.702,8c-4.639,2.654-9.296,5.332-14.246,7.942
							c1.424-5.405,3.369-10.554,5.452-15.627c2.061-5.095,4.441-9.966,6.879-14.807c2.497-4.783,5.1-9.502,7.913-14.043
							c2.797-4.597,5.73-8.906,9.111-13.191L828.652,2626.45z"/>
					</g>
					<g>
						<path style="fill:#000072;" d="M1144.554,2872.648c-237.661-138.623-231.826-339.106-231.462-347.573l34.746,1.45
							c-0.286,7.637-4.519,188.486,214.236,316.084L1144.554,2872.648z"/>
					</g>
					<g>
						<path style="fill:#000072;" d="M1480.802,2747.014c-1.844-1.572-2.954-2.642-4.293-3.926c-1.321-1.228-2.491-2.49-3.696-3.745
							c-2.39-2.515-4.674-5.042-6.89-7.612c-4.467-5.1-8.566-10.435-12.44-15.874c-7.845-10.806-14.803-22.087-21.005-33.689
							c-5.956-11.746-11.685-23.494-16.008-35.808c-2.365-6.052-4.059-12.388-5.88-18.594c-1.677-6.274-2.891-12.7-4.049-19.063
							l21.99,31.35c7.158,10.305,14.771,20.164,22.585,29.695c7.933,9.448,16.18,18.501,24.76,27.012
							c4.279,4.27,8.778,8.267,13.174,12.227c2.212,1.963,4.469,3.865,6.718,5.667l3.346,2.644c1.034,0.818,2.338,1.802,2.97,2.209
							L1480.802,2747.014z"/>
					</g>
					<g>
						<path style="fill:#000072;" d="M1516.593,2743.32c5.659-7.581,11.101-14.026,17.123-20.505
							c5.879-6.47,12.135-12.546,18.423-18.569c6.384-5.928,12.985-11.611,19.667-17.185c6.837-5.403,13.658-10.796,20.79-15.808
							c14.247-9.988,28.934-19.436,44.659-26.987c3.958-1.846,7.941-3.621,11.945-5.317c4.153-1.462,8.248-2.979,12.411-4.316
							l6.252-1.941c2.115-0.579,4.31-0.984,6.45-1.475c4.288-0.962,8.635-1.726,13.015-2.285
							c-12.826,12.397-25.886,22.588-38.413,33.552c-3.229,2.561-6.328,5.308-9.474,7.969c-3.108,2.715-6.37,5.181-9.463,7.888
							c-6.198,5.405-12.335,10.823-18.286,16.472c-6.122,5.417-11.902,11.252-17.733,16.968l-8.706,8.623
							c-2.847,2.932-5.619,5.933-8.522,8.794c-5.663,5.874-11.2,11.853-16.726,17.805l-15.999,17.717L1516.593,2743.32z"/>
					</g>
					<g>
						<path style="fill:#000072;" d="M1375.807,3053.696c-2.543,5.85-5.408,11.851-8.448,17.688
							c-3.003,5.876-6.215,11.699-9.485,17.52c-6.545,11.665-13.375,23.171-21.597,34.797c-2.178-14.126-1.584-28.022-0.299-41.616
							c0.664-6.804,1.521-13.564,2.683-20.237c1.133-6.711,2.526-13.23,4.396-19.849L1375.807,3053.696z"/>
					</g>
					<g>
						<path style="fill:#000072;" d="M1849.225,3194.958c-163.386-6.606-275.652-77.349-341.06-135.537
							c-70.962-63.125-103.003-124.302-104.331-126.875l30.898-15.957l-15.449,7.979l15.439-7.998
							c1.204,2.314,123.826,231.831,415.908,243.643L1849.225,3194.958z"/>
					</g>
					<g>
						<path style="fill:#000072;" d="M2905.753,2123.224c-35.798,0-102.822-23.477-133.591-115.532
							c-39.617-118.53,27.205-189.521,30.068-192.49l25.073,24.102c-2.253,2.383-54.851,59.546-22.158,157.363
							c31.689,94.819,100.781,91.875,103.701,91.665l2.48,34.688C2909.569,2123.151,2907.706,2123.224,2905.753,2123.224z"/>
					</g>
					<g>
						<path style="fill:#000072;" d="M2507.803,2258.56c-9.779,2.595-19.045,3.489-28.647,4.001
							c-9.536,0.408-19.11,0.107-28.663-0.793c-9.548-0.881-19.089-2.395-28.521-4.792c-9.421-2.236-18.762-5.408-27.751-9.883
							c9.486-3.506,18.64-5.906,27.723-8.308c9.071-2.412,18.032-4.448,26.957-6.372c8.92-1.899,17.802-3.606,26.671-5.088
							c8.802-1.367,17.91-2.722,26.401-3.049l0.682-0.027c9.631-0.371,17.742,7.136,18.113,16.77
							C2521.088,2249.333,2515.525,2256.514,2507.803,2258.56z"/>
					</g>
				</g>
			</g>
			<g>
				<g>
					<g>
						<path style="fill:#FFFFFF;" d="M1551.603,1698.691h-86.251c-71.039,0-128.628-57.589-128.628-128.628v-262.267
							c0-55.562,45.042-100.604,100.605-100.604h114.274V1698.691z"/>
					</g>
					<g style="opacity:0.3;">
						<path style="fill:#000072;" d="M1336.724,1432.786v140.484c0,69.268,56.153,125.421,125.422,125.421h89.457v-140.484h-89.457
							C1392.877,1558.207,1336.724,1502.054,1336.724,1432.786z"/>
					</g>
					<g>
						<path style="fill:#000072;" d="M1568.99,1716.081h-103.638c-80.513,0-146.016-65.503-146.016-146.016v-262.271
							c0-65.063,52.93-117.993,117.991-117.993h131.663V1716.081z M1437.328,1224.577c-45.884,0-83.215,37.334-83.215,83.218
							v262.271c0,61.338,49.902,111.24,111.24,111.24h68.862v-456.729H1437.328z"/>
					</g>
				</g>
				<g>
					<g>
						<path style="fill:#FFFFFF;" d="M2504.887,1698.691h86.25c71.039,0,128.628-57.589,128.628-128.628v-262.267
							c0-55.562-45.042-100.604-100.604-100.604h-114.274V1698.691z"/>
					</g>
					<g style="opacity:0.3;">
						<path style="fill:#000072;" d="M2719.766,1432.786v140.484c0,69.268-56.153,125.421-125.421,125.421h-89.457v-140.484h89.457
							C2663.613,1558.207,2719.766,1502.054,2719.766,1432.786z"/>
					</g>
					<g>
						<path style="fill:#000072;" d="M2591.139,1716.081h-103.64v-526.279h131.663c65.061,0,117.993,52.93,117.993,117.993v262.271
							C2737.155,1650.578,2671.652,1716.081,2591.139,1716.081z M2522.274,1681.305h68.865c61.338,0,111.24-49.902,111.24-111.24
							v-262.271c0-45.884-37.332-83.218-83.218-83.218h-96.887V1681.305z"/>
					</g>
				</g>
				<g>
					<g>
						<path style="fill:#FFFFFF;" d="M2502.306,1801.093v92.09c0,0-130.117,148.09-474.061,148.09s-474.061-148.09-474.061-148.09
							v-92.09H2502.306z"/>
					</g>
					<g style="opacity:0.3;">
						<path style="fill:#000072;" d="M2028.245,1801.093v201.086c-343.944,0-474.061-154.678-474.061-154.678v-46.408H2028.245z"/>
					</g>
					<g style="opacity:0.3;">
						<path style="fill:#000072;" d="M2028.245,1801.093v201.086c343.944,0,474.061-154.678,474.061-154.678v-46.408H2028.245z"/>
					</g>
					<g>
						<path style="fill:#000072;" d="M2028.246,2058.659c-347.815,0-481.616-147.72-487.141-154.004
							c-2.788-3.174-4.326-7.256-4.326-11.479v-92.09c0-9.604,7.783-17.388,17.388-17.388h948.159
							c9.604,0,17.388,7.783,17.388,17.388v92.09c0,4.224-1.538,8.306-4.326,11.479
							C2509.862,1910.944,2376.058,2058.659,2028.246,2058.659z M1571.554,1886.056c24.91,23.911,159.302,137.827,456.692,137.827
							c298.672,0,431.912-113.76,456.692-137.778v-67.632h-913.384V1886.056z"/>
					</g>
				</g>
				<g>
					<g>
						<path style="fill:#FFFFFF;" d="M2028.245,1959.612c773.7,0,582.629-700.936,582.629-700.936
							c-70.342-246.26-299.397-425.881-582.629-425.881s-512.287,179.621-582.629,425.881
							C1445.616,1258.676,1254.545,1959.612,2028.245,1959.612z"/>
					</g>
					<g style="opacity:0.3;">
						<path style="fill:#000072;" d="M2610.874,1258.676c-23.25-81.395-63.927-155.435-118.08-218.191
							c13.552,28.484,24.827,58.231,33.622,89.02c0,0,191.071,700.936-582.629,700.936c-239.673,0-386.741-67.273-475.613-160.126
							c64.935,152.634,218.443,289.297,560.071,289.297C2801.945,1959.611,2610.874,1258.676,2610.874,1258.676z"/>
					</g>
					<g>
						<path style="fill:#000072;" d="M2028.246,1976.999c-242.29,0-417.031-67.925-519.368-201.894
							c-161.799-211.807-83.452-508.477-80.039-521.006c74.973-262.476,315.835-438.691,599.407-438.691
							s524.434,176.216,599.348,438.491c3.472,12.729,81.816,309.399-79.98,521.206
							C2445.275,1909.074,2270.533,1976.999,2028.246,1976.999z M2028.246,850.182c-267.881,0-495.303,166.079-565.911,413.267
							c-0.73,2.695-77.09,292.739,74.307,490.713c95.432,124.785,260.83,188.062,491.604,188.062
							c230.771,0,396.172-63.276,491.602-188.062c151.396-197.974,75.039-488.018,74.248-490.923
							C2523.549,1016.261,2296.127,850.182,2028.246,850.182z"/>
					</g>
				</g>
				<g>
					<g>
						<path style="fill:#000072;" d="M2028.245,1847.501c511.463,0,511.417-340.484,511.417-340.484
							c0-396.539-511.417-376.816-511.417-376.816s-511.417-19.723-511.417,376.816
							C1516.828,1507.018,1516.782,1847.501,2028.245,1847.501z"/>
					</g>
					<g style="opacity:0.5;">
						<path style="fill:#FFFFFF;" d="M2028.245,1130.202c0,0-511.417-19.723-511.417,376.815c0,0,0.026,71.354,49.08,148.73
							c-19.245-50.851-19.271-89.112-19.271-89.112c0-107.127,37.349-183.842,91.836-238.8c7.408-7.472,18.482-10.406,28.519-7.248
							c32.143,10.113,86.75,3.982,143.506-18.743c59.015-23.629,103.968-58.637,118.598-88.978
							c4.483-9.298,13.052-15.935,23.299-17.182c61.897-7.533,105.66-5.865,105.66-5.865s330.321-12.681,459.998,188.208
							C2420.808,1115.08,2028.245,1130.202,2028.245,1130.202z"/>
					</g>
					<g>
						<path style="fill:#000072;" d="M2028.246,1864.889c-271.387,0-400.711-96.357-461.411-177.188
							c-66.641-88.74-67.395-176.973-67.395-180.684c0-104.858,34.548-191.27,102.686-256.831
							c149.68-144.019,407.756-138.023,426.121-137.383c18.352-0.635,276.431-6.641,426.118,137.383
							c68.137,65.561,102.686,151.973,102.686,256.831c0.002,3.711-0.752,91.943-67.393,180.684
							C2428.956,1768.532,2299.633,1864.889,2028.246,1864.889z M2017.828,1147.458c-48.503,0-266.16,7.002-391.687,127.886
							c-60.999,58.74-91.926,136.685-91.926,231.675c0.005,0.771,1.089,81.816,61.621,161.377
							c80.491,105.796,230.015,161.719,432.41,161.719s351.919-55.923,432.41-161.719c60.53-79.561,61.614-160.605,61.619-161.416
							c0-94.951-30.928-172.896-91.926-231.636c-141.162-135.942-398.831-127.876-401.441-127.764l-0.654,0.024l-0.669-0.024
							C2027.296,1147.565,2023.871,1147.458,2017.828,1147.458z"/>
					</g>
				</g>
			</g>
			<g>
				<g>
					<g>
						<path style="fill:#FFFFFF;" d="M3100.324,2303.018L3100.324,2303.018c-18.189,2.408-34.887-10.385-37.295-28.574
							l-157.693-1191.098c-2.408-18.189,10.385-34.887,28.574-37.295l0,0c18.189-2.408,34.887,10.385,37.295,28.574
							l157.692,1191.098C3131.306,2283.913,3118.513,2300.61,3100.324,2303.018z"/>
					</g>
					<g style="opacity:0.3;">
						<path style="fill:#000072;" d="M3128.898,2265.723l-157.693-1191.098c-2.408-18.189-19.105-30.982-37.294-28.574h0
							c-0.104,0.014-0.202,0.042-0.306,0.056l155.549,1174.903c2.395,18.085-10.245,34.682-28.268,37.239l2.144,16.195
							c2.408,18.189,19.106,30.983,37.295,28.574C3118.513,2300.61,3131.306,2283.912,3128.898,2265.723z"/>
					</g>
					<g>
						<path style="fill:#000072;" d="M3095.929,2320.7c-24.976,0-46.77-18.55-50.139-43.97l-157.693-1191.103
							c-1.772-13.398,1.777-26.689,10-37.422c8.22-10.733,20.129-17.617,33.533-19.39c27.629-3.687,53.154,15.864,56.814,43.53
							l157.693,1191.099c1.775,13.398-1.775,26.689-9.998,37.422s-20.132,17.617-33.535,19.39h0.002
							C3100.363,2320.553,3098.134,2320.7,3095.929,2320.7z M2938.28,1063.151c-0.691,0-1.387,0.044-2.09,0.137
							c-4.189,0.557-7.915,2.71-10.488,6.069c-2.571,3.354-3.684,7.515-3.127,11.709l157.693,1191.099
							c1.145,8.652,9.116,14.771,17.776,13.618l0,0c4.192-0.557,7.917-2.71,10.488-6.07c2.573-3.354,3.684-7.514,3.127-11.704
							l-157.693-1191.104C2952.914,1068.957,2946.095,1063.151,2938.28,1063.151z"/>
					</g>
				</g>
				<g>
					<polygon style="fill:#FF0031;" points="3602.85,1239.391 3778.111,1427.22 3030.967,1526.137 2974.577,1100.211 
						3721.722,1001.294 3636.84,1171.345 					"/>
				</g>
				<g style="opacity:0.5;">
					<g>
						<polygon style="fill:#FFFFFF;" points="3612.849,1274.39 3757.944,1429.89 3778.112,1427.222 3620.75,1258.574 						"/>
					</g>
					<g>
						<polygon style="fill:#FFFFFF;" points="2984.578,1135.21 3702.307,1040.188 3721.721,1001.294 2974.578,1100.21 
							3030.967,1526.138 3036.24,1525.439 						"/>
					</g>
				</g>
				<g style="opacity:0.3;">
					<path style="fill:#000072;" d="M3778.111,1427.22l-747.144,98.916l-14.776-111.604
						c257.888,10.961,302.788-143.123,302.788-143.123s54.568,52.562,197.706-1.869c49.476-18.828,89.262-56.72,120.154-98.196
						l-33.99,68.045L3778.111,1427.22z"/>
				</g>
				<g>
					<path style="fill:#000072;" d="M3030.98,1543.503c-3.804,0-7.524-1.245-10.576-3.584c-3.66-2.808-6.057-6.948-6.663-11.523
						l-56.387-425.898c-1.26-9.517,5.437-18.257,14.956-19.517l747.122-98.916c6.377-0.869,12.7,1.904,16.438,7.139
						c3.738,5.239,4.275,12.109,1.401,17.866l-113.486,227.28l167.029,178.984c4.441,4.761,5.852,11.601,3.657,17.734
						c-2.197,6.128-7.634,10.513-14.087,11.367l-747.122,98.916C3032.501,1543.454,3031.74,1543.503,3030.98,1543.503z
						 M2994.113,1115.172l51.824,391.421l696.428-92.202l-152.244-163.14c-4.954-5.308-6.089-13.14-2.844-19.634l104.248-208.779
						L2994.113,1115.172z"/>
				</g>
				<g>
					
						<ellipse transform="matrix(0.7071 -0.7071 0.7071 0.7071 73.0853 2719.2742)" style="fill:#FFD008;" cx="3318.997" cy="1271.415" rx="155.963" ry="155.963"/>
				</g>
				<g>
					<path style="fill:#000072;" d="M3318.654,1438.732c-36.548,0-71.897-11.924-101.396-34.526
						c-35.471-27.173-58.232-66.538-64.097-110.835c-5.867-44.297,5.872-88.223,33.047-123.696
						c27.175-35.469,66.536-58.232,110.833-64.097c44.307-5.85,88.228,5.869,123.696,33.047
						c35.471,27.173,58.235,66.538,64.099,110.835l0,0c12.104,91.441-52.439,175.688-143.882,187.798
						C3333.5,1438.244,3326.049,1438.732,3318.654,1438.732z M3319.301,1126.75c-6.399,0-12.837,0.425-19.287,1.279
						c-38.301,5.068-72.334,24.751-95.833,55.42c-23.496,30.669-33.645,68.652-28.574,106.953s24.753,72.334,55.422,95.83
						s68.665,33.648,106.951,28.574c79.065-10.469,134.875-83.31,124.409-162.378c-5.071-38.301-24.756-72.334-55.422-95.83
						C3381.461,1137.057,3350.897,1126.75,3319.301,1126.75z"/>
				</g>
				<g>
					<path style="fill:#000072;" d="M3263.883,1283.23c-4.868,1.433-10.056,2.114-15.332,1.943
						c-5.221-0.398-10.552-1.345-15.587-3.34c-4.966-2.078-9.816-4.729-14.072-8.247c-4.197-3.572-7.93-7.747-11.045-12.415
						c-2.958-4.766-5.15-9.995-6.714-15.43c-1.423-5.471-1.997-11.155-1.781-16.848c0.372-5.681,1.506-11.321,3.475-16.677
						c2.118-5.298,4.938-10.283,8.378-14.81c13.763-18.369,39.425-26.091,60.472-19.006c10.547,3.34,19.75,10.012,26.188,18.506
						c3.151,4.307,5.671,8.992,7.374,13.914c1.696,4.937,2.397,10.088,2.539,15.117c-5.109-19.641-20.919-34.221-38.74-37.673
						c-8.857-1.819-18.005-0.935-26.263,2.043c-8.188,3.184-15.336,8.599-20.631,15.481c-10.366,13.933-12.208,33.601-3.972,49.407
						c2.029,3.931,4.534,7.678,7.593,11.033c3.163,3.225,6.606,6.301,10.57,8.777c3.994,2.378,8.295,4.426,12.932,5.803
						C3253.901,1282.224,3258.792,1282.878,3263.883,1283.23z"/>
				</g>
				<g>
					<path style="fill:#000072;" d="M3387.819,1262.305c-3.042-9.253,1.366-20.823,10.41-26.45
						c8.907-5.83,21.697-5.276,30.096,1.587c8.669,6.494,12.314,18.606,8.971,28.54c-3.053,10.054-12.793,17.188-22.437,17.041
						c9.27-2.412,16.151-9.875,17.781-18.286c0.859-4.18,0.442-8.499-0.964-12.395c-1.501-3.865-4.059-7.239-7.306-9.739
						c-6.575-4.912-15.859-5.781-23.32-1.875C3393.484,1244.429,3388.126,1252.703,3387.819,1262.305z"/>
				</g>
				<g>
					<path style="fill:#000072;" d="M3348.173,1339.885c9.635,7.51,13.129,22.642,7.642,34.824
						c-5.203,12.297-18.911,20.659-32.456,19.382c-13.571-0.708-25.831-10.776-29.291-23.459
						c-3.846-12.607,1.312-26.841,11.46-33.43c-7.97,8.992-9.923,21.575-5.741,31.472c2.026,4.956,5.48,9.163,9.668,12.239
						c4.265,2.976,9.286,4.702,14.415,5.037c10.282,0.522,20.56-5.061,25.601-14.346
						C3354.766,1362.463,3354.562,1350.098,3348.173,1339.885z"/>
				</g>
			</g>
			<g>
				<g>
					<path style="fill:#FFFFFF;" d="M2970.7,1889.301c0,0-51.899-47.108,12.775-99.008c64.674-51.899,186.038-30.341,163.682,64.674
						c0,0,41.519,41.519,7.186,91.023c0,0,31.938,40.721-1.597,78.248c0,0,31.14,79.046-61.48,84.635
						c-92.62,5.589-124.558-30.341-103-93.418c0,0-25.151-23.155-13.174-60.283
						C2975.091,1955.173,2949.142,1929.224,2970.7,1889.301z"/>
				</g>
				<g style="opacity:0.3;">
					<path style="fill:#000072;" d="M3067.755,2030.36c0,0-25.151-23.155-13.174-60.283c0,0-25.95-25.949-4.392-65.872
						c0,0-51.899-47.108,12.775-99.008c17.177-13.784,38.354-22.332,59.774-25.753c-35.695-25.347-98.649-21.744-139.264,10.849
						c-64.674,51.899-12.775,99.008-12.775,99.008c-21.558,39.922,4.392,65.872,4.392,65.872
						c-11.977,37.128,13.174,60.283,13.174,60.283c-21.028,61.525,8.87,97.203,96.304,93.735
						C3060.619,2093.556,3055.438,2066.4,3067.755,2030.36z"/>
				</g>
				<g>
					<path style="fill:#000072;" d="M3073.402,2126.823c-46.099,0-78.118-11.411-95.339-34.023
						c-14.36-18.853-17.437-43.545-9.185-73.482c-8-11.167-18.628-32.246-12.751-60.4c-7.769-11.943-18.037-35.649-5.913-66.724
						c-7.593-10.117-17.224-27.29-16.572-48.716c0.735-24.136,13.84-46.597,38.95-66.743
						c44.102-35.396,112.644-41.66,156.052-14.287c29.81,18.809,43.088,50.386,37.205,87.554
						c15.205,19.722,30.049,56.499,8.999,95.771c10.723,19.761,18.298,52.085-2.849,82.153c3.511,14.224,7.034,40.928-7.422,63.599
						c-13.352,20.942-37.664,32.617-72.263,34.707C3085.77,2126.628,3079.462,2126.823,3073.402,2126.823z M3064.569,1780.046
						c-24.595,0-50.789,8.223-70.21,23.809c-16.704,13.403-25.432,27.002-25.947,40.415c-0.698,18.188,13.923,32.109,14.072,32.246
						c5.762,5.4,7.268,14.102,3.516,21.05c-15.227,28.198,1.218,45.142,1.387,45.313c4.614,4.614,6.257,11.421,4.253,17.632
						c-8.462,26.235,8.232,41.997,8.403,42.153c5.071,4.668,6.907,11.894,4.678,18.418c-7.722,22.588-7.383,39.634,1.011,50.649
						c11.685,15.347,41.694,22.388,84.487,19.785c22.856-1.377,38.008-7.666,45.034-18.687c10.615-16.65,1.411-41.968,1.313-42.217
						c-2.407-6.113-1.165-13.062,3.213-17.959c22.813-25.527,3.127-52.978,0.808-56.025c-4.565-5.991-4.829-14.351-0.535-20.542
						c24.98-36.021-2.102-65.645-5.273-68.906c-4.138-4.253-5.908-10.415-4.548-16.196c6.311-26.816-0.466-46.709-20.144-59.121
						C3097.455,1783.893,3081.385,1780.046,3064.569,1780.046z"/>
				</g>
				<g>
					<path style="fill:#000072;" d="M3029.264,1914.357c-19.011,0-39.978-2.378-62.856-8.203l8.584-33.701
						c102.085,26.011,157.549-27.476,159.858-29.771l24.68,24.502C3157.223,1869.523,3111.783,1914.357,3029.264,1914.357z"/>
				</g>
				<g>
					<path style="fill:#000072;" d="M3055.197,1996.227c-27.378,0-57.925-6.807-89.28-26.284l18.35-29.541
						c81.038,50.342,156.323-5.791,159.49-8.203l21.213,27.554C3162.257,1961.852,3116.73,1996.227,3055.197,1996.227z"/>
				</g>
				<g>
					<path style="fill:#000072;" d="M3078.151,2065.602c-28.904,0-63.284-8.779-100.242-36.177l20.713-27.94
						c79.932,59.263,140.527,11.401,143.069,9.331l22.188,26.782C3163.351,2038.039,3129.352,2065.602,3078.151,2065.602z"/>
				</g>
			</g>
			<g>
				<g>
					<path style="fill:#FFFFFF;" d="M1475.897,2298.905c0,0-34.418-10.991-71.728-20.311c-29.323-7.325-47.066-40.354-37.206-70.913
						c0.147-0.455,0.298-0.909,0.453-1.362c8.443-24.598,32.548-38.736,56.602-34.318c21.851,4.014,56.548,11.57,86.668,23.392
						C1510.687,2195.393,1562.879,2276.352,1475.897,2298.905z"/>
				</g>
				<g style="opacity:0.3;">
					<path style="fill:#000072;" d="M1480.866,2249.223c0,0-34.418-10.991-71.728-20.311c-17.198-4.296-30.355-17.459-36.353-33.756
						c-2.15,3.428-3.986,7.139-5.367,11.163c-0.156,0.453-0.307,0.907-0.453,1.362c-9.86,30.559,7.883,63.588,37.206,70.913
						c37.31,9.32,71.728,20.311,71.728,20.311c53.43-13.853,54.331-49.728,47.088-75.355
						C1515.645,2234.304,1502.601,2243.588,1480.866,2249.223z"/>
				</g>
				<g>
					<path style="fill:#000072;" d="M1475.897,2316.291c-1.787,0-3.569-0.273-5.288-0.825c-0.339-0.107-34.358-10.938-70.652-20
						c-18.279-4.57-34.216-17.017-43.73-34.15c-9.985-17.983-12.102-39.478-5.811-58.975l0.53-1.597
						c11.208-32.646,43.242-51.865,76.216-45.845c23.97,4.404,59.021,12.197,89.878,24.307c3.396,1.333,6.287,3.701,8.262,6.763
						c2.979,4.619,28.655,46.226,13.711,84.502c-8.66,22.173-28.428,37.402-58.752,45.263
						C1478.829,2316.105,1477.362,2316.291,1475.897,2316.291z M1415.189,2188.586c-13.799,0-26.443,9.15-31.328,23.379
						l-0.349,1.055c-3.345,10.371-2.207,21.821,3.12,31.416c4.927,8.877,12.654,15.015,21.753,17.29
						c29.48,7.363,56.809,15.635,67.778,19.038c16.216-4.99,26.453-12.695,30.454-22.944c6.194-15.864-2.146-37.466-7.876-48.364
						c-26.912-9.907-56.865-16.494-77.864-20.347C1418.971,2188.757,1417.069,2188.586,1415.189,2188.586z"/>
				</g>
			</g>
			<g>
				<g>
					<path style="fill:#FFFFFF;" d="M2137.141,2344.697c-70.796,147.951-148.547,310.309-148.547,310.309
						c-174.033-100.605-524.832-187.895-524.832-187.895l-17.041-61.754c30.902-160.769,111.534-318.059,111.534-318.059
						c178.505,8.595,347.371,73.627,451.9,122.961c66.771,31.547,107.262,56.686,107.262,56.686L2137.141,2344.697z"/>
				</g>
				<g style="opacity:0.3;">
					<path style="fill:#000072;" d="M2137.141,2344.697c-70.796,147.951-148.547,310.309-148.547,310.309
						c-174.033-100.605-524.832-187.895-524.832-187.895l-17.041-61.754c0,0,523.789,155.254,563.434-195.098
						c66.771,31.547,107.262,56.686,107.262,56.686L2137.141,2344.697z"/>
				</g>
				<g>
					<path style="fill:#000072;" d="M1988.61,2672.399c-3.025,0-6.03-0.791-8.701-2.334
						c-169.973-98.242-516.86-185.215-520.344-186.079c-6.091-1.519-10.894-6.201-12.563-12.251l-17.034-61.748
						c-0.711-2.573-0.818-5.278-0.313-7.905c30.984-161.338,109.778-316.187,113.118-322.7c3.115-6.074,9.556-9.751,16.311-9.434
						c293.625,14.16,556.467,175.386,567.512,182.241c3.826,2.378,6.58,6.143,7.686,10.503l19.695,77.72
						c0.999,3.94,0.586,8.11-1.169,11.777c-70.796,147.978-148.513,310.332-148.513,310.332c-2.092,4.37-5.913,7.671-10.542,9.102
						C1992.069,2672.145,1990.336,2672.399,1988.61,2672.399z M1477.836,2452.741c57.395,14.712,339.907,89.59,503.091,178.052
						c21.255-44.409,81.37-170,137.793-287.934l-16.387-64.663c-40.088-23.584-277.119-156.982-533.579-172.886
						c-17.717,36.587-78.098,167.227-104.175,299.365L1477.836,2452.741z"/>
				</g>
				<g>
					<g>
						<path style="fill:#000072;" d="M1823.363,2295.495l-55.766-20.256c-5.739-2.085-8.701-8.427-6.617-14.166l20.256-55.766
							c2.085-5.739,8.427-8.701,14.166-6.617l55.766,20.256c5.739,2.084,8.701,8.427,6.617,14.166l-20.256,55.766
							C1835.444,2294.618,1829.102,2297.58,1823.363,2295.495z"/>
					</g>
					<g>
						<path style="fill:#000072;" d="M1941.809,2338.519l-55.766-20.256c-5.739-2.085-8.701-8.427-6.617-14.166l20.256-55.766
							c2.085-5.739,8.427-8.701,14.166-6.617l55.766,20.256c5.739,2.084,8.701,8.427,6.617,14.166l-20.256,55.766
							C1953.89,2337.642,1947.548,2340.604,1941.809,2338.519z"/>
					</g>
					<g>
						<path style="fill:#000072;" d="M1780.247,2409.765l-55.766-20.256c-5.739-2.084-8.701-8.427-6.617-14.165l20.256-55.766
							c2.085-5.739,8.427-8.701,14.165-6.617l55.766,20.256c5.739,2.084,8.701,8.427,6.617,14.165l-20.256,55.766
							C1792.328,2408.887,1785.986,2411.85,1780.247,2409.765z"/>
					</g>
					<g>
						<path style="fill:#000072;" d="M1898.693,2452.789l-55.766-20.256c-5.739-2.084-8.701-8.427-6.617-14.165l20.256-55.766
							c2.085-5.739,8.427-8.701,14.165-6.617l55.766,20.256c5.739,2.084,8.701,8.427,6.617,14.166l-20.256,55.766
							C1910.774,2451.911,1904.432,2454.874,1898.693,2452.789z"/>
					</g>
					<g>
						<path style="fill:#000072;" d="M1965.187,2598.41c-2.954,0-5.889-0.752-8.516-2.227
							c-185.032-103.95-510.256-173.12-513.521-173.804l7.158-34.033c13.154,2.769,315.852,67.163,506.97,168.554
							c22.373-47.676,88.42-187.529,144.656-297.832l30.981,15.791c-68.262,133.901-151.138,311.724-151.965,313.501
							c-2.046,4.389-5.825,7.729-10.435,9.214C1968.778,2598.132,1966.979,2598.41,1965.187,2598.41z"/>
					</g>
					<g>
						
							<rect x="1959.509" y="2583.365" transform="matrix(0.948 -0.3184 0.3184 0.948 -731.4052 765.858)" style="fill:#000072;" width="34.779" height="73.56"/>
					</g>
					<g>
						<path style="fill:#000072;" d="M1603.502,2445.304l-33.027-10.898l52.144-158.027l-39.585-9.243
							c-4.875-1.138-9.021-4.321-11.382-8.74c-2.358-4.414-2.7-9.634-0.938-14.316l58.1-154.404l32.549,12.246l-51.121,135.854
							l38.801,9.063c4.754,1.113,8.821,4.17,11.208,8.423c2.39,4.258,2.878,9.326,1.35,13.96L1603.502,2445.304z"/>
					</g>
				</g>
			</g>
			<g>
				<g>
					<path style="fill:#FFFFFF;" d="M2065.91,2530.045c28.562,15.383,111.376,64.584,198.864,159.648
						c24.096,26.183,67.196,22.297,85.303-8.335c0.363-0.615,0.724-1.234,1.082-1.858c11.426-19.919,8.81-44.943-6.37-62.173
						c-37.978-43.104-123.46-131.332-233.274-190.452c-5.75-3.096-12.51-3.703-18.754-1.79
						c-17.258,5.287-47.367,23.529-39.472,86.324C2054.281,2519.297,2058.91,2526.275,2065.91,2530.045z"/>
				</g>
				<g style="opacity:0.3;">
					<path style="fill:#000072;" d="M2274.71,2630.076c-87.488-95.064-170.303-144.266-198.865-159.648
						c-6.999-3.77-11.629-10.748-12.62-18.635c-0.17-1.352-0.226-2.568-0.361-3.879c-8.258,13.1-13.407,33.02-9.575,63.496
						c0.992,7.888,5.621,14.866,12.621,18.635c28.562,15.382,111.376,64.584,198.865,159.648
						c24.096,26.183,67.196,22.297,85.303-8.335c0.363-0.614,0.724-1.234,1.082-1.858c8.746-15.247,9.237-33.474,2.19-48.918
						C2332.854,2652.795,2296.229,2653.458,2274.71,2630.076z"/>
				</g>
				<g>
					<path style="fill:#000072;" d="M2304.305,2724.479c-19.917,0-38.66-8.159-52.327-23.008
						c-84.763-92.109-164.126-139.858-194.314-156.118l0,0c-11.843-6.377-19.929-18.257-21.629-31.778
						c-9.758-77.607,32.857-99.365,51.629-105.117c10.662-3.262,22.356-2.134,32.095,3.105
						c110.742,59.624,196.697,147.305,238.076,194.268c20.151,22.876,23.53,55.957,8.406,82.319l-1.196,2.056
						c-11.328,19.165-30.647,31.504-53,33.862C2309.449,2724.342,2306.866,2724.479,2304.305,2724.479z M2074.154,2514.738
						c31.733,17.085,115.078,67.197,203.416,163.179c7.898,8.589,19.148,12.817,30.828,11.567
						c11.304-1.191,21.038-7.378,26.711-16.972l0.945-1.626c7.734-13.481,5.991-30.371-4.312-42.065
						c-39.839-45.21-122.5-129.58-228.469-186.631c-1.609-0.869-3.589-1.045-5.417-0.479c-22.554,6.909-32,30.259-27.312,67.529
						C2070.841,2511.623,2072.191,2513.678,2074.154,2514.738L2074.154,2514.738z"/>
				</g>
			</g>
		</g>
		<g>
			<g>
				<path style="fill:#FFFFFF;" d="M836.843,3429.335c0.471,4.944-9.253,10.221-24.165,14.037
					c-7.529,1.927-12.975,8.52-13.445,16.277c-0.932,15.364-4.278,25.91-9.222,26.381c-4.944,0.471-10.221-9.253-14.037-24.164
					c-1.927-7.529-8.521-12.976-16.278-13.445c-15.375-0.93-25.946-4.275-26.417-9.219c-0.474-4.972,9.266-10.256,24.18-14.055
					c7.54-1.921,12.996-8.519,13.466-16.285c0.93-15.38,4.276-25.925,9.22-26.396s10.221,9.252,14.038,24.181
					c1.927,7.537,8.531,12.986,16.297,13.449C825.831,3421.011,836.369,3424.363,836.843,3429.335z"/>
			</g>
			<g>
				<path style="fill:#FFFFFF;" d="M3045.016,2776.983c0,6.133-12.573,11.482-31.352,14.427
					c-9.481,1.487-16.949,8.954-18.436,18.435c-2.945,18.779-8.294,31.352-14.427,31.352c-6.133,0-11.482-12.573-14.427-31.351
					c-1.487-9.482-8.955-16.95-18.438-18.436c-18.793-2.945-31.397-8.294-31.397-14.427c0-6.168,12.593-11.523,31.373-14.447
					c9.494-1.479,16.975-8.951,18.462-18.444c2.945-18.799,8.293-31.37,14.426-31.37c6.132,0,11.481,12.571,14.426,31.371
					c1.487,9.492,8.967,16.964,18.46,18.443C3032.454,2765.461,3045.016,2770.816,3045.016,2776.983z"/>
			</g>
			<g>
				<path style="fill:#FFFFFF;" d="M2662.352,506.252c0,6.8-13.941,12.731-34.762,15.996c-10.513,1.648-18.792,9.928-20.441,20.441
					c-3.265,20.822-9.196,34.763-15.996,34.763c-6.8,0-12.731-13.94-15.996-34.762c-1.649-10.513-9.93-18.794-20.443-20.441
					c-20.838-3.265-34.813-9.196-34.813-15.997c0-6.839,13.963-12.777,34.786-16.019c10.527-1.639,18.822-9.925,20.47-20.45
					c3.265-20.844,9.196-34.783,15.995-34.783s12.73,13.939,15.996,34.784c1.649,10.524,9.943,18.809,20.468,20.45
					C2648.423,493.476,2662.352,499.414,2662.352,506.252z"/>
			</g>
			<g>
				<circle style="fill:#FFFFFF;" cx="3254.481" cy="862.199" r="18.33"/>
			</g>
			<g>
				
					<ellipse transform="matrix(0.7071 -0.7071 0.7071 0.7071 -984.4911 3227.2983)" style="fill:#FFFFFF;" cx="3403.448" cy="2802.035" rx="21.736" ry="21.736"/>
			</g>
			<g>
				<circle style="fill:#FFFFFF;" cx="2599.301" cy="3352.651" r="21.736"/>
			</g>
			<g>
				
					<ellipse transform="matrix(0.7071 -0.7071 0.7071 0.7071 -534.5935 816.5015)" style="fill:#FFFFFF;" cx="718.308" cy="1053.562" rx="21.736" ry="21.736"/>
			</g>
			<g>
				
					<ellipse transform="matrix(0.2298 -0.9732 0.9732 0.2298 1445.7632 3406.2458)" style="fill:#FFFFFF;" cx="2874.871" cy="789.722" rx="18.33" ry="18.33"/>
			</g>
			<g>
				
					<ellipse transform="matrix(0.9239 -0.3827 0.3827 0.9239 -176.3818 296.7298)" style="fill:#FFFFFF;" cx="657.689" cy="591.73" rx="21.735" ry="21.736"/>
			</g>
			<g>
				<path style="fill:#FFFFFF;" d="M491.343,3398.145c1.078,11.32-7.224,21.37-18.544,22.449
					c-11.32,1.078-21.371-7.224-22.449-18.543c-1.078-11.32,7.224-21.371,18.544-22.449S490.264,3386.825,491.343,3398.145z"/>
			</g>
			<g>
				
					<ellipse transform="matrix(0.9239 -0.3827 0.3827 0.9239 35.8431 1344.1731)" style="fill:#FFFFFF;" cx="3396.723" cy="581.989" rx="9.427" ry="9.427"/>
			</g>
			<g>
				
					<ellipse transform="matrix(0.1602 -0.9871 0.9871 0.1602 -923.3245 5853.5483)" style="fill:#FFFFFF;" cx="2978.35" cy="3469.393" rx="11.178" ry="11.178"/>
			</g>
			<g>
				
					<ellipse transform="matrix(0.2298 -0.9732 0.9732 0.2298 305.5971 1552.2744)" style="fill:#FFFFFF;" cx="1133.489" cy="583.068" rx="11.178" ry="11.178"/>
			</g>
			<g>
				
					<ellipse transform="matrix(0.7071 -0.7071 0.7071 0.7071 -824.2795 613.3666)" style="fill:#FFFFFF;" cx="328.259" cy="1301.677" rx="11.178" ry="11.178"/>
			</g>
			<g>
				
					<ellipse transform="matrix(0.6369 -0.771 0.771 0.6369 -2166.9331 1527.9348)" style="fill:#FFFFFF;" cx="538.504" cy="3064.264" rx="10.589" ry="10.589"/>
			</g>
			<g>
				
					<ellipse transform="matrix(0.7071 -0.7071 0.7071 0.7071 -1282.08 3261.5613)" style="fill:#FFFFFF;" cx="3296.013" cy="3178.388" rx="11.178" ry="11.178"/>
			</g>
			<g>
				
					<ellipse transform="matrix(0.2298 -0.9732 0.9732 0.2298 -1214.4344 1886.5846)" style="fill:#FFFFFF;" cx="584.683" cy="1710.544" rx="20.589" ry="20.589"/>
			</g>
		</g>
	</g>
</g>
</svg>
