<svg xmlns="http://www.w3.org/2000/svg" style="background-color: #450ba0;" version="1.1" viewBox="90 60 400 200" width="400" height="200" xmlns:xlink="http://www.w3.org/1999/xlink">
				<defs>
				<path d="M 0.00 0.00 L 577.00 0.00 L 577.00 327.00 L 0.00 327.00 L 0.00 0.00 Z M 342.16 21.34 C 340.49 21.92 338.82 22.51 337.15 23.11 C 338.52 24.69 340.33 25.05 342.19 25.75 C 342.93 27.72 342.48 29.51 344.93 30.11 C 345.24 28.67 345.56 27.24 345.87 25.81 C 347.77 25.14 349.61 24.58 351.11 23.17 C 349.51 22.59 347.87 22.07 346.32 21.38 C 345.47 20.13 345.28 18.32 344.79 16.89 C 342.53 17.63 342.87 19.43 342.16 21.34 Z M 163.56 29.75 C 163.49 30.68 163.48 31.61 163.51 32.54 C 164.29 33.12 165.37 33.30 166.29 33.62 C 166.74 32.71 167.19 31.80 167.64 30.90 C 167.04 30.39 166.43 29.89 165.81 29.41 C 165.06 29.51 164.31 29.63 163.56 29.75 Z M 208.07 31.57 C 208.81 31.60 209.54 31.64 210.27 31.67 C 210.28 30.91 210.29 30.15 210.30 29.39 C 208.58 29.94 208.50 29.75 208.07 31.57 Z M 417.56 29.63 C 417.11 30.20 417.11 30.80 417.56 31.40 C 418.11 31.74 418.78 31.80 419.56 31.57 C 419.67 30.87 419.67 30.17 419.56 29.45 C 418.81 29.28 418.14 29.34 417.56 29.63 Z M 368.48 48.56 C 368.75 51.30 369.02 51.13 371.58 51.72 C 371.67 50.54 371.73 49.37 371.78 48.19 C 370.67 48.28 369.57 48.40 368.48 48.56 Z M 238.68 86.38 C 235.08 87.15 231.86 87.34 229.32 90.34 C 225.93 94.02 226.55 98.37 226.46 103.00 C 226.62 109.67 226.28 116.37 226.60 123.03 C 226.78 126.99 228.93 130.56 232.04 132.94 C 234.48 134.79 237.61 135.12 240.53 135.72 C 241.43 137.23 242.32 138.74 243.18 140.26 C 236.79 137.70 230.72 133.82 225.03 129.95 C 221.42 127.44 218.01 125.22 215.56 121.45 C 211.21 114.68 207.72 107.29 205.54 99.53 C 204.62 96.85 204.20 94.38 201.00 93.69 C 198.01 93.89 197.10 96.27 195.53 98.36 C 192.99 97.08 191.16 95.31 188.42 97.40 C 185.20 100.02 186.73 105.96 186.77 109.61 C 183.79 114.23 178.71 120.30 180.77 126.11 C 181.80 129.58 183.21 131.20 186.69 132.31 C 190.22 133.30 191.02 136.20 193.32 138.67 C 195.33 141.07 198.13 142.48 200.25 144.67 C 202.19 147.14 203.51 150.06 205.38 152.59 C 212.57 162.49 222.38 170.11 233.52 175.11 C 232.11 176.76 230.35 178.40 229.39 180.35 C 229.01 183.04 229.82 185.85 229.51 188.56 C 229.20 190.92 228.51 193.25 227.92 195.55 C 215.77 195.13 204.88 199.50 194.70 205.73 C 189.57 208.80 185.00 212.54 180.19 216.07 C 175.82 212.85 171.71 209.99 166.01 210.11 C 158.49 209.77 152.50 214.50 147.91 219.94 C 143.94 225.08 144.96 232.14 149.26 236.74 C 156.87 244.70 167.55 249.91 175.62 257.38 C 177.58 259.08 179.27 260.79 181.96 261.22 C 187.41 262.14 193.05 259.66 197.02 256.02 C 200.13 253.05 202.37 249.47 205.85 246.83 C 213.04 241.22 221.31 236.91 229.89 233.88 C 234.24 232.34 238.53 231.47 243.13 231.22 C 242.43 233.07 241.60 234.82 240.45 236.44 C 236.00 242.82 232.64 249.57 229.27 256.56 C 222.01 255.20 215.30 254.15 208.28 257.24 C 200.83 260.46 197.45 268.37 196.90 276.03 C 196.89 280.40 200.47 283.15 203.99 285.01 C 215.82 291.02 227.45 297.43 238.91 304.11 C 242.35 306.04 245.81 309.01 250.03 308.13 C 256.22 307.18 263.27 303.38 264.64 296.73 C 266.40 289.21 269.91 282.50 273.99 275.99 C 279.63 267.05 286.92 258.69 295.69 252.71 C 298.27 250.96 300.61 248.84 303.27 247.23 C 307.13 247.99 310.33 252.09 314.99 251.90 C 318.70 252.15 321.26 250.21 323.56 247.56 C 339.81 228.70 349.18 206.13 355.23 182.20 C 360.59 180.34 365.85 178.81 370.65 175.64 C 373.21 173.94 375.65 172.94 378.71 172.52 C 380.46 172.33 382.54 171.81 383.99 173.12 C 385.49 178.30 385.08 184.13 386.78 189.24 C 388.89 192.64 394.12 191.93 395.32 188.12 C 395.78 183.46 393.91 178.59 393.88 173.89 C 395.83 171.17 398.11 169.73 398.17 166.01 C 399.07 157.76 399.63 146.61 394.43 139.62 C 394.33 137.22 394.63 134.46 393.77 132.20 C 392.84 129.65 389.91 129.06 387.73 127.95 C 387.54 125.45 386.15 121.57 387.10 119.37 C 405.27 116.57 423.78 114.50 442.02 111.92 C 446.86 111.12 451.76 111.24 456.08 109.28 C 451.31 102.62 444.83 97.45 439.74 90.98 C 443.12 83.41 447.23 76.22 450.70 68.69 C 449.08 68.10 447.75 67.73 446.00 68.03 C 424.63 70.88 403.28 73.67 381.90 76.55 C 380.86 75.18 379.86 73.63 378.55 72.49 C 376.22 70.84 372.54 72.23 371.79 74.97 C 371.37 77.78 372.01 80.85 372.38 83.66 C 374.64 99.76 376.51 115.92 378.87 131.99 C 378.93 133.66 379.72 135.00 378.29 136.29 C 373.20 141.22 366.05 144.23 359.13 145.45 C 356.86 146.03 355.64 144.29 353.81 143.22 C 350.23 140.52 346.21 139.56 341.98 138.36 C 342.49 137.49 343.01 136.61 343.52 135.73 C 347.86 135.07 351.68 134.15 354.52 130.53 C 357.50 127.17 357.69 123.27 357.60 119.00 C 357.46 111.67 357.72 104.32 357.51 97.00 C 357.45 93.02 354.84 89.38 351.23 87.81 C 349.37 87.12 347.34 86.79 345.39 86.38 C 341.32 77.62 335.73 69.92 327.95 64.09 C 308.22 48.69 278.90 48.17 258.40 62.39 C 249.59 68.37 243.14 76.79 238.68 86.38 Z M 403.26 57.22 C 404.52 57.51 405.78 57.79 407.03 58.07 C 406.85 56.88 406.65 55.70 406.43 54.52 C 404.22 54.60 404.31 55.46 403.26 57.22 Z M 168.56 73.81 C 168.97 74.68 169.39 75.54 169.82 76.41 C 170.82 76.17 171.82 75.92 172.82 75.68 C 172.74 74.55 172.64 73.42 172.52 72.29 C 170.60 72.35 169.74 71.97 168.56 73.81 Z M 134.02 96.22 C 133.46 97.25 133.74 97.93 134.88 98.25 C 136.97 97.85 135.76 95.04 134.02 96.22 Z M 156.56 133.47 C 156.61 134.38 156.71 135.27 156.85 136.16 C 158.06 136.92 159.17 136.57 160.50 136.54 C 160.46 135.53 160.41 134.52 160.34 133.52 C 159.06 133.31 157.85 133.33 156.56 133.47 Z M 379.98 227.28 C 379.47 228.72 378.89 230.12 378.26 231.50 C 377.32 232.30 375.84 232.48 374.71 232.92 C 374.51 233.32 374.32 233.72 374.12 234.12 C 375.51 234.60 376.90 235.08 378.28 235.56 C 378.87 237.13 379.47 238.69 380.07 240.26 C 380.69 238.76 381.29 237.26 381.90 235.77 C 383.58 235.10 384.98 234.45 386.33 233.22 C 384.97 232.74 383.52 232.36 382.25 231.68 C 381.37 230.29 380.71 228.76 379.98 227.28 Z M 417.35 237.65 C 418.81 237.73 419.93 238.17 421.17 237.11 C 421.30 236.38 421.31 235.63 421.22 234.85 C 420.03 233.95 418.85 234.07 417.48 234.40 C 417.39 235.48 417.34 236.56 417.35 237.65 Z M 153.80 258.52 C 152.76 259.61 152.68 261.97 154.74 261.52 C 156.41 260.57 155.51 258.60 153.80 258.52 Z M 408.27 269.95 C 407.50 271.52 408.98 273.35 410.36 271.69 C 411.25 270.09 409.62 268.44 408.27 269.95 Z M 343.45 285.49 C 341.66 287.44 343.47 289.37 345.76 288.76 C 348.29 287.67 345.81 282.80 343.45 285.49 Z M 146.53 289.59 C 146.43 291.11 145.60 292.60 147.49 293.30 C 149.95 293.65 150.06 291.36 149.50 289.54 C 148.51 289.53 147.52 289.55 146.53 289.59 Z M 175.27 293.01 C 174.18 293.71 173.07 294.40 171.94 295.06 C 174.93 295.76 176.21 297.02 177.95 299.39 C 178.18 298.27 178.41 297.16 178.65 296.04 C 179.83 295.30 181.01 294.57 182.23 293.88 C 180.92 293.58 179.69 293.15 178.54 292.60 C 177.91 291.54 177.32 290.46 176.77 289.35 C 176.28 290.57 175.80 291.80 175.27 293.01 Z M 379.11 296.60 C 377.52 298.01 379.17 299.50 380.82 298.75 C 382.41 297.53 380.64 295.75 379.11 296.60 Z" id="p0" />
				<path d="M 344.79 16.89 C 345.28 18.32 345.47 20.13 346.32 21.38 C 347.87 22.07 349.51 22.59 351.11 23.17 C 349.61 24.58 347.77 25.14 345.87 25.81 C 345.56 27.24 345.24 28.67 344.93 30.11 C 342.48 29.51 342.93 27.72 342.19 25.75 C 340.33 25.05 338.52 24.69 337.15 23.11 C 338.82 22.51 340.49 21.92 342.16 21.34 C 342.87 19.43 342.53 17.63 344.79 16.89 Z" id="p1" />
				<path d="M 165.81 29.41 C 166.43 29.89 167.04 30.39 167.64 30.90 C 167.19 31.80 166.74 32.71 166.29 33.62 C 165.37 33.30 164.29 33.12 163.51 32.54 C 163.48 31.61 163.49 30.68 163.56 29.75 C 164.31 29.63 165.06 29.51 165.81 29.41 Z" id="p2" />
				<path d="M 210.30 29.39 C 210.29 30.15 210.28 30.91 210.27 31.67 C 209.54 31.64 208.81 31.60 208.07 31.57 C 208.50 29.75 208.58 29.94 210.30 29.39 Z" id="p3" />
				<path d="M 419.56 29.45 C 419.67 30.17 419.67 30.87 419.56 31.57 C 418.78 31.80 418.11 31.74 417.56 31.40 C 417.11 30.80 417.11 30.20 417.56 29.63 C 418.14 29.34 418.81 29.28 419.56 29.45 Z" id="p4" />
				<path d="M 371.78 48.19 C 371.73 49.37 371.67 50.54 371.58 51.72 C 369.02 51.13 368.75 51.30 368.48 48.56 C 369.57 48.40 370.67 48.28 371.78 48.19 Z" id="p5" />
				<path d="M 327.95 64.09 C 335.73 69.92 341.32 77.62 345.39 86.38 C 347.34 86.79 349.37 87.12 351.23 87.81 C 354.84 89.38 357.45 93.02 357.51 97.00 C 357.72 104.32 357.46 111.67 357.60 119.00 C 357.69 123.27 357.50 127.17 354.52 130.53 C 351.68 134.15 347.86 135.07 343.52 135.73 C 343.01 136.61 342.49 137.49 341.98 138.36 C 346.21 139.56 350.23 140.52 353.81 143.22 C 355.64 144.29 356.86 146.03 359.13 145.45 C 366.05 144.23 373.20 141.22 378.29 136.29 C 379.72 135.00 378.93 133.66 378.87 131.99 C 376.51 115.92 374.64 99.76 372.38 83.66 C 372.01 80.85 371.37 77.78 371.79 74.97 C 372.54 72.23 376.22 70.84 378.55 72.49 C 379.86 73.63 380.86 75.18 381.90 76.55 C 403.28 73.67 424.63 70.88 446.00 68.03 C 447.75 67.73 449.08 68.10 450.70 68.69 C 447.23 76.22 443.12 83.41 439.74 90.98 C 444.83 97.45 451.31 102.62 456.08 109.28 C 451.76 111.24 446.86 111.12 442.02 111.92 C 423.78 114.50 405.27 116.57 387.10 119.37 C 386.15 121.57 387.54 125.45 387.73 127.95 C 389.91 129.06 392.84 129.65 393.77 132.20 C 394.63 134.46 394.33 137.22 394.43 139.62 C 399.63 146.61 399.07 157.76 398.17 166.01 C 398.11 169.73 395.83 171.17 393.88 173.89 C 393.91 178.59 395.78 183.46 395.32 188.12 C 394.12 191.93 388.89 192.64 386.78 189.24 C 385.08 184.13 385.49 178.30 383.99 173.12 C 382.54 171.81 380.46 172.33 378.71 172.52 C 375.65 172.94 373.21 173.94 370.65 175.64 C 365.85 178.81 360.59 180.34 355.23 182.20 C 349.18 206.13 339.81 228.70 323.56 247.56 C 321.26 250.21 318.70 252.15 314.99 251.90 C 310.33 252.09 307.13 247.99 303.27 247.23 C 300.61 248.84 298.27 250.96 295.69 252.71 C 286.92 258.69 279.63 267.05 273.99 275.99 C 269.91 282.50 266.40 289.21 264.64 296.73 C 263.27 303.38 256.22 307.18 250.03 308.13 C 245.81 309.01 242.35 306.04 238.91 304.11 C 227.45 297.43 215.82 291.02 203.99 285.01 C 200.47 283.15 196.89 280.40 196.90 276.03 C 197.45 268.37 200.83 260.46 208.28 257.24 C 215.30 254.15 222.01 255.20 229.27 256.56 C 232.64 249.57 236.00 242.82 240.45 236.44 C 241.60 234.82 242.43 233.07 243.13 231.22 C 238.53 231.47 234.24 232.34 229.89 233.88 C 221.31 236.91 213.04 241.22 205.85 246.83 C 202.37 249.47 200.13 253.05 197.02 256.02 C 193.05 259.66 187.41 262.14 181.96 261.22 C 179.27 260.79 177.58 259.08 175.62 257.38 C 167.55 249.91 156.87 244.70 149.26 236.74 C 144.96 232.14 143.94 225.08 147.91 219.94 C 152.50 214.50 158.49 209.77 166.01 210.11 C 171.71 209.99 175.82 212.85 180.19 216.07 C 185.00 212.54 189.57 208.80 194.70 205.73 C 204.88 199.50 215.77 195.13 227.92 195.55 C 228.51 193.25 229.20 190.92 229.51 188.56 C 229.82 185.85 229.01 183.04 229.39 180.35 C 230.35 178.40 232.11 176.76 233.52 175.11 C 222.38 170.11 212.57 162.49 205.38 152.59 C 203.51 150.06 202.19 147.14 200.25 144.67 C 198.13 142.48 195.33 141.07 193.32 138.67 C 191.02 136.20 190.22 133.30 186.69 132.31 C 183.21 131.20 181.80 129.58 180.77 126.11 C 178.71 120.30 183.79 114.23 186.77 109.61 C 186.73 105.96 185.20 100.02 188.42 97.40 C 191.16 95.31 192.99 97.08 195.53 98.36 C 197.10 96.27 198.01 93.89 201.00 93.69 C 204.20 94.38 204.62 96.85 205.54 99.53 C 207.72 107.29 211.21 114.68 215.56 121.45 C 218.01 125.22 221.42 127.44 225.03 129.95 C 230.72 133.82 236.79 137.70 243.18 140.26 C 242.32 138.74 241.43 137.23 240.53 135.72 C 237.61 135.12 234.48 134.79 232.04 132.94 C 228.93 130.56 226.78 126.99 226.60 123.03 C 226.28 116.37 226.62 109.67 226.46 103.00 C 226.55 98.37 225.93 94.02 229.32 90.34 C 231.86 87.34 235.08 87.15 238.68 86.38 C 243.14 76.79 249.59 68.37 258.40 62.39 C 278.90 48.17 308.22 48.69 327.95 64.09 Z M 244.31 135.44 C 249.64 144.90 259.02 150.65 269.24 153.59 C 280.79 156.69 293.19 157.03 305.03 155.55 C 315.38 154.26 325.73 150.70 333.46 143.46 C 341.10 136.35 345.01 126.23 345.95 115.99 C 346.97 103.37 345.46 90.88 338.24 80.17 C 332.68 70.84 323.54 63.61 313.55 59.49 C 299.03 53.61 281.90 54.01 267.73 60.73 C 256.09 66.23 246.74 75.93 241.74 87.79 C 238.68 94.92 238.00 102.32 237.82 110.00 C 238.05 118.89 239.46 127.81 244.31 135.44 Z M 381.15 79.75 L 381.36 80.61 C 382.75 89.47 383.81 98.42 384.98 107.32 C 385.35 110.18 385.73 113.03 386.18 115.87 C 399.10 114.65 411.95 112.54 424.84 110.94 C 433.33 109.70 441.90 108.89 450.35 107.44 C 447.01 103.85 443.72 100.21 440.35 96.65 C 438.55 94.66 436.60 93.27 436.03 90.49 C 439.44 84.63 442.14 78.38 445.32 72.40 C 445.52 72.00 445.72 71.60 445.93 71.21 C 424.32 73.89 402.73 76.84 381.15 79.75 Z M 374.77 75.40 C 374.90 77.19 375.05 78.98 375.25 80.77 C 377.85 100.09 380.46 119.39 382.90 138.73 L 384.00 138.65 L 385.70 138.44 C 385.55 135.93 385.25 133.45 384.89 130.96 C 382.72 115.40 380.73 99.81 378.66 84.23 C 378.28 81.21 377.94 78.22 377.21 75.26 C 376.40 75.31 375.58 75.36 374.77 75.40 Z M 229.71 115.78 C 229.85 119.89 228.97 124.80 231.81 128.17 C 233.59 130.56 236.08 131.43 238.76 132.47 C 237.76 129.38 236.74 126.32 236.01 123.16 C 233.75 112.22 234.36 100.59 237.36 89.85 C 235.17 90.44 233.18 90.74 231.62 92.58 C 229.96 94.40 229.71 96.61 229.71 98.99 C 229.70 104.59 229.76 110.18 229.71 115.78 Z M 346.99 89.74 C 347.60 93.67 348.52 97.53 349.23 101.45 C 349.25 108.46 349.50 115.09 348.28 122.03 C 347.63 125.66 346.40 128.91 345.32 132.45 C 348.25 131.32 350.93 130.42 352.65 127.60 C 355.07 124.23 354.24 119.67 354.38 115.73 C 354.25 109.46 354.50 103.18 354.29 96.91 C 353.91 92.67 350.82 90.68 346.99 89.74 Z M 199.30 110.44 C 199.45 111.06 199.59 111.68 199.74 112.30 C 202.46 112.91 205.13 113.62 207.78 114.49 C 207.12 112.91 206.46 111.33 205.77 109.77 C 203.83 105.59 202.62 101.19 201.26 96.80 C 200.35 97.46 199.36 97.83 199.05 99.02 C 198.17 102.69 198.53 106.77 199.30 110.44 Z M 191.57 112.84 C 192.99 112.69 194.41 112.54 195.84 112.39 C 195.96 107.75 194.43 102.37 190.98 99.11 C 188.00 102.70 190.31 108.90 191.57 112.84 Z M 190.02 124.44 C 191.19 124.52 192.35 124.60 193.52 124.66 C 192.57 124.22 191.61 123.79 190.65 123.37 C 188.63 120.42 187.92 119.55 189.34 115.94 C 188.89 114.92 188.44 113.89 187.98 112.87 C 187.16 114.59 186.07 115.86 186.63 117.89 C 187.58 120.15 188.91 122.25 190.02 124.44 Z M 204.78 128.23 C 203.56 128.19 202.35 128.14 201.14 128.07 C 199.74 127.63 198.36 127.14 196.96 126.71 C 194.70 127.99 192.09 128.68 192.44 131.89 C 194.53 136.14 197.97 139.01 201.89 141.50 C 207.74 139.95 212.20 136.56 213.87 130.55 C 214.36 129.14 214.60 127.62 214.90 126.16 C 213.19 123.98 211.95 121.02 209.92 119.20 C 206.51 117.62 201.72 116.36 197.97 116.21 C 195.83 116.12 194.15 116.49 192.53 117.95 C 192.35 119.37 192.78 120.46 193.84 121.21 C 197.08 124.02 201.18 125.88 204.78 128.23 Z M 185.52 128.50 C 187.08 128.67 188.64 128.86 190.20 129.10 C 186.96 126.91 185.60 123.84 183.78 120.54 C 183.19 123.92 183.79 125.64 185.52 128.50 Z M 217.94 128.83 C 216.47 134.30 213.94 139.23 208.91 142.19 C 207.31 142.91 205.67 143.55 204.03 144.18 C 210.54 156.64 221.99 166.54 234.86 172.01 C 237.68 164.89 241.44 158.23 245.87 152.01 C 247.15 150.34 246.45 147.40 246.61 145.40 C 236.23 141.35 226.82 135.50 217.94 128.83 Z M 388.36 131.62 C 388.66 133.72 388.21 136.75 389.64 138.46 C 392.37 139.00 391.18 133.90 390.39 132.64 C 389.72 132.29 389.04 131.95 388.36 131.62 Z M 366.77 166.89 C 370.36 170.32 374.19 170.17 378.83 169.48 C 378.76 166.58 378.77 163.73 378.08 160.89 C 376.99 156.02 376.60 151.02 375.81 146.08 C 376.55 143.52 378.95 141.43 380.43 139.24 C 376.87 141.51 373.74 144.09 369.74 145.62 C 368.14 146.45 365.40 146.95 364.62 148.72 C 361.51 154.69 362.93 161.63 366.77 166.89 Z M 384.41 150.68 C 387.78 150.46 390.97 149.83 393.71 147.75 C 394.28 144.72 393.78 143.22 391.03 141.79 C 388.11 141.26 385.30 141.13 382.66 142.72 C 380.80 143.92 378.81 145.47 379.15 147.95 C 379.06 150.75 382.48 150.40 384.41 150.68 Z M 337.71 143.99 C 337.65 144.82 337.61 145.66 337.58 146.49 C 342.67 146.55 347.70 146.73 352.78 146.25 C 350.04 144.47 347.19 143.08 344.05 142.14 C 342.61 141.84 341.14 141.62 339.68 141.42 C 338.96 142.23 338.30 143.09 337.71 143.99 Z M 249.64 147.18 L 249.80 149.70 C 249.61 151.56 251.28 152.42 252.50 153.46 C 261.35 159.77 272.31 162.52 282.99 163.54 C 295.77 164.48 308.36 163.76 320.48 159.31 C 325.39 157.41 330.43 154.82 334.27 151.16 L 334.34 149.50 L 334.43 147.14 C 322.45 156.77 308.01 159.41 293.00 159.69 C 277.34 159.69 262.23 157.13 249.64 147.18 Z M 337.37 149.81 C 337.57 150.59 337.78 151.36 337.99 152.14 C 330.76 159.54 320.71 163.28 310.79 165.42 C 292.17 169.07 272.63 167.47 255.33 159.43 C 252.96 157.74 250.62 156.01 248.19 154.41 C 243.32 161.07 239.70 168.43 236.66 176.08 C 238.86 176.56 241.04 177.11 243.21 177.69 C 244.60 174.51 246.03 171.35 247.60 168.24 C 263.05 168.61 278.71 173.80 292.54 180.46 C 295.53 181.99 298.78 183.37 301.43 185.44 C 302.59 187.89 303.42 191.30 303.58 193.98 C 302.88 196.04 301.89 198.02 300.99 200.00 C 304.32 201.98 307.57 204.10 310.62 206.51 C 314.70 209.65 318.30 213.27 321.91 216.93 C 326.86 207.05 330.72 196.95 333.87 186.36 C 331.63 185.84 328.01 186.30 326.66 184.16 C 330.00 183.33 333.39 182.74 336.82 182.35 C 348.23 180.93 359.33 178.37 369.52 172.87 C 367.40 171.41 365.34 169.93 363.60 168.02 C 359.53 161.80 358.59 155.52 360.94 148.40 C 353.12 149.95 345.29 149.82 337.37 149.81 Z M 385.75 153.79 C 383.75 153.78 381.75 153.68 379.76 153.63 C 380.26 157.32 383.15 157.67 386.23 158.20 C 388.27 158.46 390.19 157.97 392.06 157.22 C 393.29 156.70 394.38 156.02 395.37 155.13 C 395.77 153.78 395.66 152.24 395.74 150.84 C 392.43 152.18 389.41 153.69 385.75 153.79 Z M 390.08 161.12 C 386.85 161.44 383.71 160.99 380.51 160.57 C 383.90 163.91 388.39 165.79 393.06 163.95 C 395.50 162.77 395.65 161.68 395.99 159.19 C 394.04 159.87 392.07 160.62 390.08 161.12 Z M 382.60 165.64 C 382.50 166.54 382.39 167.43 382.27 168.33 C 386.16 170.04 390.11 171.05 394.17 169.18 C 394.41 168.48 394.65 167.77 394.90 167.06 C 391.17 167.70 387.52 167.96 383.76 167.38 C 383.37 166.80 382.98 166.22 382.60 165.64 Z M 240.20 198.04 C 243.54 198.82 246.88 199.65 250.21 200.49 C 251.65 196.15 253.01 191.78 254.52 187.46 C 252.96 186.84 250.25 186.88 249.55 185.17 C 250.86 180.60 253.12 176.46 254.06 171.76 C 252.62 171.67 251.15 171.52 249.70 171.57 C 245.40 179.83 242.21 188.95 240.20 198.04 Z M 257.74 172.35 C 256.30 176.05 254.93 179.78 253.42 183.46 C 254.91 184.14 257.38 184.38 258.27 185.86 C 256.95 191.10 254.89 196.16 253.31 201.33 L 254.92 201.78 C 265.66 204.83 275.48 208.40 285.60 213.07 C 289.60 204.31 293.92 195.71 298.07 187.02 C 295.48 185.64 292.89 184.21 290.24 182.96 C 279.84 177.96 269.11 174.38 257.74 172.35 Z M 389.16 184.90 C 389.29 185.94 389.42 186.97 389.56 188.00 C 390.51 187.88 391.45 187.75 392.39 187.63 C 391.87 183.72 391.51 179.84 390.45 176.02 C 390.44 175.17 390.44 174.33 390.43 173.48 C 389.47 173.46 388.51 173.47 387.56 173.50 C 387.93 177.32 388.58 181.12 389.16 184.90 Z M 232.14 181.35 C 232.31 182.72 232.24 184.48 233.51 185.34 C 235.32 186.47 237.83 186.68 239.91 187.06 C 240.19 186.17 240.47 185.30 240.76 184.42 C 241.15 183.19 241.54 181.95 241.93 180.72 C 238.71 180.10 234.42 177.64 232.14 181.35 Z M 345.19 184.37 C 342.61 184.83 340.03 185.24 337.44 185.65 C 334.27 196.51 330.51 207.13 325.29 217.20 C 323.93 219.66 324.41 222.11 323.65 224.72 C 322.72 227.58 319.16 228.06 317.51 230.47 C 315.17 233.71 312.91 236.98 310.17 239.92 C 308.79 241.44 307.40 242.95 306.05 244.51 C 308.99 246.03 312.52 249.23 315.98 248.69 C 318.44 248.55 320.20 246.42 321.73 244.72 C 336.70 227.01 345.95 205.43 351.61 183.11 C 349.46 183.51 347.33 183.95 345.19 184.37 Z M 232.70 188.93 C 231.97 192.41 231.26 195.90 230.40 199.36 C 216.61 196.98 203.50 203.89 192.25 211.08 C 192.60 219.64 197.09 227.48 203.23 233.26 C 205.58 235.28 208.12 237.80 211.07 238.90 C 212.66 238.37 214.19 237.47 215.66 236.68 C 222.86 232.63 230.69 229.82 238.80 228.22 C 236.76 225.00 235.42 221.91 234.43 218.22 C 237.72 222.44 240.64 226.65 245.27 229.56 C 249.02 225.62 252.85 222.76 257.69 220.27 C 258.62 220.23 259.56 220.20 260.50 220.16 C 254.89 224.77 249.62 229.36 245.22 235.19 C 242.32 239.05 240.00 243.16 237.50 247.27 C 243.77 257.07 253.34 264.34 264.57 267.47 C 267.94 268.38 271.38 268.82 274.86 268.95 C 280.28 261.40 286.78 254.70 294.55 249.56 C 302.78 244.04 309.19 236.71 314.90 228.68 C 308.74 222.52 302.63 216.60 294.96 212.29 C 293.15 216.22 291.22 220.09 289.42 224.03 C 285.08 223.02 281.42 220.29 277.18 218.76 C 266.78 214.63 256.04 210.76 245.10 208.35 C 242.95 207.56 240.79 206.86 238.59 206.21 C 237.85 203.91 237.00 201.53 236.71 199.12 C 237.03 196.19 237.99 193.26 238.75 190.42 C 236.75 189.88 234.73 189.38 232.70 188.93 Z M 299.21 192.11 C 297.81 195.00 296.33 197.92 295.13 200.88 C 298.64 199.10 299.08 195.96 300.63 192.70 L 299.21 192.11 Z M 240.16 201.45 C 240.78 202.30 241.41 203.14 242.06 203.97 C 256.88 207.74 271.63 212.42 285.49 218.93 C 285.17 218.08 284.86 217.24 284.55 216.39 C 270.60 209.39 255.36 204.82 240.16 201.45 Z M 296.29 204.33 L 296.04 204.54 C 296.07 206.08 295.95 207.81 296.42 209.29 C 301.73 212.69 306.86 216.17 311.35 220.64 C 313.14 222.25 314.77 224.55 316.96 225.57 C 320.14 225.89 321.16 223.49 320.77 220.74 C 314.34 213.33 307.19 207.33 298.72 202.38 C 297.91 203.03 297.10 203.68 296.29 204.33 Z M 288.26 218.29 C 290.48 214.04 293.19 210.73 292.67 205.67 C 291.00 209.65 287.68 213.92 288.26 218.29 Z M 151.51 220.59 C 149.53 222.78 148.60 225.02 148.75 228.03 C 148.90 231.62 150.98 234.16 153.52 236.45 C 160.52 242.57 168.67 247.36 175.86 253.18 C 177.99 254.82 180.12 257.91 182.91 258.15 C 188.90 258.75 194.02 255.02 197.61 250.59 C 200.56 246.85 204.12 243.89 207.97 241.13 C 205.10 239.12 202.30 237.02 199.84 234.51 C 194.18 228.73 190.19 221.42 189.07 213.35 C 184.76 216.65 180.90 220.30 176.11 222.94 C 176.65 221.43 177.25 219.94 177.80 218.44 C 174.20 215.66 170.78 213.23 166.01 213.26 C 160.10 213.03 155.51 216.67 151.51 220.59 Z M 235.78 250.76 C 232.98 255.87 231.35 261.22 227.90 265.98 C 227.87 263.86 227.87 261.73 227.88 259.61 C 222.30 258.44 217.00 257.62 211.43 259.46 C 206.69 260.94 203.25 264.70 201.52 269.27 C 200.91 271.88 199.47 275.69 200.71 278.24 C 202.37 281.00 206.29 282.49 209.03 283.96 C 219.28 289.25 229.40 294.85 239.39 300.60 C 241.86 301.93 244.27 303.98 246.98 304.72 C 251.92 305.31 257.82 302.81 260.47 298.52 C 262.08 294.63 262.74 290.43 264.62 286.61 C 266.67 281.49 269.90 277.05 272.16 272.05 C 268.98 271.64 265.83 271.22 262.75 270.30 C 251.76 267.05 242.44 260.02 235.78 250.76 Z" id="p6" />
				<path d="M 406.43 54.52 C 406.65 55.70 406.85 56.88 407.03 58.07 C 405.78 57.79 404.52 57.51 403.26 57.22 C 404.31 55.46 404.22 54.60 406.43 54.52 Z" id="p7" />
				<path d="M 313.55 59.49 C 323.54 63.61 332.68 70.84 338.24 80.17 C 339.55 88.39 340.54 96.49 339.37 104.81 C 336.61 96.96 331.37 90.96 324.11 86.94 C 313.42 80.97 300.08 79.16 288.00 79.64 C 276.35 80.38 263.86 83.09 254.59 90.60 C 243.84 99.11 239.85 115.55 246.28 127.80 C 249.05 133.54 253.56 138.25 259.01 141.53 C 253.82 141.92 248.93 137.56 244.31 135.44 C 239.46 127.81 238.05 118.89 237.82 110.00 C 238.00 102.32 238.68 94.92 241.74 87.79 C 246.74 75.93 256.09 66.23 267.73 60.73 C 281.90 54.01 299.03 53.61 313.55 59.49 Z" id="p8" />
				<path d="M 445.93 71.21 C 445.72 71.60 445.52 72.00 445.32 72.40 C 439.34 73.46 433.32 73.97 427.38 75.24 C 417.13 75.96 407.11 77.80 396.92 78.92 C 391.73 79.53 386.50 80.84 381.36 80.61 L 381.15 79.75 C 402.73 76.84 424.32 73.89 445.93 71.21 Z" id="p9" />
				<path d="M 172.52 72.29 C 172.64 73.42 172.74 74.55 172.82 75.68 C 171.82 75.92 170.82 76.17 169.82 76.41 C 169.39 75.54 168.97 74.68 168.56 73.81 C 169.74 71.97 170.60 72.35 172.52 72.29 Z" id="p10" />
				<path d="M 445.32 72.40 C 442.14 78.38 439.44 84.63 436.03 90.49 C 433.15 92.39 430.09 93.92 426.92 95.27 C 427.21 88.29 423.12 82.02 416.52 79.68 C 408.59 76.65 399.21 81.43 396.71 89.47 C 394.72 94.79 396.38 100.35 399.78 104.66 C 395.18 107.45 390.20 107.58 384.98 107.32 C 383.81 98.42 382.75 89.47 381.36 80.61 C 386.50 80.84 391.73 79.53 396.92 78.92 C 407.11 77.80 417.13 75.96 427.38 75.24 C 433.32 73.97 439.34 73.46 445.32 72.40 Z" id="p11" />
				<path d="M 374.77 75.40 C 375.58 75.36 376.40 75.31 377.21 75.26 C 376.51 76.43 376.25 77.69 376.44 79.05 C 378.26 93.01 380.26 107.04 381.98 121.01 C 382.79 126.89 383.72 132.72 384.00 138.65 L 382.90 138.73 C 380.46 119.39 377.85 100.09 375.25 80.77 C 375.05 78.98 374.90 77.19 374.77 75.40 Z" id="p12" />
				<path d="M 377.21 75.26 C 377.94 78.22 378.28 81.21 378.66 84.23 C 380.73 99.81 382.72 115.40 384.89 130.96 C 385.25 133.45 385.55 135.93 385.70 138.44 L 384.00 138.65 C 383.72 132.72 382.79 126.89 381.98 121.01 C 380.26 107.04 378.26 93.01 376.44 79.05 C 376.25 77.69 376.51 76.43 377.21 75.26 Z" id="p13" />
				<path d="M 416.52 79.68 C 423.12 82.02 427.21 88.29 426.92 95.27 C 426.48 99.62 424.69 103.50 421.24 106.26 C 415.10 111.59 405.14 110.69 399.78 104.66 C 396.38 100.35 394.72 94.79 396.71 89.47 C 399.21 81.43 408.59 76.65 416.52 79.68 Z M 407.43 81.54 C 401.75 83.34 397.59 88.99 398.10 95.01 C 398.30 102.63 405.47 108.61 413.02 107.56 C 421.62 106.68 427.20 97.23 423.76 89.25 C 421.28 82.88 413.90 79.51 407.43 81.54 Z" id="p14" />
				<path d="M 288.00 79.64 C 300.08 79.16 313.42 80.97 324.11 86.94 C 331.37 90.96 336.61 96.96 339.37 104.81 C 340.89 110.84 341.62 116.77 339.79 122.85 C 337.13 131.83 330.51 139.07 322.15 143.17 C 310.20 149.27 295.12 149.99 282.00 148.70 C 273.83 148.08 266.08 145.64 259.01 141.53 C 253.56 138.25 249.05 133.54 246.28 127.80 C 239.85 115.55 243.84 99.11 254.59 90.60 C 263.86 83.09 276.35 80.38 288.00 79.64 Z M 247.10 121.66 C 248.05 113.16 249.83 105.35 256.37 99.35 C 259.21 98.92 262.16 99.49 265.03 99.09 C 272.63 97.74 279.71 94.40 283.92 87.65 C 294.82 85.64 306.43 86.89 317.01 90.01 C 322.38 91.55 327.00 94.39 331.64 97.41 C 325.05 89.35 315.40 85.82 305.46 83.95 C 298.92 83.04 292.59 82.31 286.00 83.09 C 275.43 83.80 263.26 86.93 255.31 94.30 C 247.72 101.19 245.04 111.78 247.10 121.66 Z" id="p15" />
				<path d="M 338.24 80.17 C 345.46 90.88 346.97 103.37 345.95 115.99 C 345.01 126.23 341.10 136.35 333.46 143.46 C 325.73 150.70 315.38 154.26 305.03 155.55 C 293.19 157.03 280.79 156.69 269.24 153.59 C 259.02 150.65 249.64 144.90 244.31 135.44 C 248.93 137.56 253.82 141.92 259.01 141.53 C 266.08 145.64 273.83 148.08 282.00 148.70 C 295.12 149.99 310.20 149.27 322.15 143.17 C 330.51 139.07 337.13 131.83 339.79 122.85 C 341.62 116.77 340.89 110.84 339.37 104.81 C 340.54 96.49 339.55 88.39 338.24 80.17 Z" id="p16" />
				<path d="M 407.43 81.54 C 413.90 79.51 421.28 82.88 423.76 89.25 C 427.20 97.23 421.62 106.68 413.02 107.56 C 405.47 108.61 398.30 102.63 398.10 95.01 C 397.59 88.99 401.75 83.34 407.43 81.54 Z M 406.34 96.19 C 404.46 94.78 401.59 93.81 401.66 91.00 C 401.58 87.98 404.38 85.99 407.27 86.69 C 408.59 87.51 409.80 88.55 411.04 89.49 C 409.72 88.08 408.38 85.36 406.12 85.53 C 402.23 84.90 399.32 88.91 400.64 92.47 C 401.67 95.10 403.98 95.34 406.34 96.19 Z M 408.84 100.27 C 409.15 101.97 409.45 103.67 409.74 105.37 C 411.24 105.38 412.75 105.38 414.25 105.37 C 414.55 103.74 414.85 102.12 415.15 100.50 C 414.31 101.71 413.92 105.42 411.98 104.78 C 409.93 105.58 409.65 101.50 408.84 100.27 Z" id="p17" />
				<path d="M 286.00 83.09 C 292.59 82.31 298.92 83.04 305.46 83.95 C 315.40 85.82 325.05 89.35 331.64 97.41 C 327.00 94.39 322.38 91.55 317.01 90.01 C 306.43 86.89 294.82 85.64 283.92 87.65 C 279.71 94.40 272.63 97.74 265.03 99.09 C 262.16 99.49 259.21 98.92 256.37 99.35 C 249.83 105.35 248.05 113.16 247.10 121.66 C 245.04 111.78 247.72 101.19 255.31 94.30 C 263.26 86.93 275.43 83.80 286.00 83.09 Z" id="p18" />
				<path d="M 406.12 85.53 C 408.38 85.36 409.72 88.08 411.04 89.49 C 409.80 88.55 408.59 87.51 407.27 86.69 C 404.38 85.99 401.58 87.98 401.66 91.00 C 401.59 93.81 404.46 94.78 406.34 96.19 C 403.98 95.34 401.67 95.10 400.64 92.47 C 399.32 88.91 402.23 84.90 406.12 85.53 Z" id="p19" />
				<path d="M 237.36 89.85 C 234.36 100.59 233.75 112.22 236.01 123.16 C 235.35 119.31 232.33 118.18 229.71 115.78 C 229.76 110.18 229.70 104.59 229.71 98.99 C 229.71 96.61 229.96 94.40 231.62 92.58 C 233.18 90.74 235.17 90.44 237.36 89.85 Z" id="p20" />
				<path d="M 346.99 89.74 C 350.82 90.68 353.91 92.67 354.29 96.91 C 354.50 103.18 354.25 109.46 354.38 115.73 C 352.74 117.18 351.07 118.57 349.36 119.91 C 349.80 113.91 349.86 107.91 349.29 101.91 L 349.25 101.60 L 349.23 101.45 C 348.52 97.53 347.60 93.67 346.99 89.74 Z" id="p21" />
				<path d="M 436.03 90.49 C 436.60 93.27 438.55 94.66 440.35 96.65 C 443.72 100.21 447.01 103.85 450.35 107.44 C 441.90 108.89 433.33 109.70 424.84 110.94 C 411.95 112.54 399.10 114.65 386.18 115.87 C 385.73 113.03 385.35 110.18 384.98 107.32 C 390.20 107.58 395.18 107.45 399.78 104.66 C 405.14 110.69 415.10 111.59 421.24 106.26 C 424.69 103.50 426.48 99.62 426.92 95.27 C 430.09 93.92 433.15 92.39 436.03 90.49 Z" id="p22" />
				<path d="M 134.02 96.22 C 135.76 95.04 136.97 97.85 134.88 98.25 C 133.74 97.93 133.46 97.25 134.02 96.22 Z" id="p23" />
				<path d="M 201.26 96.80 C 202.62 101.19 203.83 105.59 205.77 109.77 C 203.57 110.30 201.56 110.51 199.30 110.44 C 198.53 106.77 198.17 102.69 199.05 99.02 C 199.36 97.83 200.35 97.46 201.26 96.80 Z" id="p24" />
				<path d="M 190.98 99.11 C 194.43 102.37 195.96 107.75 195.84 112.39 C 194.41 112.54 192.99 112.69 191.57 112.84 C 190.31 108.90 188.00 102.70 190.98 99.11 Z" id="p25" />
				<path d="M 349.23 101.45 L 349.25 101.60 L 349.29 101.91 C 349.86 107.91 349.80 113.91 349.36 119.91 C 351.07 118.57 352.74 117.18 354.38 115.73 C 354.24 119.67 355.07 124.23 352.65 127.60 C 350.93 130.42 348.25 131.32 345.32 132.45 C 346.40 128.91 347.63 125.66 348.28 122.03 C 349.50 115.09 349.25 108.46 349.23 101.45 Z" id="p26" />
				<path d="M 408.84 100.27 C 409.65 101.50 409.93 105.58 411.98 104.78 C 413.92 105.42 414.31 101.71 415.15 100.50 C 414.85 102.12 414.55 103.74 414.25 105.37 C 412.75 105.38 411.24 105.38 409.74 105.37 C 409.45 103.67 409.15 101.97 408.84 100.27 Z" id="p27" />
				<path d="M 205.77 109.77 C 206.46 111.33 207.12 112.91 207.78 114.49 C 205.13 113.62 202.46 112.91 199.74 112.30 C 199.59 111.68 199.45 111.06 199.30 110.44 C 201.56 110.51 203.57 110.30 205.77 109.77 Z" id="p28" />
				<path d="M 187.98 112.87 C 188.44 113.89 188.89 114.92 189.34 115.94 C 187.92 119.55 188.63 120.42 190.65 123.37 C 191.61 123.79 192.57 124.22 193.52 124.66 C 192.35 124.60 191.19 124.52 190.02 124.44 C 188.91 122.25 187.58 120.15 186.63 117.89 C 186.07 115.86 187.16 114.59 187.98 112.87 Z" id="p29" />
				<path d="M 197.97 116.21 C 201.72 116.36 206.51 117.62 209.92 119.20 C 211.95 121.02 213.19 123.98 214.90 126.16 C 214.60 127.62 214.36 129.14 213.87 130.55 C 211.60 132.32 209.23 134.34 206.58 135.50 C 203.36 136.86 199.48 136.46 196.75 134.25 C 195.87 133.41 195.92 131.59 196.61 130.64 C 197.82 129.46 199.65 128.82 201.14 128.07 C 202.35 128.14 203.56 128.19 204.78 128.23 C 201.18 125.88 197.08 124.02 193.84 121.21 C 192.78 120.46 192.35 119.37 192.53 117.95 C 194.15 116.49 195.83 116.12 197.97 116.21 Z" id="p30" />
				<path d="M 229.71 115.78 C 232.33 118.18 235.35 119.31 236.01 123.16 C 236.74 126.32 237.76 129.38 238.76 132.47 C 236.08 131.43 233.59 130.56 231.81 128.17 C 228.97 124.80 229.85 119.89 229.71 115.78 Z" id="p31" />
				<path d="M 183.78 120.54 C 185.60 123.84 186.96 126.91 190.20 129.10 C 188.64 128.86 187.08 128.67 185.52 128.50 C 183.79 125.64 183.19 123.92 183.78 120.54 Z" id="p32" />
				<path d="M 196.96 126.71 C 198.36 127.14 199.74 127.63 201.14 128.07 C 199.65 128.82 197.82 129.46 196.61 130.64 C 195.92 131.59 195.87 133.41 196.75 134.25 C 199.48 136.46 203.36 136.86 206.58 135.50 C 209.23 134.34 211.60 132.32 213.87 130.55 C 212.20 136.56 207.74 139.95 201.89 141.50 C 197.97 139.01 194.53 136.14 192.44 131.89 C 192.09 128.68 194.70 127.99 196.96 126.71 Z" id="p33" />
				<path d="M 217.94 128.83 C 226.82 135.50 236.23 141.35 246.61 145.40 C 246.45 147.40 247.15 150.34 245.87 152.01 C 241.30 154.00 238.33 157.50 233.64 158.57 C 228.27 159.95 222.37 158.44 218.27 154.73 C 214.44 151.21 211.45 146.70 208.91 142.19 C 213.94 139.23 216.47 134.30 217.94 128.83 Z" id="p34" />
				<path d="M 388.36 131.62 C 389.04 131.95 389.72 132.29 390.39 132.64 C 391.18 133.90 392.37 139.00 389.64 138.46 C 388.21 136.75 388.66 133.72 388.36 131.62 Z" id="p35" />
				<path d="M 160.34 133.52 C 160.41 134.52 160.46 135.53 160.50 136.54 C 159.17 136.57 158.06 136.92 156.85 136.16 C 156.71 135.27 156.61 134.38 156.56 133.47 C 157.85 133.33 159.06 133.31 160.34 133.52 Z" id="p36" />
				<path d="M 380.43 139.24 C 378.95 141.43 376.55 143.52 375.81 146.08 C 374.73 150.93 374.39 155.71 374.42 160.66 C 373.71 164.66 370.05 165.60 366.77 166.89 C 362.93 161.63 361.51 154.69 364.62 148.72 C 365.40 146.95 368.14 146.45 369.74 145.62 C 373.74 144.09 376.87 141.51 380.43 139.24 Z" id="p37" />
				<path d="M 391.03 141.79 C 389.22 142.81 386.90 143.97 385.78 145.79 C 385.03 147.28 384.83 149.08 384.41 150.68 C 382.48 150.40 379.06 150.75 379.15 147.95 C 378.81 145.47 380.80 143.92 382.66 142.72 C 385.30 141.13 388.11 141.26 391.03 141.79 Z" id="p38" />
				<path d="M 339.68 141.42 C 341.14 141.62 342.61 141.84 344.05 142.14 C 344.64 143.55 345.24 144.94 345.84 146.34 C 343.23 146.34 340.62 146.33 338.01 146.16 L 337.71 143.99 C 338.30 143.09 338.96 142.23 339.68 141.42 Z" id="p39" />
				<path d="M 344.05 142.14 C 347.19 143.08 350.04 144.47 352.78 146.25 C 347.70 146.73 342.67 146.55 337.58 146.49 C 337.61 145.66 337.65 144.82 337.71 143.99 L 338.01 146.16 C 340.62 146.33 343.23 146.34 345.84 146.34 C 345.24 144.94 344.64 143.55 344.05 142.14 Z" id="p40" />
				<path d="M 391.03 141.79 C 393.78 143.22 394.28 144.72 393.71 147.75 C 390.97 149.83 387.78 150.46 384.41 150.68 C 384.83 149.08 385.03 147.28 385.78 145.79 C 386.90 143.97 389.22 142.81 391.03 141.79 Z" id="p41" />
				<path d="M 208.91 142.19 C 211.45 146.70 214.44 151.21 218.27 154.73 C 222.37 158.44 228.27 159.95 233.64 158.57 C 238.33 157.50 241.30 154.00 245.87 152.01 C 241.44 158.23 237.68 164.89 234.86 172.01 C 221.99 166.54 210.54 156.64 204.03 144.18 C 205.67 143.55 207.31 142.91 208.91 142.19 Z" id="p42" />
				<path d="M 375.81 146.08 C 376.60 151.02 376.99 156.02 378.08 160.89 C 378.77 163.73 378.76 166.58 378.83 169.48 C 374.19 170.17 370.36 170.32 366.77 166.89 C 370.05 165.60 373.71 164.66 374.42 160.66 C 374.39 155.71 374.73 150.93 375.81 146.08 Z" id="p43" />
				<path d="M 249.64 147.18 C 262.23 157.13 277.34 159.69 293.00 159.69 C 308.01 159.41 322.45 156.77 334.43 147.14 L 334.34 149.50 C 321.44 159.37 305.93 162.23 290.00 161.88 C 275.61 161.85 261.51 158.29 249.80 149.70 L 249.64 147.18 Z" id="p44" />
				<path d="M 360.94 148.40 C 358.59 155.52 359.53 161.80 363.60 168.02 C 357.41 170.34 350.58 172.24 343.94 172.29 C 340.85 172.22 338.27 169.11 338.90 166.05 C 339.48 161.18 339.77 156.83 337.99 152.14 C 337.78 151.36 337.57 150.59 337.37 149.81 C 345.29 149.82 353.12 149.95 360.94 148.40 Z" id="p45" />
				<path d="M 249.80 149.70 C 261.51 158.29 275.61 161.85 290.00 161.88 C 305.93 162.23 321.44 159.37 334.34 149.50 L 334.27 151.16 C 330.43 154.82 325.39 157.41 320.48 159.31 C 308.36 163.76 295.77 164.48 282.99 163.54 C 272.31 162.52 261.35 159.77 252.50 153.46 C 251.28 152.42 249.61 151.56 249.80 149.70 Z" id="p46" />
				<path d="M 395.74 150.84 C 395.66 152.24 395.77 153.78 395.37 155.13 C 394.38 156.02 393.29 156.70 392.06 157.22 C 390.11 157.46 388.17 157.62 386.21 157.79 C 386.06 156.46 385.90 155.13 385.75 153.79 C 389.41 153.69 392.43 152.18 395.74 150.84 Z" id="p47" />
				<path d="M 337.99 152.14 C 339.77 156.83 339.48 161.18 338.90 166.05 C 338.27 169.11 340.85 172.22 343.94 172.29 C 350.58 172.24 357.41 170.34 363.60 168.02 C 365.34 169.93 367.40 171.41 369.52 172.87 C 359.33 178.37 348.23 180.93 336.82 182.35 C 333.39 182.74 330.00 183.33 326.66 184.16 C 328.01 186.30 331.63 185.84 333.87 186.36 C 330.72 196.95 326.86 207.05 321.91 216.93 C 318.30 213.27 314.70 209.65 310.62 206.51 C 313.46 204.59 316.14 202.88 317.69 199.69 C 320.22 194.70 321.74 188.58 321.75 182.99 C 321.67 176.21 315.82 170.32 309.01 170.36 C 302.96 170.38 297.10 171.58 291.01 171.01 C 280.05 170.40 269.47 168.72 259.81 163.21 C 258.05 162.25 256.72 160.84 255.33 159.43 C 272.63 167.47 292.17 169.07 310.79 165.42 C 320.71 163.28 330.76 159.54 337.99 152.14 Z" id="p48" />
				<path d="M 379.76 153.63 C 381.75 153.68 383.75 153.78 385.75 153.79 C 385.90 155.13 386.06 156.46 386.21 157.79 C 388.17 157.62 390.11 157.46 392.06 157.22 C 390.19 157.97 388.27 158.46 386.23 158.20 C 383.15 157.67 380.26 157.32 379.76 153.63 Z" id="p49" />
				<path d="M 248.19 154.41 C 250.62 156.01 252.96 157.74 255.33 159.43 C 256.72 160.84 258.05 162.25 259.81 163.21 C 269.47 168.72 280.05 170.40 291.01 171.01 C 297.10 171.58 302.96 170.38 309.01 170.36 C 315.82 170.32 321.67 176.21 321.75 182.99 C 321.74 188.58 320.22 194.70 317.69 199.69 C 316.14 202.88 313.46 204.59 310.62 206.51 C 307.57 204.10 304.32 201.98 300.99 200.00 C 301.89 198.02 302.88 196.04 303.58 193.98 C 303.42 191.30 302.59 187.89 301.43 185.44 C 298.78 183.37 295.53 181.99 292.54 180.46 C 278.71 173.80 263.05 168.61 247.60 168.24 C 246.03 171.35 244.60 174.51 243.21 177.69 C 241.04 177.11 238.86 176.56 236.66 176.08 C 239.70 168.43 243.32 161.07 248.19 154.41 Z" id="p50" />
				<path d="M 395.99 159.19 C 395.65 161.68 395.50 162.77 393.06 163.95 C 390.12 164.01 388.12 165.25 386.60 162.00 C 387.76 161.71 388.92 161.41 390.08 161.12 C 392.07 160.62 394.04 159.87 395.99 159.19 Z" id="p51" />
				<path d="M 380.51 160.57 C 383.71 160.99 386.85 161.44 390.08 161.12 C 388.92 161.41 387.76 161.71 386.60 162.00 C 388.12 165.25 390.12 164.01 393.06 163.95 C 388.39 165.79 383.90 163.91 380.51 160.57 Z" id="p52" />
				<path d="M 382.60 165.64 C 382.98 166.22 383.37 166.80 383.76 167.38 C 387.52 167.96 391.17 167.70 394.90 167.06 C 394.65 167.77 394.41 168.48 394.17 169.18 C 390.11 171.05 386.16 170.04 382.27 168.33 C 382.39 167.43 382.50 166.54 382.60 165.64 Z" id="p53" />
				<path d="M 249.70 171.57 C 251.15 171.52 252.62 171.67 254.06 171.76 C 253.12 176.46 250.86 180.60 249.55 185.17 C 250.25 186.88 252.96 186.84 254.52 187.46 C 253.01 191.78 251.65 196.15 250.21 200.49 C 246.88 199.65 243.54 198.82 240.20 198.04 C 242.21 188.95 245.40 179.83 249.70 171.57 Z" id="p54" />
				<path d="M 257.74 172.35 C 269.11 174.38 279.84 177.96 290.24 182.96 C 289.48 185.23 288.92 187.72 287.80 189.84 C 286.44 192.20 284.61 194.18 283.39 196.64 C 281.14 195.94 278.90 195.19 276.68 194.40 C 275.69 196.63 274.81 198.89 273.96 201.17 C 267.53 201.96 261.41 202.96 254.92 201.78 L 253.31 201.33 C 254.89 196.16 256.95 191.10 258.27 185.86 C 257.38 184.38 254.91 184.14 253.42 183.46 C 254.93 179.78 256.30 176.05 257.74 172.35 Z M 267.16 187.09 C 269.47 187.88 271.80 188.60 274.18 189.14 C 275.00 186.95 275.83 184.76 276.68 182.58 C 274.31 181.46 272.20 180.31 269.50 180.24 C 268.26 182.42 267.76 184.69 267.16 187.09 Z M 278.12 190.99 C 280.42 191.82 282.72 192.63 285.05 193.39 C 285.90 191.14 286.73 188.87 287.56 186.61 C 285.52 185.75 282.65 183.86 280.41 184.35 C 279.25 186.38 278.69 188.74 278.12 190.99 Z M 265.67 190.42 C 264.69 192.71 263.82 195.03 263.02 197.39 C 265.36 198.40 267.73 199.26 270.19 199.91 C 271.01 197.59 271.80 195.26 272.56 192.92 C 271.21 192.42 269.87 191.92 268.51 191.43 C 267.57 191.09 266.62 190.76 265.67 190.42 Z" id="p55" />
				<path d="M 387.56 173.50 C 388.51 173.47 389.47 173.46 390.43 173.48 C 390.44 174.33 390.44 175.17 390.45 176.02 C 389.80 178.96 389.60 181.94 389.16 184.90 C 388.58 181.12 387.93 177.32 387.56 173.50 Z" id="p56" />
				<path d="M 390.45 176.02 C 391.51 179.84 391.87 183.72 392.39 187.63 C 391.45 187.75 390.51 187.88 389.56 188.00 C 389.42 186.97 389.29 185.94 389.16 184.90 C 389.60 181.94 389.80 178.96 390.45 176.02 Z" id="p57" />
				<path d="M 241.93 180.72 C 241.54 181.95 241.15 183.19 240.76 184.42 C 237.66 183.82 234.85 183.02 232.14 181.35 C 234.42 177.64 238.71 180.10 241.93 180.72 Z" id="p58" />
				<path d="M 269.50 180.24 C 272.20 180.31 274.31 181.46 276.68 182.58 C 275.83 184.76 275.00 186.95 274.18 189.14 C 271.80 188.60 269.47 187.88 267.16 187.09 C 267.76 184.69 268.26 182.42 269.50 180.24 Z" id="p59" />
				<path d="M 232.14 181.35 C 234.85 183.02 237.66 183.82 240.76 184.42 C 240.47 185.30 240.19 186.17 239.91 187.06 C 237.83 186.68 235.32 186.47 233.51 185.34 C 232.24 184.48 232.31 182.72 232.14 181.35 Z" id="p60" />
				<path d="M 290.24 182.96 C 292.89 184.21 295.48 185.64 298.07 187.02 C 293.92 195.71 289.60 204.31 285.60 213.07 C 275.48 208.40 265.66 204.83 254.92 201.78 C 261.41 202.96 267.53 201.96 273.96 201.17 C 276.31 202.39 278.63 203.23 281.20 203.84 C 282.05 201.47 282.74 199.07 283.39 196.64 C 284.61 194.18 286.44 192.20 287.80 189.84 C 288.92 187.72 289.48 185.23 290.24 182.96 Z" id="p61" />
				<path d="M 351.61 183.11 C 345.95 205.43 336.70 227.01 321.73 244.72 C 320.20 246.42 318.44 248.55 315.98 248.69 C 312.52 249.23 308.99 246.03 306.05 244.51 C 307.40 242.95 308.79 241.44 310.17 239.92 C 313.09 240.30 315.69 240.81 318.44 239.42 C 321.84 238.01 323.42 235.25 325.26 232.26 C 334.12 217.57 341.70 201.22 345.19 184.37 C 347.33 183.95 349.46 183.51 351.61 183.11 Z" id="p62" />
				<path d="M 280.41 184.35 C 282.65 183.86 285.52 185.75 287.56 186.61 C 286.73 188.87 285.90 191.14 285.05 193.39 C 282.72 192.63 280.42 191.82 278.12 190.99 C 278.69 188.74 279.25 186.38 280.41 184.35 Z" id="p63" />
				<path d="M 345.19 184.37 C 341.70 201.22 334.12 217.57 325.26 232.26 C 323.42 235.25 321.84 238.01 318.44 239.42 C 315.69 240.81 313.09 240.30 310.17 239.92 C 312.91 236.98 315.17 233.71 317.51 230.47 C 319.16 228.06 322.72 227.58 323.65 224.72 C 324.41 222.11 323.93 219.66 325.29 217.20 C 330.51 207.13 334.27 196.51 337.44 185.65 C 340.03 185.24 342.61 184.83 345.19 184.37 Z" id="p64" />
				<path d="M 232.70 188.93 C 234.73 189.38 236.75 189.88 238.75 190.42 C 237.99 193.26 237.03 196.19 236.71 199.12 C 237.00 201.53 237.85 203.91 238.59 206.21 C 240.79 206.86 242.95 207.56 245.10 208.35 C 246.52 209.52 247.82 210.73 249.51 211.52 C 255.39 214.27 261.44 216.35 267.55 218.50 C 273.51 220.58 277.72 225.89 279.05 231.99 C 280.69 239.01 278.55 246.62 274.35 252.37 C 270.85 257.25 267.65 262.31 264.57 267.47 C 253.34 264.34 243.77 257.07 237.50 247.27 C 240.00 243.16 242.32 239.05 245.22 235.19 C 249.62 229.36 254.89 224.77 260.50 220.16 C 259.56 220.20 258.62 220.23 257.69 220.27 C 253.17 219.59 249.29 222.16 245.04 222.02 C 240.34 220.10 237.12 213.84 233.53 210.57 C 232.84 210.38 232.15 210.22 231.45 210.08 C 231.00 213.48 231.02 216.99 230.35 220.34 C 229.57 222.72 227.67 223.75 225.38 224.36 C 217.83 226.34 209.62 228.56 203.23 233.26 C 197.09 227.48 192.60 219.64 192.25 211.08 C 203.50 203.89 216.61 196.98 230.40 199.36 C 231.26 195.90 231.97 192.41 232.70 188.93 Z" id="p65" />
				<path d="M 265.67 190.42 C 266.62 190.76 267.57 191.09 268.51 191.43 C 269.87 191.92 271.21 192.42 272.56 192.92 C 271.80 195.26 271.01 197.59 270.19 199.91 C 267.73 199.26 265.36 198.40 263.02 197.39 C 263.82 195.03 264.69 192.71 265.67 190.42 Z" id="p66" />
				<path d="M 299.21 192.11 L 300.63 192.70 C 299.08 195.96 298.64 199.10 295.13 200.88 C 296.33 197.92 297.81 195.00 299.21 192.11 Z" id="p67" />
				<path d="M 276.68 194.40 C 278.90 195.19 281.14 195.94 283.39 196.64 C 282.74 199.07 282.05 201.47 281.20 203.84 C 278.63 203.23 276.31 202.39 273.96 201.17 C 274.81 198.89 275.69 196.63 276.68 194.40 Z" id="p68" />
				<path d="M 240.16 201.45 C 255.36 204.82 270.60 209.39 284.55 216.39 C 284.86 217.24 285.17 218.08 285.49 218.93 C 271.63 212.42 256.88 207.74 242.06 203.97 C 241.41 203.14 240.78 202.30 240.16 201.45 Z" id="p69" />
				<path d="M 298.72 202.38 C 307.19 207.33 314.34 213.33 320.77 220.74 C 319.10 221.53 317.79 222.20 316.12 220.93 C 312.46 217.91 309.45 214.20 305.58 211.38 C 302.50 208.97 299.12 207.08 296.29 204.33 C 297.10 203.68 297.91 203.03 298.72 202.38 Z" id="p70" />
				<path d="M 296.04 204.54 L 296.29 204.33 C 299.12 207.08 302.50 208.97 305.58 211.38 C 309.45 214.20 312.46 217.91 316.12 220.93 C 317.79 222.20 319.10 221.53 320.77 220.74 C 321.16 223.49 320.14 225.89 316.96 225.57 C 314.77 224.55 313.14 222.25 311.35 220.64 C 306.86 216.17 301.73 212.69 296.42 209.29 C 295.95 207.81 296.07 206.08 296.04 204.54 Z" id="p71" />
				<path d="M 292.67 205.67 C 293.19 210.73 290.48 214.04 288.26 218.29 C 287.68 213.92 291.00 209.65 292.67 205.67 Z" id="p72" />
				<path d="M 245.10 208.35 C 256.04 210.76 266.78 214.63 277.18 218.76 C 281.42 220.29 285.08 223.02 289.42 224.03 C 291.22 220.09 293.15 216.22 294.96 212.29 C 302.63 216.60 308.74 222.52 314.90 228.68 C 309.19 236.71 302.78 244.04 294.55 249.56 C 286.78 254.70 280.28 261.40 274.86 268.95 C 271.38 268.82 267.94 268.38 264.57 267.47 C 267.65 262.31 270.85 257.25 274.35 252.37 C 278.55 246.62 280.69 239.01 279.05 231.99 C 277.72 225.89 273.51 220.58 267.55 218.50 C 261.44 216.35 255.39 214.27 249.51 211.52 C 247.82 210.73 246.52 209.52 245.10 208.35 Z" id="p73" />
				<path d="M 233.53 210.57 C 237.12 213.84 240.34 220.10 245.04 222.02 C 249.29 222.16 253.17 219.59 257.69 220.27 C 252.85 222.76 249.02 225.62 245.27 229.56 C 240.64 226.65 237.72 222.44 234.43 218.22 C 235.42 221.91 236.76 225.00 238.80 228.22 C 230.69 229.82 222.86 232.63 215.66 236.68 C 214.19 237.47 212.66 238.37 211.07 238.90 C 208.12 237.80 205.58 235.28 203.23 233.26 C 209.62 228.56 217.83 226.34 225.38 224.36 C 227.67 223.75 229.57 222.72 230.35 220.34 C 231.02 216.99 231.00 213.48 231.45 210.08 C 232.15 210.22 232.84 210.38 233.53 210.57 Z" id="p74" />
				<path d="M 166.01 213.26 C 170.78 213.23 174.20 215.66 177.80 218.44 C 177.25 219.94 176.65 221.43 176.11 222.94 C 180.90 220.30 184.76 216.65 189.07 213.35 C 190.19 221.42 194.18 228.73 199.84 234.51 C 193.12 242.06 182.60 244.87 173.19 240.75 C 164.22 236.53 154.48 230.73 151.51 220.59 C 155.51 216.67 160.10 213.03 166.01 213.26 Z" id="p75" />
				<path d="M 151.51 220.59 C 154.48 230.73 164.22 236.53 173.19 240.75 C 182.60 244.87 193.12 242.06 199.84 234.51 C 202.30 237.02 205.10 239.12 207.97 241.13 C 204.12 243.89 200.56 246.85 197.61 250.59 C 194.02 255.02 188.90 258.75 182.91 258.15 C 180.12 257.91 177.99 254.82 175.86 253.18 C 168.67 247.36 160.52 242.57 153.52 236.45 C 150.98 234.16 148.90 231.62 148.75 228.03 C 148.60 225.02 149.53 222.78 151.51 220.59 Z" id="p76" />
				<path d="M 379.98 227.28 C 380.71 228.76 381.37 230.29 382.25 231.68 C 383.52 232.36 384.97 232.74 386.33 233.22 C 384.98 234.45 383.58 235.10 381.90 235.77 C 381.29 237.26 380.69 238.76 380.07 240.26 C 379.47 238.69 378.87 237.13 378.28 235.56 C 376.90 235.08 375.51 234.60 374.12 234.12 C 374.32 233.72 374.51 233.32 374.71 232.92 C 375.84 232.48 377.32 232.30 378.26 231.50 C 378.89 230.12 379.47 228.72 379.98 227.28 Z" id="p77" />
				<path d="M 417.48 234.40 C 418.85 234.07 420.03 233.95 421.22 234.85 C 421.31 235.63 421.30 236.38 421.17 237.11 C 419.93 238.17 418.81 237.73 417.35 237.65 C 417.34 236.56 417.39 235.48 417.48 234.40 Z" id="p78" />
				<path d="M 235.78 250.76 C 242.44 260.02 251.76 267.05 262.75 270.30 C 258.00 278.41 249.34 283.93 240.02 285.02 C 231.71 286.12 223.57 283.54 216.28 279.72 C 210.73 277.02 206.33 273.02 201.52 269.27 C 203.25 264.70 206.69 260.94 211.43 259.46 C 217.00 257.62 222.30 258.44 227.88 259.61 C 227.87 261.73 227.87 263.86 227.90 265.98 C 231.35 261.22 232.98 255.87 235.78 250.76 Z" id="p79" />
				<path d="M 153.80 258.52 C 155.51 258.60 156.41 260.57 154.74 261.52 C 152.68 261.97 152.76 259.61 153.80 258.52 Z" id="p80" />
				<path d="M 201.52 269.27 C 206.33 273.02 210.73 277.02 216.28 279.72 C 223.57 283.54 231.71 286.12 240.02 285.02 C 249.34 283.93 258.00 278.41 262.75 270.30 C 265.83 271.22 268.98 271.64 272.16 272.05 C 269.90 277.05 266.67 281.49 264.62 286.61 C 262.74 290.43 262.08 294.63 260.47 298.52 C 257.82 302.81 251.92 305.31 246.98 304.72 C 244.27 303.98 241.86 301.93 239.39 300.60 C 229.40 294.85 219.28 289.25 209.03 283.96 C 206.29 282.49 202.37 281.00 200.71 278.24 C 199.47 275.69 200.91 271.88 201.52 269.27 Z" id="p81" />
				<path d="M 408.27 269.95 C 409.62 268.44 411.25 270.09 410.36 271.69 C 408.98 273.35 407.50 271.52 408.27 269.95 Z" id="p82" />
				<path d="M 343.45 285.49 C 345.81 282.80 348.29 287.67 345.76 288.76 C 343.47 289.37 341.66 287.44 343.45 285.49 Z" id="p83" />
				<path d="M 149.50 289.54 C 150.06 291.36 149.95 293.65 147.49 293.30 C 145.60 292.60 146.43 291.11 146.53 289.59 C 147.52 289.55 148.51 289.53 149.50 289.54 Z" id="p84" />
				<path d="M 176.77 289.35 C 177.32 290.46 177.91 291.54 178.54 292.60 C 179.69 293.15 180.92 293.58 182.23 293.88 C 181.01 294.57 179.83 295.30 178.65 296.04 C 178.41 297.16 178.18 298.27 177.95 299.39 C 176.21 297.02 174.93 295.76 171.94 295.06 C 173.07 294.40 174.18 293.71 175.27 293.01 C 175.80 291.80 176.28 290.57 176.77 289.35 Z" id="p85" />
				<path d="M 379.11 296.60 C 380.64 295.75 382.41 297.53 380.82 298.75 C 379.17 299.50 377.52 298.01 379.11 296.60 Z" id="p86" />
				</defs>
				<g stroke-width="10pt">
				<use stroke="#450ba0" xlink:href="#p0" />
				<use stroke="#ffffff" xlink:href="#p1" />
				<use stroke="#ffffff" xlink:href="#p2" />
				<use stroke="#ffffff" xlink:href="#p3" />
				<use stroke="#ffffff" xlink:href="#p4" />
				<use stroke="#ffffff" xlink:href="#p5" />
				<use stroke="#000072" xlink:href="#p6" />
				<use stroke="#ffffff" xlink:href="#p7" />
				<use stroke="#ffffff" xlink:href="#p8" />
				<use stroke="#8080b9" xlink:href="#p9" />
				<use stroke="#ffffff" xlink:href="#p10" />
				<use stroke="#ff0031" xlink:href="#p11" />
				<use stroke="#ffffff" xlink:href="#p12" />
				<use stroke="#b2b2d4" xlink:href="#p13" />
				<use stroke="#000072" xlink:href="#p14" />
				<use stroke="#000072" xlink:href="#p15" />
				<use stroke="#b2b2d4" xlink:href="#p16" />
				<use stroke="#ffd008" xlink:href="#p17" />
				<use stroke="#8080b9" xlink:href="#p18" />
				<use stroke="#000072" xlink:href="#p19" />
				<use stroke="#ffffff" xlink:href="#p20" />
				<use stroke="#ffffff" xlink:href="#p21" />
				<use stroke="#b20045" xlink:href="#p22" />
				<use stroke="#b2b2d4" xlink:href="#p23" />
				<use stroke="#ffffff" xlink:href="#p24" />
				<use stroke="#ffffff" xlink:href="#p25" />
				<use stroke="#b2b2d4" xlink:href="#p26" />
				<use stroke="#000072" xlink:href="#p27" />
				<use stroke="#b2b2d4" xlink:href="#p28" />
				<use stroke="#ffffff" xlink:href="#p29" />
				<use stroke="#ffffff" xlink:href="#p30" />
				<use stroke="#b2b2d4" xlink:href="#p31" />
				<use stroke="#ffffff" xlink:href="#p32" />
				<use stroke="#b2b2d4" xlink:href="#p33" />
				<use stroke="#ffffff" xlink:href="#p34" />
				<use stroke="#ffffff" xlink:href="#p35" />
				<use stroke="#ffffff" xlink:href="#p36" />
				<use stroke="#ffffff" xlink:href="#p37" />
				<use stroke="#b2b2d4" xlink:href="#p38" />
				<use stroke="#b2b2d4" xlink:href="#p39" />
				<use stroke="#ffffff" xlink:href="#p40" />
				<use stroke="#ffffff" xlink:href="#p41" />
				<use stroke="#b2b2d4" xlink:href="#p42" />
				<use stroke="#b2b2d4" xlink:href="#p43" />
				<use stroke="#b2b2d4" xlink:href="#p44" />
				<use stroke="#ffffff" xlink:href="#p45" />
				<use stroke="#ffffff" xlink:href="#p46" />
				<use stroke="#ffffff" xlink:href="#p47" />
				<use stroke="#b2b2d4" xlink:href="#p48" />
				<use stroke="#b2b2d4" xlink:href="#p49" />
				<use stroke="#ffffff" xlink:href="#p50" />
				<use stroke="#ffffff" xlink:href="#p51" />
				<use stroke="#b2b2d4" xlink:href="#p52" />
				<use stroke="#ffffff" xlink:href="#p53" />
				<use stroke="#ffffff" xlink:href="#p54" />
				<use stroke="#ffffff" xlink:href="#p55" />
				<use stroke="#ffffff" xlink:href="#p56" />
				<use stroke="#b2b2d4" xlink:href="#p57" />
				<use stroke="#ffffff" xlink:href="#p58" />
				<use stroke="#000072" xlink:href="#p59" />
				<use stroke="#b2b2d4" xlink:href="#p60" />
				<use stroke="#b2b2d4" xlink:href="#p61" />
				<use stroke="#ffffff" xlink:href="#p62" />
				<use stroke="#000072" xlink:href="#p63" />
				<use stroke="#b2b2d4" xlink:href="#p64" />
				<use stroke="#ffffff" xlink:href="#p65" />
				<use stroke="#000072" xlink:href="#p66" />
				<use stroke="#b2b2d4" xlink:href="#p67" />
				<use stroke="#000072" xlink:href="#p68" />
				<use stroke="#b2b2d4" xlink:href="#p69" />
				<use stroke="#ffffff" xlink:href="#p70" />
				<use stroke="#b2b2d4" xlink:href="#p71" />
				<use stroke="#b2b2d4" xlink:href="#p72" />
				<use stroke="#b2b2d4" xlink:href="#p73" />
				<use stroke="#b2b2d4" xlink:href="#p74" />
				<use stroke="#ffffff" xlink:href="#p75" />
				<use stroke="#b2b2d4" xlink:href="#p76" />
				<use stroke="#ffffff" xlink:href="#p77" />
				<use stroke="#ffffff" xlink:href="#p78" />
				<use stroke="#ffffff" xlink:href="#p79" />
				<use stroke="#ffffff" xlink:href="#p80" />
				<use stroke="#b2b2d4" xlink:href="#p81" />
				<use stroke="#ffffff" xlink:href="#p82" />
				<use stroke="#ffffff" xlink:href="#p83" />
				<use stroke="#ffffff" xlink:href="#p84" />
				<use stroke="#ffffff" xlink:href="#p85" />
				<use stroke="#ffffff" xlink:href="#p86" />
				</g>
				<g>
				<use fill="#450ba0" xlink:href="#p0" />
				<use fill="#ffffff" xlink:href="#p1" />
				<use fill="#ffffff" xlink:href="#p2" />
				<use fill="#ffffff" xlink:href="#p3" />
				<use fill="#ffffff" xlink:href="#p4" />
				<use fill="#ffffff" xlink:href="#p5" />
				<use fill="#000072" xlink:href="#p6" />
				<use fill="#ffffff" xlink:href="#p7" />
				<use fill="#ffffff" xlink:href="#p8" />
				<use fill="#8080b9" xlink:href="#p9" />
				<use fill="#ffffff" xlink:href="#p10" />
				<use fill="#ff0031" xlink:href="#p11" />
				<use fill="#ffffff" xlink:href="#p12" />
				<use fill="#b2b2d4" xlink:href="#p13" />
				<use fill="#000072" xlink:href="#p14" />
				<use fill="#000072" xlink:href="#p15" />
				<use fill="#b2b2d4" xlink:href="#p16" />
				<use fill="#ffd008" xlink:href="#p17" />
				<use fill="#8080b9" xlink:href="#p18" />
				<use fill="#000072" xlink:href="#p19" />
				<use fill="#ffffff" xlink:href="#p20" />
				<use fill="#ffffff" xlink:href="#p21" />
				<use fill="#b20045" xlink:href="#p22" />
				<use fill="#b2b2d4" xlink:href="#p23" />
				<use fill="#ffffff" xlink:href="#p24" />
				<use fill="#ffffff" xlink:href="#p25" />
				<use fill="#b2b2d4" xlink:href="#p26" />
				<use fill="#000072" xlink:href="#p27" />
				<use fill="#b2b2d4" xlink:href="#p28" />
				<use fill="#ffffff" xlink:href="#p29" />
				<use fill="#ffffff" xlink:href="#p30" />
				<use fill="#b2b2d4" xlink:href="#p31" />
				<use fill="#ffffff" xlink:href="#p32" />
				<use fill="#b2b2d4" xlink:href="#p33" />
				<use fill="#ffffff" xlink:href="#p34" />
				<use fill="#ffffff" xlink:href="#p35" />
				<use fill="#ffffff" xlink:href="#p36" />
				<use fill="#ffffff" xlink:href="#p37" />
				<use fill="#b2b2d4" xlink:href="#p38" />
				<use fill="#b2b2d4" xlink:href="#p39" />
				<use fill="#ffffff" xlink:href="#p40" />
				<use fill="#ffffff" xlink:href="#p41" />
				<use fill="#b2b2d4" xlink:href="#p42" />
				<use fill="#b2b2d4" xlink:href="#p43" />
				<use fill="#b2b2d4" xlink:href="#p44" />
				<use fill="#ffffff" xlink:href="#p45" />
				<use fill="#ffffff" xlink:href="#p46" />
				<use fill="#ffffff" xlink:href="#p47" />
				<use fill="#b2b2d4" xlink:href="#p48" />
				<use fill="#b2b2d4" xlink:href="#p49" />
				<use fill="#ffffff" xlink:href="#p50" />
				<use fill="#ffffff" xlink:href="#p51" />
				<use fill="#b2b2d4" xlink:href="#p52" />
				<use fill="#ffffff" xlink:href="#p53" />
				<use fill="#ffffff" xlink:href="#p54" />
				<use fill="#ffffff" xlink:href="#p55" />
				<use fill="#ffffff" xlink:href="#p56" />
				<use fill="#b2b2d4" xlink:href="#p57" />
				<use fill="#ffffff" xlink:href="#p58" />
				<use fill="#000072" xlink:href="#p59" />
				<use fill="#b2b2d4" xlink:href="#p60" />
				<use fill="#b2b2d4" xlink:href="#p61" />
				<use fill="#ffffff" xlink:href="#p62" />
				<use fill="#000072" xlink:href="#p63" />
				<use fill="#b2b2d4" xlink:href="#p64" />
				<use fill="#ffffff" xlink:href="#p65" />
				<use fill="#000072" xlink:href="#p66" />
				<use fill="#b2b2d4" xlink:href="#p67" />
				<use fill="#000072" xlink:href="#p68" />
				<use fill="#b2b2d4" xlink:href="#p69" />
				<use fill="#ffffff" xlink:href="#p70" />
				<use fill="#b2b2d4" xlink:href="#p71" />
				<use fill="#b2b2d4" xlink:href="#p72" />
				<use fill="#b2b2d4" xlink:href="#p73" />
				<use fill="#b2b2d4" xlink:href="#p74" />
				<use fill="#ffffff" xlink:href="#p75" />
				<use fill="#b2b2d4" xlink:href="#p76" />
				<use fill="#ffffff" xlink:href="#p77" />
				<use fill="#ffffff" xlink:href="#p78" />
				<use fill="#ffffff" xlink:href="#p79" />
				<use fill="#ffffff" xlink:href="#p80" />
				<use fill="#b2b2d4" xlink:href="#p81" />
				<use fill="#ffffff" xlink:href="#p82" />
				<use fill="#ffffff" xlink:href="#p83" />
				<use fill="#ffffff" xlink:href="#p84" />
				<use fill="#ffffff" xlink:href="#p85" />
				<use fill="#ffffff" xlink:href="#p86" />
				</g>
				</svg>