<?xml version="1.0" encoding="UTF-8"?>
<svg xmlns="http://www.w3.org/2000/svg" xmlns:xlink="http://www.w3.org/1999/xlink" width="2836" height="2835" viewBox="0 0 2836 2835">
<path fill-rule="evenodd" fill="rgb(59.959412%, 59.959412%, 59.959412%)" fill-opacity="1" d="M 1 0.351562 L 2835.648438 0.351562 L 2835.648438 2835 L 1 2835 L 1 0.351562 "/>
<path fill-rule="evenodd" fill="rgb(51, 101, 39)" fill-opacity="1" d="M 1 0.351562 L 2835.640625 0.351562 L 2835.640625 2835 L 1 2835 L 1 0.351562 "/>
<path fill-rule="evenodd" fill="rgb(97.068787%, 88.084412%, 43.992615%)" fill-opacity="1" d="M 1545.480469 1595.179688 C 1535.820312 1527.050781 1664.308594 1546.980469 1671.621094 1602.769531 C 1680.308594 1669.140625 1553.03125 1648.398438 1545.480469 1595.179688 Z M 1477.949219 1321.421875 C 1437.691406 1344.75 1368.539062 1321.03125 1384.410156 1276.5 C 1394.949219 1246.929688 1485.988281 1249.921875 1477.949219 1321.421875 Z M 1327.191406 1211.769531 C 1336.808594 1195.519531 1341.941406 1190.589844 1360.769531 1205.691406 C 1354.351562 1228.578125 1339.308594 1231.050781 1327.191406 1211.769531 Z M 1268.648438 1175.261719 C 1276.890625 1147.539062 1294.570312 1149.691406 1302.988281 1175.261719 C 1288.128906 1192.421875 1283.058594 1194.261719 1268.648438 1175.261719 Z M 1322.761719 1144.828125 C 1326.738281 1138.238281 1319.371094 1135.738281 1335.609375 1131.429688 C 1355.289062 1126.210938 1353.980469 1136.171875 1357.128906 1138.75 C 1345.398438 1167.488281 1333.828125 1164.078125 1322.761719 1144.828125 Z M 1472.960938 919.660156 C 1463.589844 854.898438 1604.460938 867.660156 1608.691406 921.050781 C 1613.460938 981.359375 1479.421875 964.289062 1472.960938 919.660156 Z M 984.121094 796.238281 C 977.351562 750.621094 1027.039062 722.480469 1063.109375 738.359375 C 1068.339844 785.121094 1018.480469 810.710938 984.121094 796.238281 Z M 950.445312 839.691406 L 995.15625 831.609375 C 969.886719 868.761719 907.886719 848.128906 877.921875 855.878906 C 860.605469 891.050781 930.511719 905 970.125 916.210938 C 1061.558594 942.101562 1164.03125 953.238281 1258.558594 953.839844 C 1282 953.988281 1400.390625 937.238281 1402.019531 937.910156 C 1398.351562 946.421875 1411.800781 949.75 1357.738281 959.390625 C 1338.160156 962.878906 1317.171875 963.960938 1296.71875 964.800781 C 1301.960938 1006.171875 1313.371094 1041.910156 1291.800781 1075.480469 C 1282.25 1090.339844 1250.828125 1126.949219 1236.109375 1128.941406 C 1285.519531 1135.878906 1299.019531 1087.050781 1318.988281 1079.71875 C 1313.308594 1158.398438 1186.089844 1144.730469 1155.5 1145.859375 C 1143.269531 1153.710938 1180.078125 1162.421875 1216.429688 1188.800781 C 1242.691406 1207.859375 1261.679688 1225.148438 1281.679688 1245.171875 C 1295.609375 1259.121094 1320.039062 1294.691406 1331.378906 1319.808594 C 1352.710938 1367.011719 1355.261719 1385.210938 1309.871094 1393.761719 C 1306.558594 1562.089844 1293.621094 1581.949219 1178.800781 1658.75 L 1164.949219 1669.890625 C 1258.710938 1677.589844 1363.378906 1675.910156 1457.878906 1675.449219 C 1554.300781 1674.980469 1656.988281 1677.671875 1752.761719 1670.859375 C 1756.300781 1645.730469 1751.46875 1641.890625 1759.121094 1613.199219 C 1765.871094 1587.941406 1771.308594 1577.210938 1759.941406 1551.960938 C 1743.890625 1516.289062 1718.621094 1518 1735 1456.96875 C 1747.519531 1410.300781 1752.789062 1377.011719 1728.910156 1345.441406 C 1699.851562 1307.019531 1706.980469 1286.140625 1712.800781 1234.351562 C 1718.460938 1183.878906 1687.859375 1173.371094 1674.78125 1141.800781 C 1654.5 1092.828125 1686.019531 1070.828125 1686.410156 1034.988281 C 1686.851562 995.269531 1653.441406 974.539062 1644.710938 946.160156 C 1628.78125 894.371094 1670.871094 874.738281 1660.730469 830.738281 C 1637.148438 832.320312 1640.339844 847.828125 1612.289062 845.03125 C 1594.460938 843.25 1581.320312 829.878906 1565.980469 821.519531 C 1500.648438 785.890625 1508.910156 832.480469 1456.28125 812.378906 C 1440.160156 806.21875 1424.160156 794.539062 1408.351562 789.960938 C 1376.578125 780.738281 1376.121094 799.949219 1350.5 799.78125 C 1307.871094 799.480469 1323.429688 751.960938 1253.140625 760.160156 C 1177.28125 768.988281 1184.089844 725.070312 1146.429688 725.019531 C 1122.328125 724.988281 1118.210938 737.980469 1092.460938 722.320312 C 1072.808594 710.359375 1071.46875 696.308594 1053.570312 683.039062 C 1017.019531 655.941406 974.152344 671.628906 975.066406 724.679688 C 975.828125 769.019531 988.347656 752.828125 964.589844 782.550781 C 947.378906 804.078125 947.960938 802.511719 938.171875 834.449219 C 943.925781 840.730469 937.859375 839.421875 950.445312 839.691406 "/>
<path fill-rule="evenodd" fill="rgb(90.039062%, 68.943787%, 61.914062%)" fill-opacity="1" d="M 1042.351562 1205.710938 C 1101.03125 1190.191406 1222.410156 1267.039062 1256.960938 1300.191406 C 1216.601562 1290.878906 1180.640625 1282.648438 1136.121094 1280.628906 C 1113.269531 1279.601562 1089.761719 1279.828125 1066.941406 1281.429688 C 1024.96875 1284.359375 1038.199219 1282.558594 1018.359375 1308.71875 C 909.78125 1307.910156 724.976562 1396.601562 651.027344 1296.980469 C 664.453125 1261.25 706.066406 1236.070312 745.371094 1227.828125 C 753.339844 1222.019531 759.011719 1219.589844 767.59375 1217.011719 C 769.121094 1216.550781 781.488281 1214.179688 783.636719 1214.398438 C 796.769531 1215.730469 787.5625 1209.519531 794.3125 1219.839844 C 834.460938 1192.910156 949.226562 1191.488281 1005.941406 1193.539062 L 1006.890625 1278.648438 L 1013.5 1266.171875 C 1001.609375 1248.5 1012.460938 1222.359375 1013.21875 1194.398438 C 1016.910156 1194.679688 1028.300781 1195.039062 1031.378906 1196.121094 C 1048.578125 1202.128906 1038.199219 1194.390625 1042.351562 1205.710938 Z M 892.136719 1390.449219 C 853.523438 1403.609375 805.675781 1407.058594 760.519531 1407.511719 C 773.597656 1620 1072.390625 1760.398438 1235.351562 1604.058594 C 1300.960938 1541.109375 1295.308594 1503.789062 1300.378906 1375.640625 C 1314.800781 1376.921875 1316.171875 1380.910156 1332.980469 1373.339844 C 1333.78125 1282.46875 1207.648438 1190.859375 1140.980469 1157.210938 C 1072.488281 1122.640625 1053.039062 1136.460938 977.453125 1127.941406 C 893.777344 1118.5 893.171875 1116.5 825.035156 1158.019531 C 783.433594 1183.371094 736.925781 1200.738281 688.964844 1221.269531 C 480.417969 1310.53125 611.171875 1405.769531 809.011719 1393.871094 C 864.515625 1390.53125 876.476562 1374.511719 892.136719 1390.449219 "/>
<path fill-rule="evenodd" fill="rgb(53.90625%, 39.988708%, 13.989258%)" fill-opacity="1" d="M 1824.421875 1814.628906 C 1898.011719 1793.191406 1890.210938 1856.699219 2010.480469 1965.644531 C 2054.601562 2005.609375 2142.539062 2023.714844 2198.921875 2029.300781 C 2231.21875 2032.503906 2246.699219 2026.753906 2255.261719 2060.25 L 2207.050781 2040.273438 C 2222.859375 2077.90625 2229.070312 2048.589844 2238.039062 2082.046875 C 2217.898438 2093.332031 2198.238281 2060.507812 2184.398438 2070.765625 C 2178.390625 2084.894531 2204.78125 2088.5625 2212.089844 2115.925781 C 2189.808594 2118.390625 2140.46875 2088.921875 2076.320312 2075.449219 C 2016.601562 2062.90625 1953.101562 2063.472656 1944.238281 2025.675781 C 1962.070312 2007.074219 1964.761719 2025.058594 1983.46875 2002.929688 C 1976.640625 1979.601562 1862.859375 1865.007812 1843.941406 1841.386719 C 1840.03125 1836.515625 1826.199219 1816.371094 1824.421875 1814.628906 Z M 776.472656 2013.09375 C 741.238281 2035.765625 689.761719 2045.980469 647.34375 2059.804688 C 614.125 2070.625 542.835938 2113.9375 518.417969 2100.402344 C 522.304688 2070.527344 550.136719 2072.570312 574.050781 2057.703125 C 556.640625 2041.769531 535.554688 2068.621094 517.589844 2051.617188 C 537.425781 2035.265625 547.46875 2043.3125 558.621094 2027.273438 C 546.539062 2021.980469 549.554688 2026.148438 542.800781 2023.777344 C 530.007812 2019.285156 534.296875 2023.320312 526.246094 2015.628906 C 664.996094 1965.28125 670.289062 2007.675781 783.617188 1930.453125 C 817.613281 1907.289062 852.125 1883.019531 888.3125 1860.363281 C 931.882812 1833.089844 951.175781 1801.820312 1000.53125 1818.300781 C 993.847656 1832.929688 996.410156 1829.398438 973.40625 1846.105469 C 937.574219 1872.121094 855.128906 1921.167969 816.136719 1944.691406 C 766.613281 1974.5625 788.601562 1963.707031 776.472656 2013.09375 Z M 1772.378906 1678.261719 L 2059.078125 1625.609375 C 2072.78125 1728.230469 2078.75 1681.578125 2092.289062 1729.878906 C 2023.78125 1776.949219 2070.46875 1744.941406 2007.078125 1762.230469 C 1967.21875 1773.109375 1962.480469 1802.421875 1927.160156 1806.519531 C 1886.851562 1811.210938 1869.199219 1779.460938 1826.078125 1802.070312 C 1796.101562 1817.800781 1794.199219 1848.425781 1753.621094 1855.191406 C 1768.890625 1834.898438 1794.148438 1820.5 1795.050781 1777.878906 C 1795.910156 1737.46875 1779.160156 1706.140625 1772.378906 1678.261719 Z M 204.214844 1679.019531 C 206.972656 1645.390625 233.8125 1640.929688 260.527344 1630.191406 C 398.242188 1574.851562 444.207031 1642.03125 509.382812 1610.519531 C 547.773438 1591.960938 594.503906 1560.449219 633.089844 1537.960938 C 672.855469 1514.769531 716.160156 1482.710938 759.917969 1463.648438 L 772.714844 1500.488281 L 524.832031 1642.488281 C 554.539062 1674.828125 576.121094 1662.46875 593.539062 1711.578125 C 607.976562 1752.300781 609.34375 1805.859375 573.375 1813.261719 C 555.964844 1770.859375 574.933594 1721.71875 535.847656 1694.75 C 510.101562 1676.988281 454.257812 1667.328125 421.273438 1675.050781 C 330.445312 1696.308594 277.101562 1800.210938 252.558594 1778.648438 C 231.136719 1759.828125 278.386719 1720.371094 292.246094 1710.589844 C 309.273438 1698.578125 348.195312 1686.160156 356.769531 1668.210938 C 341.433594 1658.820312 293.4375 1689.390625 278.640625 1700.039062 C 253.570312 1718.058594 230.253906 1744.46875 196.785156 1728.140625 C 204.777344 1675.621094 315.105469 1654.859375 330.289062 1646.238281 C 345.496094 1637.601562 338.238281 1647.859375 342.542969 1631.699219 C 321.132812 1620.609375 235.777344 1672.019531 204.214844 1679.019531 Z M 892.136719 1390.449219 C 876.476562 1374.511719 864.515625 1390.53125 809.011719 1393.871094 C 611.171875 1405.769531 480.417969 1310.53125 688.964844 1221.269531 C 736.925781 1200.738281 783.433594 1183.371094 825.035156 1158.019531 C 893.171875 1116.5 893.777344 1118.5 977.453125 1127.941406 C 1053.039062 1136.460938 1072.488281 1122.640625 1140.980469 1157.210938 C 1207.648438 1190.859375 1333.78125 1282.46875 1332.980469 1373.339844 C 1316.171875 1380.910156 1314.800781 1376.921875 1300.378906 1375.640625 C 1295.308594 1503.789062 1300.960938 1541.109375 1235.351562 1604.058594 C 1072.390625 1760.398438 773.597656 1620 760.519531 1407.511719 C 805.675781 1407.058594 853.523438 1403.609375 892.136719 1390.449219 Z M 1789.878906 1291.921875 C 1781.761719 1268.53125 1771.109375 1244.621094 1782.558594 1214.921875 C 1860.441406 1171.070312 2163.339844 1394.339844 2226.808594 1434.21875 C 2259.941406 1455.039062 2299.738281 1480.800781 2331.640625 1504.171875 C 2355.640625 1521.761719 2401.261719 1573.050781 2428.980469 1577.480469 C 2489.261719 1587.128906 2469.039062 1558.570312 2559.429688 1610.28125 C 2586.351562 1625.691406 2587.71875 1632.328125 2604.890625 1653.398438 C 2618.378906 1669.960938 2629.308594 1685.511719 2625.078125 1711.980469 C 2590.71875 1693.570312 2593.539062 1640.148438 2542.011719 1627.261719 C 2543.03125 1651.101562 2631.28125 1715.648438 2607.140625 1776.28125 C 2581.261719 1772.230469 2593.378906 1766.140625 2557.339844 1704.109375 C 2540.078125 1674.390625 2525.851562 1658.179688 2485.839844 1662.699219 C 2490.039062 1695.558594 2512.640625 1706.789062 2522.640625 1739.089844 C 2531.238281 1766.878906 2536.980469 1811.550781 2523.449219 1835.632812 C 2479.078125 1846.945312 2506.289062 1773.851562 2481.929688 1727 C 2472.390625 1708.640625 2464.320312 1696.398438 2454.089844 1680.871094 C 2426.71875 1639.339844 2355.691406 1619.210938 2306.949219 1644.421875 C 2265.820312 1665.699219 2305.21875 1715.519531 2250.050781 1733.898438 C 2222.039062 1700.589844 2244.828125 1654.75 2263.601562 1623.46875 C 2277.101562 1600.980469 2338.210938 1587.570312 2363.460938 1579.410156 C 2354.921875 1554.398438 2328.609375 1544.761719 2308.589844 1531.480469 C 2288.359375 1518.050781 2271.089844 1507.578125 2249.199219 1492.710938 C 2210.421875 1466.398438 2171.46875 1444.5 2132.941406 1418.058594 C 2075.890625 1378.921875 1951.210938 1294.921875 1877.609375 1282.648438 C 1888.710938 1302.269531 1876.75 1292 1903.738281 1302.851562 C 1990.121094 1337.601562 2003.441406 1357.789062 2055.171875 1382.011719 C 2053.761719 1405.589844 2043.878906 1441.199219 2045.921875 1460.558594 C 2049.289062 1492.300781 2108.820312 1527.660156 2080 1587.769531 C 2058.5 1632.621094 1814.78125 1659.671875 1768.011719 1664.578125 C 1770.371094 1617.320312 1795.261719 1570.601562 1773.179688 1536.378906 C 1750.589844 1501.378906 1733.710938 1504.199219 1755.460938 1444.050781 C 1770.050781 1403.691406 1767.601562 1363.28125 1747.351562 1335.71875 C 1714.75 1291.339844 1728.398438 1288.988281 1731.699219 1230.089844 C 1735.339844 1165.171875 1705.101562 1170.929688 1689.539062 1136.839844 C 1674.460938 1103.78125 1701.949219 1074.660156 1702.191406 1029.078125 C 1702.53125 963.140625 1670.949219 980.328125 1660.058594 940.308594 C 1650.128906 903.789062 1682 893.410156 1680.519531 831.28125 C 1722.878906 838.179688 1747.671875 843.738281 1769.941406 810.359375 C 1811.558594 747.960938 1801.679688 792.859375 1855.308594 778.75 C 1886.078125 770.648438 1898 721.691406 1940.070312 747.039062 C 1970.640625 765.449219 1951.828125 820.601562 1955.808594 859.03125 C 1960.578125 905.140625 1994.941406 907.078125 1996.109375 950.859375 C 1997.140625 989.261719 1968.171875 995.628906 1987.078125 1062.101562 C 1995.191406 1090.621094 2021.050781 1126.371094 2025.570312 1157.28125 C 2031.179688 1195.609375 2015.5 1237.488281 2017.28125 1278.949219 C 1941.769531 1249.460938 1855.230469 1175.21875 1772.121094 1202.960938 C 1767.011719 1222.371094 1762.210938 1263.28125 1772.730469 1280.980469 C 1780.808594 1294.578125 1765.519531 1298.421875 1789.878906 1291.921875 Z M 1374.210938 681.871094 C 1392.691406 667.109375 1432.121094 673.679688 1451.898438 683.800781 C 1468.828125 692.460938 1479.941406 712.289062 1507.539062 709.871094 C 1548.460938 706.28125 1532.148438 687.480469 1564.769531 719.210938 C 1591.828125 745.519531 1596.640625 723.558594 1625.730469 732.460938 C 1680.5 749.21875 1683.878906 698.871094 1760.679688 735.648438 C 1824.199219 766.070312 1832.628906 713.871094 1899.828125 729.371094 C 1869.929688 735.390625 1891.078125 768.390625 1815.460938 764.589844 C 1762.851562 761.941406 1772.898438 807.109375 1738.429688 821.371094 C 1710.449219 832.949219 1673.808594 806.351562 1638.121094 823.601562 C 1597.761719 843.109375 1590.828125 816.558594 1549.410156 800.191406 L 1561.300781 794.46875 C 1541.351562 795.871094 1530.789062 795.789062 1515.78125 786.109375 C 1498.160156 807.71875 1482.578125 809.25 1457 798.679688 C 1440.410156 791.820312 1416.898438 777.261719 1400.410156 775.261719 C 1370.519531 771.640625 1366.800781 796 1337.539062 783.859375 C 1316.171875 775 1323.128906 759.269531 1294.75 748.511719 C 1272.039062 739.898438 1251.640625 749.878906 1227.710938 749.050781 C 1194.96875 747.921875 1195.558594 735.371094 1175.058594 720.738281 C 1134.449219 691.769531 1105.25 742.261719 1072.03125 682.308594 C 1091.828125 671.351562 1109.289062 687.03125 1138.199219 673.160156 C 1181.300781 652.488281 1168.160156 672.660156 1208.179688 675.109375 C 1237.390625 676.898438 1247.398438 659.648438 1272.960938 651.320312 C 1312.5 638.441406 1312.28125 655.589844 1343.910156 663.300781 C 1337.191406 669.949219 1344.199219 668.988281 1327.53125 676.179688 Z M 916.164062 842.789062 C 935.261719 847.910156 941.84375 846.558594 950.445312 839.691406 C 937.859375 839.421875 943.925781 840.730469 938.171875 834.449219 C 947.960938 802.511719 947.378906 804.078125 964.589844 782.550781 C 988.347656 752.828125 975.828125 769.019531 975.066406 724.679688 C 974.152344 671.628906 1017.019531 655.941406 1053.570312 683.039062 C 1071.46875 696.308594 1072.808594 710.359375 1092.460938 722.320312 C 1118.210938 737.980469 1122.328125 724.988281 1146.429688 725.019531 C 1184.089844 725.070312 1177.28125 768.988281 1253.140625 760.160156 C 1323.429688 751.960938 1307.871094 799.480469 1350.5 799.78125 C 1376.121094 799.949219 1376.578125 780.738281 1408.351562 789.960938 C 1424.160156 794.539062 1440.160156 806.21875 1456.28125 812.378906 C 1508.910156 832.480469 1500.648438 785.890625 1565.980469 821.519531 C 1581.320312 829.878906 1594.460938 843.25 1612.289062 845.03125 C 1640.339844 847.828125 1637.148438 832.320312 1660.730469 830.738281 C 1670.871094 874.738281 1628.78125 894.371094 1644.710938 946.160156 C 1653.441406 974.539062 1686.851562 995.269531 1686.410156 1034.988281 C 1686.019531 1070.828125 1654.5 1092.828125 1674.78125 1141.800781 C 1687.859375 1173.371094 1718.460938 1183.878906 1712.800781 1234.351562 C 1706.980469 1286.140625 1699.851562 1307.019531 1728.910156 1345.441406 C 1752.789062 1377.011719 1747.519531 1410.300781 1735 1456.96875 C 1718.621094 1518 1743.890625 1516.289062 1759.941406 1551.960938 C 1771.308594 1577.210938 1765.871094 1587.941406 1759.121094 1613.199219 C 1751.46875 1641.890625 1756.300781 1645.730469 1752.761719 1670.859375 C 1656.988281 1677.671875 1554.300781 1674.980469 1457.878906 1675.449219 C 1363.378906 1675.910156 1258.710938 1677.589844 1164.949219 1669.890625 L 1178.800781 1658.75 C 1293.621094 1581.949219 1306.558594 1562.089844 1309.871094 1393.761719 C 1355.261719 1385.210938 1352.710938 1367.011719 1331.378906 1319.808594 C 1320.039062 1294.691406 1295.609375 1259.121094 1281.679688 1245.171875 C 1261.679688 1225.148438 1242.691406 1207.859375 1216.429688 1188.800781 C 1180.078125 1162.421875 1143.269531 1153.710938 1155.5 1145.859375 C 1139.328125 1132.089844 1138.28125 1138.871094 1120.359375 1133.351562 C 1105.691406 1128.839844 1099.671875 1121.699219 1089.730469 1114 C 1073.238281 1127.558594 996.429688 1117.730469 977.253906 1115.578125 C 901.011719 1107.019531 748.804688 1042.921875 760.300781 959.261719 C 811.667969 953.738281 891.796875 1059.960938 958.628906 1080.488281 L 945.277344 1068.070312 C 944.257812 1067.238281 943.027344 1066.339844 942.003906 1065.550781 C 925.394531 1052.671875 910.144531 1045.980469 894.964844 1029.75 C 868.4375 1008.789062 792.425781 931.109375 753.121094 950.089844 C 721.535156 1028.230469 848.804688 1080.839844 894.125 1110.058594 C 844.496094 1132.339844 810.605469 1155 764.0625 1176.75 C 713.519531 1200.371094 489.28125 1269.859375 603.574219 1364.960938 C 659.242188 1411.28125 708.847656 1390.320312 749.414062 1412.53125 L 754.738281 1449.121094 C 736.878906 1466.308594 535.0625 1585.140625 504.71875 1598.960938 C 437.515625 1629.570312 331.382812 1542.960938 195.425781 1653.941406 C 193.105469 1675.398438 195.851562 1671.761719 195.878906 1684.640625 C 195.929688 1707.578125 154.660156 1757.429688 244.078125 1742.679688 C 231.546875 1763.808594 230.847656 1791.199219 257.195312 1793.628906 C 296.261719 1797.238281 316.339844 1730.320312 401.355469 1694.410156 C 438.945312 1678.53125 500.304688 1682.570312 531.9375 1705.78125 C 577.140625 1738.96875 531.199219 1802.671875 578.828125 1826.308594 C 610.277344 1811.46875 621.71875 1773.570312 608.71875 1724.128906 C 591.597656 1659.019531 579.4375 1678.410156 547.605469 1641.339844 L 778.148438 1513.628906 C 824.757812 1573.25 838.761719 1617.589844 937.640625 1650.308594 C 933.683594 1692.339844 942.4375 1684.550781 951.007812 1710.910156 C 940.703125 1720.878906 919.734375 1739.121094 915.804688 1760.769531 C 909.132812 1797.539062 927.296875 1798.488281 941.0625 1812.878906 C 875.046875 1852.597656 815.148438 1896.628906 750.027344 1938.921875 C 684.21875 1981.660156 523.128906 1973.523438 515.378906 2017.589844 L 513.296875 2029.394531 C 501.453125 2085 512.640625 2027.703125 509.734375 2084.605469 C 508.980469 2099.40625 508.964844 2099.769531 513.066406 2111.554688 C 544.777344 2126.878906 611.601562 2082.679688 679.984375 2062.261719 C 708.128906 2053.859375 743.953125 2046.992188 768.410156 2034.019531 C 806.445312 2013.851562 775.019531 1997.875 797.867188 1971.496094 C 805.828125 1962.308594 944.683594 1883.238281 993.113281 1844.902344 C 1014.269531 1828.160156 1008.128906 1833.519531 1034.550781 1836.84375 C 1072.148438 1841.578125 1091.628906 1821.21875 1124.730469 1823.851562 C 1130.800781 1812.910156 1128.160156 1815.410156 1130.570312 1807.191406 C 984.902344 1842.972656 1033.371094 1812.640625 985.226562 1799.351562 C 964.246094 1793.558594 955.613281 1799.78125 926.640625 1789.730469 C 921.550781 1743.238281 936.996094 1745.121094 952.773438 1723.390625 C 979.234375 1686.929688 942.433594 1699.730469 948.449219 1657.96875 C 979.5625 1664.671875 1008.390625 1676.789062 1042.78125 1682.460938 C 1083.339844 1689.148438 1112.171875 1680.921875 1151.210938 1681.621094 L 1326.03125 1687.609375 L 1759.410156 1684.988281 C 1790.558594 1740.558594 1796.019531 1792.410156 1758.910156 1831.941406 C 1699.160156 1895.582031 1693.078125 1799.839844 1549.789062 1825.179688 C 1519.710938 1830.488281 1495.058594 1846.886719 1477.238281 1850.066406 C 1451.628906 1854.640625 1431.808594 1834.769531 1412.800781 1825.101562 C 1382.460938 1809.679688 1357.160156 1817.070312 1324.828125 1818.371094 L 1325.691406 1830.511719 C 1449.679688 1827.25 1386.019531 1836.734375 1450.808594 1859.546875 C 1478.460938 1869.285156 1535.578125 1837.601562 1576.769531 1833.761719 C 1641.101562 1827.761719 1651.191406 1846.714844 1703.621094 1862.074219 C 1779.5 1884.300781 1777.71875 1852.339844 1816.839844 1827.449219 C 1830.910156 1847.554688 1841.171875 1854.597656 1856.25 1869.476562 C 1870.378906 1883.417969 1878.75 1896.296875 1892.078125 1911.855469 C 1917.558594 1941.617188 1940.808594 1965.691406 1968.878906 1996.847656 L 1954.878906 2004.640625 C 1951.609375 2006.535156 1947.878906 2007.9375 1944.800781 2010.777344 C 1879.050781 2071.410156 2099.269531 2085.636719 2147.011719 2107.5 C 2234.460938 2147.558594 2207.5 2127.324219 2227.710938 2104.476562 C 2240.46875 2090.046875 2234.050781 2107.960938 2254.191406 2075.964844 C 2263.160156 2061.730469 2256.410156 2079.621094 2265.921875 2057.703125 C 2271.628906 2000.859375 2127.21875 2020.84375 2045.410156 1978.738281 C 2027.421875 1969.480469 1907.441406 1848.570312 1897.789062 1819.089844 C 1973.03125 1821.121094 1954.121094 1795.460938 2003.660156 1776.808594 C 2027.988281 1767.648438 2045.398438 1774.25 2065.601562 1765.078125 C 2082.640625 1757.339844 2094.019531 1739.800781 2107.070312 1729.429688 C 2097.511719 1702.078125 2075.449219 1688.609375 2071.851562 1648.859375 C 2067.878906 1605.140625 2093.191406 1603.828125 2097.140625 1564.199219 C 2106.109375 1474.25 2029.199219 1509.769531 2068.261719 1390.699219 L 2342.101562 1570.839844 C 2300.429688 1602.921875 2281.441406 1569.070312 2248.289062 1629.671875 C 2226.378906 1669.75 2210.71875 1706.699219 2244.941406 1745.761719 C 2288.359375 1742.738281 2291.621094 1705.699219 2298.761719 1659.230469 C 2333.710938 1649.910156 2346.640625 1636.519531 2387.988281 1650.359375 C 2442.660156 1668.660156 2482.480469 1727.570312 2484.609375 1777.769531 C 2486.5 1822.191406 2484.648438 1852.945312 2527.230469 1850.578125 C 2572.578125 1786.320312 2508.269531 1691.851562 2500.980469 1675.078125 C 2569.589844 1684.109375 2561.679688 1794.730469 2609.558594 1786.960938 C 2631.011719 1765.890625 2624.449219 1752.078125 2615.941406 1726.589844 C 2670.851562 1705.371094 2603.511719 1624.71875 2580.988281 1608.910156 C 2566.339844 1598.628906 2534.550781 1582.671875 2517.289062 1575.011719 C 2479.621094 1558.308594 2469.429688 1570.429688 2433.78125 1565.878906 C 2406.480469 1562.398438 2349.53125 1501.800781 2319.921875 1481.5 C 2281.660156 1455.261719 2244.28125 1429.96875 2205.351562 1405.03125 C 2166.769531 1380.320312 2124.789062 1353.730469 2086.109375 1327.769531 C 2007.628906 1275.101562 2028.660156 1300.800781 2036.429688 1193.558594 C 2042.859375 1104.820312 1990.871094 1091.238281 1992.179688 1023.171875 C 1992.921875 984.910156 2013.75 972.148438 2005.410156 937.28125 C 1997.410156 903.769531 1977.570312 895.078125 1970.371094 874.601562 C 1950.308594 817.511719 2002.769531 745.570312 1916.78125 720.019531 C 1837.230469 696.390625 1820.390625 753.410156 1761.679688 722.011719 C 1701.53125 689.839844 1668.808594 721.851562 1651.070312 724.148438 C 1632.179688 726.601562 1632.671875 717.789062 1615.578125 716.429688 C 1596.679688 714.929688 1597.898438 725.609375 1578.941406 715.351562 C 1567.238281 709.011719 1565.621094 696.46875 1552.449219 691.378906 C 1527.421875 681.710938 1513.980469 707.898438 1484.949219 692.890625 C 1457.871094 678.878906 1465.578125 665.820312 1417.308594 662.328125 C 1377.78125 659.46875 1372.050781 668.21875 1337.570312 649.179688 C 1260.089844 606.371094 1251.050781 672.488281 1199.929688 661.179688 C 1144.519531 648.921875 1177.480469 645.429688 1126.339844 664.640625 C 1051.320312 692.839844 952.007812 595.019531 967.648438 763.128906 C 932.25 795.480469 942.222656 805.800781 923.4375 834.460938 L 916.164062 842.789062 "/>
<path fill-rule="evenodd" fill="rgb(66.014099%, 73.046875%, 20.996094%)" fill-opacity="1" d="M 1952.871094 1546.488281 C 1941.519531 1490.03125 2005.539062 1522.441406 2010.398438 1553.890625 C 2018.46875 1606.179688 1958.21875 1573.109375 1952.871094 1546.488281 Z M 1822.371094 1418.691406 C 1799.511719 1332.78125 1895.03125 1346.320312 1910.171875 1416.078125 C 1926.738281 1492.390625 1840.96875 1488.609375 1822.371094 1418.691406 Z M 1888.351562 1157 C 1868.308594 1070.660156 1958.238281 1100.570312 1970.53125 1167.441406 C 1985.089844 1246.648438 1903.28125 1221.351562 1888.351562 1157 Z M 1754.761719 869.671875 C 1802.429688 842.648438 1849.089844 904.019531 1864.601562 934.351562 C 1886.589844 977.328125 1895.109375 1055.269531 1851.851562 1078.261719 C 1769.730469 1121.910156 1666.269531 919.839844 1754.761719 869.671875 Z M 1877.609375 1282.648438 C 1866.480469 1301.851562 1815.820312 1292.441406 1789.878906 1291.921875 C 1765.519531 1298.421875 1780.808594 1294.578125 1772.730469 1280.980469 C 1762.210938 1263.28125 1767.011719 1222.371094 1772.121094 1202.960938 C 1855.230469 1175.21875 1941.769531 1249.460938 2017.28125 1278.949219 C 2015.5 1237.488281 2031.179688 1195.609375 2025.570312 1157.28125 C 2021.050781 1126.371094 1995.191406 1090.621094 1987.078125 1062.101562 C 1968.171875 995.628906 1997.140625 989.261719 1996.109375 950.859375 C 1994.941406 907.078125 1960.578125 905.140625 1955.808594 859.03125 C 1951.828125 820.601562 1970.640625 765.449219 1940.070312 747.039062 C 1898 721.691406 1886.078125 770.648438 1855.308594 778.75 C 1801.679688 792.859375 1811.558594 747.960938 1769.941406 810.359375 C 1747.671875 843.738281 1722.878906 838.179688 1680.519531 831.28125 C 1682 893.410156 1650.128906 903.789062 1660.058594 940.308594 C 1670.949219 980.328125 1702.53125 963.140625 1702.191406 1029.078125 C 1701.949219 1074.660156 1674.460938 1103.78125 1689.539062 1136.839844 C 1705.101562 1170.929688 1735.339844 1165.171875 1731.699219 1230.089844 C 1728.398438 1288.988281 1714.75 1291.339844 1747.351562 1335.71875 C 1767.601562 1363.28125 1770.050781 1403.691406 1755.460938 1444.050781 C 1733.710938 1504.199219 1750.589844 1501.378906 1773.179688 1536.378906 C 1795.261719 1570.601562 1770.371094 1617.320312 1768.011719 1664.578125 C 1814.78125 1659.671875 2058.5 1632.621094 2080 1587.769531 C 2108.820312 1527.660156 2049.289062 1492.300781 2045.921875 1460.558594 C 2043.878906 1441.199219 2053.761719 1405.589844 2055.171875 1382.011719 C 2003.441406 1357.789062 1990.121094 1337.601562 1903.738281 1302.851562 C 1876.75 1292 1888.710938 1302.269531 1877.609375 1282.648438 "/>
<path fill-rule="evenodd" fill="rgb(97.068787%, 88.084412%, 43.992615%)" fill-opacity="1" d="M 1789.878906 1291.921875 C 1815.820312 1292.441406 1866.480469 1301.851562 1877.609375 1282.648438 C 1951.210938 1294.921875 2075.890625 1378.921875 2132.941406 1418.058594 C 2171.46875 1444.5 2210.421875 1466.398438 2249.199219 1492.710938 C 2271.089844 1507.578125 2288.359375 1518.050781 2308.589844 1531.480469 C 2328.609375 1544.761719 2354.921875 1554.398438 2363.460938 1579.410156 C 2338.210938 1587.570312 2277.101562 1600.980469 2263.601562 1623.46875 C 2244.828125 1654.75 2222.039062 1700.589844 2250.050781 1733.898438 C 2305.21875 1715.519531 2265.820312 1665.699219 2306.949219 1644.421875 C 2355.691406 1619.210938 2426.71875 1639.339844 2454.089844 1680.871094 C 2464.320312 1696.398438 2472.390625 1708.640625 2481.929688 1727 C 2506.289062 1773.851562 2479.078125 1846.945312 2523.449219 1835.632812 C 2536.980469 1811.550781 2531.238281 1766.878906 2522.640625 1739.089844 C 2512.640625 1706.789062 2490.039062 1695.558594 2485.839844 1662.699219 C 2525.851562 1658.179688 2540.078125 1674.390625 2557.339844 1704.109375 C 2593.378906 1766.140625 2581.261719 1772.230469 2607.140625 1776.28125 C 2631.28125 1715.648438 2543.03125 1651.101562 2542.011719 1627.261719 C 2593.539062 1640.148438 2590.71875 1693.570312 2625.078125 1711.980469 C 2629.308594 1685.511719 2618.378906 1669.960938 2604.890625 1653.398438 C 2587.71875 1632.328125 2586.351562 1625.691406 2559.429688 1610.28125 C 2469.039062 1558.570312 2489.261719 1587.128906 2428.980469 1577.480469 C 2401.261719 1573.050781 2355.640625 1521.761719 2331.640625 1504.171875 C 2299.738281 1480.800781 2259.941406 1455.039062 2226.808594 1434.21875 C 2163.339844 1394.339844 1860.441406 1171.070312 1782.558594 1214.921875 C 1771.109375 1244.621094 1781.761719 1268.53125 1789.878906 1291.921875 "/>
<path fill-rule="evenodd" fill="rgb(97.068787%, 88.084412%, 43.992615%)" fill-opacity="1" d="M 1632.28125 1733.441406 C 1680 1710.691406 1736.851562 1767.78125 1689.128906 1791.109375 C 1645.539062 1812.429688 1576.570312 1759.988281 1632.28125 1733.441406 Z M 1324.828125 1818.371094 C 1357.160156 1817.070312 1382.460938 1809.679688 1412.800781 1825.101562 C 1431.808594 1834.769531 1451.628906 1854.640625 1477.238281 1850.066406 C 1495.058594 1846.886719 1519.710938 1830.488281 1549.789062 1825.179688 C 1693.078125 1799.839844 1699.160156 1895.582031 1758.910156 1831.941406 C 1796.019531 1792.410156 1790.558594 1740.558594 1759.410156 1684.988281 L 1326.03125 1687.609375 L 1324.828125 1818.371094 "/>
<path fill-rule="evenodd" fill="rgb(66.014099%, 72.068787%, 21.99707%)" fill-opacity="1" d="M 1735.351562 741.179688 C 1729.980469 786.480469 1690.679688 774.980469 1672.671875 763.898438 C 1676.53125 746.441406 1675.011719 742.199219 1693.519531 737.191406 C 1708.859375 733.039062 1723.621094 737.308594 1735.351562 741.179688 Z M 1237.078125 726.171875 C 1242.128906 689.199219 1279.050781 692.429688 1292.828125 712.738281 C 1288.839844 725.121094 1288.671875 730.039062 1268.820312 732.140625 C 1256.359375 733.460938 1245.941406 729.351562 1237.078125 726.171875 Z M 1515.78125 786.109375 C 1500.941406 777.039062 1510.628906 789.300781 1500.96875 772.128906 C 1510.679688 734.578125 1569.679688 743.460938 1579.621094 779.679688 L 1561.300781 794.46875 L 1549.410156 800.191406 C 1590.828125 816.558594 1597.761719 843.109375 1638.121094 823.601562 C 1673.808594 806.351562 1710.449219 832.949219 1738.429688 821.371094 C 1772.898438 807.109375 1762.851562 761.941406 1815.460938 764.589844 C 1891.078125 768.390625 1869.929688 735.390625 1899.828125 729.371094 C 1832.628906 713.871094 1824.199219 766.070312 1760.679688 735.648438 C 1683.878906 698.871094 1680.5 749.21875 1625.730469 732.460938 C 1596.640625 723.558594 1591.828125 745.519531 1564.769531 719.210938 C 1532.148438 687.480469 1548.460938 706.28125 1507.539062 709.871094 C 1479.941406 712.289062 1468.828125 692.460938 1451.898438 683.800781 C 1432.121094 673.679688 1392.691406 667.109375 1374.210938 681.871094 C 1396.390625 689.300781 1405.710938 695.128906 1409.679688 718.820312 C 1380.558594 753.898438 1297.738281 738.019531 1305.519531 682.679688 L 1327.53125 676.179688 C 1344.199219 668.988281 1337.191406 669.949219 1343.910156 663.300781 C 1312.28125 655.589844 1312.5 638.441406 1272.960938 651.320312 C 1247.398438 659.648438 1237.390625 676.898438 1208.179688 675.109375 C 1168.160156 672.660156 1181.300781 652.488281 1138.199219 673.160156 C 1109.289062 687.03125 1091.828125 671.351562 1072.03125 682.308594 C 1105.25 742.261719 1134.449219 691.769531 1175.058594 720.738281 C 1195.558594 735.371094 1194.96875 747.921875 1227.710938 749.050781 C 1251.640625 749.878906 1272.039062 739.898438 1294.75 748.511719 C 1323.128906 759.269531 1316.171875 775 1337.539062 783.859375 C 1366.800781 796 1370.519531 771.640625 1400.410156 775.261719 C 1416.898438 777.261719 1440.410156 791.820312 1457 798.679688 C 1482.578125 809.25 1498.160156 807.71875 1515.78125 786.109375 "/>
<path fill-rule="evenodd" fill="rgb(38.989258%, 3.999329%, 4.998779%)" fill-opacity="1" d="M 794.3125 1219.839844 C 779.546875 1249.730469 779.023438 1278.300781 767.929688 1304.890625 L 756.484375 1286.039062 C 748.339844 1266.5 744.519531 1247.140625 745.371094 1227.828125 C 706.066406 1236.070312 664.453125 1261.25 651.027344 1296.980469 C 724.976562 1396.601562 909.78125 1307.910156 1018.359375 1308.71875 C 1038.199219 1282.558594 1024.96875 1284.359375 1066.941406 1281.429688 C 1089.761719 1279.828125 1113.269531 1279.601562 1136.121094 1280.628906 C 1180.640625 1282.648438 1216.601562 1290.878906 1256.960938 1300.191406 C 1222.410156 1267.039062 1101.03125 1190.191406 1042.351562 1205.710938 C 1031 1218.828125 1021.390625 1242 1013.5 1266.171875 L 1006.890625 1278.648438 L 1005.941406 1193.539062 C 949.226562 1191.488281 834.460938 1192.910156 794.3125 1219.839844 "/>
<path fill-rule="evenodd" fill="rgb(58.006287%, 29.00238%, 12.988281%)" fill-opacity="1" d="M 1169.339844 1925.792969 C 1152.210938 1916.214844 1164.480469 1906.941406 1176.789062 1902.535156 C 1178.210938 1905.429688 1190.039062 1896.125 1180.480469 1921.820312 C 1178.511719 1927.140625 1173.480469 1928.105469 1169.339844 1925.792969 Z M 1196.859375 1867.800781 C 1190.101562 1852.046875 1191.921875 1866.542969 1195.339844 1845.589844 L 1211.648438 1850.019531 C 1207.738281 1868.121094 1212.210938 1863.171875 1196.859375 1867.800781 Z M 1180.238281 1823.589844 L 1178.710938 1852.449219 C 1156.78125 1854.894531 1155.109375 1855.148438 1155.488281 1824.050781 Z M 1161.140625 1692.859375 C 1149.738281 1804.148438 1115.878906 1868.902344 1091.800781 1962.613281 C 1143.238281 1964.488281 1268.75 1981.714844 1310.699219 1973.0625 L 1315.980469 1698.46875 L 1161.140625 1692.859375 "/>
<path fill-rule="evenodd" fill="rgb(97.068787%, 88.084412%, 43.992615%)" fill-opacity="1" d="M 204.214844 1679.019531 C 235.777344 1672.019531 321.132812 1620.609375 342.542969 1631.699219 C 338.238281 1647.859375 345.496094 1637.601562 330.289062 1646.238281 C 315.105469 1654.859375 204.777344 1675.621094 196.785156 1728.140625 C 230.253906 1744.46875 253.570312 1718.058594 278.640625 1700.039062 C 293.4375 1689.390625 341.433594 1658.820312 356.769531 1668.210938 C 348.195312 1686.160156 309.273438 1698.578125 292.246094 1710.589844 C 278.386719 1720.371094 231.136719 1759.828125 252.558594 1778.648438 C 277.101562 1800.210938 330.445312 1696.308594 421.273438 1675.050781 C 454.257812 1667.328125 510.101562 1676.988281 535.847656 1694.75 C 574.933594 1721.71875 555.964844 1770.859375 573.375 1813.261719 C 609.34375 1805.859375 607.976562 1752.300781 593.539062 1711.578125 C 576.121094 1662.46875 554.539062 1674.828125 524.832031 1642.488281 L 772.714844 1500.488281 L 759.917969 1463.648438 C 716.160156 1482.710938 672.855469 1514.769531 633.089844 1537.960938 C 594.503906 1560.449219 547.773438 1591.960938 509.382812 1610.519531 C 444.207031 1642.03125 398.242188 1574.851562 260.527344 1630.191406 C 233.8125 1640.929688 206.972656 1645.390625 204.214844 1679.019531 "/>
<path fill-rule="evenodd" fill="rgb(66.014099%, 73.046875%, 20.996094%)" fill-opacity="1" d="M 1930.851562 1725.28125 C 1934.378906 1777.578125 1878.839844 1778.351562 1866.578125 1753.351562 C 1852.75 1725.140625 1895.230469 1685.601562 1930.851562 1725.28125 Z M 1772.378906 1678.261719 C 1779.160156 1706.140625 1795.910156 1737.46875 1795.050781 1777.878906 C 1794.148438 1820.5 1768.890625 1834.898438 1753.621094 1855.191406 C 1794.199219 1848.425781 1796.101562 1817.800781 1826.078125 1802.070312 C 1869.199219 1779.460938 1886.851562 1811.210938 1927.160156 1806.519531 C 1962.480469 1802.421875 1967.21875 1773.109375 2007.078125 1762.230469 C 2070.46875 1744.941406 2023.78125 1776.949219 2092.289062 1729.878906 C 2078.75 1681.578125 2072.78125 1728.230469 2059.078125 1625.609375 L 1772.378906 1678.261719 "/>
<path fill-rule="evenodd" fill="rgb(97.068787%, 88.084412%, 43.992615%)" fill-opacity="1" d="M 2010.480469 1965.644531 C 1890.210938 1856.699219 1898.011719 1793.191406 1824.421875 1814.628906 C 1826.199219 1816.371094 1840.03125 1836.515625 1843.941406 1841.386719 C 1862.859375 1865.007812 1976.640625 1979.601562 1983.46875 2002.929688 C 1964.761719 2025.058594 1962.070312 2007.074219 1944.238281 2025.675781 C 1953.101562 2063.472656 2016.601562 2062.90625 2076.320312 2075.449219 C 2140.46875 2088.921875 2189.808594 2118.390625 2212.089844 2115.925781 C 2204.78125 2088.5625 2178.390625 2084.894531 2184.398438 2070.765625 C 2198.238281 2060.507812 2217.898438 2093.332031 2238.039062 2082.046875 C 2229.070312 2048.589844 2222.859375 2077.90625 2207.050781 2040.273438 L 2255.261719 2060.25 C 2246.699219 2026.753906 2231.21875 2032.503906 2198.921875 2029.300781 C 2142.539062 2023.714844 2054.601562 2005.609375 2010.480469 1965.644531 "/>
<path fill-rule="evenodd" fill="rgb(97.068787%, 88.084412%, 43.992615%)" fill-opacity="1" d="M 776.472656 2013.09375 C 788.601562 1963.707031 766.613281 1974.5625 816.136719 1944.691406 C 855.128906 1921.167969 937.574219 1872.121094 973.40625 1846.105469 C 996.410156 1829.398438 993.847656 1832.929688 1000.53125 1818.300781 C 951.175781 1801.820312 931.882812 1833.089844 888.3125 1860.363281 C 852.125 1883.019531 817.613281 1907.289062 783.617188 1930.453125 C 670.289062 2007.675781 664.996094 1965.28125 526.246094 2015.628906 C 534.296875 2023.320312 530.007812 2019.285156 542.800781 2023.777344 C 549.554688 2026.148438 546.539062 2021.980469 558.621094 2027.273438 C 547.46875 2043.3125 537.425781 2035.265625 517.589844 2051.617188 C 535.554688 2068.621094 556.640625 2041.769531 574.050781 2057.703125 C 550.136719 2072.570312 522.304688 2070.527344 518.417969 2100.402344 C 542.835938 2113.9375 614.125 2070.625 647.34375 2059.804688 C 689.761719 2045.980469 741.238281 2035.765625 776.472656 2013.09375 "/>
<path fill-rule="evenodd" fill="rgb(31.005859%, 40.989685%, 17.993164%)" fill-opacity="1" d="M 1754.761719 869.671875 C 1666.269531 919.839844 1769.730469 1121.910156 1851.851562 1078.261719 C 1895.109375 1055.269531 1886.589844 977.328125 1864.601562 934.351562 C 1849.089844 904.019531 1802.429688 842.648438 1754.761719 869.671875 "/>
<path fill-rule="evenodd" fill="rgb(8.006287%, 5.999756%, 3.999329%)" fill-opacity="1" d="M 1115.488281 966.160156 C 1143.199219 945.828125 1233.238281 963.640625 1244.671875 969.089844 C 1277.230469 970.03125 1285.230469 966.210938 1288.070312 1005.519531 C 1298.121094 1144.691406 1115.140625 1166.171875 1081.019531 1082.460938 C 1056.148438 1021.429688 1096.230469 995.96875 1115.488281 966.160156 Z M 905.6875 1025.480469 C 906.992188 864.550781 1071.320312 965.929688 1073.761719 968.339844 C 1077.199219 1015.089844 1048.539062 1075.941406 1013.121094 1080.101562 C 980.4375 1083.929688 928.570312 1038.171875 905.6875 1025.480469 Z M 950.445312 839.691406 C 941.84375 846.558594 935.261719 847.910156 916.164062 842.789062 C 883.4375 834.378906 866.636719 844.230469 860.230469 877.050781 C 881.097656 910.921875 918.820312 905.480469 942.894531 927.261719 C 908.738281 944.339844 896.695312 972.21875 894.964844 1029.75 C 910.144531 1045.980469 925.394531 1052.671875 942.003906 1065.550781 C 943.027344 1066.339844 944.257812 1067.238281 945.277344 1068.070312 L 958.628906 1080.488281 C 975.027344 1084.460938 987.335938 1094.121094 1006.53125 1097.5 C 1032 1101.980469 1036.578125 1088.050781 1059.238281 1080.820312 C 1071.851562 1090.789062 1080.980469 1102.808594 1089.730469 1114 C 1099.671875 1121.699219 1105.691406 1128.839844 1120.359375 1133.351562 C 1138.28125 1138.871094 1139.328125 1132.089844 1155.5 1145.859375 C 1186.089844 1144.730469 1313.308594 1158.398438 1318.988281 1079.71875 C 1299.019531 1087.050781 1285.519531 1135.878906 1236.109375 1128.941406 C 1250.828125 1126.949219 1282.25 1090.339844 1291.800781 1075.480469 C 1313.371094 1041.910156 1301.960938 1006.171875 1296.71875 964.800781 C 1317.171875 963.960938 1338.160156 962.878906 1357.738281 959.390625 C 1411.800781 949.75 1398.351562 946.421875 1402.019531 937.910156 C 1400.390625 937.238281 1282 953.988281 1258.558594 953.839844 C 1164.03125 953.238281 1061.558594 942.101562 970.125 916.210938 C 930.511719 905 860.605469 891.050781 877.921875 855.878906 C 907.886719 848.128906 969.886719 868.761719 995.15625 831.609375 L 950.445312 839.691406 "/>
<path fill-rule="evenodd" fill="rgb(100%, 98.046875%, 96.09375%)" fill-opacity="1" d="M 1244.671875 969.089844 L 1164.78125 966.609375 L 1176.960938 980.339844 C 1177.828125 981.289062 1179.019531 982.390625 1179.851562 983.300781 C 1214.800781 1021.101562 1173.328125 1083.480469 1128.199219 1062.941406 C 1102.21875 1051.109375 1087.828125 989.300781 1134.320312 975.191406 C 1125.511719 963.308594 1149.109375 964.800781 1115.488281 966.160156 C 1096.230469 995.96875 1056.148438 1021.429688 1081.019531 1082.460938 C 1115.140625 1166.171875 1298.121094 1144.691406 1288.070312 1005.519531 C 1285.230469 966.210938 1277.230469 970.03125 1244.671875 969.089844 "/>
<path fill-rule="evenodd" fill="rgb(97.068787%, 88.084412%, 43.992615%)" fill-opacity="1" d="M 966.589844 1742.570312 C 966.199219 1716.671875 971.125 1708.320312 990.488281 1701.941406 C 1013.140625 1694.480469 1020.578125 1699.78125 1032.5 1710.578125 C 1029.101562 1750.351562 994.894531 1754.699219 966.589844 1742.570312 Z M 1130.570312 1807.191406 L 1134.828125 1772.121094 C 1125.949219 1766 1132.140625 1785.199219 1103.679688 1794.488281 C 1019.238281 1822.039062 1061.730469 1708.878906 1121.148438 1740.261719 C 1140.570312 1750.519531 1133.210938 1770.359375 1138.421875 1758.28125 C 1138.890625 1757.191406 1140.199219 1760.921875 1141.238281 1762.058594 L 1151.210938 1681.621094 C 1112.171875 1680.921875 1083.339844 1689.148438 1042.78125 1682.460938 C 1008.390625 1676.789062 979.5625 1664.671875 948.449219 1657.96875 C 942.433594 1699.730469 979.234375 1686.929688 952.773438 1723.390625 C 936.996094 1745.121094 921.550781 1743.238281 926.640625 1789.730469 C 955.613281 1799.78125 964.246094 1793.558594 985.226562 1799.351562 C 1033.371094 1812.640625 984.902344 1842.972656 1130.570312 1807.191406 "/>
<path fill-rule="evenodd" fill="rgb(97.068787%, 88.084412%, 43.992615%)" fill-opacity="1" d="M 1089.730469 1114 C 1080.980469 1102.808594 1071.851562 1090.789062 1059.238281 1080.820312 C 1036.578125 1088.050781 1032 1101.980469 1006.53125 1097.5 C 987.335938 1094.121094 975.027344 1084.460938 958.628906 1080.488281 C 891.796875 1059.960938 811.667969 953.738281 760.300781 959.261719 C 748.804688 1042.921875 901.011719 1107.019531 977.253906 1115.578125 C 996.429688 1117.730469 1073.238281 1127.558594 1089.730469 1114 "/>
<path fill-rule="evenodd" fill="rgb(100%, 98.046875%, 96.09375%)" fill-opacity="1" d="M 958.84375 955.589844 C 1011.878906 926.140625 1044.828125 997.199219 992.511719 1023.019531 C 946.042969 1045.949219 897.507812 989.628906 958.84375 955.589844 Z M 905.6875 1025.480469 C 928.570312 1038.171875 980.4375 1083.929688 1013.121094 1080.101562 C 1048.539062 1075.941406 1077.199219 1015.089844 1073.761719 968.339844 C 1071.320312 965.929688 906.992188 864.550781 905.6875 1025.480469 "/>
<path fill-rule="evenodd" fill="rgb(33.006287%, 9.008789%, 1.997375%)" fill-opacity="1" d="M 1161.140625 1692.859375 L 1315.980469 1698.46875 L 1310.699219 1973.0625 C 1268.75 1981.714844 1143.238281 1964.488281 1091.800781 1962.613281 C 1115.878906 1868.902344 1149.738281 1804.148438 1161.140625 1692.859375 Z M 1141.238281 1762.058594 L 1134.828125 1772.121094 L 1130.570312 1807.191406 C 1128.160156 1815.410156 1130.800781 1812.910156 1124.730469 1823.851562 L 1076.371094 1972.554688 L 1320.488281 1988.789062 C 1320.980469 1951.042969 1319.859375 1856.730469 1325.691406 1830.511719 L 1324.828125 1818.371094 L 1326.03125 1687.609375 L 1151.210938 1681.621094 L 1141.238281 1762.058594 "/>
<path fill-rule="evenodd" fill="rgb(75%, 71.09375%, 18.992615%)" fill-opacity="1" d="M 1545.480469 1595.179688 C 1553.03125 1648.398438 1680.308594 1669.140625 1671.621094 1602.769531 C 1664.308594 1546.980469 1535.820312 1527.050781 1545.480469 1595.179688 "/>
<path fill-rule="evenodd" fill="rgb(75%, 71.09375%, 18.992615%)" fill-opacity="1" d="M 1472.960938 919.660156 C 1479.421875 964.289062 1613.460938 981.359375 1608.691406 921.050781 C 1604.460938 867.660156 1463.589844 854.898438 1472.960938 919.660156 "/>
<path fill-rule="evenodd" fill="rgb(31.005859%, 40.989685%, 17.993164%)" fill-opacity="1" d="M 1822.371094 1418.691406 C 1840.96875 1488.609375 1926.738281 1492.390625 1910.171875 1416.078125 C 1895.03125 1346.320312 1799.511719 1332.78125 1822.371094 1418.691406 "/>
<path fill-rule="evenodd" fill="rgb(32.00531%, 40.989685%, 16.992188%)" fill-opacity="1" d="M 1888.351562 1157 C 1903.28125 1221.351562 1985.089844 1246.648438 1970.53125 1167.441406 C 1958.238281 1100.570312 1868.308594 1070.660156 1888.351562 1157 "/>
<path fill-rule="evenodd" fill="rgb(75%, 71.09375%, 18.992615%)" fill-opacity="1" d="M 1477.949219 1321.421875 C 1485.988281 1249.921875 1394.949219 1246.929688 1384.410156 1276.5 C 1368.539062 1321.03125 1437.691406 1344.75 1477.949219 1321.421875 "/>
<path fill-rule="evenodd" fill="rgb(75.976562%, 71.09375%, 19.993591%)" fill-opacity="1" d="M 1632.28125 1733.441406 C 1576.570312 1759.988281 1645.539062 1812.429688 1689.128906 1791.109375 C 1736.851562 1767.78125 1680 1710.691406 1632.28125 1733.441406 "/>
<path fill-rule="evenodd" fill="rgb(31.005859%, 40.989685%, 17.993164%)" fill-opacity="1" d="M 1374.210938 681.871094 L 1327.53125 676.179688 L 1305.519531 682.679688 C 1297.738281 738.019531 1380.558594 753.898438 1409.679688 718.820312 C 1405.710938 695.128906 1396.390625 689.300781 1374.210938 681.871094 "/>
<path fill-rule="evenodd" fill="rgb(18.992615%, 15.989685%, 41.992188%)" fill-opacity="1" d="M 1125.128906 1040.890625 C 1108.121094 994.589844 1137.398438 962.828125 1166.421875 986.671875 C 1194.558594 1009.789062 1176.761719 1055.78125 1125.128906 1040.890625 Z M 1244.671875 969.089844 C 1233.238281 963.640625 1143.199219 945.828125 1115.488281 966.160156 C 1149.109375 964.800781 1125.511719 963.308594 1134.320312 975.191406 C 1087.828125 989.300781 1102.21875 1051.109375 1128.199219 1062.941406 C 1173.328125 1083.480469 1214.800781 1021.101562 1179.851562 983.300781 C 1179.019531 982.390625 1177.828125 981.289062 1176.960938 980.339844 L 1164.78125 966.609375 L 1244.671875 969.089844 "/>
<path fill-rule="evenodd" fill="rgb(13.989258%, 12.010193%, 38.989258%)" fill-opacity="1" d="M 987.800781 980.511719 C 982.03125 963.800781 995.410156 969.488281 967.039062 964.550781 C 1059.25 955.621094 940.179688 1072.429688 946.382812 978.429688 L 953.195312 984.859375 C 984.453125 1013.640625 984.371094 989.328125 987.800781 980.511719 Z M 958.84375 955.589844 C 897.507812 989.628906 946.042969 1045.949219 992.511719 1023.019531 C 1044.828125 997.199219 1011.878906 926.140625 958.84375 955.589844 "/>
<path fill-rule="evenodd" fill="rgb(75.976562%, 71.09375%, 19.993591%)" fill-opacity="1" d="M 984.121094 796.238281 C 1018.480469 810.710938 1068.339844 785.121094 1063.109375 738.359375 C 1027.039062 722.480469 977.351562 750.621094 984.121094 796.238281 "/>
<path fill-rule="evenodd" fill="rgb(75.976562%, 71.09375%, 19.993591%)" fill-opacity="1" d="M 1134.828125 1772.121094 L 1141.238281 1762.058594 C 1140.199219 1760.921875 1138.890625 1757.191406 1138.421875 1758.28125 C 1133.210938 1770.359375 1140.570312 1750.519531 1121.148438 1740.261719 C 1061.730469 1708.878906 1019.238281 1822.039062 1103.679688 1794.488281 C 1132.140625 1785.199219 1125.949219 1766 1134.828125 1772.121094 "/>
<path fill-rule="evenodd" fill="rgb(32.00531%, 40.989685%, 16.992188%)" fill-opacity="1" d="M 1930.851562 1725.28125 C 1895.230469 1685.601562 1852.75 1725.140625 1866.578125 1753.351562 C 1878.839844 1778.351562 1934.378906 1777.578125 1930.851562 1725.28125 "/>
<path fill-rule="evenodd" fill="rgb(32.00531%, 40.989685%, 16.992188%)" fill-opacity="1" d="M 1952.871094 1546.488281 C 1958.21875 1573.109375 2018.46875 1606.179688 2010.398438 1553.890625 C 2005.539062 1522.441406 1941.519531 1490.03125 1952.871094 1546.488281 "/>
<path fill-rule="evenodd" fill="rgb(32.00531%, 40.989685%, 16.992188%)" fill-opacity="1" d="M 1515.78125 786.109375 C 1530.789062 795.789062 1541.351562 795.871094 1561.300781 794.46875 L 1579.621094 779.679688 C 1569.679688 743.460938 1510.679688 734.578125 1500.96875 772.128906 C 1510.628906 789.300781 1500.941406 777.039062 1515.78125 786.109375 "/>
<path fill-rule="evenodd" fill="rgb(75%, 71.09375%, 18.992615%)" fill-opacity="1" d="M 966.589844 1742.570312 C 994.894531 1754.699219 1029.101562 1750.351562 1032.5 1710.578125 C 1020.578125 1699.78125 1013.140625 1694.480469 990.488281 1701.941406 C 971.125 1708.320312 966.199219 1716.671875 966.589844 1742.570312 "/>
<path fill-rule="evenodd" fill="rgb(98.046875%, 97.068787%, 96.09375%)" fill-opacity="1" d="M 745.371094 1227.828125 C 744.519531 1247.140625 748.339844 1266.5 756.484375 1286.039062 L 767.929688 1304.890625 C 779.023438 1278.300781 779.546875 1249.730469 794.3125 1219.839844 C 787.5625 1209.519531 796.769531 1215.730469 783.636719 1214.398438 C 781.488281 1214.179688 769.121094 1216.550781 767.59375 1217.011719 C 759.011719 1219.589844 753.339844 1222.019531 745.371094 1227.828125 "/>
<path fill-rule="evenodd" fill="rgb(38.989258%, 33.006287%, 64.0625%)" fill-opacity="1" d="M 1130.011719 1023.359375 C 1122.539062 1000.21875 1137.898438 987.988281 1157.699219 996.839844 C 1165.148438 1016.878906 1161.5 1014.011719 1158.980469 1025.929688 C 1125.269531 1035.648438 1133.390625 1025.859375 1130.011719 1023.359375 Z M 1125.128906 1040.890625 C 1176.761719 1055.78125 1194.558594 1009.789062 1166.421875 986.671875 C 1137.398438 962.828125 1108.121094 994.589844 1125.128906 1040.890625 "/>
<path fill-rule="evenodd" fill="rgb(32.00531%, 40.989685%, 16.992188%)" fill-opacity="1" d="M 1693.519531 737.191406 C 1675.011719 742.199219 1676.53125 746.441406 1672.671875 763.898438 C 1690.679688 774.980469 1729.980469 786.480469 1735.351562 741.179688 C 1723.621094 737.308594 1708.859375 733.039062 1693.519531 737.191406 "/>
<path fill-rule="evenodd" fill="rgb(32.00531%, 40.989685%, 16.992188%)" fill-opacity="1" d="M 1237.078125 726.171875 C 1245.941406 729.351562 1256.359375 733.460938 1268.820312 732.140625 C 1288.671875 730.039062 1288.839844 725.121094 1292.828125 712.738281 C 1279.050781 692.429688 1242.128906 689.199219 1237.078125 726.171875 "/>
<path fill-rule="evenodd" fill="rgb(34.008789%, 30.004883%, 58.006287%)" fill-opacity="1" d="M 987.800781 980.511719 C 984.371094 989.328125 984.453125 1013.640625 953.195312 984.859375 L 946.382812 978.429688 C 940.179688 1072.429688 1059.25 955.621094 967.039062 964.550781 C 995.410156 969.488281 982.03125 963.800781 987.800781 980.511719 "/>
<path fill-rule="evenodd" fill="rgb(99.021912%, 96.09375%, 94.921875%)" fill-opacity="1" d="M 1013.5 1266.171875 C 1021.390625 1242 1031 1218.828125 1042.351562 1205.710938 C 1038.199219 1194.390625 1048.578125 1202.128906 1031.378906 1196.121094 C 1028.300781 1195.039062 1016.910156 1194.679688 1013.21875 1194.398438 C 1012.460938 1222.359375 1001.609375 1248.5 1013.5 1266.171875 "/>
<path fill-rule="evenodd" fill="rgb(11.009216%, 9.008789%, 32.00531%)" fill-opacity="1" d="M 1130.011719 1023.359375 C 1133.390625 1025.859375 1125.269531 1035.648438 1158.980469 1025.929688 C 1161.5 1014.011719 1165.148438 1016.878906 1157.699219 996.839844 C 1137.898438 987.988281 1122.539062 1000.21875 1130.011719 1023.359375 "/>
<path fill-rule="evenodd" fill="rgb(50.976562%, 36.009216%, 13.989258%)" fill-opacity="1" d="M 1302.988281 1175.261719 C 1294.570312 1149.691406 1276.890625 1147.539062 1268.648438 1175.261719 C 1283.058594 1194.261719 1288.128906 1192.421875 1302.988281 1175.261719 "/>
<path fill-rule="evenodd" fill="rgb(50.976562%, 36.009216%, 11.009216%)" fill-opacity="1" d="M 1322.761719 1144.828125 C 1333.828125 1164.078125 1345.398438 1167.488281 1357.128906 1138.75 C 1353.980469 1136.171875 1355.289062 1126.210938 1335.609375 1131.429688 C 1319.371094 1135.738281 1326.738281 1138.238281 1322.761719 1144.828125 "/>
<path fill-rule="evenodd" fill="rgb(33.006287%, 9.008789%, 1.997375%)" fill-opacity="1" d="M 1155.488281 1824.050781 C 1155.109375 1855.148438 1156.78125 1854.894531 1178.710938 1852.449219 L 1180.238281 1823.589844 L 1155.488281 1824.050781 "/>
<path fill-rule="evenodd" fill="rgb(50.976562%, 36.009216%, 13.989258%)" fill-opacity="1" d="M 1360.769531 1205.691406 C 1341.941406 1190.589844 1336.808594 1195.519531 1327.191406 1211.769531 C 1339.308594 1231.050781 1354.351562 1228.578125 1360.769531 1205.691406 "/>
<path fill-rule="evenodd" fill="rgb(33.006287%, 9.008789%, 1.997375%)" fill-opacity="1" d="M 1176.789062 1902.535156 C 1164.480469 1906.941406 1152.210938 1916.214844 1169.339844 1925.792969 C 1173.480469 1928.105469 1178.511719 1927.140625 1180.480469 1921.820312 C 1190.039062 1896.125 1178.210938 1905.429688 1176.789062 1902.535156 "/>
<path fill-rule="evenodd" fill="rgb(33.006287%, 9.008789%, 1.997375%)" fill-opacity="1" d="M 1195.339844 1845.589844 C 1191.921875 1866.542969 1190.101562 1852.046875 1196.859375 1867.800781 C 1212.210938 1863.171875 1207.738281 1868.121094 1211.648438 1850.019531 L 1195.339844 1845.589844 "/>
</svg>
