<?xml version="1.0" encoding="UTF-8" standalone="no"?>
<!DOCTYPE svg PUBLIC "-//W3C//DTD SVG 1.1//EN" "http://www.w3.org/Graphics/SVG/1.1/DTD/svg11.dtd">
<svg xmlns="http://www.w3.org/2000/svg" version="1.1" viewBox="0 0 360 360" width="360.0pt" height="360.0pt" xmlns:xlink="http://www.w3.org/1999/xlink">
<defs>
<path d="M 0.00 0.00 L 360.00 0.00 L 360.00 360.00 L 0.00 360.00 L 0.00 0.00 Z M 161.27 67.34 C 146.25 72.94 133.32 83.23 125.12 97.08 C 123.03 98.95 119.94 99.71 117.76 101.64 C 113.44 105.11 109.41 109.25 106.51 114.01 C 108.44 118.06 112.14 120.80 115.72 123.30 C 115.77 124.10 115.76 124.89 115.69 125.69 C 112.93 127.13 111.57 129.63 110.41 132.39 C 108.70 136.75 108.08 141.40 108.74 146.04 C 109.61 148.46 110.48 150.89 112.95 152.07 C 114.06 152.60 115.93 152.53 116.19 153.98 C 116.39 156.45 116.81 158.59 118.60 160.41 C 119.91 161.93 122.54 162.06 124.38 162.24 C 121.43 172.88 127.70 183.06 136.19 189.04 C 135.82 190.17 134.39 190.78 133.57 191.59 C 126.13 197.07 119.66 204.55 116.12 213.12 C 113.74 218.67 112.85 224.97 112.78 230.97 C 110.93 230.23 109.10 229.45 107.19 228.88 C 106.33 228.68 105.47 228.48 104.60 228.28 C 102.89 227.64 101.19 227.91 99.43 227.66 C 96.91 223.71 92.59 221.79 88.00 221.68 C 80.57 221.34 72.43 225.35 69.39 232.40 C 67.06 237.02 67.14 242.40 68.81 247.22 C 69.38 248.35 69.95 249.48 71.03 250.20 C 72.75 250.32 73.71 247.76 75.37 247.45 C 82.38 246.03 88.97 245.60 95.63 242.63 C 98.16 241.46 99.85 239.55 101.18 237.14 C 107.66 238.43 113.11 244.09 116.44 249.53 C 117.18 251.04 118.38 252.88 118.55 254.55 C 115.43 257.09 112.90 260.30 109.98 262.82 C 107.40 260.67 104.34 259.20 101.09 260.94 C 99.14 261.90 98.13 263.22 96.97 265.00 C 94.81 262.13 92.51 260.11 88.73 261.66 C 83.66 265.04 81.83 272.91 81.28 278.59 C 80.72 281.74 80.48 285.36 81.27 288.48 C 81.89 296.17 86.33 304.72 94.45 306.50 C 102.40 308.79 109.48 304.87 117.03 303.35 C 126.25 300.95 135.51 300.14 145.00 299.65 C 151.03 299.66 156.85 299.47 162.82 300.61 C 167.35 301.66 171.92 302.40 176.57 302.67 C 180.61 303.43 184.90 303.30 189.00 303.31 C 192.85 303.25 196.54 303.43 200.33 302.64 C 207.07 302.45 213.36 300.43 219.99 299.62 C 234.61 298.64 249.03 301.71 262.81 306.35 C 269.26 308.72 277.21 308.15 282.54 303.51 C 288.22 298.79 291.25 291.20 292.20 284.04 C 292.74 277.93 292.45 269.88 287.56 265.45 C 284.68 262.39 280.23 262.26 276.97 264.82 C 275.70 264.65 275.47 262.36 274.10 261.89 C 269.91 258.61 263.62 262.57 259.93 264.98 C 255.75 258.67 250.62 253.72 244.26 249.65 L 243.91 249.00 C 249.12 244.91 254.18 241.10 256.42 234.52 C 258.96 227.77 256.89 220.57 253.47 214.55 C 247.84 205.30 239.55 197.48 230.95 191.02 C 234.36 186.50 240.15 185.37 243.27 180.17 C 246.10 175.76 245.82 171.03 245.62 166.06 C 248.80 164.22 249.52 163.11 250.67 159.64 C 252.81 159.45 254.72 158.77 256.29 157.28 C 259.76 153.25 259.36 146.93 259.20 141.98 C 258.57 137.29 257.91 133.06 254.20 129.72 C 253.79 128.03 253.54 125.82 253.70 124.10 C 257.10 122.00 259.91 119.16 262.36 116.02 C 263.18 114.09 260.60 111.94 259.56 110.48 C 256.26 106.02 251.98 102.47 247.13 99.81 C 245.98 99.28 245.15 98.66 244.47 97.56 C 236.46 83.79 223.41 72.91 208.40 67.51 C 207.63 66.59 207.17 65.51 206.35 64.65 C 202.88 61.41 199.27 61.90 195.01 60.87 C 186.64 60.21 178.28 60.04 170.01 61.67 C 166.08 62.09 163.26 63.93 161.27 67.34 Z" id="p0" />
<path d="M 170.01 61.67 C 178.28 60.04 186.64 60.21 195.01 60.87 C 199.27 61.90 202.88 61.41 206.35 64.65 C 207.17 65.51 207.63 66.59 208.40 67.51 C 223.41 72.91 236.46 83.79 244.47 97.56 C 245.15 98.66 245.98 99.28 247.13 99.81 C 251.98 102.47 256.26 106.02 259.56 110.48 C 260.60 111.94 263.18 114.09 262.36 116.02 C 259.91 119.16 257.10 122.00 253.70 124.10 C 253.54 125.82 253.79 128.03 254.20 129.72 C 257.91 133.06 258.57 137.29 259.20 141.98 C 259.36 146.93 259.76 153.25 256.29 157.28 C 254.72 158.77 252.81 159.45 250.67 159.64 C 249.52 163.11 248.80 164.22 245.62 166.06 C 245.82 171.03 246.10 175.76 243.27 180.17 C 240.15 185.37 234.36 186.50 230.95 191.02 C 239.55 197.48 247.84 205.30 253.47 214.55 C 256.89 220.57 258.96 227.77 256.42 234.52 C 254.18 241.10 249.12 244.91 243.91 249.00 L 244.26 249.65 C 250.62 253.72 255.75 258.67 259.93 264.98 C 263.62 262.57 269.91 258.61 274.10 261.89 C 275.47 262.36 275.70 264.65 276.97 264.82 C 280.23 262.26 284.68 262.39 287.56 265.45 C 292.45 269.88 292.74 277.93 292.20 284.04 C 291.25 291.20 288.22 298.79 282.54 303.51 C 277.21 308.15 269.26 308.72 262.81 306.35 C 249.03 301.71 234.61 298.64 219.99 299.62 C 213.36 300.43 207.07 302.45 200.33 302.64 C 199.23 302.15 198.12 301.86 196.99 301.77 C 191.20 301.77 184.99 302.42 179.27 301.46 C 178.10 301.08 177.20 301.49 176.57 302.67 C 171.92 302.40 167.35 301.66 162.82 300.61 C 156.85 299.47 151.03 299.66 145.00 299.65 C 135.51 300.14 126.25 300.95 117.03 303.35 C 109.48 304.87 102.40 308.79 94.45 306.50 C 86.33 304.72 81.89 296.17 81.27 288.48 C 82.53 285.25 82.45 281.83 81.28 278.59 C 81.83 272.91 83.66 265.04 88.73 261.66 C 92.51 260.11 94.81 262.13 96.97 265.00 C 98.13 263.22 99.14 261.90 101.09 260.94 C 104.34 259.20 107.40 260.67 109.98 262.82 C 112.90 260.30 115.43 257.09 118.55 254.55 C 118.38 252.88 117.18 251.04 116.44 249.53 C 113.11 244.09 107.66 238.43 101.18 237.14 C 99.85 239.55 98.16 241.46 95.63 242.63 C 88.97 245.60 82.38 246.03 75.37 247.45 C 73.71 247.76 72.75 250.32 71.03 250.20 C 69.95 249.48 69.38 248.35 68.81 247.22 C 67.14 242.40 67.06 237.02 69.39 232.40 C 72.43 225.35 80.57 221.34 88.00 221.68 C 92.59 221.79 96.91 223.71 99.43 227.66 C 101.19 227.91 102.89 227.64 104.60 228.28 C 102.53 231.45 99.22 229.03 96.51 230.47 L 96.22 231.62 C 95.49 232.26 94.64 232.54 94.21 233.46 C 101.78 231.79 109.21 235.55 114.32 241.03 C 113.16 239.19 114.26 236.43 113.01 234.96 C 110.59 233.51 107.77 232.58 105.10 231.70 C 105.80 230.76 106.49 229.81 107.19 228.88 C 109.10 229.45 110.93 230.23 112.78 230.97 C 112.85 224.97 113.74 218.67 116.12 213.12 C 119.66 204.55 126.13 197.07 133.57 191.59 C 134.39 190.78 135.82 190.17 136.19 189.04 C 127.70 183.06 121.43 172.88 124.38 162.24 C 122.54 162.06 119.91 161.93 118.60 160.41 C 116.81 158.59 116.39 156.45 116.19 153.98 C 115.93 152.53 114.06 152.60 112.95 152.07 C 113.83 151.20 115.42 150.27 115.56 148.96 C 116.73 146.07 116.37 143.20 116.79 140.20 C 118.27 136.67 118.71 132.50 118.81 128.68 C 118.08 128.49 117.31 128.58 116.49 128.93 C 116.84 128.43 117.19 127.92 117.52 127.40 C 116.92 126.82 116.31 126.25 115.69 125.69 C 115.76 124.89 115.77 124.10 115.72 123.30 C 115.63 121.87 114.86 120.78 114.47 119.39 L 115.26 118.85 L 116.67 118.93 C 117.09 116.94 117.74 115.08 117.95 113.04 C 115.70 113.29 113.75 114.09 111.60 114.79 C 111.09 115.19 110.57 115.58 110.06 115.98 C 109.60 115.34 109.18 114.68 108.80 114.00 C 110.53 110.40 113.24 107.79 116.09 105.08 C 117.29 104.01 117.56 103.23 117.76 101.64 C 119.94 99.71 123.03 98.95 125.12 97.08 C 133.32 83.23 146.25 72.94 161.27 67.34 C 163.26 63.93 166.08 62.09 170.01 61.67 Z M 164.98 67.91 C 163.63 69.15 164.17 71.39 164.27 73.02 C 164.21 75.54 166.20 78.29 168.97 77.80 C 179.62 76.98 190.37 77.03 201.02 77.81 C 203.43 78.10 204.54 75.81 204.79 73.79 C 205.80 72.07 205.67 69.62 204.43 68.00 C 203.77 66.21 202.37 65.95 200.80 65.27 C 192.02 63.44 182.88 63.42 174.00 64.33 C 170.90 65.06 166.90 64.93 164.98 67.91 Z M 120.56 125.52 C 123.27 102.73 139.04 82.56 160.58 74.60 C 160.98 73.40 161.08 72.24 160.86 71.12 C 138.48 79.92 121.68 100.88 119.19 124.88 C 119.19 125.46 119.65 125.67 120.56 125.52 Z M 208.46 71.09 C 208.47 72.47 208.50 73.86 208.55 75.24 C 216.63 78.49 224.23 83.23 230.47 89.32 C 241.37 99.44 247.64 112.32 249.20 127.06 L 250.79 126.79 C 249.77 121.61 249.23 116.51 247.35 111.51 C 244.16 102.23 238.87 93.80 232.10 86.71 C 226.18 80.76 219.26 75.88 211.61 72.43 C 210.58 71.94 209.53 71.49 208.46 71.09 Z M 171.06 91.30 C 179.79 90.32 188.26 90.75 196.97 91.95 C 200.64 89.26 204.37 85.31 204.89 80.54 C 202.50 81.72 200.52 81.61 197.96 81.20 C 191.47 79.88 184.59 80.11 178.00 80.36 C 173.80 80.40 170.25 82.14 166.03 81.16 C 164.44 80.36 163.32 79.07 161.93 78.02 C 164.34 82.62 167.52 87.44 171.06 91.30 Z M 215.62 100.07 C 220.91 98.13 226.10 96.32 231.83 96.33 L 231.51 95.45 C 224.64 88.06 215.86 81.58 206.25 78.33 C 209.13 80.16 212.39 81.85 213.99 85.02 C 216.73 89.66 216.59 94.94 215.62 100.07 Z M 138.06 95.50 C 142.79 95.34 146.83 97.02 151.30 98.04 C 150.56 91.80 152.40 86.56 155.27 81.16 C 148.73 84.32 143.27 89.15 138.37 94.43 L 138.06 95.50 Z M 157.31 84.74 C 155.25 88.93 153.97 93.30 154.65 98.02 C 157.90 96.00 161.47 93.88 165.20 92.90 C 166.24 92.83 166.82 92.49 166.96 91.90 C 164.39 88.63 162.02 85.17 159.91 81.58 C 158.72 81.60 158.05 83.85 157.31 84.74 Z M 201.42 93.10 C 205.27 94.36 208.96 95.85 212.47 97.90 C 213.01 94.75 213.02 91.18 211.71 88.20 C 211.07 86.18 209.37 85.39 207.89 83.74 C 206.97 87.12 204.21 90.99 201.42 93.10 Z M 149.50 107.38 C 142.93 115.04 138.49 125.10 135.43 134.67 C 133.56 139.60 132.70 144.84 131.28 149.85 C 132.81 149.46 133.72 147.98 135.01 147.05 C 141.66 141.63 149.76 138.25 157.94 135.89 C 158.13 137.17 158.88 138.15 160.19 138.81 C 149.05 142.01 138.19 146.78 130.90 156.18 C 129.42 158.17 128.54 160.65 127.71 162.96 C 125.84 169.64 128.57 176.86 133.35 181.66 C 138.80 187.78 146.81 191.83 154.45 194.50 C 172.99 200.66 193.57 200.71 212.29 195.28 C 216.01 193.92 220.87 192.48 223.99 190.16 C 220.64 191.83 216.94 192.01 213.92 194.24 C 209.42 195.21 205.55 193.23 204.28 188.75 C 203.93 185.06 205.40 181.50 209.15 180.34 C 211.64 179.25 213.57 180.14 215.80 181.25 C 219.99 181.73 223.88 181.91 228.10 181.25 C 233.08 180.11 237.63 176.24 237.83 170.84 C 238.03 169.58 239.04 167.25 237.53 166.49 C 234.10 164.33 233.33 159.79 235.95 156.66 L 237.23 155.13 C 230.65 147.25 221.14 142.59 211.49 139.63 C 198.20 135.66 183.89 135.07 170.20 136.90 C 168.47 136.59 166.74 136.27 165.04 135.83 C 164.80 134.77 165.70 134.16 166.26 133.37 L 166.54 133.97 C 178.77 131.97 191.74 131.83 203.90 134.31 C 202.12 131.75 199.93 128.35 199.66 125.19 C 203.61 122.51 208.16 120.66 212.21 118.11 C 213.15 117.72 214.11 117.37 215.08 117.04 C 214.68 118.61 212.43 119.35 211.30 120.43 C 212.53 125.26 214.34 131.65 211.31 136.11 C 219.98 138.35 228.90 142.32 235.50 148.47 L 236.77 148.91 C 233.51 137.70 231.55 126.89 225.57 116.45 C 222.66 111.48 218.81 107.26 214.55 103.41 C 207.09 97.80 198.36 95.29 189.16 94.47 C 187.09 94.26 185.08 93.95 183.00 94.19 C 178.73 94.48 174.16 94.13 169.99 95.12 C 161.77 96.76 155.20 101.43 149.50 107.38 Z M 131.58 104.10 C 130.94 105.24 130.39 106.42 130.06 107.69 C 134.36 108.28 137.96 109.16 141.92 110.93 C 143.27 110.27 144.05 108.50 145.02 107.38 C 146.30 105.39 149.25 103.71 149.77 101.45 C 145.26 99.79 139.87 98.49 135.08 99.03 C 133.56 100.32 132.63 102.42 131.58 104.10 Z M 219.15 102.49 L 219.19 103.08 C 221.97 105.53 224.36 108.59 226.65 111.48 C 228.32 112.22 228.95 110.68 230.71 110.27 C 232.32 108.92 234.33 110.12 235.94 108.59 C 237.29 108.68 238.65 108.69 240.01 108.60 C 238.97 105.42 236.95 102.54 234.98 99.86 C 229.88 99.08 223.96 100.65 219.15 102.49 Z M 114.22 109.89 C 115.98 109.71 117.94 109.46 119.51 108.60 C 120.38 106.90 121.16 105.14 121.79 103.33 C 118.67 104.27 116.24 107.46 114.22 109.89 Z M 250.23 109.83 C 251.82 110.60 253.49 110.95 255.23 111.25 C 254.94 109.72 253.30 108.87 252.30 107.69 C 250.99 106.56 249.83 104.44 247.88 104.78 C 248.76 106.43 249.47 108.13 250.23 109.83 Z M 125.15 119.91 C 126.96 119.93 128.17 118.55 129.97 118.80 C 132.45 118.66 134.83 119.73 137.15 120.52 C 138.10 118.62 139.00 116.73 140.12 114.93 C 140.07 113.57 138.17 113.33 137.20 112.78 C 134.39 111.71 131.24 111.30 128.24 111.36 C 126.63 113.54 125.92 117.24 125.15 119.91 Z M 229.11 115.17 C 229.98 117.71 231.62 120.10 232.79 122.55 C 234.99 121.53 237.56 121.62 239.90 122.01 C 241.96 122.59 243.09 124.55 245.07 125.01 L 245.50 124.12 C 244.74 120.21 243.70 116.45 242.31 112.71 C 238.46 111.39 232.61 113.13 229.11 115.17 Z M 257.74 115.62 C 255.46 115.19 253.72 114.02 251.45 114.16 C 252.26 115.78 252.09 118.80 253.12 119.90 C 253.87 120.05 258.11 116.49 257.74 115.62 Z M 124.58 126.80 L 123.69 128.49 C 121.64 136.24 119.86 143.96 119.49 152.00 C 119.50 154.02 119.68 157.09 121.53 158.36 C 122.69 158.88 124.07 158.69 125.27 158.39 C 127.26 157.15 126.75 154.84 127.23 152.80 C 129.41 142.67 131.59 133.21 135.72 123.63 C 133.53 122.82 130.04 121.42 127.88 122.86 C 126.15 123.55 125.61 125.27 124.58 126.80 Z M 204.36 125.34 C 202.94 126.25 202.54 127.93 204.03 128.98 C 205.49 130.19 206.81 128.81 207.49 127.50 C 207.63 125.92 205.83 124.49 204.36 125.34 Z M 241.67 154.39 C 244.79 154.66 245.31 155.64 246.75 158.13 C 246.41 155.39 247.26 150.51 245.53 148.42 C 245.69 146.68 245.44 144.89 245.33 143.15 C 244.13 140.92 244.74 138.65 244.20 136.25 C 242.77 134.48 244.39 132.09 242.62 130.19 C 242.57 127.69 239.71 124.66 237.02 125.18 C 235.90 125.20 234.76 125.35 233.62 125.60 C 237.03 135.04 238.85 144.82 241.67 154.39 Z M 249.25 145.03 C 249.69 148.47 250.32 151.86 250.55 155.33 C 251.19 156.31 253.31 155.70 253.71 154.72 C 255.51 152.44 256.38 149.92 256.22 147.00 C 256.11 141.76 256.42 136.54 252.45 132.55 C 251.31 131.16 248.95 131.35 247.32 131.29 C 247.59 135.87 248.39 140.53 249.25 145.03 Z M 239.30 158.29 C 237.59 159.58 237.08 161.63 238.86 163.12 C 240.29 164.97 244.15 163.36 243.90 161.00 C 244.25 158.76 241.11 156.92 239.30 158.29 Z M 241.51 167.50 C 240.69 170.15 241.56 172.65 240.09 175.09 C 237.96 181.85 230.35 184.69 223.94 185.00 L 224.07 187.01 C 225.79 186.67 227.14 185.79 228.96 185.97 C 234.25 184.15 239.16 182.01 241.56 176.57 C 242.47 173.50 243.37 170.74 242.48 167.44 L 241.51 167.50 Z M 208.04 188.39 C 208.46 189.15 208.92 189.86 209.43 190.52 C 210.95 190.95 212.89 191.48 214.03 190.02 C 215.84 188.02 215.61 184.38 212.53 183.94 C 209.83 183.36 207.53 185.71 208.04 188.39 Z M 218.34 184.27 C 218.18 185.65 217.40 189.20 219.97 188.25 C 222.39 187.29 220.42 184.05 218.34 184.27 Z M 135.33 194.38 L 135.64 195.46 C 135.20 195.49 134.76 195.55 134.32 195.61 C 129.04 199.61 124.73 204.68 121.32 210.34 C 120.12 212.36 119.21 214.51 118.73 216.82 C 116.87 221.76 116.24 226.79 116.35 232.05 C 116.98 239.51 118.97 246.99 122.28 253.72 C 123.08 254.73 123.92 257.31 125.49 256.93 C 125.25 255.12 125.63 253.45 126.00 251.69 C 127.86 244.75 133.26 238.87 139.02 234.86 C 136.56 231.42 133.87 228.19 131.47 224.60 C 132.58 222.81 134.50 226.90 135.75 225.93 C 136.71 221.14 138.44 217.09 141.25 213.09 L 142.04 212.88 C 140.81 218.37 139.51 223.59 139.34 229.30 C 140.64 230.61 141.88 232.56 143.37 233.55 C 146.68 233.54 149.87 235.60 152.84 234.40 C 158.91 231.57 165.58 231.98 171.16 235.72 C 178.31 236.77 186.02 236.16 193.30 236.53 C 195.02 234.42 196.11 231.99 198.28 230.21 C 198.76 229.84 199.01 229.27 199.02 228.51 C 197.32 228.77 195.96 229.94 194.47 228.47 C 191.22 226.12 193.03 221.42 194.12 218.35 C 196.07 214.00 198.94 209.61 202.99 206.97 C 205.80 204.84 209.50 203.67 213.01 203.61 C 214.76 203.76 216.42 204.04 218.18 203.80 C 229.28 206.10 238.13 213.31 245.08 221.95 C 245.90 223.31 248.12 223.95 247.64 225.63 C 245.82 225.08 244.98 223.67 243.48 222.54 C 240.36 219.96 237.42 217.21 234.07 214.92 C 232.77 222.23 230.46 231.08 223.64 235.33 C 222.91 235.78 222.34 236.34 221.92 237.01 C 226.33 241.97 233.23 249.36 240.61 246.58 C 246.35 243.23 251.85 238.50 253.69 231.86 C 253.69 230.34 254.66 227.63 252.96 226.80 L 252.17 226.17 C 252.51 225.46 252.84 224.73 253.16 224.00 C 252.82 220.46 250.84 216.97 248.88 214.06 C 245.62 209.09 241.28 204.81 236.91 200.80 L 235.98 200.85 C 235.59 202.29 235.33 203.75 235.10 205.22 C 234.16 203.17 234.68 201.56 236.03 199.84 C 234.24 198.02 232.29 196.33 230.18 194.90 C 229.40 194.19 228.62 193.49 227.84 192.80 L 227.10 192.83 C 212.84 200.50 197.06 203.10 181.00 202.62 C 166.72 202.22 152.10 198.90 139.73 191.58 C 138.39 191.95 137.06 193.93 135.33 194.38 Z M 197.65 218.52 C 196.58 220.34 196.39 222.94 196.10 225.03 C 196.81 225.42 197.57 225.19 198.37 224.35 C 200.37 222.28 201.29 219.24 203.12 217.00 C 204.50 216.22 206.71 216.99 205.94 218.89 C 204.98 221.76 200.96 226.32 202.69 229.29 C 205.46 232.29 212.18 230.30 215.87 230.30 C 217.41 230.94 218.42 232.83 219.83 233.79 C 226.01 230.09 228.85 223.91 230.12 217.05 C 230.26 215.88 231.66 212.97 230.07 212.38 C 224.58 209.41 219.46 206.72 212.97 207.17 C 205.68 207.46 201.14 212.70 197.65 218.52 Z M 71.08 239.30 C 71.02 241.15 71.39 242.86 72.08 244.58 C 78.72 242.28 86.10 242.69 92.83 239.63 C 94.32 238.79 96.65 238.56 96.70 236.44 C 94.39 236.82 88.68 239.06 87.70 235.98 C 88.88 232.45 91.51 230.33 94.52 228.37 C 94.74 227.37 94.16 226.82 93.37 226.35 C 84.48 221.59 70.89 228.88 71.08 239.30 Z M 200.03 235.93 C 202.08 235.70 203.90 235.77 205.94 236.04 C 206.67 236.00 206.95 235.43 206.79 234.32 C 205.65 234.04 204.51 233.76 203.37 233.47 C 201.91 232.89 201.02 231.63 199.36 232.32 C 199.34 233.60 199.51 234.76 200.03 235.93 Z M 215.90 237.84 C 215.60 238.56 215.28 239.27 214.94 239.96 C 214.02 240.45 213.06 240.87 212.06 241.25 C 211.03 240.75 209.99 240.28 208.93 239.84 C 208.31 243.71 205.09 246.94 201.00 246.67 C 196.39 246.70 193.44 243.13 193.10 238.75 C 185.67 238.56 178.00 238.62 170.60 238.28 C 166.07 234.78 160.17 233.92 154.85 236.05 C 155.86 237.37 157.39 238.25 158.37 239.66 C 159.79 238.17 162.25 237.62 163.60 239.40 C 164.90 240.84 164.42 242.94 162.89 244.00 C 161.26 244.95 159.96 243.76 158.45 244.18 C 158.83 245.45 159.15 246.63 159.17 247.97 C 160.06 247.91 160.95 247.88 161.85 247.87 C 163.28 249.25 164.31 249.90 163.79 252.14 C 162.99 253.21 162.05 253.95 160.97 254.37 C 158.17 253.28 157.50 252.41 157.83 249.36 C 156.94 249.48 156.05 249.59 155.16 249.68 C 155.70 251.59 158.02 252.52 158.71 254.50 C 160.19 255.90 162.03 254.90 164.03 255.13 C 167.93 255.31 171.93 254.38 173.93 250.70 C 180.64 250.69 187.34 250.69 194.05 250.42 C 195.83 250.37 197.40 252.18 199.12 252.67 C 203.62 253.60 208.50 253.54 213.03 253.09 C 218.44 252.13 220.50 248.17 223.04 243.86 C 220.17 240.58 217.79 237.55 215.03 234.22 L 214.24 233.85 C 215.43 235.21 215.78 236.02 215.90 237.84 Z M 142.55 236.57 C 135.92 241.19 127.91 249.05 129.06 257.89 C 129.23 259.95 129.28 261.84 130.24 263.72 C 134.07 267.92 140.87 270.80 146.10 267.35 C 149.56 265.18 153.95 265.78 156.67 262.67 C 157.96 260.94 157.12 259.34 156.32 257.64 C 154.43 254.65 151.98 252.43 149.62 249.91 C 150.30 248.91 151.24 248.14 152.12 247.31 C 154.02 245.53 155.88 244.01 154.94 241.11 C 152.96 239.15 150.52 238.50 147.95 237.66 C 146.57 237.11 145.14 237.00 143.69 236.78 C 144.25 236.34 144.80 235.89 145.34 235.44 L 145.23 235.44 C 144.27 235.56 143.38 235.94 142.55 236.57 Z M 211.43 235.41 C 208.50 236.19 210.48 240.19 212.90 239.06 C 215.21 238.20 214.06 234.23 211.43 235.41 Z M 195.26 239.10 C 195.86 242.32 198.54 244.76 201.88 244.64 C 202.72 244.62 203.40 244.18 203.90 243.33 C 201.79 243.04 199.44 242.72 198.44 240.56 C 197.45 239.23 197.89 237.35 197.94 235.82 C 195.65 235.66 195.94 237.50 195.26 239.10 Z M 201.37 240.61 C 202.08 241.02 202.95 241.15 203.98 240.99 C 204.10 239.68 204.03 238.41 203.79 237.20 C 202.07 236.49 201.18 239.41 201.37 240.61 Z M 160.33 240.33 C 159.82 241.39 160.09 242.12 161.13 242.52 C 163.38 241.91 162.44 239.27 160.33 240.33 Z M 223.60 247.61 C 222.08 250.42 219.85 252.69 217.13 254.35 C 217.06 255.66 217.05 256.99 217.11 258.33 C 216.98 259.98 216.98 261.63 217.04 263.29 L 217.98 263.12 C 221.38 258.86 226.61 253.14 228.25 248.04 L 227.55 247.30 C 226.67 246.59 225.79 245.88 224.90 245.18 C 224.46 245.99 224.03 246.80 223.60 247.61 Z M 227.56 254.76 C 224.44 258.99 221.72 262.94 217.60 266.46 C 211.40 266.50 205.19 266.53 198.99 266.77 C 196.80 266.53 194.76 264.13 193.45 262.51 C 188.08 261.76 182.72 261.61 177.33 262.39 C 174.72 264.72 173.04 267.64 169.04 268.09 C 164.36 268.48 159.71 268.01 155.04 268.13 C 152.78 269.12 149.83 268.99 148.02 270.65 C 144.92 272.50 141.62 272.62 138.11 272.39 C 138.69 275.63 139.85 278.35 141.52 281.14 C 142.78 284.72 146.22 287.54 148.98 290.02 C 155.64 294.88 163.86 297.77 172.01 298.76 C 185.67 300.67 199.72 300.14 213.20 297.25 C 217.42 296.67 221.14 292.94 224.38 290.37 C 227.00 287.67 230.01 284.72 231.44 281.19 C 235.62 275.63 237.48 267.79 238.67 261.03 C 238.74 257.59 239.66 254.10 239.31 250.69 C 236.10 251.01 233.44 250.13 230.52 249.25 C 229.80 251.22 228.48 252.88 227.56 254.76 Z M 159.61 250.33 C 158.72 251.73 160.75 252.67 161.84 251.83 C 162.76 250.05 160.92 249.11 159.61 250.33 Z M 175.29 253.13 C 174.26 254.63 173.31 255.27 171.72 256.07 C 171.84 257.55 171.89 259.02 171.87 260.50 C 171.84 261.54 171.81 262.58 171.78 263.62 C 173.85 264.11 174.76 259.88 177.01 260.07 C 182.87 259.46 188.86 259.53 194.69 260.30 C 196.00 261.30 195.92 262.84 197.74 263.01 C 197.68 260.21 197.99 257.33 197.73 254.56 L 197.23 254.33 C 196.04 253.89 195.02 253.12 193.85 252.64 C 187.65 252.97 181.50 253.15 175.29 253.13 Z M 242.81 253.65 C 242.53 259.21 241.72 264.59 240.45 270.01 C 239.35 272.22 238.85 274.69 237.82 276.95 C 234.69 284.52 229.74 290.65 223.55 295.95 C 234.36 295.81 244.68 297.58 255.09 300.32 C 252.33 294.18 251.81 286.87 251.89 280.21 C 253.23 275.57 254.55 271.33 257.27 267.22 C 256.52 266.45 255.95 265.59 255.57 264.65 C 252.06 260.72 248.46 256.51 243.90 253.74 L 242.81 253.65 Z M 199.96 255.59 C 199.85 258.39 200.46 261.08 200.21 263.90 C 204.99 263.58 209.77 263.64 214.56 263.87 C 214.42 261.19 214.82 258.56 214.81 255.90 C 210.59 254.85 204.47 255.57 199.96 255.59 Z M 160.19 257.70 C 162.52 258.92 164.86 257.28 167.10 258.98 C 167.40 260.68 167.75 262.55 167.45 264.26 C 165.15 265.30 162.91 265.32 160.43 265.30 L 160.08 265.79 C 163.20 265.64 166.29 265.42 169.42 265.47 C 169.33 262.76 169.89 260.07 169.61 257.38 C 166.46 257.01 163.43 258.16 160.19 257.70 Z M 115.52 262.32 C 114.47 263.37 113.42 264.44 112.46 265.58 C 115.79 268.77 117.60 273.81 118.48 278.24 L 119.14 279.12 C 119.02 284.35 119.99 289.09 118.36 294.24 C 117.98 296.37 116.70 297.95 115.96 299.95 C 127.62 297.28 139.49 296.04 151.45 296.32 C 150.76 294.96 149.46 294.59 148.26 293.76 C 144.06 290.81 140.66 286.98 137.93 282.65 C 136.43 278.95 134.91 275.32 134.57 271.28 C 133.50 270.51 132.35 270.57 131.09 270.43 C 130.58 269.46 129.94 268.61 129.18 267.87 C 126.10 264.98 123.49 261.38 120.81 258.13 C 119.02 257.95 116.97 261.23 115.52 262.32 Z M 161.32 262.65 C 162.77 262.69 164.22 262.66 165.66 262.59 C 165.76 261.78 165.83 260.97 165.86 260.15 C 164.30 259.86 162.77 259.70 161.24 260.23 C 161.24 261.04 161.27 261.85 161.32 262.65 Z M 87.49 268.34 C 84.60 275.59 82.98 284.71 85.74 292.21 C 86.95 295.88 88.17 299.23 91.65 301.32 C 95.60 304.06 100.52 303.73 105.02 302.90 C 108.97 302.19 112.29 299.54 113.95 295.89 C 116.47 290.27 116.34 283.40 114.19 277.67 C 113.64 274.31 112.30 271.23 110.45 268.39 C 108.59 266.23 106.86 264.18 104.00 263.36 C 100.63 264.75 97.42 269.70 98.13 273.36 C 97.97 275.59 100.53 279.38 96.96 279.70 C 94.35 278.25 94.63 272.96 94.91 270.39 C 95.58 268.14 93.24 265.61 91.54 264.41 C 89.60 264.20 88.31 267.00 87.49 268.34 Z M 258.54 272.01 C 256.89 275.43 255.62 278.88 255.78 282.75 C 255.47 287.33 255.92 292.26 257.44 296.62 C 261.52 305.78 276.02 306.60 282.02 299.03 C 285.32 295.30 287.15 290.82 288.07 285.97 C 289.51 281.03 289.00 276.02 287.63 271.14 C 286.51 268.78 283.49 265.10 280.52 266.65 C 278.76 267.17 278.15 268.63 277.46 270.17 C 277.08 272.41 277.68 274.74 277.35 277.01 C 276.37 278.65 275.02 278.10 273.99 276.89 C 273.37 273.62 275.06 268.86 273.28 266.08 C 271.84 264.04 270.78 263.59 268.35 264.36 C 264.77 265.80 260.00 268.20 258.54 272.01 Z" id="p1" />
<path d="M 174.00 64.33 C 182.88 63.42 192.02 63.44 200.80 65.27 C 202.37 65.95 203.77 66.21 204.43 68.00 C 201.18 67.84 198.20 66.75 195.01 66.28 C 187.11 64.87 178.79 65.32 170.95 66.87 C 169.36 67.27 167.83 67.44 166.49 68.46 C 164.77 69.12 165.82 71.79 165.76 73.17 C 165.25 71.43 165.21 69.70 164.98 67.91 C 166.90 64.93 170.90 65.06 174.00 64.33 Z" id="p2" />
<path d="M 195.01 66.28 C 198.20 66.75 201.18 67.84 204.43 68.00 C 205.67 69.62 205.80 72.07 204.79 73.79 C 201.53 74.21 198.90 73.50 195.84 72.62 C 185.99 71.92 175.55 72.32 165.76 73.17 C 165.82 71.79 164.77 69.12 166.49 68.46 C 167.83 67.44 169.36 67.27 170.95 66.87 C 178.79 65.32 187.11 64.87 195.01 66.28 Z" id="p3" />
<path d="M 164.98 67.91 C 165.21 69.70 165.25 71.43 165.76 73.17 C 175.55 72.32 185.99 71.92 195.84 72.62 C 198.90 73.50 201.53 74.21 204.79 73.79 C 204.54 75.81 203.43 78.10 201.02 77.81 C 190.37 77.03 179.62 76.98 168.97 77.80 C 166.20 78.29 164.21 75.54 164.27 73.02 C 164.17 71.39 163.63 69.15 164.98 67.91 Z" id="p4" />
<path d="M 160.86 71.12 C 161.08 72.24 160.98 73.40 160.58 74.60 C 139.04 82.56 123.27 102.73 120.56 125.52 C 119.65 125.67 119.19 125.46 119.19 124.88 C 121.68 100.88 138.48 79.92 160.86 71.12 Z" id="p5" />
<path d="M 208.46 71.09 C 209.53 71.49 210.58 71.94 211.61 72.43 C 219.26 75.88 226.18 80.76 232.10 86.71 C 231.57 87.58 231.02 88.46 230.47 89.32 C 224.23 83.23 216.63 78.49 208.55 75.24 C 208.50 73.86 208.47 72.47 208.46 71.09 Z" id="p6" />
<path d="M 161.93 78.02 C 163.32 79.07 164.44 80.36 166.03 81.16 C 170.25 82.14 173.80 80.40 178.00 80.36 C 184.59 80.11 191.47 79.88 197.96 81.20 C 200.52 81.61 202.50 81.72 204.89 80.54 C 204.37 85.31 200.64 89.26 196.97 91.95 C 188.26 90.75 179.79 90.32 171.06 91.30 C 167.52 87.44 164.34 82.62 161.93 78.02 Z" id="p7" />
<path d="M 206.25 78.33 C 215.86 81.58 224.64 88.06 231.51 95.45 L 231.83 96.33 C 226.10 96.32 220.91 98.13 215.62 100.07 C 216.59 94.94 216.73 89.66 213.99 85.02 C 212.39 81.85 209.13 80.16 206.25 78.33 Z" id="p8" />
<path d="M 155.27 81.16 C 152.40 86.56 150.56 91.80 151.30 98.04 C 146.83 97.02 142.79 95.34 138.06 95.50 L 138.37 94.43 C 143.27 89.15 148.73 84.32 155.27 81.16 Z" id="p9" />
<path d="M 159.91 81.58 C 162.02 85.17 164.39 88.63 166.96 91.90 C 166.82 92.49 166.24 92.83 165.20 92.90 C 162.84 90.07 159.96 87.89 158.06 84.66 L 157.31 84.74 C 158.05 83.85 158.72 81.60 159.91 81.58 Z" id="p10" />
<path d="M 207.89 83.74 C 209.37 85.39 211.07 86.18 211.71 88.20 C 213.02 91.18 213.01 94.75 212.47 97.90 C 208.96 95.85 205.27 94.36 201.42 93.10 C 204.21 90.99 206.97 87.12 207.89 83.74 Z" id="p11" />
<path d="M 157.31 84.74 L 158.06 84.66 C 159.96 87.89 162.84 90.07 165.20 92.90 C 161.47 93.88 157.90 96.00 154.65 98.02 C 153.97 93.30 155.25 88.93 157.31 84.74 Z" id="p12" />
<path d="M 232.10 86.71 C 238.87 93.80 244.16 102.23 247.35 111.51 C 249.23 116.51 249.77 121.61 250.79 126.79 L 249.20 127.06 C 247.64 112.32 241.37 99.44 230.47 89.32 C 231.02 88.46 231.57 87.58 232.10 86.71 Z" id="p13" />
<path d="M 183.00 94.19 C 185.08 93.95 187.09 94.26 189.16 94.47 C 187.35 94.46 185.56 94.48 183.79 94.81 C 183.73 97.94 183.72 101.05 183.34 104.17 C 183.34 101.51 183.83 98.51 183.08 95.95 C 171.39 96.55 159.98 100.27 150.93 107.84 L 149.50 107.38 C 155.20 101.43 161.77 96.76 169.99 95.12 C 174.16 94.13 178.73 94.48 183.00 94.19 Z" id="p14" />
<path d="M 183.79 94.81 C 185.56 94.48 187.35 94.46 189.16 94.47 C 198.36 95.29 207.09 97.80 214.55 103.41 C 218.81 107.26 222.66 111.48 225.57 116.45 C 231.55 126.89 233.51 137.70 236.77 148.91 L 235.50 148.47 C 228.90 142.32 219.98 138.35 211.31 136.11 C 214.34 131.65 212.53 125.26 211.30 120.43 C 212.43 119.35 214.68 118.61 215.08 117.04 C 214.11 117.37 213.15 117.72 212.21 118.11 C 208.16 120.66 203.61 122.51 199.66 125.19 C 199.93 128.35 202.12 131.75 203.90 134.31 C 191.74 131.83 178.77 131.97 166.54 133.97 L 166.26 133.37 C 168.23 130.81 168.65 128.67 171.91 127.29 C 179.15 122.18 182.64 112.73 183.34 104.17 C 183.72 101.05 183.73 97.94 183.79 94.81 Z" id="p15" />
<path d="M 183.08 95.95 C 183.83 98.51 183.34 101.51 183.34 104.17 C 182.64 112.73 179.15 122.18 171.91 127.29 C 169.07 127.94 170.74 125.22 168.67 124.31 C 164.22 121.76 159.66 119.11 154.91 117.15 C 155.58 118.56 156.75 119.23 157.83 120.30 C 158.05 124.46 155.72 129.15 157.24 133.77 C 150.11 135.16 142.66 135.43 135.43 134.67 C 138.49 125.10 142.93 115.04 149.50 107.38 L 150.93 107.84 C 159.98 100.27 171.39 96.55 183.08 95.95 Z" id="p16" />
<path d="M 135.08 99.03 C 139.87 98.49 145.26 99.79 149.77 101.45 C 149.25 103.71 146.30 105.39 145.02 107.38 C 140.51 106.26 136.22 104.76 131.58 104.10 C 132.63 102.42 133.56 100.32 135.08 99.03 Z" id="p17" />
<path d="M 234.98 99.86 C 236.95 102.54 238.97 105.42 240.01 108.60 C 238.65 108.69 237.29 108.68 235.94 108.59 C 234.33 110.12 232.32 108.92 230.71 110.27 C 228.95 110.68 228.32 112.22 226.65 111.48 C 224.36 108.59 221.97 105.53 219.19 103.08 L 219.15 102.49 C 223.96 100.65 229.88 99.08 234.98 99.86 Z" id="p18" />
<path d="M 117.76 101.64 C 117.56 103.23 117.29 104.01 116.09 105.08 C 113.24 107.79 110.53 110.40 108.80 114.00 C 109.18 114.68 109.60 115.34 110.06 115.98 C 110.57 115.58 111.09 115.19 111.60 114.79 C 112.35 116.58 114.27 117.36 115.26 118.85 L 114.47 119.39 C 114.86 120.78 115.63 121.87 115.72 123.30 C 112.14 120.80 108.44 118.06 106.51 114.01 C 109.41 109.25 113.44 105.11 117.76 101.64 Z" id="p19" />
<path d="M 121.79 103.33 C 121.16 105.14 120.38 106.90 119.51 108.60 C 117.94 109.46 115.98 109.71 114.22 109.89 C 116.24 107.46 118.67 104.27 121.79 103.33 Z" id="p20" />
<path d="M 131.58 104.10 C 136.22 104.76 140.51 106.26 145.02 107.38 C 144.05 108.50 143.27 110.27 141.92 110.93 C 137.96 109.16 134.36 108.28 130.06 107.69 C 130.39 106.42 130.94 105.24 131.58 104.10 Z" id="p21" />
<path d="M 247.88 104.78 C 249.83 104.44 250.99 106.56 252.30 107.69 C 253.30 108.87 254.94 109.72 255.23 111.25 C 253.49 110.95 251.82 110.60 250.23 109.83 C 249.47 108.13 248.76 106.43 247.88 104.78 Z" id="p22" />
<path d="M 128.24 111.36 C 131.24 111.30 134.39 111.71 137.20 112.78 C 138.17 113.33 140.07 113.57 140.12 114.93 C 139.00 116.73 138.10 118.62 137.15 120.52 C 134.83 119.73 132.45 118.66 129.97 118.80 C 128.17 118.55 126.96 119.93 125.15 119.91 C 125.92 117.24 126.63 113.54 128.24 111.36 Z" id="p23" />
<path d="M 242.31 112.71 C 243.70 116.45 244.74 120.21 245.50 124.12 L 245.07 125.01 C 243.09 124.55 241.96 122.59 239.90 122.01 C 237.56 121.62 234.99 121.53 232.79 122.55 C 231.62 120.10 229.98 117.71 229.11 115.17 C 232.61 113.13 238.46 111.39 242.31 112.71 Z" id="p24" />
<path d="M 117.95 113.04 C 117.74 115.08 117.09 116.94 116.67 118.93 L 115.26 118.85 C 114.27 117.36 112.35 116.58 111.60 114.79 C 113.75 114.09 115.70 113.29 117.95 113.04 Z" id="p25" />
<path d="M 251.45 114.16 C 253.72 114.02 255.46 115.19 257.74 115.62 C 258.11 116.49 253.87 120.05 253.12 119.90 C 252.09 118.80 252.26 115.78 251.45 114.16 Z" id="p26" />
<path d="M 154.91 117.15 C 159.66 119.11 164.22 121.76 168.67 124.31 C 170.74 125.22 169.07 127.94 171.91 127.29 C 168.65 128.67 168.23 130.81 166.26 133.37 C 165.70 134.16 164.80 134.77 165.04 135.83 C 166.74 136.27 168.47 136.59 170.20 136.90 C 166.79 137.30 163.52 137.99 160.19 138.81 C 158.88 138.15 158.13 137.17 157.94 135.89 C 157.76 135.17 157.53 134.46 157.24 133.77 C 155.72 129.15 158.05 124.46 157.83 120.30 C 156.75 119.23 155.58 118.56 154.91 117.15 Z M 164.66 129.53 C 166.18 128.67 167.47 127.65 166.07 125.95 C 164.69 124.26 162.66 125.23 162.21 127.11 C 162.21 128.55 163.37 129.31 164.66 129.53 Z" id="p27" />
<path d="M 135.72 123.63 C 131.59 133.21 129.41 142.67 127.23 152.80 C 126.05 153.07 124.57 154.03 123.36 153.66 C 121.58 151.41 122.38 147.68 122.45 144.99 C 123.27 139.64 124.03 134.27 125.11 128.96 C 125.16 128.23 124.98 127.51 124.58 126.80 C 125.61 125.27 126.15 123.55 127.88 122.86 C 130.04 121.42 133.53 122.82 135.72 123.63 Z" id="p28" />
<path d="M 166.07 125.95 C 167.47 127.65 166.18 128.67 164.66 129.53 C 163.37 129.31 162.21 128.55 162.21 127.11 C 162.66 125.23 164.69 124.26 166.07 125.95 Z" id="p29" />
<path d="M 204.36 125.34 C 205.83 124.49 207.63 125.92 207.49 127.50 C 206.81 128.81 205.49 130.19 204.03 128.98 C 202.54 127.93 202.94 126.25 204.36 125.34 Z" id="p30" />
<path d="M 233.62 125.60 C 234.76 125.35 235.90 125.20 237.02 125.18 C 239.71 124.66 242.57 127.69 242.62 130.19 C 244.39 132.09 242.77 134.48 244.20 136.25 C 244.74 138.65 244.13 140.92 245.33 143.15 C 245.44 144.89 245.69 146.68 245.53 148.42 C 247.26 150.51 246.41 155.39 246.75 158.13 C 245.31 155.64 244.79 154.66 241.67 154.39 C 238.85 144.82 237.03 135.04 233.62 125.60 Z" id="p31" />
<path d="M 115.69 125.69 C 116.31 126.25 116.92 126.82 117.52 127.40 C 117.19 127.92 116.84 128.43 116.49 128.93 C 114.52 131.50 112.77 134.85 112.33 138.06 C 111.89 139.99 111.63 142.20 112.21 144.11 C 112.77 146.03 113.48 148.28 115.56 148.96 C 115.42 150.27 113.83 151.20 112.95 152.07 C 110.48 150.89 109.61 148.46 108.74 146.04 C 108.08 141.40 108.70 136.75 110.41 132.39 C 111.57 129.63 112.93 127.13 115.69 125.69 Z" id="p32" />
<path d="M 124.58 126.80 C 124.98 127.51 125.16 128.23 125.11 128.96 C 124.03 134.27 123.27 139.64 122.45 144.99 C 122.38 147.68 121.58 151.41 123.36 153.66 C 124.57 154.03 126.05 153.07 127.23 152.80 C 126.75 154.84 127.26 157.15 125.27 158.39 C 124.07 158.69 122.69 158.88 121.53 158.36 C 119.68 157.09 119.50 154.02 119.49 152.00 C 119.86 143.96 121.64 136.24 123.69 128.49 L 124.58 126.80 Z" id="p33" />
<path d="M 116.49 128.93 C 117.31 128.58 118.08 128.49 118.81 128.68 C 118.71 132.50 118.27 136.67 116.79 140.20 C 116.37 143.20 116.73 146.07 115.56 148.96 C 113.48 148.28 112.77 146.03 112.21 144.11 C 114.22 142.68 113.14 139.89 112.33 138.06 C 112.77 134.85 114.52 131.50 116.49 128.93 Z" id="p34" />
<path d="M 247.32 131.29 C 248.95 131.35 251.31 131.16 252.45 132.55 C 256.42 136.54 256.11 141.76 256.22 147.00 C 256.38 149.92 255.51 152.44 253.71 154.72 C 253.31 155.70 251.19 156.31 250.55 155.33 C 250.32 151.86 249.69 148.47 249.25 145.03 C 248.39 140.53 247.59 135.87 247.32 131.29 Z M 249.93 132.99 C 248.98 137.87 250.56 147.50 253.22 151.85 C 254.62 151.12 254.89 150.58 255.10 149.01 C 255.61 144.25 255.05 139.49 253.01 135.13 C 252.29 133.93 251.37 133.12 249.93 132.99 Z" id="p35" />
<path d="M 249.93 132.99 C 251.37 133.12 252.29 133.93 253.01 135.13 C 255.05 139.49 255.61 144.25 255.10 149.01 C 254.89 150.58 254.62 151.12 253.22 151.85 C 250.56 147.50 248.98 137.87 249.93 132.99 Z" id="p36" />
<path d="M 157.24 133.77 C 157.53 134.46 157.76 135.17 157.94 135.89 C 149.76 138.25 141.66 141.63 135.01 147.05 C 133.72 147.98 132.81 149.46 131.28 149.85 C 132.70 144.84 133.56 139.60 135.43 134.67 C 142.66 135.43 150.11 135.16 157.24 133.77 Z" id="p37" />
<path d="M 211.49 139.63 C 221.14 142.59 230.65 147.25 237.23 155.13 L 235.95 156.66 C 232.63 154.82 230.47 151.86 227.33 149.72 C 217.72 143.42 207.01 139.15 195.47 138.30 C 188.45 137.19 181.30 137.35 174.29 138.45 C 173.36 140.52 172.19 141.93 170.60 143.54 C 169.76 143.63 168.91 143.72 168.07 143.81 C 164.41 143.59 161.22 144.34 157.99 142.15 C 152.30 143.66 146.92 146.99 141.77 149.80 C 137.74 151.95 134.69 155.16 131.07 157.85 L 130.90 156.18 C 138.19 146.78 149.05 142.01 160.19 138.81 C 163.52 137.99 166.79 137.30 170.20 136.90 C 183.89 135.07 198.20 135.66 211.49 139.63 Z" id="p38" />
<path d="M 112.33 138.06 C 113.14 139.89 114.22 142.68 112.21 144.11 C 111.63 142.20 111.89 139.99 112.33 138.06 Z" id="p39" />
<path d="M 174.29 138.45 C 181.30 137.35 188.45 137.19 195.47 138.30 C 207.01 139.15 217.72 143.42 227.33 149.72 C 230.47 151.86 232.63 154.82 235.95 156.66 C 233.33 159.79 234.10 164.33 237.53 166.49 C 239.04 167.25 238.03 169.58 237.83 170.84 C 233.86 174.78 229.63 177.78 225.06 180.92 C 226.07 181.05 227.08 181.16 228.10 181.25 C 223.88 181.91 219.99 181.73 215.80 181.25 C 213.57 180.14 211.64 179.25 209.15 180.34 C 205.40 181.50 203.93 185.06 204.28 188.75 C 197.82 189.55 191.56 190.98 185.00 190.89 C 172.05 191.50 159.35 189.88 147.46 184.53 C 139.45 180.55 131.69 174.19 127.91 165.90 C 127.67 164.96 127.60 163.98 127.71 162.96 C 128.54 160.65 129.42 158.17 130.90 156.18 L 131.07 157.85 C 134.69 155.16 137.74 151.95 141.77 149.80 C 146.92 146.99 152.30 143.66 157.99 142.15 C 161.22 144.34 164.41 143.59 168.07 143.81 C 166.56 146.20 166.15 146.72 168.16 149.02 C 170.40 149.42 170.95 149.34 172.24 147.47 C 172.28 146.84 172.28 146.20 172.24 145.54 C 171.74 144.85 171.19 144.18 170.60 143.54 C 172.19 141.93 173.36 140.52 174.29 138.45 Z M 197.53 143.78 C 194.13 144.98 195.48 149.95 198.96 149.11 C 202.20 148.00 201.09 142.87 197.53 143.78 Z M 194.51 172.34 C 190.40 173.40 187.24 172.00 183.32 171.31 C 182.39 171.68 181.86 172.27 181.76 173.10 C 183.97 177.53 186.62 181.46 190.82 184.24 C 193.77 185.93 197.05 187.04 200.28 185.31 C 204.97 182.81 205.74 177.82 206.13 173.00 C 205.60 169.00 205.29 165.11 203.62 161.37 C 202.35 160.48 200.94 160.96 200.72 162.47 C 200.25 166.65 198.89 170.90 194.51 172.34 Z" id="p40" />
<path d="M 170.60 143.54 C 171.19 144.18 171.74 144.85 172.24 145.54 C 172.28 146.20 172.28 146.84 172.24 147.47 C 170.95 149.34 170.40 149.42 168.16 149.02 C 166.15 146.72 166.56 146.20 168.07 143.81 C 168.91 143.72 169.76 143.63 170.60 143.54 Z" id="p41" />
<path d="M 197.53 143.78 C 201.09 142.87 202.20 148.00 198.96 149.11 C 195.48 149.95 194.13 144.98 197.53 143.78 Z" id="p42" />
<path d="M 239.30 158.29 C 241.11 156.92 244.25 158.76 243.90 161.00 C 244.15 163.36 240.29 164.97 238.86 163.12 C 237.08 161.63 237.59 159.58 239.30 158.29 Z" id="p43" />
<path d="M 203.62 161.37 C 205.29 165.11 205.60 169.00 206.13 173.00 C 205.74 177.82 204.97 182.81 200.28 185.31 C 197.05 187.04 193.77 185.93 190.82 184.24 C 186.62 181.46 183.97 177.53 181.76 173.10 C 181.86 172.27 182.39 171.68 183.32 171.31 C 187.24 172.00 190.40 173.40 194.51 172.34 C 198.89 170.90 200.25 166.65 200.72 162.47 C 200.94 160.96 202.35 160.48 203.62 161.37 Z M 192.33 181.22 C 194.70 182.15 196.61 183.24 199.19 182.24 C 200.12 181.14 200.99 179.99 201.89 178.87 C 198.52 176.90 194.54 178.12 192.33 181.22 Z" id="p44" />
<path d="M 127.71 162.96 C 127.60 163.98 127.67 164.96 127.91 165.90 C 131.69 174.19 139.45 180.55 147.46 184.53 C 159.35 189.88 172.05 191.50 185.00 190.89 C 191.56 190.98 197.82 189.55 204.28 188.75 C 205.55 193.23 209.42 195.21 213.92 194.24 C 216.94 192.01 220.64 191.83 223.99 190.16 C 220.87 192.48 216.01 193.92 212.29 195.28 C 193.57 200.71 172.99 200.66 154.45 194.50 C 146.81 191.83 138.80 187.78 133.35 181.66 C 128.57 176.86 125.84 169.64 127.71 162.96 Z" id="p45" />
<path d="M 241.51 167.50 L 242.48 167.44 C 243.37 170.74 242.47 173.50 241.56 176.57 C 239.16 182.01 234.25 184.15 228.96 185.97 C 227.14 185.79 225.79 186.67 224.07 187.01 L 223.94 185.00 C 230.35 184.69 237.96 181.85 240.09 175.09 C 241.56 172.65 240.69 170.15 241.51 167.50 Z" id="p46" />
<path d="M 237.83 170.84 C 237.63 176.24 233.08 180.11 228.10 181.25 C 227.08 181.16 226.07 181.05 225.06 180.92 C 229.63 177.78 233.86 174.78 237.83 170.84 Z" id="p47" />
<path d="M 201.89 178.87 C 200.99 179.99 200.12 181.14 199.19 182.24 C 196.61 183.24 194.70 182.15 192.33 181.22 C 194.54 178.12 198.52 176.90 201.89 178.87 Z" id="p48" />
<path d="M 212.53 183.94 C 211.05 185.33 210.23 188.31 208.04 188.39 C 207.53 185.71 209.83 183.36 212.53 183.94 Z" id="p49" />
<path d="M 212.53 183.94 C 215.61 184.38 215.84 188.02 214.03 190.02 C 212.89 191.48 210.95 190.95 209.43 190.52 C 208.92 189.86 208.46 189.15 208.04 188.39 C 210.23 188.31 211.05 185.33 212.53 183.94 Z" id="p50" />
<path d="M 218.34 184.27 C 220.42 184.05 222.39 187.29 219.97 188.25 C 217.40 189.20 218.18 185.65 218.34 184.27 Z" id="p51" />
<path d="M 139.73 191.58 C 152.10 198.90 166.72 202.22 181.00 202.62 C 197.06 203.10 212.84 200.50 227.10 192.83 L 227.84 192.80 C 228.62 193.49 229.40 194.19 230.18 194.90 C 225.95 198.08 221.16 200.55 216.20 202.37 L 216.19 203.06 C 216.84 203.33 217.51 203.58 218.18 203.80 C 216.42 204.04 214.76 203.76 213.01 203.61 C 209.50 203.67 205.80 204.84 202.99 206.97 C 197.32 207.78 191.75 208.88 186.00 208.99 C 169.23 209.38 152.39 204.87 138.29 195.73 C 137.36 195.09 136.37 194.64 135.33 194.38 C 137.06 193.93 138.39 191.95 139.73 191.58 Z" id="p52" />
<path d="M 134.32 195.61 C 134.76 195.55 135.20 195.49 135.64 195.46 C 137.93 197.98 138.14 202.52 136.44 205.42 C 133.41 211.33 126.73 212.20 124.45 218.40 C 122.18 223.03 124.43 227.73 119.71 231.07 L 119.13 231.25 C 119.28 229.17 119.42 227.12 119.02 225.06 C 118.48 222.32 119.33 219.60 118.73 216.82 C 119.21 214.51 120.12 212.36 121.32 210.34 C 124.73 204.68 129.04 199.61 134.32 195.61 Z" id="p53" />
<path d="M 135.33 194.38 C 136.37 194.64 137.36 195.09 138.29 195.73 C 152.39 204.87 169.23 209.38 186.00 208.99 C 191.75 208.88 197.32 207.78 202.99 206.97 C 198.94 209.61 196.07 214.00 194.12 218.35 C 179.23 214.78 162.19 220.52 152.49 232.44 C 152.25 232.99 152.37 233.64 152.84 234.40 C 149.87 235.60 146.68 233.54 143.37 233.55 C 141.88 232.56 140.64 230.61 139.34 229.30 C 139.51 223.59 140.81 218.37 142.04 212.88 C 142.33 212.68 142.58 212.42 142.81 212.12 C 141.37 210.50 139.35 212.17 137.99 213.02 C 135.31 215.30 133.20 218.40 131.38 221.39 C 130.59 222.68 130.50 223.39 131.47 224.60 C 133.87 228.19 136.56 231.42 139.02 234.86 C 133.26 238.87 127.86 244.75 126.00 251.69 C 124.53 250.29 123.74 248.81 123.11 246.90 C 121.47 241.68 120.06 236.56 119.71 231.07 C 124.43 227.73 122.18 223.03 124.45 218.40 C 126.73 212.20 133.41 211.33 136.44 205.42 C 138.14 202.52 137.93 197.98 135.64 195.46 L 135.33 194.38 Z" id="p54" />
<path d="M 230.18 194.90 C 232.29 196.33 234.24 198.02 236.03 199.84 C 234.68 201.56 234.16 203.17 235.10 205.22 C 238.00 209.83 243.23 213.09 246.43 217.54 C 248.00 220.90 248.78 224.09 252.17 226.17 L 252.96 226.80 C 251.47 232.21 250.40 237.07 245.33 240.32 C 239.66 243.60 233.39 241.83 227.97 239.01 C 226.39 238.04 223.96 237.39 223.64 235.33 C 230.46 231.08 232.77 222.23 234.07 214.92 C 237.42 217.21 240.36 219.96 243.48 222.54 C 244.98 223.67 245.82 225.08 247.64 225.63 C 248.12 223.95 245.90 223.31 245.08 221.95 C 238.13 213.31 229.28 206.10 218.18 203.80 C 217.51 203.58 216.84 203.33 216.19 203.06 L 216.20 202.37 C 221.16 200.55 225.95 198.08 230.18 194.90 Z" id="p55" />
<path d="M 235.98 200.85 L 236.91 200.80 C 241.28 204.81 245.62 209.09 248.88 214.06 C 250.84 216.97 252.82 220.46 253.16 224.00 C 252.84 224.73 252.51 225.46 252.17 226.17 C 248.78 224.09 248.00 220.90 246.43 217.54 C 243.23 213.09 238.00 209.83 235.10 205.22 C 235.33 203.75 235.59 202.29 235.98 200.85 Z" id="p56" />
<path d="M 212.97 207.17 C 219.46 206.72 224.58 209.41 230.07 212.38 C 230.69 213.44 230.72 214.35 230.18 215.12 C 225.43 212.60 220.57 209.56 215.00 209.42 C 209.15 208.69 203.17 212.26 199.90 216.96 C 199.18 217.80 198.93 218.62 197.65 218.52 C 201.14 212.70 205.68 207.46 212.97 207.17 Z" id="p57" />
<path d="M 215.00 209.42 C 220.57 209.56 225.43 212.60 230.18 215.12 C 230.72 214.35 230.69 213.44 230.07 212.38 C 231.66 212.97 230.26 215.88 230.12 217.05 C 228.85 223.91 226.01 230.09 219.83 233.79 C 218.42 232.83 217.41 230.94 215.87 230.30 C 212.18 230.30 205.46 232.29 202.69 229.29 C 200.96 226.32 204.98 221.76 205.94 218.89 C 206.71 216.99 204.50 216.22 203.12 217.00 C 201.29 219.24 200.37 222.28 198.37 224.35 C 197.57 225.19 196.81 225.42 196.10 225.03 C 196.39 222.94 196.58 220.34 197.65 218.52 C 198.93 218.62 199.18 217.80 199.90 216.96 C 203.17 212.26 209.15 208.69 215.00 209.42 Z" id="p58" />
<path d="M 142.81 212.12 C 142.58 212.42 142.33 212.68 142.04 212.88 L 141.25 213.09 C 138.44 217.09 136.71 221.14 135.75 225.93 C 134.50 226.90 132.58 222.81 131.47 224.60 C 130.50 223.39 130.59 222.68 131.38 221.39 C 133.20 218.40 135.31 215.30 137.99 213.02 C 139.35 212.17 141.37 210.50 142.81 212.12 Z" id="p59" />
<path d="M 118.73 216.82 C 119.33 219.60 118.48 222.32 119.02 225.06 C 119.42 227.12 119.28 229.17 119.13 231.25 C 118.20 231.52 117.28 231.79 116.35 232.05 C 116.24 226.79 116.87 221.76 118.73 216.82 Z" id="p60" />
<path d="M 194.12 218.35 C 193.03 221.42 191.22 226.12 194.47 228.47 C 195.96 229.94 197.32 228.77 199.02 228.51 C 199.01 229.27 198.76 229.84 198.28 230.21 C 196.11 231.99 195.02 234.42 193.30 236.53 C 186.02 236.16 178.31 236.77 171.16 235.72 C 165.58 231.98 158.91 231.57 152.84 234.40 C 152.37 233.64 152.25 232.99 152.49 232.44 C 162.19 220.52 179.23 214.78 194.12 218.35 Z" id="p61" />
<path d="M 93.37 226.35 C 91.12 227.65 88.64 226.19 86.03 226.71 C 80.75 226.75 76.18 230.14 73.77 234.69 C 72.96 236.30 72.18 237.87 71.08 239.30 C 70.89 228.88 84.48 221.59 93.37 226.35 Z" id="p62" />
<path d="M 93.37 226.35 C 94.16 226.82 94.74 227.37 94.52 228.37 C 91.51 230.33 88.88 232.45 87.70 235.98 C 88.68 239.06 94.39 236.82 96.70 236.44 C 96.65 238.56 94.32 238.79 92.83 239.63 C 86.10 242.69 78.72 242.28 72.08 244.58 C 71.39 242.86 71.02 241.15 71.08 239.30 C 72.18 237.87 72.96 236.30 73.77 234.69 C 76.18 230.14 80.75 226.75 86.03 226.71 C 88.64 226.19 91.12 227.65 93.37 226.35 Z" id="p63" />
<path d="M 252.96 226.80 C 254.66 227.63 253.69 230.34 253.69 231.86 C 251.85 238.50 246.35 243.23 240.61 246.58 C 233.23 249.36 226.33 241.97 221.92 237.01 C 222.34 236.34 222.91 235.78 223.64 235.33 C 223.96 237.39 226.39 238.04 227.97 239.01 C 233.39 241.83 239.66 243.60 245.33 240.32 C 250.40 237.07 251.47 232.21 252.96 226.80 Z" id="p64" />
<path d="M 104.60 228.28 C 105.47 228.48 106.33 228.68 107.19 228.88 C 106.49 229.81 105.80 230.76 105.10 231.70 C 102.55 230.87 98.77 230.83 96.22 231.62 L 96.51 230.47 C 99.22 229.03 102.53 231.45 104.60 228.28 Z" id="p65" />
<path d="M 96.22 231.62 C 98.77 230.83 102.55 230.87 105.10 231.70 C 107.77 232.58 110.59 233.51 113.01 234.96 C 114.26 236.43 113.16 239.19 114.32 241.03 C 109.21 235.55 101.78 231.79 94.21 233.46 C 94.64 232.54 95.49 232.26 96.22 231.62 Z" id="p66" />
<path d="M 119.13 231.25 L 119.71 231.07 C 120.06 236.56 121.47 241.68 123.11 246.90 C 123.74 248.81 124.53 250.29 126.00 251.69 C 125.63 253.45 125.25 255.12 125.49 256.93 C 123.92 257.31 123.08 254.73 122.28 253.72 C 118.97 246.99 116.98 239.51 116.35 232.05 C 117.28 231.79 118.20 231.52 119.13 231.25 Z" id="p67" />
<path d="M 199.36 232.32 C 201.02 231.63 201.91 232.89 203.37 233.47 C 204.51 233.76 205.65 234.04 206.79 234.32 C 206.95 235.43 206.67 236.00 205.94 236.04 C 203.90 235.77 202.08 235.70 200.03 235.93 C 199.51 234.76 199.34 233.60 199.36 232.32 Z" id="p68" />
<path d="M 214.24 233.85 L 215.03 234.22 C 217.79 237.55 220.17 240.58 223.04 243.86 C 220.50 248.17 218.44 252.13 213.03 253.09 C 208.50 253.54 203.62 253.60 199.12 252.67 C 197.40 252.18 195.83 250.37 194.05 250.42 C 187.34 250.69 180.64 250.69 173.93 250.70 C 171.93 254.38 167.93 255.31 164.03 255.13 C 162.03 254.90 160.19 255.90 158.71 254.50 C 158.02 252.52 155.70 251.59 155.16 249.68 C 156.05 249.59 156.94 249.48 157.83 249.36 C 157.50 252.41 158.17 253.28 160.97 254.37 C 162.05 253.95 162.99 253.21 163.79 252.14 C 164.31 249.90 163.28 249.25 161.85 247.87 C 160.95 247.88 160.06 247.91 159.17 247.97 C 159.15 246.63 158.83 245.45 158.45 244.18 C 159.96 243.76 161.26 244.95 162.89 244.00 C 164.42 242.94 164.90 240.84 163.60 239.40 C 162.25 237.62 159.79 238.17 158.37 239.66 C 157.39 238.25 155.86 237.37 154.85 236.05 C 160.17 233.92 166.07 234.78 170.60 238.28 C 178.00 238.62 185.67 238.56 193.10 238.75 C 193.44 243.13 196.39 246.70 201.00 246.67 C 205.09 246.94 208.31 243.71 208.93 239.84 C 209.99 240.28 211.03 240.75 212.06 241.25 C 213.06 240.87 214.02 240.45 214.94 239.96 C 215.28 239.27 215.60 238.56 215.90 237.84 C 215.78 236.02 215.43 235.21 214.24 233.85 Z M 176.34 245.12 C 178.15 245.00 180.34 245.39 182.04 244.86 L 181.77 243.33 C 179.96 243.23 178.06 243.18 176.25 243.34 C 176.24 243.94 176.26 244.53 176.34 245.12 Z M 183.92 242.96 L 183.87 245.07 C 185.61 244.98 188.14 245.58 189.64 244.66 C 190.14 241.67 185.67 243.75 183.92 242.96 Z M 168.89 248.86 C 170.02 246.71 169.60 244.35 167.05 243.62 C 164.83 242.85 162.34 245.56 163.34 247.64 C 164.15 250.19 166.93 250.45 168.89 248.86 Z M 210.40 244.44 C 207.67 246.80 209.51 251.21 213.00 251.11 C 215.77 250.96 217.21 248.56 216.42 245.94 C 215.69 243.51 212.12 242.63 210.40 244.44 Z" id="p69" />
<path d="M 145.23 235.44 L 145.34 235.44 C 144.80 235.89 144.25 236.34 143.69 236.78 C 145.14 237.00 146.57 237.11 147.95 237.66 C 147.13 237.75 146.55 238.01 146.21 238.46 C 148.32 239.25 150.85 239.91 152.61 241.35 C 153.68 242.95 152.50 245.61 152.12 247.31 C 151.24 248.14 150.30 248.91 149.62 249.91 C 151.98 252.43 154.43 254.65 156.32 257.64 C 157.12 259.34 157.96 260.94 156.67 262.67 C 153.95 265.78 149.56 265.18 146.10 267.35 C 139.40 266.04 133.90 262.59 129.06 257.89 C 127.91 249.05 135.92 241.19 142.55 236.57 C 143.38 235.94 144.27 235.56 145.23 235.44 Z" id="p70" />
<path d="M 211.43 235.41 C 214.06 234.23 215.21 238.20 212.90 239.06 C 210.48 240.19 208.50 236.19 211.43 235.41 Z" id="p71" />
<path d="M 197.94 235.82 C 197.89 237.35 197.45 239.23 198.44 240.56 C 199.44 242.72 201.79 243.04 203.90 243.33 C 203.40 244.18 202.72 244.62 201.88 244.64 C 198.54 244.76 195.86 242.32 195.26 239.10 C 195.94 237.50 195.65 235.66 197.94 235.82 Z" id="p72" />
<path d="M 203.79 237.20 C 204.03 238.41 204.10 239.68 203.98 240.99 C 202.95 241.15 202.08 241.02 201.37 240.61 C 201.18 239.41 202.07 236.49 203.79 237.20 Z" id="p73" />
<path d="M 147.95 237.66 C 150.52 238.50 152.96 239.15 154.94 241.11 C 155.88 244.01 154.02 245.53 152.12 247.31 C 152.50 245.61 153.68 242.95 152.61 241.35 C 150.85 239.91 148.32 239.25 146.21 238.46 C 146.55 238.01 147.13 237.75 147.95 237.66 Z" id="p74" />
<path d="M 160.33 240.33 C 162.44 239.27 163.38 241.91 161.13 242.52 C 160.09 242.12 159.82 241.39 160.33 240.33 Z" id="p75" />
<path d="M 176.25 243.34 C 178.06 243.18 179.96 243.23 181.77 243.33 L 182.04 244.86 C 180.34 245.39 178.15 245.00 176.34 245.12 C 176.26 244.53 176.24 243.94 176.25 243.34 Z" id="p76" />
<path d="M 183.92 242.96 C 185.67 243.75 190.14 241.67 189.64 244.66 C 188.14 245.58 185.61 244.98 183.87 245.07 L 183.92 242.96 Z" id="p77" />
<path d="M 167.05 243.62 C 169.60 244.35 170.02 246.71 168.89 248.86 C 166.93 250.45 164.15 250.19 163.34 247.64 C 162.34 245.56 164.83 242.85 167.05 243.62 Z M 165.16 246.08 C 164.31 247.88 166.43 248.53 167.65 247.61 C 168.83 245.95 166.32 244.76 165.16 246.08 Z" id="p78" />
<path d="M 210.40 244.44 C 212.12 242.63 215.69 243.51 216.42 245.94 C 217.21 248.56 215.77 250.96 213.00 251.11 C 209.51 251.21 207.67 246.80 210.40 244.44 Z M 212.31 245.28 C 210.72 246.15 210.46 247.02 211.40 248.60 C 212.30 249.49 214.63 249.24 214.79 247.86 C 215.45 246.58 213.62 244.70 212.31 245.28 Z" id="p79" />
<path d="M 212.31 245.28 C 213.62 244.70 215.45 246.58 214.79 247.86 C 214.63 249.24 212.30 249.49 211.40 248.60 C 210.46 247.02 210.72 246.15 212.31 245.28 Z" id="p80" />
<path d="M 165.16 246.08 C 166.32 244.76 168.83 245.95 167.65 247.61 C 166.43 248.53 164.31 247.88 165.16 246.08 Z" id="p81" />
<path d="M 224.90 245.18 C 225.79 245.88 226.67 246.59 227.55 247.30 C 225.57 252.24 221.76 255.89 217.11 258.33 C 217.05 256.99 217.06 255.66 217.13 254.35 C 219.85 252.69 222.08 250.42 223.60 247.61 C 224.03 246.80 224.46 245.99 224.90 245.18 Z" id="p82" />
<path d="M 227.55 247.30 L 228.25 248.04 C 226.61 253.14 221.38 258.86 217.98 263.12 L 217.04 263.29 C 216.98 261.63 216.98 259.98 217.11 258.33 C 221.76 255.89 225.57 252.24 227.55 247.30 Z" id="p83" />
<path d="M 230.52 249.25 C 233.44 250.13 236.10 251.01 239.31 250.69 C 239.66 254.10 238.74 257.59 238.67 261.03 C 237.48 267.79 235.62 275.63 231.44 281.19 C 228.84 282.38 226.84 284.86 224.62 286.64 C 216.68 293.09 207.09 295.72 197.00 296.18 C 187.15 296.47 177.15 296.18 167.42 294.53 C 160.08 293.27 153.11 290.47 147.49 285.49 C 145.59 284.06 143.89 281.60 141.52 281.14 C 139.85 278.35 138.69 275.63 138.11 272.39 C 141.62 272.62 144.92 272.50 148.02 270.65 C 149.30 270.73 150.04 272.32 150.81 273.20 C 158.57 284.10 171.76 290.25 185.00 290.50 C 195.58 290.71 206.43 287.47 214.67 280.71 C 221.53 275.57 226.38 268.48 227.98 259.99 C 228.48 258.26 227.83 256.50 227.56 254.76 C 228.48 252.88 229.80 251.22 230.52 249.25 Z" id="p84" />
<path d="M 159.61 250.33 C 160.92 249.11 162.76 250.05 161.84 251.83 C 160.75 252.67 158.72 251.73 159.61 250.33 Z" id="p85" />
<path d="M 193.85 252.64 C 195.02 253.12 196.04 253.89 197.23 254.33 C 197.48 255.51 197.46 256.72 197.16 257.95 C 190.45 257.44 183.64 257.71 176.91 257.65 C 175.18 258.52 173.58 259.60 171.87 260.50 C 171.89 259.02 171.84 257.55 171.72 256.07 C 173.31 255.27 174.26 254.63 175.29 253.13 C 181.50 253.15 187.65 252.97 193.85 252.64 Z" id="p86" />
<path d="M 197.23 254.33 L 197.73 254.56 C 197.99 257.33 197.68 260.21 197.74 263.01 C 195.92 262.84 196.00 261.30 194.69 260.30 C 188.86 259.53 182.87 259.46 177.01 260.07 C 174.76 259.88 173.85 264.11 171.78 263.62 C 171.81 262.58 171.84 261.54 171.87 260.50 C 173.58 259.60 175.18 258.52 176.91 257.65 C 183.64 257.71 190.45 257.44 197.16 257.95 C 197.46 256.72 197.48 255.51 197.23 254.33 Z" id="p87" />
<path d="M 242.81 253.65 L 243.90 253.74 C 248.46 256.51 252.06 260.72 255.57 264.65 L 254.83 264.32 C 252.29 269.09 245.30 270.33 240.45 270.01 C 241.72 264.59 242.53 259.21 242.81 253.65 Z" id="p88" />
<path d="M 227.56 254.76 C 227.83 256.50 228.48 258.26 227.98 259.99 C 226.38 268.48 221.53 275.57 214.67 280.71 C 206.43 287.47 195.58 290.71 185.00 290.50 C 171.76 290.25 158.57 284.10 150.81 273.20 C 150.04 272.32 149.30 270.73 148.02 270.65 C 149.83 268.99 152.78 269.12 155.04 268.13 C 159.71 268.01 164.36 268.48 169.04 268.09 C 173.04 267.64 174.72 264.72 177.33 262.39 C 182.72 261.61 188.08 261.76 193.45 262.51 C 194.76 264.13 196.80 266.53 198.99 266.77 C 205.19 266.53 211.40 266.50 217.60 266.46 C 221.72 262.94 224.44 258.99 227.56 254.76 Z" id="p89" />
<path d="M 199.96 255.59 C 204.47 255.57 210.59 254.85 214.81 255.90 C 214.82 258.56 214.42 261.19 214.56 263.87 C 209.77 263.64 204.99 263.58 200.21 263.90 C 200.46 261.08 199.85 258.39 199.96 255.59 Z M 203.30 257.31 C 202.93 258.89 201.56 262.88 204.06 263.24 C 206.54 263.07 209.64 263.74 211.92 262.78 C 212.94 261.68 212.02 258.67 211.74 257.26 C 209.98 256.66 204.95 256.54 203.30 257.31 Z" id="p90" />
<path d="M 160.19 257.70 C 163.43 258.16 166.46 257.01 169.61 257.38 C 169.89 260.07 169.33 262.76 169.42 265.47 C 166.29 265.42 163.20 265.64 160.08 265.79 L 160.43 265.30 C 162.91 265.32 165.15 265.30 167.45 264.26 C 167.75 262.55 167.40 260.68 167.10 258.98 C 164.86 257.28 162.52 258.92 160.19 257.70 Z" id="p91" />
<path d="M 211.74 257.26 C 212.02 258.67 212.94 261.68 211.92 262.78 C 209.64 263.74 206.54 263.07 204.06 263.24 C 201.56 262.88 202.93 258.89 203.30 257.31 C 204.95 256.54 209.98 256.66 211.74 257.26 Z M 205.86 261.45 C 206.95 261.47 208.04 261.47 209.13 261.47 C 210.03 260.24 210.30 259.19 209.94 258.31 C 208.36 258.31 206.78 258.32 205.21 258.42 C 204.97 259.56 205.19 260.58 205.86 261.45 Z" id="p92" />
<path d="M 120.81 258.13 C 123.49 261.38 126.10 264.98 129.18 267.87 C 129.94 268.61 130.58 269.46 131.09 270.43 C 125.38 269.90 119.78 265.96 115.52 262.32 C 116.97 261.23 119.02 257.95 120.81 258.13 Z" id="p93" />
<path d="M 129.06 257.89 C 133.90 262.59 139.40 266.04 146.10 267.35 C 140.87 270.80 134.07 267.92 130.24 263.72 C 129.28 261.84 129.23 259.95 129.06 257.89 Z" id="p94" />
<path d="M 205.21 258.42 C 206.78 258.32 208.36 258.31 209.94 258.31 C 210.30 259.19 210.03 260.24 209.13 261.47 C 208.04 261.47 206.95 261.47 205.86 261.45 C 205.19 260.58 204.97 259.56 205.21 258.42 Z" id="p95" />
<path d="M 161.24 260.23 C 162.77 259.70 164.30 259.86 165.86 260.15 C 165.83 260.97 165.76 261.78 165.66 262.59 C 164.22 262.66 162.77 262.69 161.32 262.65 C 161.27 261.85 161.24 261.04 161.24 260.23 Z" id="p96" />
<path d="M 115.52 262.32 C 119.78 265.96 125.38 269.90 131.09 270.43 C 132.35 270.57 133.50 270.51 134.57 271.28 C 134.91 275.32 136.43 278.95 137.93 282.65 C 136.75 285.09 136.53 287.68 134.06 289.10 C 131.27 291.25 127.58 289.93 125.36 287.62 C 122.73 285.11 121.27 281.99 119.14 279.12 L 118.48 278.24 C 117.60 273.81 115.79 268.77 112.46 265.58 C 113.42 264.44 114.47 263.37 115.52 262.32 Z" id="p97" />
<path d="M 91.54 264.41 C 93.24 265.61 95.58 268.14 94.91 270.39 C 93.65 269.31 92.46 267.95 91.02 267.14 C 89.84 267.62 88.78 268.24 87.49 268.34 C 88.31 267.00 89.60 264.20 91.54 264.41 Z" id="p98" />
<path d="M 104.00 263.36 C 106.86 264.18 108.59 266.23 110.45 268.39 C 108.29 268.77 106.70 265.43 104.11 266.12 C 100.91 266.89 99.94 270.91 98.13 273.36 C 97.42 269.70 100.63 264.75 104.00 263.36 Z" id="p99" />
<path d="M 268.35 264.36 C 270.78 263.59 271.84 264.04 273.28 266.08 L 273.31 268.02 C 271.58 267.45 269.87 266.41 267.98 266.82 C 264.67 267.44 261.49 270.49 258.54 272.01 C 260.00 268.20 264.77 265.80 268.35 264.36 Z" id="p100" />
<path d="M 254.83 264.32 L 255.57 264.65 C 255.95 265.59 256.52 266.45 257.27 267.22 C 254.55 271.33 253.23 275.57 251.89 280.21 C 249.57 282.40 247.44 285.87 244.00 286.03 C 241.58 286.10 240.05 283.89 238.99 282.01 C 238.17 280.34 237.02 278.87 237.82 276.95 C 238.85 274.69 239.35 272.22 240.45 270.01 C 245.30 270.33 252.29 269.09 254.83 264.32 Z" id="p101" />
<path d="M 104.11 266.12 C 106.70 265.43 108.29 268.77 110.45 268.39 C 112.30 271.23 113.64 274.31 114.19 277.67 C 112.91 281.16 113.46 284.82 112.25 288.27 C 110.82 291.90 110.02 295.30 106.77 297.78 C 103.09 301.23 96.75 301.34 92.84 298.23 C 90.23 296.47 88.06 294.32 85.74 292.21 C 82.98 284.71 84.60 275.59 87.49 268.34 C 88.78 268.24 89.84 267.62 91.02 267.14 C 92.46 267.95 93.65 269.31 94.91 270.39 C 94.63 272.96 94.35 278.25 96.96 279.70 C 100.53 279.38 97.97 275.59 98.13 273.36 C 99.94 270.91 100.91 266.89 104.11 266.12 Z" id="p102" />
<path d="M 273.28 266.08 C 275.06 268.86 273.37 273.62 273.99 276.89 C 275.02 278.10 276.37 278.65 277.35 277.01 C 277.68 274.74 277.08 272.41 277.46 270.17 L 278.08 270.93 C 279.92 270.42 281.02 267.53 283.25 268.63 C 285.45 268.81 285.68 272.35 287.63 271.14 C 289.00 276.02 289.51 281.03 288.07 285.97 C 285.16 290.55 281.77 295.11 277.58 298.61 C 274.91 300.88 271.23 301.68 268.00 300.09 C 265.14 298.54 262.89 295.59 261.15 292.90 C 258.90 289.56 258.72 285.71 255.78 282.75 C 255.62 278.88 256.89 275.43 258.54 272.01 C 261.49 270.49 264.67 267.44 267.98 266.82 C 269.87 266.41 271.58 267.45 273.31 268.02 L 273.28 266.08 Z" id="p103" />
<path d="M 280.52 266.65 C 283.49 265.10 286.51 268.78 287.63 271.14 C 285.68 272.35 285.45 268.81 283.25 268.63 C 281.02 267.53 279.92 270.42 278.08 270.93 L 277.46 270.17 C 278.15 268.63 278.76 267.17 280.52 266.65 Z" id="p104" />
<path d="M 237.82 276.95 C 237.02 278.87 238.17 280.34 238.99 282.01 C 240.05 283.89 241.58 286.10 244.00 286.03 C 247.44 285.87 249.57 282.40 251.89 280.21 C 251.81 286.87 252.33 294.18 255.09 300.32 C 244.68 297.58 234.36 295.81 223.55 295.95 C 229.74 290.65 234.69 284.52 237.82 276.95 Z" id="p105" />
<path d="M 114.19 277.67 C 116.34 283.40 116.47 290.27 113.95 295.89 C 112.29 299.54 108.97 302.19 105.02 302.90 C 100.52 303.73 95.60 304.06 91.65 301.32 C 88.17 299.23 86.95 295.88 85.74 292.21 C 88.06 294.32 90.23 296.47 92.84 298.23 C 96.75 301.34 103.09 301.23 106.77 297.78 C 110.02 295.30 110.82 291.90 112.25 288.27 C 113.46 284.82 112.91 281.16 114.19 277.67 Z" id="p106" />
<path d="M 81.28 278.59 C 82.45 281.83 82.53 285.25 81.27 288.48 C 80.48 285.36 80.72 281.74 81.28 278.59 Z" id="p107" />
<path d="M 119.14 279.12 C 121.27 281.99 122.73 285.11 125.36 287.62 C 127.58 289.93 131.27 291.25 134.06 289.10 C 136.53 287.68 136.75 285.09 137.93 282.65 C 140.66 286.98 144.06 290.81 148.26 293.76 C 149.46 294.59 150.76 294.96 151.45 296.32 C 139.49 296.04 127.62 297.28 115.96 299.95 C 116.70 297.95 117.98 296.37 118.36 294.24 C 119.99 289.09 119.02 284.35 119.14 279.12 Z" id="p108" />
<path d="M 141.52 281.14 C 143.89 281.60 145.59 284.06 147.49 285.49 C 153.11 290.47 160.08 293.27 167.42 294.53 C 177.15 296.18 187.15 296.47 197.00 296.18 C 207.09 295.72 216.68 293.09 224.62 286.64 C 226.84 284.86 228.84 282.38 231.44 281.19 C 230.01 284.72 227.00 287.67 224.38 290.37 C 221.14 292.94 217.42 296.67 213.20 297.25 C 199.72 300.14 185.67 300.67 172.01 298.76 C 163.86 297.77 155.64 294.88 148.98 290.02 C 146.22 287.54 142.78 284.72 141.52 281.14 Z" id="p109" />
<path d="M 255.78 282.75 C 258.72 285.71 258.90 289.56 261.15 292.90 C 262.89 295.59 265.14 298.54 268.00 300.09 C 271.23 301.68 274.91 300.88 277.58 298.61 C 281.77 295.11 285.16 290.55 288.07 285.97 C 287.15 290.82 285.32 295.30 282.02 299.03 C 276.02 306.60 261.52 305.78 257.44 296.62 C 255.92 292.26 255.47 287.33 255.78 282.75 Z" id="p110" />
<path d="M 179.27 301.46 C 184.99 302.42 191.20 301.77 196.99 301.77 C 198.12 301.86 199.23 302.15 200.33 302.64 C 196.54 303.43 192.85 303.25 189.00 303.31 C 184.90 303.30 180.61 303.43 176.57 302.67 C 177.20 301.49 178.10 301.08 179.27 301.46 Z" id="p111" />
</defs>
<g stroke-width="10pt">
<use stroke="#ff8bae" xlink:href="#p0" />
<use stroke="#160d4f" xlink:href="#p1" />
<use stroke="#da61a2" xlink:href="#p2" />
<use stroke="#fc0265" xlink:href="#p3" />
<use stroke="#af0662" xlink:href="#p4" />
<use stroke="#d9daee" xlink:href="#p5" />
<use stroke="#bfc1d3" xlink:href="#p6" />
<use stroke="#fc8cb0" xlink:href="#p7" />
<use stroke="#fb8db1" xlink:href="#p8" />
<use stroke="#fa8cb2" xlink:href="#p9" />
<use stroke="#a2a2c2" xlink:href="#p10" />
<use stroke="#f8fcfd" xlink:href="#p11" />
<use stroke="#fdfcff" xlink:href="#p12" />
<use stroke="#b1b3d0" xlink:href="#p13" />
<use stroke="#b1b1c6" xlink:href="#p14" />
<use stroke="#fefffe" xlink:href="#p15" />
<use stroke="#5f5d73" xlink:href="#p16" />
<use stroke="#5f5f74" xlink:href="#p17" />
<use stroke="#fcfdfd" xlink:href="#p18" />
<use stroke="#2d0e46" xlink:href="#p19" />
<use stroke="#39386c" xlink:href="#p20" />
<use stroke="#42416a" xlink:href="#p21" />
<use stroke="#a1a0c4" xlink:href="#p22" />
<use stroke="#f4b1b3" xlink:href="#p23" />
<use stroke="#f3b0b4" xlink:href="#p24" />
<use stroke="#f1b5ba" xlink:href="#p25" />
<use stroke="#eeb5bd" xlink:href="#p26" />
<use stroke="#060652" xlink:href="#p27" />
<use stroke="#fcfefe" xlink:href="#p28" />
<use stroke="#f5fffe" xlink:href="#p29" />
<use stroke="#f9f9ff" xlink:href="#p30" />
<use stroke="#fcfcfd" xlink:href="#p31" />
<use stroke="#270a4e" xlink:href="#p32" />
<use stroke="#b3b2d1" xlink:href="#p33" />
<use stroke="#ed0968" xlink:href="#p34" />
<use stroke="#a9106e" xlink:href="#p35" />
<use stroke="#f80464" xlink:href="#p36" />
<use stroke="#fbfefe" xlink:href="#p37" />
<use stroke="#fee3e7" xlink:href="#p38" />
<use stroke="#c9277c" xlink:href="#p39" />
<use stroke="#f5afb1" xlink:href="#p40" />
<use stroke="#201152" xlink:href="#p41" />
<use stroke="#1f1248" xlink:href="#p42" />
<use stroke="#fbfefe" xlink:href="#p43" />
<use stroke="#0a0552" xlink:href="#p44" />
<use stroke="#af7b96" xlink:href="#p45" />
<use stroke="#9495b6" xlink:href="#p46" />
<use stroke="#a37b94" xlink:href="#p47" />
<use stroke="#e90e68" xlink:href="#p48" />
<use stroke="#9397a9" xlink:href="#p49" />
<use stroke="#5c5f7d" xlink:href="#p50" />
<use stroke="#7c1e75" xlink:href="#p51" />
<use stroke="#b4b4cd" xlink:href="#p52" />
<use stroke="#5f5e72" xlink:href="#p53" />
<use stroke="#fdfefe" xlink:href="#p54" />
<use stroke="#fdfefe" xlink:href="#p55" />
<use stroke="#635d75" xlink:href="#p56" />
<use stroke="#b4b5ca" xlink:href="#p57" />
<use stroke="#605e74" xlink:href="#p58" />
<use stroke="#b6b3ce" xlink:href="#p59" />
<use stroke="#4b4274" xlink:href="#p60" />
<use stroke="#f5afb0" xlink:href="#p61" />
<use stroke="#8a88a7" xlink:href="#p62" />
<use stroke="#5d5b74" xlink:href="#p63" />
<use stroke="#b3b4cc" xlink:href="#p64" />
<use stroke="#14092e" xlink:href="#p65" />
<use stroke="#eeecfa" xlink:href="#p66" />
<use stroke="#b5b4cc" xlink:href="#p67" />
<use stroke="#8e2070" xlink:href="#p68" />
<use stroke="#e5e7e6" xlink:href="#p69" />
<use stroke="#5f5d72" xlink:href="#p70" />
<use stroke="#ae2c7e" xlink:href="#p71" />
<use stroke="#aeafc9" xlink:href="#p72" />
<use stroke="#aeabcb" xlink:href="#p73" />
<use stroke="#8d8daa" xlink:href="#p74" />
<use stroke="#a84390" xlink:href="#p75" />
<use stroke="#080518" xlink:href="#p76" />
<use stroke="#363540" xlink:href="#p77" />
<use stroke="#513454" xlink:href="#p78" />
<use stroke="#3a163a" xlink:href="#p79" />
<use stroke="#a23276" xlink:href="#p80" />
<use stroke="#9a3b79" xlink:href="#p81" />
<use stroke="#e1e5ec" xlink:href="#p82" />
<use stroke="#9291b1" xlink:href="#p83" />
<use stroke="#fdfefd" xlink:href="#p84" />
<use stroke="#954788" xlink:href="#p85" />
<use stroke="#e6e7e9" xlink:href="#p86" />
<use stroke="#8d8daf" xlink:href="#p87" />
<use stroke="#5f5c74" xlink:href="#p88" />
<use stroke="#f5afb1" xlink:href="#p89" />
<use stroke="#d4d4ea" xlink:href="#p90" />
<use stroke="#bfc0d6" xlink:href="#p91" />
<use stroke="#380d39" xlink:href="#p92" />
<use stroke="#5f6079" xlink:href="#p93" />
<use stroke="#46426a" xlink:href="#p94" />
<use stroke="#d62f87" xlink:href="#p95" />
<use stroke="#bc207a" xlink:href="#p96" />
<use stroke="#fdfffe" xlink:href="#p97" />
<use stroke="#8c8aaa" xlink:href="#p98" />
<use stroke="#9896b6" xlink:href="#p99" />
<use stroke="#9893b1" xlink:href="#p100" />
<use stroke="#fdfefc" xlink:href="#p101" />
<use stroke="#605d73" xlink:href="#p102" />
<use stroke="#605d72" xlink:href="#p103" />
<use stroke="#8989a6" xlink:href="#p104" />
<use stroke="#b3b3cc" xlink:href="#p105" />
<use stroke="#454169" xlink:href="#p106" />
<use stroke="#330336" xlink:href="#p107" />
<use stroke="#b5b4cc" xlink:href="#p108" />
<use stroke="#b5b4cd" xlink:href="#p109" />
<use stroke="#46426c" xlink:href="#p110" />
<use stroke="#290335" xlink:href="#p111" />
</g>
<g>
<use fill="#ff8bae" xlink:href="#p0" />
<use fill="#160d4f" xlink:href="#p1" />
<use fill="#da61a2" xlink:href="#p2" />
<use fill="#fc0265" xlink:href="#p3" />
<use fill="#af0662" xlink:href="#p4" />
<use fill="#d9daee" xlink:href="#p5" />
<use fill="#bfc1d3" xlink:href="#p6" />
<use fill="#fc8cb0" xlink:href="#p7" />
<use fill="#fb8db1" xlink:href="#p8" />
<use fill="#fa8cb2" xlink:href="#p9" />
<use fill="#a2a2c2" xlink:href="#p10" />
<use fill="#f8fcfd" xlink:href="#p11" />
<use fill="#fdfcff" xlink:href="#p12" />
<use fill="#b1b3d0" xlink:href="#p13" />
<use fill="#b1b1c6" xlink:href="#p14" />
<use fill="#fefffe" xlink:href="#p15" />
<use fill="#5f5d73" xlink:href="#p16" />
<use fill="#5f5f74" xlink:href="#p17" />
<use fill="#fcfdfd" xlink:href="#p18" />
<use fill="#2d0e46" xlink:href="#p19" />
<use fill="#39386c" xlink:href="#p20" />
<use fill="#42416a" xlink:href="#p21" />
<use fill="#a1a0c4" xlink:href="#p22" />
<use fill="#f4b1b3" xlink:href="#p23" />
<use fill="#f3b0b4" xlink:href="#p24" />
<use fill="#f1b5ba" xlink:href="#p25" />
<use fill="#eeb5bd" xlink:href="#p26" />
<use fill="#060652" xlink:href="#p27" />
<use fill="#fcfefe" xlink:href="#p28" />
<use fill="#f5fffe" xlink:href="#p29" />
<use fill="#f9f9ff" xlink:href="#p30" />
<use fill="#fcfcfd" xlink:href="#p31" />
<use fill="#270a4e" xlink:href="#p32" />
<use fill="#b3b2d1" xlink:href="#p33" />
<use fill="#ed0968" xlink:href="#p34" />
<use fill="#a9106e" xlink:href="#p35" />
<use fill="#f80464" xlink:href="#p36" />
<use fill="#fbfefe" xlink:href="#p37" />
<use fill="#fee3e7" xlink:href="#p38" />
<use fill="#c9277c" xlink:href="#p39" />
<use fill="#f5afb1" xlink:href="#p40" />
<use fill="#201152" xlink:href="#p41" />
<use fill="#1f1248" xlink:href="#p42" />
<use fill="#fbfefe" xlink:href="#p43" />
<use fill="#0a0552" xlink:href="#p44" />
<use fill="#af7b96" xlink:href="#p45" />
<use fill="#9495b6" xlink:href="#p46" />
<use fill="#a37b94" xlink:href="#p47" />
<use fill="#e90e68" xlink:href="#p48" />
<use fill="#9397a9" xlink:href="#p49" />
<use fill="#5c5f7d" xlink:href="#p50" />
<use fill="#7c1e75" xlink:href="#p51" />
<use fill="#b4b4cd" xlink:href="#p52" />
<use fill="#5f5e72" xlink:href="#p53" />
<use fill="#fdfefe" xlink:href="#p54" />
<use fill="#fdfefe" xlink:href="#p55" />
<use fill="#635d75" xlink:href="#p56" />
<use fill="#b4b5ca" xlink:href="#p57" />
<use fill="#605e74" xlink:href="#p58" />
<use fill="#b6b3ce" xlink:href="#p59" />
<use fill="#4b4274" xlink:href="#p60" />
<use fill="#f5afb0" xlink:href="#p61" />
<use fill="#8a88a7" xlink:href="#p62" />
<use fill="#5d5b74" xlink:href="#p63" />
<use fill="#b3b4cc" xlink:href="#p64" />
<use fill="#14092e" xlink:href="#p65" />
<use fill="#eeecfa" xlink:href="#p66" />
<use fill="#b5b4cc" xlink:href="#p67" />
<use fill="#8e2070" xlink:href="#p68" />
<use fill="#e5e7e6" xlink:href="#p69" />
<use fill="#5f5d72" xlink:href="#p70" />
<use fill="#ae2c7e" xlink:href="#p71" />
<use fill="#aeafc9" xlink:href="#p72" />
<use fill="#aeabcb" xlink:href="#p73" />
<use fill="#8d8daa" xlink:href="#p74" />
<use fill="#a84390" xlink:href="#p75" />
<use fill="#080518" xlink:href="#p76" />
<use fill="#363540" xlink:href="#p77" />
<use fill="#513454" xlink:href="#p78" />
<use fill="#3a163a" xlink:href="#p79" />
<use fill="#a23276" xlink:href="#p80" />
<use fill="#9a3b79" xlink:href="#p81" />
<use fill="#e1e5ec" xlink:href="#p82" />
<use fill="#9291b1" xlink:href="#p83" />
<use fill="#fdfefd" xlink:href="#p84" />
<use fill="#954788" xlink:href="#p85" />
<use fill="#e6e7e9" xlink:href="#p86" />
<use fill="#8d8daf" xlink:href="#p87" />
<use fill="#5f5c74" xlink:href="#p88" />
<use fill="#f5afb1" xlink:href="#p89" />
<use fill="#d4d4ea" xlink:href="#p90" />
<use fill="#bfc0d6" xlink:href="#p91" />
<use fill="#380d39" xlink:href="#p92" />
<use fill="#5f6079" xlink:href="#p93" />
<use fill="#46426a" xlink:href="#p94" />
<use fill="#d62f87" xlink:href="#p95" />
<use fill="#bc207a" xlink:href="#p96" />
<use fill="#fdfffe" xlink:href="#p97" />
<use fill="#8c8aaa" xlink:href="#p98" />
<use fill="#9896b6" xlink:href="#p99" />
<use fill="#9893b1" xlink:href="#p100" />
<use fill="#fdfefc" xlink:href="#p101" />
<use fill="#605d73" xlink:href="#p102" />
<use fill="#605d72" xlink:href="#p103" />
<use fill="#8989a6" xlink:href="#p104" />
<use fill="#b3b3cc" xlink:href="#p105" />
<use fill="#454169" xlink:href="#p106" />
<use fill="#330336" xlink:href="#p107" />
<use fill="#b5b4cc" xlink:href="#p108" />
<use fill="#b5b4cd" xlink:href="#p109" />
<use fill="#46426c" xlink:href="#p110" />
<use fill="#290335" xlink:href="#p111" />
</g>
</svg>