<?xml version="1.0" encoding="UTF-8"?>
<svg xmlns="http://www.w3.org/2000/svg" xmlns:xlink="http://www.w3.org/1999/xlink" width="2836" height="2837" viewBox="0 0 2836 2837">
<defs>
<clipPath id="clip-0">

</clipPath>
</defs>
<path fill-rule="evenodd" fill="rgb(98.631287%, 98.631287%, 86.521912%)" fill-opacity="1" d="M 1 0.351562 L 2835.648438 0.351562 L 2835.648438 2835 L 1 2835 L 1 0.351562 "/>
<g clip-path="url(#clip-0)">
<path fill-rule="evenodd" fill="rgb(97.068787%, 97.068787%, 61.914062%)" fill-opacity="1" d="M 0.511719 1.449219 L 2835.160156 1.449219 L 2835.160156 2836.09375 L 0.511719 2836.09375 Z M 2835.160156 1.449219 L 0.511719 1.449219 L 0.511719 2836.101562 L 2835.160156 2836.101562 Z M 2251.339844 -1290.558594 L -1291.5 585.269531 L 584.335938 4128.109375 L 4127.171875 2252.273438 Z M 2251.339844 -1290.558594 "/>
<path fill-rule="evenodd" fill="rgb(97.068787%, 97.068787%, 61.914062%)" fill-opacity="1" d="M 2201.328125 -1128 L -1128.941406 635.28125 L 634.34375 3965.550781 L 3964.609375 2202.261719 Z M 2201.328125 -1128 "/>
<path fill-rule="evenodd" fill="rgb(97.068787%, 97.068787%, 62.5%)" fill-opacity="1" d="M 2195.210938 -1108.109375 L -1109.039062 641.398438 L 640.464844 3945.648438 L 3944.710938 2196.140625 Z M 2195.210938 -1108.109375 "/>
<path fill-rule="evenodd" fill="rgb(97.068787%, 97.068787%, 62.889099%)" fill-opacity="1" d="M 2189.078125 -1088.210938 L -1089.148438 647.519531 L 646.585938 3925.75 L 3924.820312 2190.019531 Z M 2189.078125 -1088.210938 "/>
<path fill-rule="evenodd" fill="rgb(97.068787%, 97.068787%, 63.28125%)" fill-opacity="1" d="M 2182.960938 -1068.308594 L -1069.25 653.640625 L 652.707031 3905.859375 L 3904.921875 2183.898438 Z M 2182.960938 -1068.308594 "/>
<path fill-rule="evenodd" fill="rgb(97.068787%, 97.068787%, 63.867188%)" fill-opacity="1" d="M 2176.839844 -1048.421875 L -1049.351562 659.761719 L 658.828125 3885.960938 L 3885.019531 2177.777344 Z M 2176.839844 -1048.421875 "/>
<path fill-rule="evenodd" fill="rgb(97.068787%, 97.068787%, 64.256287%)" fill-opacity="1" d="M 2170.71875 -1028.519531 L -1029.460938 665.890625 L 664.949219 3866.058594 L 3865.128906 2171.65625 Z M 2170.71875 -1028.519531 "/>
<path fill-rule="evenodd" fill="rgb(97.068787%, 97.068787%, 64.646912%)" fill-opacity="1" d="M 2164.601562 -1008.621094 L -1009.558594 672.011719 L 671.070312 3846.171875 L 3845.230469 2165.535156 Z M 2164.601562 -1008.621094 "/>
<path fill-rule="evenodd" fill="rgb(97.264099%, 97.264099%, 65.234375%)" fill-opacity="1" d="M 2158.480469 -988.730469 L -989.664062 678.128906 L 677.191406 3826.269531 L 3825.328125 2159.414062 Z M 2158.480469 -988.730469 "/>
<path fill-rule="evenodd" fill="rgb(97.264099%, 97.264099%, 65.625%)" fill-opacity="1" d="M 2152.359375 -968.828125 L -969.765625 684.25 L 683.3125 3806.371094 L 3805.441406 2153.292969 Z M 2152.359375 -968.828125 "/>
<path fill-rule="evenodd" fill="rgb(97.264099%, 97.264099%, 66.014099%)" fill-opacity="1" d="M 2146.238281 -948.929688 L -949.871094 690.371094 L 689.433594 3786.476562 L 3785.539062 2147.171875 Z M 2146.238281 -948.929688 "/>
<path fill-rule="evenodd" fill="rgb(97.264099%, 97.264099%, 66.40625%)" fill-opacity="1" d="M 2140.121094 -929.039062 L -929.972656 696.488281 L 695.554688 3766.578125 L 3765.640625 2141.050781 Z M 2140.121094 -929.039062 "/>
<path fill-rule="evenodd" fill="rgb(97.264099%, 97.264099%, 66.992188%)" fill-opacity="1" d="M 2133.988281 -909.140625 L -910.074219 702.609375 L 701.675781 3746.683594 L 3745.75 2134.929688 Z M 2133.988281 -909.140625 "/>
<path fill-rule="evenodd" fill="rgb(97.264099%, 97.264099%, 67.381287%)" fill-opacity="1" d="M 2127.871094 -889.238281 L -890.179688 708.730469 L 707.796875 3726.785156 L 3725.851562 2128.808594 Z M 2127.871094 -889.238281 "/>
<path fill-rule="evenodd" fill="rgb(97.264099%, 97.264099%, 67.771912%)" fill-opacity="1" d="M 2121.75 -869.351562 L -870.28125 714.851562 L 713.917969 3706.890625 L 3705.949219 2122.6875 Z M 2121.75 -869.351562 "/>
<path fill-rule="evenodd" fill="rgb(97.264099%, 97.264099%, 68.359375%)" fill-opacity="1" d="M 2115.628906 -849.449219 L -850.386719 720.96875 L 720.039062 3686.992188 L 3686.058594 2116.566406 Z M 2115.628906 -849.449219 "/>
<path fill-rule="evenodd" fill="rgb(97.459412%, 97.459412%, 68.75%)" fill-opacity="1" d="M 2109.511719 -829.550781 L -830.488281 727.101562 L 726.160156 3667.097656 L 3666.160156 2110.445312 Z M 2109.511719 -829.550781 "/>
<path fill-rule="evenodd" fill="rgb(97.459412%, 97.459412%, 69.139099%)" fill-opacity="1" d="M 2103.390625 -809.660156 L -810.59375 733.21875 L 732.28125 3647.199219 L 3646.261719 2104.324219 Z M 2103.390625 -809.660156 "/>
<path fill-rule="evenodd" fill="rgb(97.459412%, 97.459412%, 69.726562%)" fill-opacity="1" d="M 2097.269531 -789.761719 L -790.695312 739.339844 L 738.402344 3627.304688 L 3626.371094 2098.203125 Z M 2097.269531 -789.761719 "/>
<path fill-rule="evenodd" fill="rgb(97.459412%, 97.459412%, 70.117188%)" fill-opacity="1" d="M 2091.148438 -769.859375 L -770.800781 745.460938 L 744.523438 3607.40625 L 3606.46875 2092.085938 Z M 2091.148438 -769.859375 "/>
<path fill-rule="evenodd" fill="rgb(97.459412%, 97.459412%, 70.506287%)" fill-opacity="1" d="M 2085.03125 -749.96875 L -750.902344 751.578125 L 750.644531 3587.511719 L 3586.570312 2085.964844 Z M 2085.03125 -749.96875 "/>
<path fill-rule="evenodd" fill="rgb(97.459412%, 97.459412%, 71.09375%)" fill-opacity="1" d="M 2078.910156 -730.070312 L -731.007812 757.699219 L 756.765625 3567.613281 L 3566.679688 2079.84375 Z M 2078.910156 -730.070312 "/>
<path fill-rule="evenodd" fill="rgb(97.459412%, 97.459412%, 71.484375%)" fill-opacity="1" d="M 2072.789062 -710.171875 L -711.109375 763.820312 L 762.886719 3547.71875 L 3546.78125 2073.722656 Z M 2072.789062 -710.171875 "/>
<path fill-rule="evenodd" fill="rgb(97.459412%, 97.459412%, 71.875%)" fill-opacity="1" d="M 2066.660156 -690.28125 L -691.214844 769.941406 L 769.007812 3527.820312 L 3526.878906 2067.601562 Z M 2066.660156 -690.28125 "/>
<path fill-rule="evenodd" fill="rgb(97.65625%, 97.65625%, 72.264099%)" fill-opacity="1" d="M 2060.539062 -670.378906 L -671.316406 776.058594 L 775.128906 3507.925781 L 3506.988281 2061.480469 Z M 2060.539062 -670.378906 "/>
<path fill-rule="evenodd" fill="rgb(97.65625%, 97.65625%, 72.851562%)" fill-opacity="1" d="M 2054.421875 -650.480469 L -651.421875 782.179688 L 781.25 3488.027344 L 3487.089844 2055.359375 Z M 2054.421875 -650.480469 "/>
<path fill-rule="evenodd" fill="rgb(97.65625%, 97.65625%, 73.242188%)" fill-opacity="1" d="M 2048.300781 -630.589844 L -631.523438 788.308594 L 787.371094 3468.128906 L 3467.191406 2049.238281 Z M 2048.300781 -630.589844 "/>
<path fill-rule="evenodd" fill="rgb(97.65625%, 97.65625%, 73.631287%)" fill-opacity="1" d="M 2042.179688 -610.691406 L -611.628906 794.429688 L 793.492188 3448.234375 L 3447.300781 2043.117188 Z M 2042.179688 -610.691406 "/>
<path fill-rule="evenodd" fill="rgb(97.65625%, 97.65625%, 74.21875%)" fill-opacity="1" d="M 2036.058594 -590.789062 L -591.730469 800.550781 L 799.613281 3428.339844 L 3427.398438 2036.996094 Z M 2036.058594 -590.789062 "/>
<path fill-rule="evenodd" fill="rgb(97.65625%, 97.65625%, 74.609375%)" fill-opacity="1" d="M 2029.941406 -570.898438 L -571.835938 806.671875 L 805.734375 3408.441406 L 3407.511719 2030.875 Z M 2029.941406 -570.898438 "/>
<path fill-rule="evenodd" fill="rgb(97.65625%, 97.65625%, 75%)" fill-opacity="1" d="M 2023.820312 -551 L -551.9375 812.789062 L 811.855469 3388.542969 L 3387.609375 2024.753906 Z M 2023.820312 -551 "/>
<path fill-rule="evenodd" fill="rgb(97.65625%, 97.65625%, 75.584412%)" fill-opacity="1" d="M 2017.699219 -531.109375 L -532.039062 818.910156 L 817.976562 3368.648438 L 3367.710938 2018.632812 Z M 2017.699219 -531.109375 "/>
<path fill-rule="evenodd" fill="rgb(97.851562%, 97.851562%, 75.976562%)" fill-opacity="1" d="M 2011.578125 -511.210938 L -512.144531 825.03125 L 824.097656 3348.75 L 3347.808594 2012.511719 Z M 2011.578125 -511.210938 "/>
<path fill-rule="evenodd" fill="rgb(97.851562%, 97.851562%, 76.367188%)" fill-opacity="1" d="M 2005.449219 -491.308594 L -492.246094 831.148438 L 830.21875 3328.855469 L 3327.921875 2006.390625 Z M 2005.449219 -491.308594 "/>
<path fill-rule="evenodd" fill="rgb(97.851562%, 97.851562%, 76.756287%)" fill-opacity="1" d="M 1999.328125 -471.421875 L -472.351562 837.269531 L 836.339844 3308.957031 L 3308.019531 2000.269531 Z M 1999.328125 -471.421875 "/>
<path fill-rule="evenodd" fill="rgb(97.851562%, 97.851562%, 77.34375%)" fill-opacity="1" d="M 1993.210938 -451.519531 L -452.453125 843.390625 L 842.460938 3289.0625 L 3288.128906 1994.148438 Z M 1993.210938 -451.519531 "/>
<path fill-rule="evenodd" fill="rgb(97.851562%, 97.851562%, 77.734375%)" fill-opacity="1" d="M 1987.089844 -431.621094 L -432.558594 849.519531 L 848.578125 3269.164062 L 3268.230469 1988.027344 Z M 1987.089844 -431.621094 "/>
<path fill-rule="evenodd" fill="rgb(97.851562%, 97.851562%, 78.125%)" fill-opacity="1" d="M 1980.96875 -411.730469 L -412.660156 855.640625 L 854.699219 3249.269531 L 3248.328125 1981.90625 Z M 1980.96875 -411.730469 "/>
<path fill-rule="evenodd" fill="rgb(97.851562%, 97.851562%, 78.709412%)" fill-opacity="1" d="M 1974.851562 -391.828125 L -392.765625 861.761719 L 860.820312 3229.371094 L 3228.441406 1975.785156 Z M 1974.851562 -391.828125 "/>
<path fill-rule="evenodd" fill="rgb(98.046875%, 98.046875%, 79.101562%)" fill-opacity="1" d="M 1968.730469 -371.929688 L -372.867188 867.878906 L 866.941406 3209.476562 L 3208.539062 1969.664062 Z M 1968.730469 -371.929688 "/>
<path fill-rule="evenodd" fill="rgb(98.046875%, 98.046875%, 79.492188%)" fill-opacity="1" d="M 1962.609375 -352.039062 L -352.972656 874 L 873.0625 3189.578125 L 3188.640625 1963.542969 Z M 1962.609375 -352.039062 "/>
<path fill-rule="evenodd" fill="rgb(98.046875%, 98.046875%, 80.076599%)" fill-opacity="1" d="M 1956.488281 -332.140625 L -333.070312 880.121094 L 879.1875 3169.679688 L 3168.738281 1957.421875 Z M 1956.488281 -332.140625 "/>
<path fill-rule="evenodd" fill="rgb(98.046875%, 98.046875%, 80.271912%)" fill-opacity="1" d="M 1950.359375 -312.238281 L -313.175781 886.238281 L 885.308594 3149.78125 L 3148.851562 1951.300781 Z M 1950.359375 -312.238281 "/>
<path fill-rule="evenodd" fill="rgb(98.046875%, 98.046875%, 80.46875%)" fill-opacity="1" d="M 1944.238281 -292.339844 L -293.277344 892.359375 L 891.429688 3129.886719 L 3128.949219 1945.179688 Z M 1944.238281 -292.339844 "/>
<path fill-rule="evenodd" fill="rgb(98.046875%, 98.046875%, 80.664062%)" fill-opacity="1" d="M 1938.121094 -272.449219 L -273.382812 898.480469 L 897.546875 3109.988281 L 3109.050781 1939.058594 Z M 1938.121094 -272.449219 "/>
<path fill-rule="evenodd" fill="rgb(98.046875%, 98.046875%, 80.859375%)" fill-opacity="1" d="M 1932 -252.550781 L -253.484375 904.609375 L 903.671875 3090.09375 L 3089.160156 1932.9375 Z M 1932 -252.550781 "/>
<path fill-rule="evenodd" fill="rgb(98.046875%, 98.046875%, 81.054688%)" fill-opacity="1" d="M 1925.878906 -232.648438 L -233.589844 910.730469 L 909.789062 3070.195312 L 3069.261719 1926.816406 Z M 1925.878906 -232.648438 "/>
<path fill-rule="evenodd" fill="rgb(98.046875%, 98.046875%, 81.443787%)" fill-opacity="1" d="M 1919.761719 -212.761719 L -213.691406 916.851562 L 915.910156 3050.300781 L 3049.359375 1920.695312 Z M 1919.761719 -212.761719 "/>
<path fill-rule="evenodd" fill="rgb(98.242188%, 98.242188%, 81.639099%)" fill-opacity="1" d="M 1913.640625 -192.859375 L -193.796875 922.96875 L 922.03125 3030.402344 L 3029.46875 1914.574219 Z M 1913.640625 -192.859375 "/>
<path fill-rule="evenodd" fill="rgb(98.242188%, 98.242188%, 81.834412%)" fill-opacity="1" d="M 1907.519531 -172.960938 L -173.898438 929.089844 L 928.152344 3010.507812 L 3009.570312 1908.453125 Z M 1907.519531 -172.960938 "/>
<path fill-rule="evenodd" fill="rgb(98.242188%, 98.242188%, 82.03125%)" fill-opacity="1" d="M 1901.398438 -153.070312 L -154.003906 935.210938 L 934.273438 2990.609375 L 2989.671875 1902.332031 Z M 1901.398438 -153.070312 "/>
<path fill-rule="evenodd" fill="rgb(98.242188%, 98.242188%, 82.226562%)" fill-opacity="1" d="M 1895.28125 -133.171875 L -134.105469 941.328125 L 940.394531 2970.714844 L 2969.78125 1896.210938 Z M 1895.28125 -133.171875 "/>
<path fill-rule="evenodd" fill="rgb(98.242188%, 98.242188%, 82.421875%)" fill-opacity="1" d="M 1889.148438 -113.269531 L -114.210938 947.449219 L 946.515625 2950.816406 L 2949.878906 1890.089844 Z M 1889.148438 -113.269531 "/>
<path fill-rule="evenodd" fill="rgb(98.242188%, 98.242188%, 82.8125%)" fill-opacity="1" d="M 1883.03125 -93.378906 L -94.3125 953.570312 L 952.636719 2930.917969 L 2929.980469 1883.96875 Z M 1883.03125 -93.378906 "/>
<path fill-rule="evenodd" fill="rgb(98.242188%, 98.242188%, 83.006287%)" fill-opacity="1" d="M 1876.910156 -73.480469 L -74.414062 959.691406 L 958.757812 2911.023438 L 2910.089844 1877.847656 Z M 1876.910156 -73.480469 "/>
<path fill-rule="evenodd" fill="rgb(98.242188%, 98.242188%, 83.201599%)" fill-opacity="1" d="M 1870.789062 -53.578125 L -54.519531 965.820312 L 964.878906 2891.125 L 2890.191406 1871.726562 Z M 1870.789062 -53.578125 "/>
<path fill-rule="evenodd" fill="rgb(98.4375%, 98.4375%, 83.396912%)" fill-opacity="1" d="M 1864.671875 -33.691406 L -34.621094 971.941406 L 971 2871.230469 L 2870.289062 1865.605469 Z M 1864.671875 -33.691406 "/>
<path fill-rule="evenodd" fill="rgb(98.4375%, 98.4375%, 83.59375%)" fill-opacity="1" d="M 1858.550781 -13.789062 L -14.726562 978.058594 L 977.121094 2851.332031 L 2850.398438 1859.484375 Z M 1858.550781 -13.789062 "/>
</g>
<path fill-rule="evenodd" fill="rgb(98.4375%, 98.4375%, 83.789062%)" fill-opacity="1" d="M 1852.429688 6.109375 L 5.171875 984.179688 L 983.242188 2831.4375 L 2830.5 1853.363281 Z M 1852.429688 6.109375 "/>
<path fill-rule="evenodd" fill="rgb(98.4375%, 98.4375%, 84.179688%)" fill-opacity="1" d="M 1846.308594 26 L 25.066406 990.300781 L 989.363281 2811.539062 L 2810.601562 1847.242188 Z M 1846.308594 26 "/>
<path fill-rule="evenodd" fill="rgb(98.4375%, 98.4375%, 84.375%)" fill-opacity="1" d="M 1840.191406 45.898438 L 44.964844 996.421875 L 995.484375 2791.644531 L 2790.710938 1841.121094 Z M 1840.191406 45.898438 "/>
<path fill-rule="evenodd" fill="rgb(98.4375%, 98.4375%, 84.568787%)" fill-opacity="1" d="M 1834.070312 65.800781 L 64.859375 1002.539062 L 1001.609375 2771.746094 L 2770.808594 1835 Z M 1834.070312 65.800781 "/>
<path fill-rule="evenodd" fill="rgb(98.4375%, 98.4375%, 84.764099%)" fill-opacity="1" d="M 1827.941406 85.691406 L 84.757812 1008.660156 L 1007.730469 2751.851562 L 2750.910156 1828.878906 Z M 1827.941406 85.691406 "/>
<path fill-rule="evenodd" fill="rgb(98.4375%, 98.4375%, 84.959412%)" fill-opacity="1" d="M 1821.820312 105.589844 L 104.652344 1014.78125 L 1013.851562 2731.953125 L 2731.019531 1822.761719 Z M 1821.820312 105.589844 "/>
<path fill-rule="evenodd" fill="rgb(98.4375%, 98.4375%, 85.15625%)" fill-opacity="1" d="M 1815.699219 125.488281 L 124.550781 1020.898438 L 1019.96875 2712.058594 L 2711.121094 1816.640625 Z M 1815.699219 125.488281 "/>
<path fill-rule="evenodd" fill="rgb(98.631287%, 98.631287%, 85.546875%)" fill-opacity="1" d="M 1809.578125 145.378906 L 144.445312 1027.03125 L 1026.089844 2692.160156 L 2691.21875 1810.519531 Z M 1809.578125 145.378906 "/>
<path fill-rule="evenodd" fill="rgb(98.631287%, 98.631287%, 85.742188%)" fill-opacity="1" d="M 1803.460938 165.28125 L 164.34375 1033.148438 L 1032.210938 2672.261719 L 2671.328125 1804.398438 Z M 1803.460938 165.28125 "/>
<path fill-rule="evenodd" fill="rgb(98.631287%, 98.631287%, 85.9375%)" fill-opacity="1" d="M 1797.339844 185.179688 L 184.238281 1039.269531 L 1038.328125 2652.367188 L 2651.429688 1798.269531 Z M 1797.339844 185.179688 "/>
<path fill-rule="evenodd" fill="rgb(98.631287%, 98.631287%, 86.131287%)" fill-opacity="1" d="M 1791.21875 205.070312 L 204.136719 1045.390625 L 1044.449219 2632.46875 L 2631.53125 1792.148438 Z M 1791.21875 205.070312 "/>
<path fill-rule="evenodd" fill="rgb(98.631287%, 98.631287%, 86.326599%)" fill-opacity="1" d="M 1785.101562 224.96875 L 224.035156 1051.511719 L 1050.570312 2612.574219 L 2611.640625 1786.03125 Z M 1785.101562 224.96875 "/>
<path fill-rule="evenodd" fill="rgb(98.631287%, 98.631287%, 86.521912%)" fill-opacity="1" d="M 1778.980469 244.871094 L 243.929688 1057.628906 L 1056.691406 2592.675781 L 2591.738281 1779.910156 Z M 1778.980469 244.871094 "/>
<path fill-rule="evenodd" fill="rgb(98.631287%, 98.631287%, 86.914062%)" fill-opacity="1" d="M 1772.859375 264.761719 L 263.828125 1063.75 L 1062.820312 2572.78125 L 2571.839844 1773.789062 Z M 1772.859375 264.761719 "/>
<path fill-rule="evenodd" fill="rgb(98.631287%, 98.631287%, 87.109375%)" fill-opacity="1" d="M 1766.730469 284.660156 L 283.722656 1069.871094 L 1068.941406 2552.882812 L 2551.949219 1767.671875 Z M 1766.730469 284.660156 "/>
<path fill-rule="evenodd" fill="rgb(98.631287%, 98.631287%, 87.304688%)" fill-opacity="1" d="M 1760.609375 304.558594 L 303.621094 1075.988281 L 1075.058594 2532.984375 L 2532.050781 1761.550781 Z M 1760.609375 304.558594 "/>
<path fill-rule="evenodd" fill="rgb(98.826599%, 98.826599%, 87.5%)" fill-opacity="1" d="M 1754.488281 324.449219 L 323.515625 1082.109375 L 1081.179688 2513.089844 L 2512.148438 1755.429688 Z M 1754.488281 324.449219 "/>
<path fill-rule="evenodd" fill="rgb(98.826599%, 98.826599%, 87.693787%)" fill-opacity="1" d="M 1748.371094 344.351562 L 343.414062 1088.238281 L 1087.300781 2493.191406 L 2492.261719 1749.308594 Z M 1748.371094 344.351562 "/>
<path fill-rule="evenodd" fill="rgb(98.826599%, 98.826599%, 87.889099%)" fill-opacity="1" d="M 1742.25 364.25 L 363.3125 1094.359375 L 1093.421875 2473.296875 L 2472.359375 1743.191406 Z M 1742.25 364.25 "/>
<path fill-rule="evenodd" fill="rgb(98.826599%, 98.826599%, 88.084412%)" fill-opacity="1" d="M 1736.128906 384.140625 L 383.207031 1100.480469 L 1099.539062 2453.398438 L 2452.460938 1737.058594 Z M 1736.128906 384.140625 "/>
<path fill-rule="evenodd" fill="rgb(98.826599%, 98.826599%, 88.476562%)" fill-opacity="1" d="M 1730.011719 404.039062 L 403.105469 1106.601562 L 1105.660156 2433.503906 L 2432.570312 1730.941406 Z M 1730.011719 404.039062 "/>
<path fill-rule="evenodd" fill="rgb(98.826599%, 98.826599%, 88.671875%)" fill-opacity="1" d="M 1723.890625 423.941406 L 423 1112.71875 L 1111.78125 2413.605469 L 2412.671875 1724.820312 Z M 1723.890625 423.941406 "/>
<path fill-rule="evenodd" fill="rgb(98.826599%, 98.826599%, 88.867188%)" fill-opacity="1" d="M 1717.769531 443.828125 L 442.898438 1118.839844 L 1117.910156 2393.710938 L 2392.769531 1718.699219 Z M 1717.769531 443.828125 "/>
<path fill-rule="evenodd" fill="rgb(98.826599%, 98.826599%, 89.0625%)" fill-opacity="1" d="M 1711.640625 463.730469 L 462.792969 1124.960938 L 1124.03125 2373.8125 L 2372.878906 1712.578125 Z M 1711.640625 463.730469 "/>
<path fill-rule="evenodd" fill="rgb(99.021912%, 99.021912%, 89.256287%)" fill-opacity="1" d="M 1705.519531 483.628906 L 482.691406 1131.078125 L 1130.148438 2353.914062 L 2352.980469 1706.460938 Z M 1705.519531 483.628906 "/>
<path fill-rule="evenodd" fill="rgb(99.021912%, 99.021912%, 89.451599%)" fill-opacity="1" d="M 1699.398438 503.519531 L 502.585938 1137.199219 L 1136.269531 2334.019531 L 2333.078125 1700.339844 Z M 1699.398438 503.519531 "/>
<path fill-rule="evenodd" fill="rgb(99.021912%, 99.021912%, 89.84375%)" fill-opacity="1" d="M 1693.28125 523.421875 L 522.484375 1143.320312 L 1142.390625 2314.121094 L 2313.191406 1694.21875 Z M 1693.28125 523.421875 "/>
<path fill-rule="evenodd" fill="rgb(99.021912%, 99.021912%, 90.039062%)" fill-opacity="1" d="M 1687.160156 543.320312 L 542.378906 1149.449219 L 1148.511719 2294.226562 L 2293.289062 1688.101562 Z M 1687.160156 543.320312 "/>
<path fill-rule="evenodd" fill="rgb(99.021912%, 99.021912%, 90.234375%)" fill-opacity="1" d="M 1681.039062 563.210938 L 562.277344 1155.570312 L 1154.628906 2274.328125 L 2273.390625 1681.980469 Z M 1681.039062 563.210938 "/>
<path fill-rule="evenodd" fill="rgb(99.021912%, 99.021912%, 90.429688%)" fill-opacity="1" d="M 1674.921875 583.109375 L 582.175781 1161.691406 L 1160.75 2254.433594 L 2253.5 1675.851562 Z M 1674.921875 583.109375 "/>
<path fill-rule="evenodd" fill="rgb(99.021912%, 99.021912%, 90.625%)" fill-opacity="1" d="M 1668.800781 603.011719 L 602.070312 1167.808594 L 1166.871094 2234.535156 L 2233.601562 1669.730469 Z M 1668.800781 603.011719 "/>
<path fill-rule="evenodd" fill="rgb(99.021912%, 99.021912%, 90.818787%)" fill-opacity="1" d="M 1662.679688 622.898438 L 621.96875 1173.929688 L 1172.988281 2214.640625 L 2213.699219 1663.609375 Z M 1662.679688 622.898438 "/>
<path fill-rule="evenodd" fill="rgb(99.021912%, 99.021912%, 91.209412%)" fill-opacity="1" d="M 1656.558594 642.800781 L 641.863281 1180.050781 L 1179.121094 2194.742188 L 2193.808594 1657.488281 Z M 1656.558594 642.800781 "/>
<path fill-rule="evenodd" fill="rgb(99.21875%, 99.21875%, 91.40625%)" fill-opacity="1" d="M 1650.429688 662.699219 L 661.761719 1186.171875 L 1185.238281 2174.847656 L 2173.910156 1651.371094 Z M 1650.429688 662.699219 "/>
<path fill-rule="evenodd" fill="rgb(99.21875%, 99.21875%, 91.601562%)" fill-opacity="1" d="M 1644.308594 682.589844 L 681.65625 1192.289062 L 1191.359375 2154.949219 L 2154.011719 1645.25 Z M 1644.308594 682.589844 "/>
<path fill-rule="evenodd" fill="rgb(99.21875%, 99.21875%, 91.796875%)" fill-opacity="1" d="M 1638.191406 702.488281 L 701.554688 1198.410156 L 1197.480469 2135.054688 L 2134.121094 1639.128906 Z M 1638.191406 702.488281 "/>
<path fill-rule="evenodd" fill="rgb(99.21875%, 99.21875%, 91.992188%)" fill-opacity="1" d="M 1632.070312 722.390625 L 721.449219 1204.539062 L 1203.601562 2115.15625 L 2114.21875 1633.011719 Z M 1632.070312 722.390625 "/>
<path fill-rule="evenodd" fill="rgb(99.21875%, 99.21875%, 92.1875%)" fill-opacity="1" d="M 1625.949219 742.28125 L 741.347656 1210.660156 L 1209.71875 2095.257812 L 2094.320312 1626.890625 Z M 1625.949219 742.28125 "/>
<path fill-rule="evenodd" fill="rgb(99.21875%, 99.21875%, 92.576599%)" fill-opacity="1" d="M 1619.828125 762.179688 L 761.242188 1216.78125 L 1215.839844 2075.363281 L 2074.429688 1620.769531 Z M 1619.828125 762.179688 "/>
<path fill-rule="evenodd" fill="rgb(99.21875%, 99.21875%, 92.771912%)" fill-opacity="1" d="M 1613.710938 782.078125 L 781.140625 1222.898438 L 1221.960938 2055.464844 L 2054.53125 1614.640625 Z M 1613.710938 782.078125 "/>
<path fill-rule="evenodd" fill="rgb(99.21875%, 99.21875%, 92.96875%)" fill-opacity="1" d="M 1607.589844 801.96875 L 801.039062 1229.019531 L 1228.078125 2035.570312 L 2034.628906 1608.519531 Z M 1607.589844 801.96875 "/>
<path fill-rule="evenodd" fill="rgb(99.414062%, 99.414062%, 93.164062%)" fill-opacity="1" d="M 1601.46875 821.871094 L 820.933594 1235.140625 L 1234.199219 2015.671875 L 2014.738281 1602.398438 Z M 1601.46875 821.871094 "/>
<path fill-rule="evenodd" fill="rgb(99.414062%, 99.414062%, 93.359375%)" fill-opacity="1" d="M 1595.351562 841.769531 L 840.832031 1241.261719 L 1240.328125 1995.777344 L 1994.839844 1596.28125 Z M 1595.351562 841.769531 "/>
<path fill-rule="evenodd" fill="rgb(99.414062%, 99.414062%, 93.554688%)" fill-opacity="1" d="M 1589.21875 861.660156 L 860.726562 1247.378906 L 1246.449219 1975.878906 L 1974.941406 1590.160156 Z M 1589.21875 861.660156 "/>
<path fill-rule="evenodd" fill="rgb(99.414062%, 99.414062%, 93.943787%)" fill-opacity="1" d="M 1583.101562 881.558594 L 880.625 1253.5 L 1252.570312 1955.980469 L 1955.050781 1584.039062 Z M 1583.101562 881.558594 "/>
<path fill-rule="evenodd" fill="rgb(99.414062%, 99.414062%, 94.139099%)" fill-opacity="1" d="M 1576.980469 901.460938 L 900.519531 1259.621094 L 1258.691406 1936.085938 L 1935.148438 1577.921875 Z M 1576.980469 901.460938 "/>
<path fill-rule="evenodd" fill="rgb(99.414062%, 99.414062%, 94.334412%)" fill-opacity="1" d="M 1570.859375 921.351562 L 920.417969 1265.75 L 1264.808594 1916.1875 L 1915.25 1571.800781 Z M 1570.859375 921.351562 "/>
<path fill-rule="evenodd" fill="rgb(99.414062%, 99.414062%, 94.53125%)" fill-opacity="1" d="M 1564.738281 941.25 L 940.3125 1271.871094 L 1270.929688 1896.292969 L 1895.359375 1565.679688 Z M 1564.738281 941.25 "/>
<path fill-rule="evenodd" fill="rgb(99.414062%, 99.414062%, 94.726562%)" fill-opacity="1" d="M 1558.621094 961.148438 L 960.210938 1277.988281 L 1277.050781 1876.394531 L 1875.460938 1559.558594 Z M 1558.621094 961.148438 "/>
<path fill-rule="evenodd" fill="rgb(99.414062%, 99.414062%, 94.921875%)" fill-opacity="1" d="M 1552.5 981.039062 L 980.109375 1284.109375 L 1283.171875 1856.5 L 1855.558594 1553.429688 Z M 1552.5 981.039062 "/>
<path fill-rule="evenodd" fill="rgb(99.609375%, 99.609375%, 95.3125%)" fill-opacity="1" d="M 1546.378906 1000.941406 L 1000 1290.230469 L 1289.289062 1836.601562 L 1835.671875 1547.308594 Z M 1546.378906 1000.941406 "/>
<path fill-rule="evenodd" fill="rgb(99.609375%, 99.609375%, 95.506287%)" fill-opacity="1" d="M 1540.261719 1020.839844 L 1019.898438 1296.351562 L 1295.410156 1816.710938 L 1815.769531 1541.191406 Z M 1540.261719 1020.839844 "/>
<path fill-rule="evenodd" fill="rgb(99.609375%, 99.609375%, 95.701599%)" fill-opacity="1" d="M 1534.140625 1040.730469 L 1039.800781 1302.46875 L 1301.539062 1796.808594 L 1795.871094 1535.070312 Z M 1534.140625 1040.730469 "/>
<path fill-rule="evenodd" fill="rgb(99.609375%, 99.609375%, 95.896912%)" fill-opacity="1" d="M 1528.011719 1060.628906 L 1059.691406 1308.589844 L 1307.660156 1776.910156 L 1775.980469 1528.949219 Z M 1528.011719 1060.628906 "/>
<path fill-rule="evenodd" fill="rgb(99.609375%, 99.609375%, 96.09375%)" fill-opacity="1" d="M 1521.890625 1080.53125 L 1079.589844 1314.710938 L 1313.78125 1757.019531 L 1756.078125 1522.828125 Z M 1521.890625 1080.53125 "/>
<path fill-rule="evenodd" fill="rgb(99.609375%, 99.609375%, 96.289062%)" fill-opacity="1" d="M 1515.769531 1100.421875 L 1099.488281 1320.828125 L 1319.898438 1737.121094 L 1736.179688 1516.710938 Z M 1515.769531 1100.421875 "/>
<path fill-rule="evenodd" fill="rgb(99.609375%, 99.609375%, 96.679688%)" fill-opacity="1" d="M 1509.648438 1120.320312 L 1119.378906 1326.960938 L 1326.019531 1717.21875 L 1716.289062 1510.589844 Z M 1509.648438 1120.320312 "/>
<path fill-rule="evenodd" fill="rgb(99.609375%, 99.609375%, 96.875%)" fill-opacity="1" d="M 1503.53125 1140.21875 L 1139.28125 1333.078125 L 1332.140625 1697.328125 L 1696.390625 1504.46875 Z M 1503.53125 1140.21875 "/>
<path fill-rule="evenodd" fill="rgb(99.609375%, 99.609375%, 97.068787%)" fill-opacity="1" d="M 1497.410156 1160.109375 L 1159.179688 1339.199219 L 1338.261719 1677.429688 L 1676.488281 1498.339844 Z M 1497.410156 1160.109375 "/>
<path fill-rule="evenodd" fill="rgb(99.804688%, 99.804688%, 97.264099%)" fill-opacity="1" d="M 1491.289062 1180.011719 L 1179.070312 1345.320312 L 1344.378906 1657.53125 L 1656.601562 1492.21875 Z M 1491.289062 1180.011719 "/>
<path fill-rule="evenodd" fill="rgb(99.804688%, 99.804688%, 97.459412%)" fill-opacity="1" d="M 1485.171875 1199.910156 L 1198.96875 1351.441406 L 1350.5 1637.640625 L 1636.699219 1486.101562 Z M 1485.171875 1199.910156 "/>
<path fill-rule="evenodd" fill="rgb(99.804688%, 99.804688%, 97.65625%)" fill-opacity="1" d="M 1479.050781 1219.800781 L 1218.871094 1357.558594 L 1356.628906 1617.738281 L 1616.800781 1479.980469 Z M 1479.050781 1219.800781 "/>
<path fill-rule="evenodd" fill="rgb(99.804688%, 99.804688%, 98.046875%)" fill-opacity="1" d="M 1472.929688 1239.699219 L 1238.761719 1363.679688 L 1362.75 1597.839844 L 1596.910156 1473.859375 Z M 1472.929688 1239.699219 "/>
<path fill-rule="evenodd" fill="rgb(99.804688%, 99.804688%, 98.242188%)" fill-opacity="1" d="M 1466.800781 1259.601562 L 1258.660156 1369.800781 L 1368.871094 1577.949219 L 1577.011719 1467.738281 Z M 1466.800781 1259.601562 "/>
<path fill-rule="evenodd" fill="rgb(99.804688%, 99.804688%, 98.4375%)" fill-opacity="1" d="M 1460.679688 1279.488281 L 1278.558594 1375.921875 L 1374.988281 1558.050781 L 1557.109375 1461.621094 Z M 1460.679688 1279.488281 "/>
<path fill-rule="evenodd" fill="rgb(99.804688%, 99.804688%, 98.631287%)" fill-opacity="1" d="M 1454.558594 1299.390625 L 1298.449219 1382.039062 L 1381.109375 1538.148438 L 1537.21875 1455.5 Z M 1454.558594 1299.390625 "/>
<path fill-rule="evenodd" fill="rgb(99.804688%, 99.804688%, 98.826599%)" fill-opacity="1" d="M 1448.441406 1319.289062 L 1318.351562 1388.171875 L 1387.230469 1518.261719 L 1517.320312 1449.378906 Z M 1448.441406 1319.289062 "/>
<path fill-rule="evenodd" fill="rgb(100%, 100%, 99.021912%)" fill-opacity="1" d="M 1442.320312 1339.179688 L 1338.25 1394.289062 L 1393.351562 1498.359375 L 1497.421875 1443.261719 Z M 1442.320312 1339.179688 "/>
<path fill-rule="evenodd" fill="rgb(100%, 100%, 99.414062%)" fill-opacity="1" d="M 1436.199219 1359.078125 L 1358.140625 1400.410156 L 1399.46875 1478.460938 L 1477.53125 1437.128906 Z M 1436.199219 1359.078125 "/>
<path fill-rule="evenodd" fill="rgb(100%, 100%, 99.609375%)" fill-opacity="1" d="M 1430.078125 1378.980469 L 1378.039062 1406.53125 L 1405.589844 1458.570312 L 1457.628906 1431.011719 Z M 1430.078125 1378.980469 "/>
<path fill-rule="evenodd" fill="rgb(100%, 100%, 99.804688%)" fill-opacity="1" d="M 1423.960938 1398.871094 L 1397.941406 1412.648438 L 1411.710938 1438.671875 L 1437.730469 1424.890625 Z M 1423.960938 1398.871094 "/>
<path fill-rule="nonzero" fill="rgb(84.959412%, 56.054688%, 46.99707%)" fill-opacity="1" d="M 738.398438 1002.480469 C 738.398438 1002.480469 957.066406 983.738281 1065.359375 1106.609375 C 1065.359375 1106.609375 1167.398438 900.441406 994.550781 819.21875 C 994.550781 819.21875 827.953125 765.078125 738.398438 1002.480469 "/>
<path fill="none" stroke-width="92.1841" stroke-linecap="round" stroke-linejoin="round" stroke="rgb(15.989685%, 14.988708%, 14.988708%)" stroke-opacity="1" stroke-miterlimit="4" d="M 7383.984375 18345.195312 C 7383.984375 18345.195312 9570.664062 18532.617188 10653.59375 17303.90625 C 10653.59375 17303.90625 11673.984375 19365.585938 9945.507812 20177.8125 C 9945.507812 20177.8125 8279.53125 20719.21875 7383.984375 18345.195312 Z M 7383.984375 18345.195312 " transform="matrix(0.1, 0, 0, -0.1, 0, 2837)"/>
<path fill-rule="nonzero" fill="rgb(84.959412%, 56.054688%, 46.99707%)" fill-opacity="1" d="M 1621.390625 1183.671875 C 1642.210938 1079.539062 1608.058594 1040.851562 1608.058594 1040.851562 L 1604.730469 896.28125 L 1580.078125 884.058594 C 1566.621094 902.941406 1554.75 927.511719 1554.75 927.511719 C 1563.078125 1031.640625 1473.539062 1202.410156 1473.539062 1202.410156 C 1415.21875 1071.210938 1304.851562 1014.980469 1206.96875 879.621094 C 1140.679688 787.941406 1154.628906 717.289062 1170.539062 681.230469 L 1163.238281 677.609375 C 1163.238281 677.609375 994.605469 721.089844 940.089844 814.378906 C 972.472656 812.058594 994.550781 819.21875 994.550781 819.21875 C 1167.398438 900.441406 1065.359375 1106.609375 1065.359375 1106.609375 C 1061.261719 1101.960938 1056.980469 1097.539062 1052.578125 1093.28125 C 1037.410156 1122.441406 1000.261719 1206.699219 990.386719 1348.191406 C 984.894531 1426.859375 986.640625 1494.679688 990.324219 1546 C 1030.601562 1542.671875 1092.789062 1534.191406 1163.238281 1512.699219 C 1286.101562 1475.21875 1488.109375 1423.160156 1561.011719 1421.070312 C 1633.878906 1418.988281 1744.261719 1437.730469 1790.078125 1481.46875 C 1790.078125 1481.46875 1760.921875 1248.21875 1621.390625 1183.671875 "/>
<path fill="none" stroke-width="92.1841" stroke-linecap="round" stroke-linejoin="round" stroke="rgb(15.989685%, 14.988708%, 14.988708%)" stroke-opacity="1" stroke-miterlimit="4" d="M 16213.90625 16533.28125 C 16422.109375 17574.609375 16080.585938 17961.484375 16080.585938 17961.484375 L 16047.304688 19407.1875 L 15800.78125 19529.414062 C 15666.210938 19340.585938 15547.5 19094.882812 15547.5 19094.882812 C 15630.78125 18053.59375 14735.390625 16345.898438 14735.390625 16345.898438 C 14152.1875 17657.890625 13048.515625 18220.195312 12069.6875 19573.789062 C 11406.796875 20490.585938 11546.289062 21197.109375 11705.390625 21557.695312 L 11632.382812 21593.90625 C 11632.382812 21593.90625 9946.054688 21159.101562 9400.898438 20226.210938 C 9724.726562 20249.414062 9945.507812 20177.8125 9945.507812 20177.8125 C 11673.984375 19365.585938 10653.59375 17303.90625 10653.59375 17303.90625 C 10612.617188 17350.390625 10569.804688 17394.609375 10525.78125 17437.1875 C 10374.101562 17145.585938 10002.617188 16303.007812 9903.867188 14888.085938 C 9848.945312 14101.40625 9866.40625 13423.203125 9903.242188 12910 C 10306.015625 12943.28125 10927.890625 13028.085938 11632.382812 13243.007812 C 12861.015625 13617.8125 14881.09375 14138.398438 15610.117188 14159.296875 C 16338.789062 14180.117188 17442.617188 13992.695312 17900.78125 13555.3125 C 17900.78125 13555.3125 17609.21875 15887.8125 16213.90625 16533.28125 Z M 16213.90625 16533.28125 " transform="matrix(0.1, 0, 0, -0.1, 0, 2837)"/>
<path fill-rule="nonzero" fill="rgb(93.943787%, 82.03125%, 12.988281%)" fill-opacity="1" d="M 1002.878906 1650.160156 C 1002.878906 1650.160156 977.886719 1527.28125 990.386719 1348.191406 C 1000.261719 1206.691406 1037.410156 1122.429688 1052.578125 1093.28125 C 964.125 1007.71875 818.949219 1000.710938 762.195312 1001.519531 C 742.980469 1054.328125 693.382812 1201.058594 696.746094 1300.289062 C 700.914062 1423.160156 800.875 1662.648438 800.875 1662.648438 C 800.875 1662.648438 765.472656 1700.128906 788.382812 1775.109375 L 782.132812 1798.019531 L 730.070312 1862.574219 C 730.070312 1862.574219 719.65625 1881.3125 742.5625 1902.140625 C 765.472656 1922.96875 780.050781 1902.140625 780.050781 1902.140625 L 857.105469 1823 L 784.214844 1908.390625 C 784.214844 1908.390625 752.980469 1952.117188 836.277344 1933.382812 C 836.277344 1933.382812 886.257812 1902.148438 917.496094 1845.914062 C 917.496094 1845.914062 929.992188 1848 917.496094 1877.152344 L 892.507812 1925.054688 C 892.507812 1925.054688 875.847656 1947.953125 896.671875 1960.449219 C 917.496094 1972.945312 959.144531 1943.792969 959.144531 1943.792969 C 959.144531 1943.792969 1032.03125 1864.652344 1019.539062 1760.53125 C 1007.050781 1656.398438 1002.878906 1650.160156 1002.878906 1650.160156 "/>
<path fill="none" stroke-width="92.1841" stroke-linecap="round" stroke-linejoin="round" stroke="rgb(15.989685%, 14.988708%, 14.988708%)" stroke-opacity="1" stroke-miterlimit="4" d="M 10028.789062 11868.398438 C 10028.789062 11868.398438 9778.867188 13097.1875 9903.867188 14888.085938 C 10002.617188 16303.085938 10374.101562 17145.703125 10525.78125 17437.1875 C 9641.25 18292.8125 8189.492188 18362.890625 7621.953125 18354.804688 C 7429.804688 17826.71875 6933.828125 16359.414062 6967.460938 15367.109375 C 7009.140625 14138.398438 8008.75 11743.515625 8008.75 11743.515625 C 8008.75 11743.515625 7654.726562 11368.710938 7883.828125 10618.90625 L 7821.328125 10389.804688 L 7300.703125 9744.257812 C 7300.703125 9744.257812 7196.5625 9556.875 7425.625 9348.59375 C 7654.726562 9140.3125 7800.507812 9348.59375 7800.507812 9348.59375 L 8571.054688 10140 L 7842.148438 9286.09375 C 7842.148438 9286.09375 7529.804688 8848.828125 8362.773438 9036.171875 C 8362.773438 9036.171875 8862.578125 9348.515625 9174.960938 9910.859375 C 9174.960938 9910.859375 9299.921875 9890 9174.960938 9598.476562 L 8925.078125 9119.453125 C 8925.078125 9119.453125 8758.476562 8890.46875 8966.71875 8765.507812 C 9174.960938 8640.546875 9591.445312 8932.070312 9591.445312 8932.070312 C 9591.445312 8932.070312 10320.3125 9723.476562 10195.390625 10764.6875 C 10070.507812 11806.015625 10028.789062 11868.398438 10028.789062 11868.398438 Z M 10028.789062 11868.398438 " transform="matrix(0.1, 0, 0, -0.1, 0, 2837)"/>
<path fill-rule="nonzero" fill="rgb(84.959412%, 56.054688%, 46.99707%)" fill-opacity="1" d="M 1206.96875 879.621094 C 1129.640625 772.671875 1161.5 694.339844 1178.28125 666.160156 L 1171.570312 660.949219 C 1171.570312 660.949219 1019.539062 808.808594 1192.390625 1064.960938 C 1192.390625 1064.960938 1206.921875 1016.128906 1326.921875 1014.558594 C 1287.710938 975.691406 1246.339844 934.058594 1206.96875 879.621094 "/>
<path fill="none" stroke-width="92.1841" stroke-linecap="round" stroke-linejoin="round" stroke="rgb(15.989685%, 14.988708%, 14.988708%)" stroke-opacity="1" stroke-miterlimit="4" d="M 12069.6875 19573.789062 C 11296.40625 20643.28125 11615 21426.601562 11782.8125 21708.398438 L 11715.703125 21760.507812 C 11715.703125 21760.507812 10195.390625 20281.914062 11923.90625 17720.390625 C 11923.90625 17720.390625 12069.21875 18208.710938 13269.21875 18224.414062 C 12877.109375 18613.085938 12463.398438 19029.414062 12069.6875 19573.789062 Z M 12069.6875 19573.789062 " transform="matrix(0.1, 0, 0, -0.1, 0, 2837)"/>
<path fill-rule="nonzero" fill="rgb(84.959412%, 56.054688%, 46.99707%)" fill-opacity="1" d="M 1622.558594 1076.839844 C 1654.710938 1059.109375 1722.460938 1024.941406 1738.011719 1042.050781 C 1738.011719 1042.050781 1688.039062 915.019531 1604.730469 896.28125 L 1608.058594 1040.851562 C 1614.011719 1048.730469 1618.148438 1061.339844 1622.558594 1076.839844 "/>
<path fill="none" stroke-width="92.1841" stroke-linecap="round" stroke-linejoin="round" stroke="rgb(15.989685%, 14.988708%, 14.988708%)" stroke-opacity="1" stroke-miterlimit="4" d="M 16225.585938 17601.601562 C 16547.109375 17778.90625 17224.609375 18120.585938 17380.117188 17949.492188 C 17380.117188 17949.492188 16880.390625 19219.804688 16047.304688 19407.1875 L 16080.585938 17961.484375 C 16140.117188 17882.695312 16181.484375 17756.601562 16225.585938 17601.601562 Z M 16225.585938 17601.601562 " transform="matrix(0.1, 0, 0, -0.1, 0, 2837)"/>
<path fill-rule="nonzero" fill="rgb(84.959412%, 56.054688%, 46.99707%)" fill-opacity="1" d="M 1642.210938 1039.96875 C 1632.75 987.949219 1594.691406 919.269531 1576.71875 888.929688 C 1564.710938 906.898438 1554.75 927.511719 1554.75 927.511719 C 1557.101562 956.941406 1551.640625 991.699219 1542.589844 1026.410156 C 1586.71875 1023.660156 1642.210938 1039.96875 1642.210938 1039.96875 "/>
<path fill="none" stroke-width="92.1841" stroke-linecap="round" stroke-linejoin="round" stroke="rgb(15.989685%, 14.988708%, 14.988708%)" stroke-opacity="1" stroke-miterlimit="4" d="M 16422.109375 17970.3125 C 16327.5 18490.507812 15946.914062 19177.304688 15767.1875 19480.703125 C 15647.109375 19301.015625 15547.5 19094.882812 15547.5 19094.882812 C 15571.015625 18800.585938 15516.40625 18453.007812 15425.898438 18105.898438 C 15867.1875 18133.398438 16422.109375 17970.3125 16422.109375 17970.3125 Z M 16422.109375 17970.3125 " transform="matrix(0.1, 0, 0, -0.1, 0, 2837)"/>
<path fill-rule="nonzero" fill="rgb(93.943787%, 82.03125%, 12.988281%)" fill-opacity="1" d="M 1775.488281 740.089844 C 1775.488281 740.089844 1823.390625 658.871094 1727.601562 658.871094 L 1770.660156 598.238281 C 1770.660156 598.238281 1820.210938 569.839844 1755.648438 536.519531 L 1714.839844 519.941406 C 1721.199219 528.160156 1725.238281 533.789062 1725.238281 533.789062 C 1713.988281 518.800781 1684 500.058594 1639.03125 511.300781 C 1594.050781 522.550781 1541.570312 481.320312 1541.570312 481.320312 L 1521.109375 477.078125 C 1512.46875 493.421875 1473.269531 566.28125 1466.601562 556.289062 C 1459.109375 545.039062 1481.589844 496.308594 1481.589844 496.308594 L 1455.359375 515.050781 L 1466.601562 481.320312 C 1421.621094 503.808594 1369.140625 620.011719 1369.140625 620.011719 C 1363.660156 610.410156 1362.699219 593.78125 1363.671875 576.558594 L 1331.660156 605.011719 L 1322.601562 609.738281 C 1316.820312 600.140625 1304.769531 589.191406 1279.859375 590.140625 C 1242.921875 591.558594 1236.128906 648.460938 1236.128906 648.460938 C 1236.128906 648.460938 1235.78125 649.828125 1235.441406 652.121094 C 1216.71875 658.910156 1192.96875 679.980469 1192.96875 679.980469 L 1200.46875 642.5 L 1181.96875 650.199219 C 1173.339844 661.300781 1114.71875 746.109375 1203.789062 873.890625 C 1293.289062 1002.300781 1415.21875 1071.210938 1473.539062 1202.410156 C 1473.539062 1202.410156 1563.460938 1033.191406 1555.140625 929.058594 C 1555.140625 929.058594 1584.359375 865.820312 1603.101562 861.648438 C 1603.101562 861.648438 1635.980469 858.789062 1625.558594 827.550781 C 1625.558594 827.550781 1725.660156 880.109375 1826.46875 840.570312 C 1901.410156 811.179688 1775.488281 740.089844 1775.488281 740.089844 "/>
<path fill="none" stroke-width="92.1841" stroke-linecap="round" stroke-linejoin="round" stroke="rgb(15.989685%, 14.988708%, 14.988708%)" stroke-opacity="1" stroke-miterlimit="4" d="M 16390 24781.71875 C 16436.40625 24789.6875 16465.3125 24793.789062 16465.3125 24793.789062 C 16441.601562 24798.515625 16416.289062 24793.710938 16390 24781.71875 Z M 17754.882812 20969.101562 C 17754.882812 20969.101562 18233.90625 21781.289062 17276.015625 21781.289062 L 17706.601562 22387.617188 C 17706.601562 22387.617188 18202.109375 22671.601562 17556.484375 23004.804688 L 17148.398438 23170.585938 C 17211.992188 23088.398438 17252.382812 23032.109375 17252.382812 23032.109375 C 17139.882812 23181.992188 16840 23369.414062 16390.3125 23256.992188 C 15940.507812 23144.492188 15415.703125 23556.796875 15415.703125 23556.796875 L 15211.09375 23599.21875 C 15124.6875 23435.78125 14732.695312 22707.1875 14666.015625 22807.109375 C 14591.09375 22919.609375 14815.898438 23406.914062 14815.898438 23406.914062 L 14553.59375 23219.492188 L 14666.015625 23556.796875 C 14216.210938 23331.914062 13691.40625 22169.882812 13691.40625 22169.882812 C 13636.601562 22265.898438 13626.992188 22432.1875 13636.71875 22604.414062 L 13316.601562 22319.882812 L 13226.015625 22272.617188 C 13168.203125 22368.59375 13047.695312 22478.085938 12798.59375 22468.59375 C 12429.21875 22454.414062 12361.289062 21885.390625 12361.289062 21885.390625 C 12361.289062 21885.390625 12357.8125 21871.71875 12354.414062 21848.789062 C 12167.1875 21780.898438 11929.6875 21570.195312 11929.6875 21570.195312 L 12004.6875 21945 L 11819.6875 21868.007812 C 11733.398438 21756.992188 11147.1875 20908.90625 12037.890625 19631.09375 C 12932.890625 18346.992188 14152.1875 17657.890625 14735.390625 16345.898438 C 14735.390625 16345.898438 15634.609375 18038.085938 15551.40625 19079.414062 C 15551.40625 19079.414062 15843.59375 19711.796875 16031.015625 19753.515625 C 16031.015625 19753.515625 16359.804688 19782.109375 16255.585938 20094.492188 C 16255.585938 20094.492188 17256.601562 19568.90625 18264.6875 19964.296875 C 19014.101562 20258.203125 17754.882812 20969.101562 17754.882812 20969.101562 Z M 17754.882812 20969.101562 " transform="matrix(0.1, 0, 0, -0.1, 0, 2837)"/>
<path fill-rule="nonzero" fill="rgb(50%, 23.997498%, 17.993164%)" fill-opacity="1" d="M 1642.769531 455.078125 C 1642.769531 455.078125 1657.769531 421.339844 1691.511719 432.589844 C 1691.511719 432.589844 1642.769531 380.109375 1597.789062 410.101562 C 1597.789062 410.101562 1620.699219 367.140625 1639 358.828125 C 1619.308594 362.191406 1567.808594 372.441406 1567.808594 387.609375 C 1567.808594 387.609375 1515.328125 365.121094 1496.589844 376.359375 C 1496.589844 376.359375 1526.570312 398.851562 1526.570312 417.601562 C 1526.570312 417.601562 1425.371094 357.621094 1376.640625 383.859375 L 1440.359375 425.089844 C 1440.359375 425.089844 1372.890625 413.851562 1354.148438 440.078125 C 1354.148438 440.078125 1305.421875 361.371094 1260.441406 383.859375 L 1290.429688 421.339844 L 1237.949219 436.339844 C 1237.949219 436.339844 1286.679688 455.078125 1294.179688 481.320312 C 1294.179688 481.320312 1215.460938 522.550781 1204.210938 552.539062 L 1252.941406 545.039062 C 1252.941406 545.039062 1162.980469 605.011719 1155.480469 661.238281 L 1200.46875 642.5 L 1192.96875 679.980469 C 1192.96875 679.980469 1216.71875 658.910156 1235.441406 652.121094 C 1235.78125 649.828125 1236.128906 648.460938 1236.128906 648.460938 C 1236.128906 648.460938 1242.921875 591.558594 1279.859375 590.140625 C 1304.769531 589.191406 1316.820312 600.140625 1322.601562 609.738281 L 1331.660156 605.011719 L 1363.671875 576.558594 C 1362.699219 593.78125 1363.660156 610.410156 1369.140625 620.011719 C 1369.140625 620.011719 1421.621094 503.808594 1466.601562 481.320312 L 1455.359375 515.050781 L 1481.589844 496.308594 C 1481.589844 496.308594 1459.109375 545.039062 1466.601562 556.289062 C 1473.269531 566.28125 1512.46875 493.421875 1521.109375 477.078125 L 1541.570312 481.320312 C 1541.570312 481.320312 1594.050781 522.550781 1639.03125 511.300781 C 1684 500.058594 1713.988281 518.800781 1725.238281 533.789062 C 1725.238281 533.789062 1669.019531 455.078125 1642.769531 455.078125 "/>
<path fill="none" stroke-width="92.1841" stroke-linecap="round" stroke-linejoin="round" stroke="rgb(15.989685%, 14.988708%, 14.988708%)" stroke-opacity="1" stroke-miterlimit="4" d="M 16427.695312 23819.21875 C 16427.695312 23819.21875 16577.695312 24156.601562 16915.117188 24044.101562 C 16915.117188 24044.101562 16427.695312 24568.90625 15977.890625 24268.984375 C 15977.890625 24268.984375 16206.992188 24698.59375 16390 24781.71875 C 16193.085938 24748.085938 15678.085938 24645.585938 15678.085938 24493.90625 C 15678.085938 24493.90625 15153.28125 24718.789062 14965.898438 24606.40625 C 14965.898438 24606.40625 15265.703125 24381.484375 15265.703125 24193.984375 C 15265.703125 24193.984375 14253.710938 24793.789062 13766.40625 24531.40625 L 14403.59375 24119.101562 C 14403.59375 24119.101562 13728.90625 24231.484375 13541.484375 23969.21875 C 13541.484375 23969.21875 13054.21875 24756.289062 12604.414062 24531.40625 L 12904.296875 24156.601562 L 12379.492188 24006.601562 C 12379.492188 24006.601562 12866.796875 23819.21875 12941.796875 23556.796875 C 12941.796875 23556.796875 12154.609375 23144.492188 12042.109375 22844.609375 L 12529.414062 22919.609375 C 12529.414062 22919.609375 11629.804688 22319.882812 11554.804688 21757.617188 L 12004.6875 21945 L 11929.6875 21570.195312 C 11929.6875 21570.195312 12167.1875 21780.898438 12354.414062 21848.789062 C 12357.8125 21871.71875 12361.289062 21885.390625 12361.289062 21885.390625 C 12361.289062 21885.390625 12429.21875 22454.414062 12798.59375 22468.59375 C 13047.695312 22478.085938 13168.203125 22368.59375 13226.015625 22272.617188 L 13316.601562 22319.882812 L 13636.71875 22604.414062 C 13626.992188 22432.1875 13636.601562 22265.898438 13691.40625 22169.882812 C 13691.40625 22169.882812 14216.210938 23331.914062 14666.015625 23556.796875 L 14553.59375 23219.492188 L 14815.898438 23406.914062 C 14815.898438 23406.914062 14591.09375 22919.609375 14666.015625 22807.109375 C 14732.695312 22707.1875 15124.6875 23435.78125 15211.09375 23599.21875 L 15415.703125 23556.796875 C 15415.703125 23556.796875 15940.507812 23144.492188 16390.3125 23256.992188 C 16840 23369.414062 17139.882812 23181.992188 17252.382812 23032.109375 C 17252.382812 23032.109375 16690.195312 23819.21875 16427.695312 23819.21875 Z M 16427.695312 23819.21875 " transform="matrix(0.1, 0, 0, -0.1, 0, 2837)"/>
<path fill-rule="nonzero" fill="rgb(93.943787%, 82.03125%, 12.988281%)" fill-opacity="1" d="M 1561.011719 1421.070312 C 1488.109375 1423.160156 1286.101562 1475.21875 1163.238281 1512.699219 C 1151.941406 1516.148438 1140.890625 1519.21875 1130.078125 1522.03125 C 1212 1538.820312 1398.738281 1569.730469 1548.5 1539.78125 C 1690.070312 1511.46875 1746.308594 1479.960938 1766.871094 1464.328125 C 1713.589844 1432.839844 1623.519531 1419.289062 1561.011719 1421.070312 "/>
<path fill="none" stroke-width="92.1841" stroke-linecap="round" stroke-linejoin="round" stroke="rgb(15.989685%, 14.988708%, 14.988708%)" stroke-opacity="1" stroke-miterlimit="4" d="M 15610.117188 14159.296875 C 14881.09375 14138.398438 12861.015625 13617.8125 11632.382812 13243.007812 C 11519.414062 13208.515625 11408.90625 13177.8125 11300.78125 13149.6875 C 12120 12981.796875 13987.382812 12672.695312 15485 12972.1875 C 16900.703125 13255.3125 17463.085938 13570.390625 17668.710938 13726.71875 C 17135.898438 14041.601562 16235.195312 14177.109375 15610.117188 14159.296875 Z M 15610.117188 14159.296875 " transform="matrix(0.1, 0, 0, -0.1, 0, 2837)"/>
<path fill-rule="nonzero" fill="rgb(32.00531%, 18.992615%, 51.951599%)" fill-opacity="1" d="M 1145.171875 1517.960938 C 1145.851562 1517.769531 1146.519531 1517.589844 1147.199219 1517.390625 C 1146.519531 1517.589844 1145.851562 1517.769531 1145.171875 1517.960938 "/>
<path fill="none" stroke-width="92.1841" stroke-linecap="round" stroke-linejoin="round" stroke="rgb(15.989685%, 14.988708%, 14.988708%)" stroke-opacity="1" stroke-miterlimit="4" d="M 11451.71875 13190.390625 C 11458.515625 13192.304688 11465.195312 13194.101562 11471.992188 13196.09375 C 11465.195312 13194.101562 11458.515625 13192.304688 11451.71875 13190.390625 Z M 11451.71875 13190.390625 " transform="matrix(0.1, 0, 0, -0.1, 0, 2837)"/>
<path fill-rule="nonzero" fill="rgb(32.00531%, 18.992615%, 51.951599%)" fill-opacity="1" d="M 990.324219 1546 C 990.324219 1545.988281 990.320312 1545.980469 990.320312 1545.960938 C 990.320312 1545.980469 990.324219 1545.988281 990.324219 1546 "/>
<path fill="none" stroke-width="92.1841" stroke-linecap="round" stroke-linejoin="round" stroke="rgb(15.989685%, 14.988708%, 14.988708%)" stroke-opacity="1" stroke-miterlimit="4" d="M 9903.242188 12910 C 9903.242188 12910.117188 9903.203125 12910.195312 9903.203125 12910.390625 C 9903.203125 12910.195312 9903.242188 12910.117188 9903.242188 12910 Z M 9903.242188 12910 " transform="matrix(0.1, 0, 0, -0.1, 0, 2837)"/>
<path fill-rule="nonzero" fill="rgb(30.004883%, 22.996521%, 55.076599%)" fill-opacity="1" d="M 1775.761719 1469.960938 C 1771.171875 1466.800781 1766.140625 1463.859375 1760.890625 1461.03125 C 1762.898438 1462.121094 1764.949219 1463.191406 1766.871094 1464.328125 C 1746.308594 1479.960938 1690.070312 1511.46875 1548.5 1539.78125 C 1398.738281 1569.730469 1212 1538.820312 1130.078125 1522.03125 C 1130.140625 1522.019531 1130.199219 1522 1130.261719 1521.988281 C 1073.550781 1536.730469 1024.179688 1543.199219 990.324219 1546 C 995.027344 1611.511719 1002.878906 1650.160156 1002.878906 1650.160156 C 1002.878906 1650.160156 1007.050781 1656.398438 1019.539062 1760.53125 C 1032.03125 1864.652344 959.144531 1943.792969 959.144531 1943.792969 C 959.144531 1943.792969 952.667969 1948.300781 943.589844 1953.015625 C 981.074219 2204.3125 921.664062 2399.863281 921.664062 2399.863281 C 969.5625 2462.34375 1152.820312 2426.941406 1152.820312 2426.941406 C 1281.941406 2116.640625 1186.140625 1800.101562 1186.140625 1800.101562 C 1234.039062 1883.398438 1415.21875 1841.75 1415.21875 1841.75 C 1500.601562 2016.679688 1452.710938 2345.722656 1452.710938 2345.722656 C 1506.859375 2387.378906 1652.628906 2362.382812 1652.628906 2362.382812 C 1779.671875 1985.445312 1654.71875 1737.621094 1654.71875 1737.621094 C 1778.019531 1609.578125 1781.320312 1510.339844 1775.761719 1469.960938 "/>
<path fill="none" stroke-width="92.1841" stroke-linecap="round" stroke-linejoin="round" stroke="rgb(15.989685%, 14.988708%, 14.988708%)" stroke-opacity="1" stroke-miterlimit="4" d="M 17757.617188 13670.390625 C 17711.71875 13701.992188 17661.40625 13731.40625 17608.90625 13759.6875 C 17628.984375 13748.789062 17649.492188 13738.085938 17668.710938 13726.71875 C 17463.085938 13570.390625 16900.703125 13255.3125 15485 12972.1875 C 13987.382812 12672.695312 12120 12981.796875 11300.78125 13149.6875 C 11301.40625 13149.804688 11301.992188 13150 11302.617188 13150.117188 C 10735.507812 13002.695312 10241.796875 12938.007812 9903.242188 12910 C 9950.273438 12254.882812 10028.789062 11868.398438 10028.789062 11868.398438 C 10028.789062 11868.398438 10070.507812 11806.015625 10195.390625 10764.6875 C 10320.3125 9723.476562 9591.445312 8932.070312 9591.445312 8932.070312 C 9591.445312 8932.070312 9526.679688 8886.992188 9435.898438 8839.84375 C 9810.742188 6326.875 9216.640625 4371.367188 9216.640625 4371.367188 C 9695.625 3746.5625 11528.203125 4100.585938 11528.203125 4100.585938 C 12819.414062 7203.59375 11861.40625 10368.984375 11861.40625 10368.984375 C 12340.390625 9536.015625 14152.1875 9952.5 14152.1875 9952.5 C 15006.015625 8203.203125 14527.109375 4912.773438 14527.109375 4912.773438 C 15068.59375 4496.210938 16526.289062 4746.171875 16526.289062 4746.171875 C 17796.71875 8515.546875 16547.1875 10993.789062 16547.1875 10993.789062 C 17780.195312 12274.21875 17813.203125 13266.601562 17757.617188 13670.390625 Z M 17757.617188 13670.390625 " transform="matrix(0.1, 0, 0, -0.1, 0, 2837)"/>
<path fill-rule="nonzero" fill="rgb(100%, 100%, 100%)" fill-opacity="1" stroke-width="92.1841" stroke-linecap="round" stroke-linejoin="round" stroke="rgb(15.989685%, 14.988708%, 14.988708%)" stroke-opacity="1" stroke-miterlimit="4" d="M 13408.789062 3047.265625 C 11451.796875 2327.226562 9485.9375 3180.820312 8932.734375 3457.460938 C 8899.84375 3345.664062 8875.078125 3220.546875 8862.578125 3080.15625 C 8862.578125 3080.15625 9653.984375 2372.148438 12069.6875 2434.570312 C 12069.6875 2434.570312 13444.21875 2434.53125 13589.882812 2726.09375 C 13589.882812 2726.09375 13550.117188 2858.945312 13408.789062 3047.265625 " transform="matrix(0.1, 0, 0, -0.1, 0, 2837)"/>
<path fill-rule="nonzero" fill="rgb(34.008789%, 60.9375%, 76.951599%)" fill-opacity="1" d="M 1152.820312 2426.941406 C 1152.820312 2426.941406 1008.25 2454.863281 942.363281 2417.328125 C 927.496094 2428.496094 905.078125 2451.078125 893.273438 2491.253906 C 916.164062 2502.703125 963.289062 2524 1024.5 2539.953125 C 1060.308594 2472.933594 1121.738281 2441.582031 1159.53125 2427.976562 C 1157.410156 2427.4375 1155.199219 2426.929688 1153.039062 2426.414062 C 1152.96875 2426.585938 1152.898438 2426.765625 1152.820312 2426.941406 "/>
<path fill="none" stroke-width="92.1841" stroke-linecap="round" stroke-linejoin="round" stroke="rgb(15.989685%, 14.988708%, 14.988708%)" stroke-opacity="1" stroke-miterlimit="4" d="M 11528.203125 4100.585938 C 11528.203125 4100.585938 10082.5 3821.367188 9423.632812 4196.71875 C 9274.960938 4085.039062 9050.78125 3859.21875 8932.734375 3457.460938 C 9161.640625 3342.96875 9632.890625 3130 10245 2970.46875 C 10603.085938 3640.664062 11217.382812 3954.179688 11595.3125 4090.234375 C 11574.101562 4095.625 11551.992188 4100.703125 11530.390625 4105.859375 C 11529.6875 4104.140625 11528.984375 4102.34375 11528.203125 4100.585938 Z M 11528.203125 4100.585938 " transform="matrix(0.1, 0, 0, -0.1, 0, 2837)"/>
<path fill-rule="nonzero" fill="rgb(100%, 100%, 100%)" fill-opacity="1" d="M 1203.941406 2441.304688 C 1190.320312 2436.503906 1175.578125 2432.015625 1159.53125 2427.976562 C 1121.738281 2441.582031 1060.308594 2472.933594 1024.5 2539.953125 C 1042.78125 2544.71875 1062.320312 2548.996094 1082.851562 2552.40625 C 1093.171875 2490.125 1168.96875 2454.546875 1203.941406 2441.304688 "/>
<path fill="none" stroke-width="92.1841" stroke-linecap="round" stroke-linejoin="round" stroke="rgb(15.989685%, 14.988708%, 14.988708%)" stroke-opacity="1" stroke-miterlimit="4" d="M 12039.414062 3956.953125 C 11903.203125 4004.960938 11755.78125 4049.84375 11595.3125 4090.234375 C 11217.382812 3954.179688 10603.085938 3640.664062 10245 2970.46875 C 10427.8125 2922.8125 10623.203125 2880.039062 10828.515625 2845.9375 C 10931.71875 3468.75 11689.6875 3824.53125 12039.414062 3956.953125 Z M 12039.414062 3956.953125 " transform="matrix(0.1, 0, 0, -0.1, 0, 2837)"/>
<path fill-rule="nonzero" fill="rgb(34.008789%, 60.9375%, 76.951599%)" fill-opacity="1" d="M 1203.941406 2441.304688 C 1168.96875 2454.546875 1093.171875 2490.125 1082.851562 2552.40625 C 1100.921875 2555.398438 1119.738281 2557.726562 1139.171875 2559.085938 C 1147.648438 2507.839844 1208.890625 2472.824219 1242.808594 2457.140625 C 1231.058594 2451.597656 1218.089844 2446.289062 1203.941406 2441.304688 "/>
<path fill="none" stroke-width="92.1841" stroke-linecap="round" stroke-linejoin="round" stroke="rgb(15.989685%, 14.988708%, 14.988708%)" stroke-opacity="1" stroke-miterlimit="4" d="M 12039.414062 3956.953125 C 11689.6875 3824.53125 10931.71875 3468.75 10828.515625 2845.9375 C 11009.21875 2816.015625 11197.382812 2792.734375 11391.71875 2779.140625 C 11476.484375 3291.601562 12088.90625 3641.757812 12428.085938 3798.59375 C 12310.585938 3854.023438 12180.898438 3907.109375 12039.414062 3956.953125 Z M 12039.414062 3956.953125 " transform="matrix(0.1, 0, 0, -0.1, 0, 2837)"/>
<path fill-rule="nonzero" fill="rgb(100%, 100%, 100%)" fill-opacity="1" d="M 1280.109375 2477.632812 C 1269.191406 2470.644531 1256.808594 2463.742188 1242.808594 2457.140625 C 1208.890625 2472.824219 1147.648438 2507.839844 1139.171875 2559.085938 C 1156.269531 2560.265625 1173.808594 2560.710938 1191.691406 2560.214844 C 1213.449219 2502.976562 1252.980469 2483.851562 1280.109375 2477.632812 "/>
<path fill="none" stroke-width="92.1841" stroke-linecap="round" stroke-linejoin="round" stroke="rgb(15.989685%, 14.988708%, 14.988708%)" stroke-opacity="1" stroke-miterlimit="4" d="M 12801.09375 3593.671875 C 12691.914062 3663.554688 12568.085938 3732.578125 12428.085938 3798.59375 C 12088.90625 3641.757812 11476.484375 3291.601562 11391.71875 2779.140625 C 11562.695312 2767.34375 11738.085938 2762.890625 11916.914062 2767.851562 C 12134.492188 3340.234375 12529.804688 3531.484375 12801.09375 3593.671875 Z M 12801.09375 3593.671875 " transform="matrix(0.1, 0, 0, -0.1, 0, 2837)"/>
<path fill-rule="nonzero" fill="rgb(34.008789%, 60.9375%, 76.951599%)" fill-opacity="1" d="M 1280.109375 2477.632812 C 1252.980469 2483.851562 1213.449219 2502.976562 1191.691406 2560.214844 C 1239.859375 2558.902344 1290.390625 2550.851562 1340.878906 2532.273438 C 1329.019531 2516.46875 1309.96875 2496.742188 1280.109375 2477.632812 "/>
<path fill="none" stroke-width="92.1841" stroke-linecap="round" stroke-linejoin="round" stroke="rgb(15.989685%, 14.988708%, 14.988708%)" stroke-opacity="1" stroke-miterlimit="4" d="M 12801.09375 3593.671875 C 12529.804688 3531.484375 12134.492188 3340.234375 11916.914062 2767.851562 C 12398.59375 2780.976562 12903.90625 2861.484375 13408.789062 3047.265625 C 13290.195312 3205.3125 13099.6875 3402.578125 12801.09375 3593.671875 Z M 12801.09375 3593.671875 " transform="matrix(0.1, 0, 0, -0.1, 0, 2837)"/>
<path fill-rule="nonzero" fill="rgb(100%, 100%, 100%)" fill-opacity="1" d="M 1828.679688 2451.539062 C 1649.449219 2517.484375 1469.398438 2439.304688 1418.738281 2413.96875 C 1415.730469 2424.203125 1413.449219 2435.667969 1412.308594 2448.523438 C 1412.308594 2448.523438 1484.789062 2513.375 1706.039062 2507.648438 C 1706.039062 2507.648438 1831.921875 2507.652344 1845.269531 2480.949219 C 1845.269531 2480.949219 1841.621094 2468.785156 1828.679688 2451.539062 "/>
<path fill="none" stroke-width="92.1841" stroke-linecap="round" stroke-linejoin="round" stroke="rgb(15.989685%, 14.988708%, 14.988708%)" stroke-opacity="1" stroke-miterlimit="4" d="M 18286.796875 3854.609375 C 16494.492188 3195.15625 14693.984375 3976.953125 14187.382812 4230.3125 C 14157.304688 4127.96875 14134.492188 4013.320312 14123.085938 3884.765625 C 14123.085938 3884.765625 14847.890625 3236.25 17060.390625 3293.515625 C 17060.390625 3293.515625 18319.21875 3293.476562 18452.695312 3560.507812 C 18452.695312 3560.507812 18416.210938 3682.148438 18286.796875 3854.609375 Z M 18286.796875 3854.609375 " transform="matrix(0.1, 0, 0, -0.1, 0, 2837)"/>
<path fill-rule="nonzero" fill="rgb(34.008789%, 60.9375%, 76.951599%)" fill-opacity="1" d="M 1459.011719 2349.992188 C 1445.71875 2361.199219 1428.371094 2381.195312 1418.738281 2413.96875 C 1439.710938 2424.453125 1482.859375 2443.957031 1538.921875 2458.570312 C 1566.238281 2407.464844 1609.761719 2379.054688 1643.570312 2363.765625 C 1612.359375 2368.1875 1508.261719 2380.03125 1459.011719 2349.992188 "/>
<path fill="none" stroke-width="92.1841" stroke-linecap="round" stroke-linejoin="round" stroke="rgb(15.989685%, 14.988708%, 14.988708%)" stroke-opacity="1" stroke-miterlimit="4" d="M 14590.117188 4870.078125 C 14457.1875 4758.007812 14283.710938 4558.046875 14187.382812 4230.3125 C 14397.109375 4125.46875 14828.59375 3930.429688 15389.21875 3784.296875 C 15662.382812 4295.351562 16097.617188 4579.453125 16435.703125 4732.34375 C 16123.59375 4688.125 15082.617188 4569.6875 14590.117188 4870.078125 Z M 14590.117188 4870.078125 " transform="matrix(0.1, 0, 0, -0.1, 0, 2837)"/>
<path fill-rule="nonzero" fill="rgb(100%, 100%, 100%)" fill-opacity="1" d="M 1703.269531 2368.222656 C 1690.789062 2363.824219 1677.289062 2359.714844 1662.589844 2356.011719 C 1627.980469 2368.472656 1571.71875 2397.183594 1538.921875 2458.570312 C 1555.660156 2462.9375 1573.558594 2466.855469 1592.359375 2469.972656 C 1601.820312 2412.9375 1671.25 2380.351562 1703.269531 2368.222656 "/>
<path fill="none" stroke-width="92.1841" stroke-linecap="round" stroke-linejoin="round" stroke="rgb(15.989685%, 14.988708%, 14.988708%)" stroke-opacity="1" stroke-miterlimit="4" d="M 17032.695312 4687.773438 C 16907.890625 4731.757812 16772.890625 4772.851562 16625.898438 4809.882812 C 16279.804688 4685.273438 15717.1875 4398.164062 15389.21875 3784.296875 C 15556.601562 3740.625 15735.585938 3701.445312 15923.59375 3670.273438 C 16018.203125 4240.625 16712.5 4566.484375 17032.695312 4687.773438 Z M 17032.695312 4687.773438 " transform="matrix(0.1, 0, 0, -0.1, 0, 2837)"/>
<path fill-rule="nonzero" fill="rgb(34.008789%, 60.9375%, 76.951599%)" fill-opacity="1" d="M 1703.269531 2368.222656 C 1671.25 2380.351562 1601.820312 2412.9375 1592.359375 2469.972656 C 1608.921875 2472.714844 1626.148438 2474.847656 1643.949219 2476.089844 C 1651.710938 2429.160156 1707.789062 2397.09375 1738.859375 2382.722656 C 1728.101562 2377.644531 1716.230469 2372.789062 1703.269531 2368.222656 "/>
<path fill="none" stroke-width="92.1841" stroke-linecap="round" stroke-linejoin="round" stroke="rgb(15.989685%, 14.988708%, 14.988708%)" stroke-opacity="1" stroke-miterlimit="4" d="M 17032.695312 4687.773438 C 16712.5 4566.484375 16018.203125 4240.625 15923.59375 3670.273438 C 16089.21875 3642.851562 16261.484375 3621.523438 16439.492188 3609.101562 C 16517.109375 4078.398438 17077.890625 4399.0625 17388.59375 4542.773438 C 17281.015625 4593.554688 17162.304688 4642.109375 17032.695312 4687.773438 Z M 17032.695312 4687.773438 " transform="matrix(0.1, 0, 0, -0.1, 0, 2837)"/>
<path fill-rule="nonzero" fill="rgb(100%, 100%, 100%)" fill-opacity="1" d="M 1773.019531 2401.492188 C 1763.019531 2395.089844 1751.679688 2388.769531 1738.859375 2382.722656 C 1707.789062 2397.09375 1651.710938 2429.160156 1643.949219 2476.089844 C 1659.609375 2477.175781 1675.671875 2477.578125 1692.039062 2477.128906 C 1711.980469 2424.703125 1748.179688 2407.195312 1773.019531 2401.492188 "/>
<path fill="none" stroke-width="92.1841" stroke-linecap="round" stroke-linejoin="round" stroke="rgb(15.989685%, 14.988708%, 14.988708%)" stroke-opacity="1" stroke-miterlimit="4" d="M 17730.195312 4355.078125 C 17630.195312 4419.101562 17516.796875 4482.304688 17388.59375 4542.773438 C 17077.890625 4399.0625 16517.109375 4078.398438 16439.492188 3609.101562 C 16596.09375 3598.242188 16756.71875 3594.21875 16920.390625 3598.710938 C 17119.804688 4122.96875 17481.796875 4298.046875 17730.195312 4355.078125 Z M 17730.195312 4355.078125 " transform="matrix(0.1, 0, 0, -0.1, 0, 2837)"/>
<path fill-rule="nonzero" fill="rgb(34.008789%, 60.9375%, 76.951599%)" fill-opacity="1" d="M 1773.019531 2401.492188 C 1748.179688 2407.195312 1711.980469 2424.703125 1692.039062 2477.128906 C 1736.171875 2475.921875 1782.441406 2468.554688 1828.679688 2451.539062 C 1817.820312 2437.0625 1800.371094 2418.992188 1773.019531 2401.492188 "/>
<path fill="none" stroke-width="92.1841" stroke-linecap="round" stroke-linejoin="round" stroke="rgb(15.989685%, 14.988708%, 14.988708%)" stroke-opacity="1" stroke-miterlimit="4" d="M 16484.6875 22385.195312 C 16484.6875 22385.195312 16713.710938 22760.117188 17713.398438 22385.195312 M 13881.484375 20552.617188 C 13881.484375 20552.617188 14193.90625 20906.601562 15026.914062 20615.117188 C 15859.882812 20323.59375 15797.382812 20198.59375 16255.585938 20094.492188 M 14735.390625 10202.382812 C 14735.390625 10202.382812 14318.789062 9973.359375 14152.1875 9952.5 M 17730.195312 4355.078125 C 17481.796875 4298.046875 17119.804688 4122.96875 16920.390625 3598.710938 C 17361.71875 3610.78125 17824.414062 3684.453125 18286.796875 3854.609375 C 18178.203125 3999.375 18003.710938 4180.078125 17730.195312 4355.078125 Z M 17730.195312 4355.078125 " transform="matrix(0.1, 0, 0, -0.1, 0, 2837)"/>
<path fill-rule="nonzero" fill="rgb(100%, 100%, 100%)" fill-opacity="1" d="M 1425.171875 590.128906 C 1426.570312 622.148438 1440.019531 683.261719 1523.511719 675.53125 C 1607.078125 667.789062 1618.179688 606.039062 1618.390625 574.800781 C 1596.53125 574.28125 1571.410156 567.238281 1571.410156 567.238281 C 1480.121094 561.148438 1441.519531 576.410156 1425.171875 590.128906 "/>
<path fill="none" stroke-width="92.1841" stroke-linecap="round" stroke-linejoin="round" stroke="rgb(15.989685%, 14.988708%, 14.988708%)" stroke-opacity="1" stroke-miterlimit="4" d="M 14631.210938 21448.085938 C 14631.210938 21448.085938 15674.492188 21208.59375 15684.21875 21737.1875 M 14131.40625 22281.09375 C 14131.40625 22281.09375 14152.1875 22801.71875 15714.101562 22697.617188 C 15714.101562 22697.617188 16901.210938 22364.414062 16359.6875 23093.28125 M 16401.40625 21114.882812 C 16401.40625 21114.882812 17067.695312 20552.617188 17754.882812 20969.101562 M 12569.492188 22010.390625 C 12569.492188 22010.390625 12902.695312 22176.992188 13111.015625 21906.289062 C 13111.015625 21906.289062 12673.59375 22093.710938 12715.3125 21698.007812 M 13277.5 22135.390625 C 13277.5 22135.390625 13235.585938 22485.3125 12798.59375 22468.59375 C 12429.21875 22454.414062 12361.289062 21885.390625 12361.289062 21885.390625 C 12361.289062 21885.390625 12257.304688 21480.585938 12631.992188 21364.804688 C 12631.992188 21364.804688 12861.015625 21260.703125 13048.515625 21385.585938 M 14568.710938 18553.398438 C 14568.710938 18553.398438 15443.398438 18865.78125 15547.5 19094.882812 M 16213.90625 13555.3125 C 16213.90625 13555.3125 15838.984375 13617.8125 15859.882812 13367.890625 C 15859.882812 13367.890625 15839.101562 13326.210938 16005.703125 13451.210938 M 14251.71875 22468.710938 C 14265.703125 22148.515625 14400.195312 21537.382812 15235.117188 21614.6875 C 16070.78125 21692.109375 16181.796875 22309.609375 16183.90625 22621.992188 C 15965.3125 22627.1875 15714.101562 22697.617188 15714.101562 22697.617188 C 14801.210938 22758.515625 14415.195312 22605.898438 14251.71875 22468.710938 Z M 14251.71875 22468.710938 " transform="matrix(0.1, 0, 0, -0.1, 0, 2837)"/>
<path fill-rule="nonzero" fill="rgb(100%, 100%, 100%)" fill-opacity="1" d="M 1411.339844 768.558594 C 1410.070312 782.121094 1412.621094 798.949219 1431.878906 802.558594 C 1457.128906 807.300781 1472.800781 790.511719 1482.539062 769.410156 C 1449.589844 761.078125 1426.449219 763.640625 1411.339844 768.558594 "/>
<path fill="none" stroke-width="92.1841" stroke-linecap="round" stroke-linejoin="round" stroke="rgb(15.989685%, 14.988708%, 14.988708%)" stroke-opacity="1" stroke-miterlimit="4" d="M 14113.398438 20684.414062 C 14100.703125 20548.789062 14126.210938 20380.507812 14318.789062 20344.414062 C 14571.289062 20296.992188 14728.007812 20464.882812 14825.390625 20675.898438 C 14495.898438 20759.21875 14264.492188 20733.59375 14113.398438 20684.414062 Z M 14113.398438 20684.414062 " transform="matrix(0.1, 0, 0, -0.1, 0, 2837)"/>
<path fill-rule="nonzero" fill="rgb(100%, 100%, 100%)" fill-opacity="1" d="M 1502.691406 775.488281 C 1491.871094 771.699219 1481.949219 769.03125 1472.839844 767.199219 C 1470.058594 776.269531 1461.179688 811.699219 1490.191406 817.140625 C 1513.359375 821.480469 1528.460938 807.691406 1538.320312 789.089844 C 1528.589844 784.988281 1516.980469 780.488281 1502.691406 775.488281 "/>
<path fill="none" stroke-width="92.1841" stroke-linecap="round" stroke-linejoin="round" stroke="rgb(15.989685%, 14.988708%, 14.988708%)" stroke-opacity="1" stroke-miterlimit="4" d="M 15026.914062 20615.117188 C 14918.710938 20653.007812 14819.492188 20679.6875 14728.398438 20698.007812 C 14700.585938 20607.304688 14611.796875 20253.007812 14901.914062 20198.59375 C 15133.59375 20155.195312 15284.609375 20293.085938 15383.203125 20479.101562 C 15285.898438 20520.117188 15169.804688 20565.117188 15026.914062 20615.117188 Z M 15026.914062 20615.117188 " transform="matrix(0.1, 0, 0, -0.1, 0, 2837)"/>
<path fill-rule="nonzero" fill="rgb(100%, 100%, 100%)" fill-opacity="1" d="M 1527.691406 784.761719 C 1524.558594 797.921875 1521.378906 824.941406 1546.421875 829.640625 C 1564.320312 832.988281 1577.371094 825.488281 1586.941406 813.351562 C 1573.761719 806.300781 1559.609375 797.351562 1527.691406 784.761719 "/>
<path fill="none" stroke-width="92.1841" stroke-linecap="round" stroke-linejoin="round" stroke="rgb(15.989685%, 14.988708%, 14.988708%)" stroke-opacity="1" stroke-miterlimit="4" d="M 15276.914062 20522.382812 C 15245.585938 20390.78125 15213.789062 20120.585938 15464.21875 20073.59375 C 15643.203125 20040.117188 15773.710938 20115.117188 15869.414062 20236.484375 C 15737.617188 20306.992188 15596.09375 20396.484375 15276.914062 20522.382812 Z M 15276.914062 20522.382812 " transform="matrix(0.1, 0, 0, -0.1, 0, 2837)"/>
<path fill-rule="nonzero" fill="rgb(100%, 100%, 100%)" fill-opacity="1" d="M 1770.660156 598.238281 C 1706.78125 574.410156 1674.558594 581.308594 1659.671875 589.28125 C 1662.78125 615.230469 1675.789062 657.429688 1727.601562 658.871094 C 1785.058594 660.460938 1781.21875 624.511719 1770.660156 598.238281 "/>
<path fill="none" stroke-width="92.1841" stroke-linecap="round" stroke-linejoin="round" stroke="rgb(15.989685%, 14.988708%, 14.988708%)" stroke-opacity="1" stroke-miterlimit="4" d="M 17706.601562 22387.617188 C 17067.8125 22625.898438 16745.585938 22556.914062 16596.71875 22477.1875 C 16627.8125 22217.695312 16757.890625 21795.703125 17276.015625 21781.289062 C 17850.585938 21765.390625 17812.1875 22124.882812 17706.601562 22387.617188 Z M 17706.601562 22387.617188 " transform="matrix(0.1, 0, 0, -0.1, 0, 2837)"/>
<path fill-rule="nonzero" fill="rgb(15.989685%, 14.988708%, 14.988708%)" fill-opacity="1" d="M 1519.351562 589.109375 C 1519.351562 596.578125 1512.820312 602.640625 1504.769531 602.640625 C 1496.71875 602.640625 1490.191406 596.578125 1490.191406 589.109375 C 1490.191406 581.628906 1496.71875 575.570312 1504.769531 575.570312 C 1512.820312 575.570312 1519.351562 581.628906 1519.351562 589.109375 "/>
<path fill-rule="nonzero" fill="rgb(15.989685%, 14.988708%, 14.988708%)" fill-opacity="1" d="M 1721.980469 584.410156 C 1720.300781 586.621094 1719.28125 589.308594 1719.28125 592.230469 C 1719.28125 599.699219 1725.800781 605.769531 1733.859375 605.769531 C 1741.898438 605.769531 1748.429688 599.699219 1748.429688 592.230469 C 1748.429688 591.71875 1748.328125 591.230469 1748.269531 590.738281 C 1738.671875 587.898438 1729.921875 585.820312 1721.980469 584.410156 "/>
<path fill="none" stroke-width="92.1841" stroke-linecap="round" stroke-linejoin="round" stroke="rgb(15.989685%, 14.988708%, 14.988708%)" stroke-opacity="1" stroke-miterlimit="4" d="M 14942.109375 17127.8125 C 14942.109375 17127.8125 14697.5 17051.289062 14754.414062 17290.703125 C 14811.210938 17530.117188 14973.515625 17457.617188 14818.398438 17549.609375 M 14893.710938 16811.484375 C 14893.710938 16811.484375 14761.40625 16713.203125 14697.382812 16805.703125 C 14633.398438 16898.203125 14884.21875 17031.289062 14892.617188 17020.78125 M 14471.914062 17085.78125 C 14471.914062 17085.78125 14674.609375 17242.5 14704.492188 16998.28125 C 14734.492188 16754.101562 14557.109375 16765.585938 14734.492188 16733.398438 M 14407.382812 17399.101562 C 14407.382812 17399.101562 14497.1875 17537.382812 14589.296875 17472.8125 C 14681.484375 17408.28125 14492.617188 17196.40625 14481.015625 17203.28125 M 13878.789062 23781.71875 C 13878.789062 23781.71875 13316.601562 23406.914062 13428.984375 22882.109375 C 13428.984375 22882.109375 13616.484375 23181.992188 13728.90625 23219.492188 C 13728.90625 23219.492188 13541.484375 22432.304688 13691.40625 22169.882812 C 13691.40625 22169.882812 14216.210938 23331.914062 14666.015625 23556.796875 L 14553.59375 23219.492188 L 14815.898438 23406.914062 C 14815.898438 23406.914062 14591.09375 22919.609375 14666.015625 22807.109375 C 14741.015625 22694.6875 15228.28125 23631.796875 15228.28125 23631.796875 " transform="matrix(0.1, 0, 0, -0.1, 0, 2837)"/>
<path fill-rule="nonzero" fill="rgb(83.006287%, 83.006287%, 82.03125%)" fill-opacity="1" d="M 1974.589844 1142.460938 C 1974.589844 1142.460938 1917.289062 1184.128906 1909.480469 1238.820312 C 1901.660156 1293.511719 1891.238281 1486.210938 1979.789062 1538.300781 L 1974.589844 1142.460938 "/>
<path fill="none" stroke-width="92.1841" stroke-linecap="round" stroke-linejoin="round" stroke="rgb(15.989685%, 14.988708%, 14.988708%)" stroke-opacity="1" stroke-miterlimit="4" d="M 19745.898438 16945.390625 C 19745.898438 16945.390625 19172.890625 16528.710938 19094.804688 15981.796875 C 19016.601562 15434.882812 18912.382812 13507.890625 19797.890625 12986.992188 Z M 19745.898438 16945.390625 " transform="matrix(0.1, 0, 0, -0.1, 0, 2837)"/>
<path fill-rule="nonzero" fill="rgb(83.006287%, 83.006287%, 82.03125%)" fill-opacity="1" d="M 1958.960938 1548.710938 L 1966.769531 1106.011719 C 1966.769531 1106.011719 1987.601562 1064.339844 2031.871094 1059.128906 L 2164.691406 1048.71875 L 2287.078125 1087.78125 L 2300.089844 1551.320312 C 2300.089844 1551.320312 2279.269531 1595.589844 2125.628906 1600.800781 C 1971.980469 1606 1958.960938 1548.710938 1958.960938 1548.710938 "/>
<path fill="none" stroke-width="92.1841" stroke-linecap="round" stroke-linejoin="round" stroke="rgb(15.989685%, 14.988708%, 14.988708%)" stroke-opacity="1" stroke-miterlimit="4" d="M 19589.609375 12882.890625 L 19667.695312 17309.882812 C 19667.695312 17309.882812 19876.015625 17726.601562 20318.710938 17778.710938 L 21646.914062 17882.8125 L 22870.78125 17492.1875 L 23000.898438 12856.796875 C 23000.898438 12856.796875 22792.695312 12414.101562 21256.289062 12361.992188 C 19719.804688 12310 19589.609375 12882.890625 19589.609375 12882.890625 Z M 19589.609375 12882.890625 " transform="matrix(0.1, 0, 0, -0.1, 0, 2837)"/>
<path fill-rule="nonzero" fill="rgb(100%, 100%, 100%)" fill-opacity="1" d="M 2292.589844 1280.589844 L 2293.609375 1311.078125 C 2328.511719 1294.101562 2295.960938 1281.789062 2292.589844 1280.589844 "/>
<path fill="none" stroke-width="92.1841" stroke-linecap="round" stroke-linejoin="round" stroke="rgb(15.989685%, 14.988708%, 14.988708%)" stroke-opacity="1" stroke-miterlimit="4" d="M 22925.898438 15564.101562 L 22936.09375 15259.21875 C 23285.117188 15428.984375 22959.609375 15552.109375 22925.898438 15564.101562 Z M 22925.898438 15564.101562 " transform="matrix(0.1, 0, 0, -0.1, 0, 2837)"/>
<path fill-rule="nonzero" fill="rgb(100%, 100%, 100%)" fill-opacity="1" stroke-width="92.1841" stroke-linecap="round" stroke-linejoin="round" stroke="rgb(15.989685%, 14.988708%, 14.988708%)" stroke-opacity="1" stroke-miterlimit="4" d="M 23339.609375 17622.382812 C 23261.40625 18117.1875 23000.898438 17961.015625 23000.898438 17961.015625 L 22844.6875 18247.382812 C 22454.101562 18611.992188 22271.914062 18169.296875 22271.914062 18169.296875 C 22219.6875 18273.515625 22141.601562 18794.296875 21464.492188 18872.382812 C 20787.382812 18950.507812 20579.101562 18325.585938 20579.101562 18325.585938 C 20474.882812 18481.796875 19641.71875 18455.78125 19719.804688 17908.90625 C 19797.890625 17361.992188 20448.90625 17596.40625 20448.90625 17596.40625 C 20813.515625 17153.710938 21464.492188 17648.515625 21464.492188 17648.515625 C 21464.492188 17648.515625 21568.710938 17309.882812 21907.1875 17257.890625 C 22245.78125 17205.78125 22506.210938 17466.210938 22506.210938 17466.210938 C 22714.609375 17153.710938 23027.109375 17361.992188 23027.109375 17361.992188 L 22872.1875 17163.789062 L 22920.3125 15730.507812 C 23257.695312 15865.507812 23183.28125 16164.101562 23183.28125 16164.101562 C 23599.882812 16450.585938 23391.601562 16841.210938 23391.601562 16841.210938 C 23730.195312 17440.117188 23339.609375 17622.382812 23339.609375 17622.382812 " transform="matrix(0.1, 0, 0, -0.1, 0, 2837)"/>
<path fill-rule="nonzero" fill="rgb(88.084412%, 72.068787%, 14.988708%)" fill-opacity="1" d="M 2120.421875 1556.519531 C 2120.421875 1556.519531 2245.410156 1553.921875 2266.25 1520.070312 L 2264.28125 1247.410156 C 2179.648438 1271.351562 2021.691406 1256.828125 1983.21875 1252.789062 L 1985 1512.261719 C 1985 1512.261719 2003.230469 1553.921875 2120.421875 1556.519531 "/>
<path fill="none" stroke-width="92.1841" stroke-linecap="round" stroke-linejoin="round" stroke="rgb(15.989685%, 14.988708%, 14.988708%)" stroke-opacity="1" stroke-miterlimit="4" d="M 18283.203125 13956.71875 C 18283.203125 13956.71875 18522.5 13653.59375 18634.21875 13621.71875 M 22401.992188 16867.1875 C 22401.992188 16867.1875 22610.390625 17101.601562 22740.585938 16841.210938 M 21568.710938 16919.296875 C 21568.710938 16919.296875 21777.109375 17205.78125 22193.710938 16867.1875 M 20657.304688 16997.382812 C 20657.304688 16997.382812 21021.914062 17205.78125 21282.304688 16919.296875 M 20396.914062 16919.296875 C 20396.914062 16919.296875 20084.296875 17257.890625 19928.085938 17023.515625 M 20448.90625 16554.6875 L 20318.710938 13299.609375 M 22245.78125 16398.515625 L 22297.8125 13403.710938 M 21360.390625 16580.78125 L 21282.304688 13455.78125 M 19823.90625 16789.101562 L 19850 13247.382812 C 19850 13247.382812 20032.304688 12830.78125 21204.21875 12804.804688 C 21204.21875 12804.804688 22454.101562 12830.78125 22662.5 13169.296875 L 22636.40625 16789.101562 M 21204.21875 12804.804688 C 21204.21875 12804.804688 22454.101562 12830.78125 22662.5 13169.296875 L 22642.8125 15895.898438 C 21796.484375 15656.484375 20216.914062 15801.71875 19832.1875 15842.109375 L 19850 13247.382812 C 19850 13247.382812 20032.304688 12830.78125 21204.21875 12804.804688 Z M 21204.21875 12804.804688 " transform="matrix(0.1, 0, 0, -0.1, 0, 2837)"/>
<path fill-rule="nonzero" fill="rgb(93.943787%, 82.03125%, 12.988281%)" fill-opacity="1" d="M 1908.519531 1246.210938 L 1857.828125 1230.789062 L 1765.320312 1203.679688 C 1733.238281 1165.820312 1709.421875 1075.328125 1701.339844 1041.390625 C 1675.460938 1048.960938 1643.039062 1065.578125 1623.308594 1076.421875 C 1628.738281 1099.210938 1631.328125 1133.949219 1621.390625 1183.671875 C 1753.011719 1244.558594 1786.410156 1455.539062 1789.78125 1479.261719 C 1818.648438 1481.710938 1863.421875 1474.828125 1863.421875 1474.828125 C 1896.050781 1488.199219 1914.671875 1471.441406 1923.398438 1458.949219 C 1898.921875 1385.761719 1903.390625 1288.988281 1908.519531 1246.210938 "/>
<path fill="none" stroke-width="92.1841" stroke-linecap="round" stroke-linejoin="round" stroke="rgb(15.989685%, 14.988708%, 14.988708%)" stroke-opacity="1" stroke-miterlimit="4" d="M 19085.195312 15907.890625 L 18578.28125 16062.109375 L 17653.203125 16333.203125 C 17332.382812 16711.796875 17094.21875 17616.71875 17013.398438 17956.09375 C 16754.609375 17880.390625 16430.390625 17714.21875 16233.085938 17605.78125 C 16287.382812 17377.890625 16313.28125 17030.507812 16213.90625 16533.28125 C 17530.117188 15924.414062 17864.101562 13814.609375 17897.8125 13577.382812 C 18186.484375 13552.890625 18634.21875 13621.71875 18634.21875 13621.71875 C 18960.507812 13488.007812 19146.71875 13655.585938 19233.984375 13780.507812 C 18989.21875 14512.382812 19033.90625 15480.117188 19085.195312 15907.890625 Z M 19085.195312 15907.890625 " transform="matrix(0.1, 0, 0, -0.1, 0, 2837)"/>
<path fill-rule="nonzero" fill="rgb(93.943787%, 82.03125%, 12.988281%)" fill-opacity="1" d="M 1718.261719 1194.898438 C 1718.261719 1194.898438 1753.351562 1195.699219 1765.320312 1203.679688 L 1718.261719 1194.898438 "/>
<path fill="none" stroke-width="92.1841" stroke-linecap="round" stroke-linejoin="round" stroke="rgb(15.989685%, 14.988708%, 14.988708%)" stroke-opacity="1" stroke-miterlimit="4" d="M 17182.617188 16421.015625 C 17182.617188 16421.015625 17533.515625 16413.007812 17653.203125 16333.203125 " transform="matrix(0.1, 0, 0, -0.1, 0, 2837)"/>
<path fill-rule="nonzero" fill="rgb(93.943787%, 82.03125%, 12.988281%)" fill-opacity="1" d="M 1837.890625 1361.578125 C 1837.890625 1361.578125 1862.621094 1384.710938 1892.921875 1379.921875 L 1837.890625 1361.578125 "/>
<path fill="none" stroke-width="92.1841" stroke-linecap="round" stroke-linejoin="round" stroke="rgb(15.989685%, 14.988708%, 14.988708%)" stroke-opacity="1" stroke-miterlimit="4" d="M 18378.90625 14754.21875 C 18378.90625 14754.21875 18626.210938 14522.890625 18929.21875 14570.78125 " transform="matrix(0.1, 0, 0, -0.1, 0, 2837)"/>
<path fill-rule="nonzero" fill="rgb(93.943787%, 82.03125%, 12.988281%)" fill-opacity="1" d="M 1931.199219 1189.320312 C 1931.199219 1189.320312 1836.300781 1182.140625 1849.859375 1280.238281 C 1863.421875 1378.328125 1922.429688 1336.058594 1937.589844 1300.171875 C 1937.589844 1300.171875 1951.140625 1245.140625 1911.261719 1233.980469 C 1911.261719 1233.980469 1915.25 1208.460938 1931.199219 1189.320312 "/>
<path fill="none" stroke-width="92.1841" stroke-linecap="round" stroke-linejoin="round" stroke="rgb(15.989685%, 14.988708%, 14.988708%)" stroke-opacity="1" stroke-miterlimit="4" d="M 19311.992188 16476.796875 C 19311.992188 16476.796875 18363.007812 16548.59375 18498.59375 15567.617188 C 18634.21875 14586.71875 19224.296875 15009.414062 19375.898438 15368.28125 C 19375.898438 15368.28125 19511.40625 15918.59375 19112.617188 16030.195312 C 19112.617188 16030.195312 19152.5 16285.390625 19311.992188 16476.796875 Z M 19311.992188 16476.796875 " transform="matrix(0.1, 0, 0, -0.1, 0, 2837)"/>
<path fill-rule="nonzero" fill="rgb(93.943787%, 82.03125%, 12.988281%)" fill-opacity="1" d="M 1957.519531 1255.511719 C 1957.519531 1255.511719 1925.621094 1252.320312 1920.828125 1294.589844 C 1920.828125 1294.589844 1916.960938 1353.921875 1962.5 1348.179688 L 1964.089844 1257.339844 L 1957.519531 1255.511719 "/>
<path fill="none" stroke-width="92.1841" stroke-linecap="round" stroke-linejoin="round" stroke="rgb(15.989685%, 14.988708%, 14.988708%)" stroke-opacity="1" stroke-miterlimit="4" d="M 19575.195312 15814.882812 C 19575.195312 15814.882812 19256.210938 15846.796875 19208.28125 15424.101562 C 19208.28125 15424.101562 19169.609375 14830.78125 19625 14888.203125 L 19640.898438 15796.601562 Z M 19575.195312 15814.882812 " transform="matrix(0.1, 0, 0, -0.1, 0, 2837)"/>
<path fill-rule="nonzero" fill="rgb(93.943787%, 82.03125%, 12.988281%)" fill-opacity="1" d="M 1940.78125 1340.851562 C 1889.730469 1331.28125 1885.75 1380.71875 1885.75 1380.71875 C 1877.46875 1439.351562 1942.53125 1435.941406 1960.269531 1433.949219 L 1961.828125 1345.429688 C 1953.128906 1343.261719 1942.96875 1340.851562 1940.78125 1340.851562 "/>
<path fill="none" stroke-width="92.1841" stroke-linecap="round" stroke-linejoin="round" stroke="rgb(15.989685%, 14.988708%, 14.988708%)" stroke-opacity="1" stroke-miterlimit="4" d="M 19407.8125 14961.484375 C 18897.304688 15057.1875 18857.5 14562.8125 18857.5 14562.8125 C 18774.6875 13976.484375 19425.3125 14010.585938 19602.695312 14030.507812 L 19618.28125 14915.703125 C 19531.289062 14937.382812 19429.6875 14961.484375 19407.8125 14961.484375 Z M 19407.8125 14961.484375 " transform="matrix(0.1, 0, 0, -0.1, 0, 2837)"/>
<path fill-rule="nonzero" fill="rgb(93.943787%, 82.03125%, 12.988281%)" fill-opacity="1" d="M 1951.929688 1433.359375 C 1951.929688 1433.359375 1920.828125 1438.140625 1924.019531 1475.628906 C 1924.019531 1475.628906 1918.730469 1510.75 1959.421875 1522.738281 L 1960.988281 1433.359375 L 1951.929688 1433.359375 "/>
<path fill="none" stroke-width="92.1841" stroke-linecap="round" stroke-linejoin="round" stroke="rgb(15.989685%, 14.988708%, 14.988708%)" stroke-opacity="1" stroke-miterlimit="4" d="M 19519.296875 14036.40625 C 19519.296875 14036.40625 19208.28125 13988.59375 19240.195312 13613.710938 C 19240.195312 13613.710938 19187.304688 13262.5 19594.21875 13142.617188 L 19609.882812 14036.40625 Z M 19519.296875 14036.40625 " transform="matrix(0.1, 0, 0, -0.1, 0, 2837)"/>
</svg>
