<?xml version="1.0" encoding="utf-8"?>
<!-- Generator: Adobe Illustrator 27.5.0, SVG Export Plug-In . SVG Version: 6.00 Build 0)  -->
<svg version="1.1" id="Layer_1" xmlns="http://www.w3.org/2000/svg" xmlns:xlink="http://www.w3.org/1999/xlink" x="0px" y="0px"
	 viewBox="0 0 4000 4000" style="enable-background:new 0 0 4000 4000;" xml:space="preserve">
<g>
	<g>
		<rect style="fill:#FFB720;" width="4000" height="4000"/>
	</g>
	<g>
		<g style="opacity:0.2;">
			<ellipse style="fill:#6B1A4E;" cx="2060.003" cy="3422.037" rx="1239.532" ry="109.652"/>
		</g>
		<g>
			<g>
				<path style="fill:#F99121;" d="M2471.253,1171.26c0,0-351.95,224.15-777.45,36.4c0,0,0.35-134.5,108.35-247.85
					c13.4-14.05,28.45-27.75,45.35-40.85c20.45-15.85,40.15-32.05,58.6-48.45l7.5-6.7c108.75-98.75,169.75-203.4,71.6-277.85
					c-7.15-5.4-4.65-16.65,4.2-18.25c43.35-7.85,142.8-14.75,255.75,52.65l0.05,0.05c26,15.5,52.7,34.9,79.6,59.15
					c82.7,74.55,120.65,181.45,137.35,276.55C2482.603,1072.51,2471.253,1171.26,2471.253,1171.26z"/>
			</g>
			<g>
				<path style="fill:#FFF3E9;" d="M2462.153,956.11c-1,5.15-1.8,9.85-2.45,13.95c-10.7,69.5-57.95,125.65-57.95,125.65
					c-12.45-45.45-72.15-103.35-72.15-103.35c-5.35,61.45-38.35,116.7-38.35,116.7c-5.35-26.7-34.75-76.65-34.75-76.65
					c-26.7,58.85-58.8,74-58.8,74c-19.6-59.7-50.8-113.2-50.8-113.2c-7.1,91.8-84.35,149.15-84.35,149.15
					c-2.35-59.45-39.2-147.35-39.2-147.35c-24.35,57.6-80.8,121.2-80.8,121.2c-13.75-57.35-48.1-108.15-48.1-108.15l-111.1,84.35
					c-8.3-51.5,9.05-106.9,18.8-132.6c13.4-14.05,28.45-27.75,45.35-40.85c146.1-113.25,254.4-244.45,137.7-333
					c-7.15-5.4-4.65-16.65,4.2-18.25c53.3-9.65,191.55-17.85,335.4,111.85C2407.503,754.11,2445.453,861.01,2462.153,956.11z"/>
			</g>
			<g style="opacity:0.25;">
				<path style="fill:#6B1A4E;" d="M2434.403,1178.96c0,0-87.75,55.9-228.6,88.5c-137.35,25.8-316.95,26.25-512-59.8
					c0,0,0.35-134.5,108.35-247.85c13.4-14.05,28.45-27.75,45.35-40.85c20.45-15.85,40.15-32.05,58.6-48.45
					c0,0-173.25,242.15,178,281.35c276.45,30.8,333.25-228.05,253.75-409c49,67.15,74.55,147.55,87.45,220.95
					C2445.753,1080.21,2434.403,1178.96,2434.403,1178.96z"/>
			</g>
			<g>
				<path style="fill:#6B1A4E;" d="M2044.931,1294.854c-105.293,0-227.31-18.884-356.172-75.737
					c-4.541-2.002-7.471-6.504-7.456-11.467c0.02-7.188,2.251-177.4,158.555-298.562c119.507-92.644,182.505-174.053,182.183-235.43
					c-0.156-29.761-14.678-55.186-44.395-77.729c-7.246-5.493-10.571-14.724-8.472-23.518c2.114-8.845,9.009-15.354,17.993-16.987
					c54.693-9.927,197.91-18.648,346.021,114.856c186.523,168.12,152.061,488.86,150.503,502.432
					c-0.43,3.743-2.524,7.095-5.703,9.119c-3.667,2.334-91.431,57.559-233.076,90.232
					C2189.774,1284.779,2121.801,1294.854,2044.931,1294.854z M1706.718,1199.674c213.144,91.616,406.401,76.987,531.601,48.25
					c118.872-27.28,200.43-72,221.099-84.094c3.779-44.856,20.4-327.727-142.969-474.98
					c-135.41-122.056-265.19-118.484-319.678-109.707c33.174,26.555,50.078,58.286,50.269,94.385
					c0.371,70.437-64.185,156.34-191.87,255.322C1727.445,1027.857,1709.281,1165.235,1706.718,1199.674z"/>
			</g>
		</g>
		<g>
			<g>
				<path style="fill:#F99121;" d="M1536.103,2022.876c-462.9-54.45-650.6-226.55-696.8-435.35c-15.6-69.9-15.25-143.95-4.05-219.05
					c35.55-239.1,171.15-333.2,224.35-361.4c10.1-5.4,22.65,0.7,24.4,12.05c20.35,133.9,94.75,210.25,177.3,275
					c89.6,70.4,188.85,127.2,238.7,229.4C1598.203,1724.876,1536.103,2022.876,1536.103,2022.876z"/>
			</g>
			<g>
				<path style="fill:#FFF3E9;" d="M1255.853,1353.026c-82-11.3-121.8-21.4-121.8-21.4c26.75,70.7,62.35,132.5,62.35,132.5
					c-103.35-27.95-135.45-79.05-135.45-79.05c10.1,51.7,0,137.85,0,137.85c-66.5-60.6-106.3-119.4-106.3-119.4
					c-4.75,68.9-11.3,154.45-11.3,154.45c-25.55-57.65-68.9-101-68.9-101c-13.35,54.05-34.25,127.35-35.15,130.55
					c-15.6-69.9-15.25-143.95-4.05-219.05c35.55-239.1,171.15-333.2,224.35-361.4c10.1-5.4,22.65,0.7,24.4,12.05
					c20.35,133.9,94.75,210.25,177.3,275l-35.75-12.4L1255.853,1353.026z"/>
			</g>
			<g style="opacity:0.25;">
				<path style="fill:#6B1A4E;" d="M1549.953,1924.36c-5.7,59.4-13.85,98.5-13.85,98.5c-97.4-11.45-182.6-28.15-256.85-49.25
					c-0.65-0.15-1.3-0.35-1.9-0.55c-258.1-79.55-374.95-216.2-409.9-374.1c-15.4-69.05-15.05-142.2-4-216.4
					c28.8-193.8,124.2-291.2,186.55-335.3c-39.05,55.85-74.3,133.15-90,238.85c-11.2,75.1-11.55,149.15,4.05,219.05
					C1006.353,1696.41,1167.403,1856.91,1549.953,1924.36z"/>
			</g>
			<g>
				<path style="fill:#6B1A4E;" d="M1536.117,2035.394c-0.483,0-0.977-0.027-1.47-0.085
					c-306.113-36.013-517.192-127.312-627.378-271.357c-79.727-104.231-108.125-237.91-84.399-397.329
					c36.187-243.171,173.501-340.183,230.859-370.605c8.394-4.451,18.467-4.565,26.958-0.293
					c8.394,4.221,14.248,12.266,15.659,21.523c0,0,0,0,0,0.003c24.063,158.154,127.373,234.47,227.28,308.271
					c71.997,53.186,146.445,108.181,187.593,192.524c98.96,202.837,39.697,495.059,37.124,507.397
					C1547.123,2031.297,1541.967,2035.394,1536.117,2035.394z M1067.479,1017.579c-0.61,0-1.304,0.137-2.036,0.522
					c-54.004,28.645-183.335,120.303-217.847,352.202c-22.69,152.473,4.067,279.805,79.531,378.457
					c104.541,136.672,305.996,224.231,598.843,260.322c9.839-55.837,47.344-306.746-37.222-480.076
					c-38.457-78.835-107.197-129.617-179.975-183.376c-103.994-76.821-211.524-156.255-237.144-324.622
					c-0.254-1.665-1.323-2.524-2.173-2.952C1069.022,1017.838,1068.324,1017.579,1067.479,1017.579z"/>
			</g>
		</g>
		<g>
			<g>
				<path style="fill:#F99121;" d="M1693.803,2673.81c0,0-196.8-211.45-472.45-199.4c-196.1,8.6-363.4-24-488.95-131.5
					c-50.9-43.5-94.95-99.35-131.25-169.7c-98.05-189.95-23.25-411.7,14.7-500.65c5.9-13.75,25.35-13.95,31.5-0.25
					c31.4,70,112.75,156.5,247.85,174.45c5.75,0.75,11.6,1.4,17.55,1.9c80.4,6.9,159.2,16.85,220.6,25.55
					c124.6,17.7,243.7,64.65,344.8,139.6C1839.453,2281.56,1693.803,2673.81,1693.803,2673.81z"/>
			</g>
			<g>
				<path style="fill:#FFF3E9;" d="M843.253,1944.91c0,0,54.35,31.2,75.3,62.4l-110.05,9.8c0,0,42.75,32.05,123.85,90
					c0,0-88.2,12.45-175.55,13.35c0,0,31.2,106.05,114.05,154.15c0,0-90,16.95-156.8-29.4c0,0,3.05,50.55,18.35,97.7
					c-50.9-43.5-94.95-99.35-131.25-169.7c-98.05-189.95-23.25-411.7,14.7-500.65c5.9-13.75,25.35-13.95,31.5-0.25
					c31.4,70,112.75,156.5,247.85,174.45c0,0,45.2,11.25,98.65,69.4C993.853,1916.16,927.003,1915.51,843.253,1944.91z"/>
			</g>
			<g style="opacity:0.25;">
				<path style="fill:#6B1A4E;" d="M1703.703,2640.51c-58.7-53.4-229.15-187.65-450.35-178c-196.1,8.6-363.4-24-488.95-131.5
					c-50.9-43.5-94.95-99.35-131.25-169.7c-78.7-152.5-46-325.5-10.4-433.85c-4.6,79.5,5.85,165.8,47.45,246.35
					c36.3,70.35,80.35,126.2,131.25,169.7c125.55,107.5,292.85,140.1,488.95,131.5c200-8.75,358.5,100.15,430.4,160.6
					C1728.053,2524.91,1714.103,2599.71,1703.703,2640.51z"/>
			</g>
			<g>
				<path style="fill:#6B1A4E;" d="M1693.803,2686.319c-3.433,0-6.758-1.416-9.146-3.977
					c-1.938-2.075-196.377-207.141-462.739-195.435c-19.448,0.852-38.486,1.282-57.07,1.282
					c-282.871,0.007-466.309-99.106-574.78-309.231c-100.737-195.146-23.569-422.563,14.282-511.282
					c4.697-11.011,15.054-17.92,27.026-18.032c12.124-0.068,22.48,6.616,27.393,17.559
					c33.198,74.006,117.632,157.271,255.054,169.016c67.837,5.796,142.285,14.414,221.274,25.618
					c128.633,18.245,249.844,67.327,350.522,141.938c190.474,141.157,240.171,316.98,248.325,439.622
					c8.823,132.678-26.9,230.669-28.423,234.775c-1.509,4.065-5.019,7.053-9.268,7.905
					C1695.438,2686.239,1694.618,2686.319,1693.803,2686.319z M1244.515,2461.412c226.182,0,393.838,141.68,443.525,189.001
					c9.732-34.365,27.329-111.97,20.894-206.357c-11.611-170.291-91.753-311.663-238.198-420.193
					c-97.349-72.144-214.624-119.612-339.15-137.275c-78.53-11.138-152.515-19.702-219.893-25.461
					c-148.232-12.668-239.629-103.196-275.737-183.694l0,0c-1.104-2.456-3.154-2.781-4.351-2.788
					c-1.143,0.01-3.213,0.393-4.258,2.842c-36.465,85.464-110.933,304.294-15.063,490.002
					c110.591,214.233,303.848,307.781,608.54,294.443C1228.788,2461.583,1236.688,2461.412,1244.515,2461.412z"/>
			</g>
		</g>
		<g>
			<g>
				<path style="fill:#F99121;" d="M1712.853,2862.71c-83.55,141.4-498.6,183-498.6,183c-61.9,3.85-117.55,2.65-167.55-2.7
					c-453.579-48.392-443.266-439.121-432.314-543.204c1.07-10.164,13.502-14.408,20.68-7.134
					c153.847,155.911,247.033,64.495,417.933,0.938c0.05-0.05,0.1-0.05,0.1-0.05c72.6-27,159.2-48.95,270.45-44.8
					C1706.503,2463.01,1712.853,2862.71,1712.853,2862.71z"/>
			</g>
			<g>
				<path style="fill:#FFF3E9;" d="M885.153,2873.41c0,0,57,49,188.9,57.95c0,0-19.6,40.9-116.75,49.4c0,0.5,0.35,33.4,89.4,62.25
					c-453.579-48.392-443.266-439.121-432.314-543.204c1.07-10.164,13.502-14.408,20.68-7.134
					c153.847,155.911,247.033,64.495,417.933,0.938c-3.15,1.9-104.2,63.15-139.3,156.1c2.2-1.6,65.4-45.95,187.95,24.1
					c0,0-84.65,1.8-136.3,40.1c0,0,46.3,4.45,89.1,17.85c0,0-29.4,26.7-79.3,39.2c0,0,55.25,19.6,95.35,23.15
					C1070.503,2794.11,1038.403,2877.01,885.153,2873.41z"/>
			</g>
			<g style="opacity:0.25;">
				<path style="fill:#6B1A4E;" d="M1712.853,2862.71c-3.6,6.1-7.85,12.05-12.65,17.8c-132.85,105.3-457.45,137.85-457.45,137.85
					c-61.9,3.85-117.55,2.65-167.55-2.7c-312.35-33.3-404.7-229-428.35-381.65c46.8,123.1,151.05,242.8,376.25,268.2
					c47.25,5.35,99.9,6.55,158.45,2.7c0,0,392.55-41.6,471.55-183c0,0-0.65-43.7-14.65-102.75
					C1710.753,2733.36,1712.853,2862.71,1712.853,2862.71z"/>
			</g>
			<g>
				<path style="fill:#6B1A4E;" d="M1143.851,3060.421c-186.397,0-327.612-49.114-420.776-146.377
					c-134.048-139.941-129.351-337.214-121.113-415.535c1.006-9.529,7.246-17.415,16.294-20.581
					c9.092-3.186,18.935-0.898,25.693,5.952c119.429,121.03,197.817,86.633,316.484,34.568
					c89.595-39.309,201.172-88.259,363.579-82.178c204.024,7.595,302.422,123.479,349.043,219.355
					c50.093,103.022,52.236,202.715,52.305,206.909c0.034,2.305-0.566,4.573-1.738,6.558
					c-85.796,145.164-490.928,187.322-508.135,189.045C1190.922,3059.661,1167.03,3060.421,1143.851,3060.421z M626.732,2502.022
					c-7.817,75.493-11.89,262.886,114.399,394.729c99.424,103.801,258.384,149.729,472.339,136.475
					c3.584-0.369,403.071-41.89,486.758-173.801c-0.874-18.398-7.212-105.994-50.02-193.611
					c-63.525-130.022-173.589-198.845-327.124-204.563c-156.802-5.803-265.357,41.809-352.603,80.09
					C851.761,2593.433,757.943,2634.598,626.732,2502.022z"/>
			</g>
		</g>
		<g>
			<g>
				<path style="fill:#F99121;" d="M1841.553,2991.41c0,0,2.25,435.35-472.45,440.4c-8,0.15-16.15,0.1-24.4-0.05
					c-372.763-7.357-456.677-209.073-474.891-282.47c-2.689-10.836,7.673-20.359,18.251-16.786
					c47.206,15.945,158.869,35.128,260.84-86.794c16.8-20.05,35.6-40.3,56.3-59.75c0-0.05,0-0.05,0-0.05
					C1349.403,2850.06,1583.853,2749.86,1841.553,2991.41z"/>
			</g>
			<g>
				<path style="fill:#FFF3E9;" d="M1369.103,3431.81c-8,0.15-16.15,0.1-24.4-0.05c-372.763-7.357-456.677-209.073-474.891-282.47
					c-2.689-10.836,7.673-20.359,18.251-16.786c47.206,15.945,158.869,35.128,260.84-86.794
					c16.788-20.036,35.574-40.272,56.258-59.71c0.007-0.007,0.029-0.017,0.024-0.008c-1.496,2.623-36.936,65.311-49.182,131.567
					c0,0.001-0.001,0.002,0,0.001c0.018-0.013,27.666-19.601,80.198-24.05c0.001,0,0.002-0.001,0.002,0
					c-0.028,0.032-48.104,55.256-69.498,87.347c-0.001,0.001-0.004,0.003-0.002,0.003c0.071-0.01,63.343-8.893,140.799,4.449
					c0.001,0,0.002,0,0.001,0c-0.03,0.018-85.555,51.305-116.7,80.45c0,0,0,0,0,0c0.012,0.004,49.007,15.799,129.194,17.55
					c0.004,0,0.009-0.002,0.006,0c-0.14,0.111-72.235,57.052-113.196,62.849c-0.002,0-0.005-0.001-0.004,0.001
					C1206.853,3346.244,1240.248,3402.781,1369.103,3431.81z"/>
			</g>
			<g style="opacity:0.25;">
				<path style="fill:#6B1A4E;" d="M1841.553,2991.41c0,0,0.3,59.15-23.1,134.1c-49.35,122.2-164.9,265.1-435.7,268
					c-8,0.15-16.15,0.1-24.4-0.05c-271.8-5.35-390.05-114.05-441.2-201c59.1,55.05,158.75,104.2,326.5,107.5
					c7.05,0.15,14.05,0.15,20.95,0.05c407.8-4.35,405.9-378.35,405.9-378.35c-32.1-30.1-63.75-53.95-94.85-72.5
					C1659.203,2861.86,1748.903,2904.56,1841.553,2991.41z"/>
			</g>
			<g>
				<path style="fill:#6B1A4E;" d="M1360.731,3444.412c-5.381,0-10.796-0.054-16.25-0.161
					c-163.247-3.21-290.552-43.418-378.369-119.502c-72.768-63.044-99.18-135.095-108.447-172.432
					c-2.344-9.441,0.649-19.402,7.808-25.996c7.163-6.594,17.344-8.767,26.572-5.645c51.787,17.483,152.788,29.958,247.261-82.996
					c60.156-71.917,186.699-194.119,358.335-204.524c120.586-7.283,239.131,42.874,352.48,149.141
					c2.505,2.346,3.931,5.62,3.95,9.053c0.039,7.822-0.552,193.071-134.946,325.532
					C1633.226,3401.544,1512.709,3444.412,1360.731,3444.412z M883.475,3144.256c-0.303,0-0.679,0.098-1.069,0.457
					c-0.708,0.652-0.537,1.328-0.474,1.582v0.002c8.55,34.465,32.988,101.025,100.547,159.558
					c83.286,72.153,205.244,110.308,362.49,113.401c152.578,3.052,272.461-37.368,356.416-119.99
					c114.722-112.91,126.377-271.748,127.554-302.529c-106.88-98.774-217.759-145.417-329.785-138.623
					c-162.28,9.836-283.096,126.777-340.669,195.608c-107.905,129.014-227.866,106.37-274.439,90.642
					C883.93,3144.324,883.729,3144.256,883.475,3144.256z"/>
			</g>
		</g>
		<g>
			<g>
				<path style="fill:#F99121;" d="M2580.603,2022.876c462.9-54.45,650.6-226.55,696.8-435.35c15.6-69.9,15.25-143.95,4.05-219.05
					c-35.55-239.1-171.15-333.2-224.35-361.4c-10.1-5.4-22.65,0.7-24.4,12.05c-20.35,133.9-94.75,210.25-177.3,275
					c-89.6,70.4-188.85,127.2-238.7,229.4C2518.503,1724.876,2580.603,2022.876,2580.603,2022.876z"/>
			</g>
			<g>
				<path style="fill:#FFF3E9;" d="M2860.853,1353.026c82-11.3,121.8-21.4,121.8-21.4c-26.75,70.7-62.35,132.5-62.35,132.5
					c103.35-27.95,135.45-79.05,135.45-79.05c-10.1,51.7,0,137.85,0,137.85c66.5-60.6,106.3-119.4,106.3-119.4
					c4.75,68.9,11.3,154.45,11.3,154.45c25.55-57.65,68.9-101,68.9-101c13.35,54.05,34.25,127.35,35.15,130.55
					c15.6-69.9,15.25-143.95,4.05-219.05c-35.55-239.1-171.15-333.2-224.35-361.4c-10.1-5.4-22.65,0.7-24.4,12.05
					c-20.35,133.9-94.75,210.25-177.3,275l35.75-12.4L2860.853,1353.026z"/>
			</g>
			<g style="opacity:0.25;">
				<path style="fill:#6B1A4E;" d="M2566.753,1924.36c5.7,59.4,13.85,98.5,13.85,98.5c97.4-11.45,182.6-28.15,256.85-49.25
					c0.65-0.15,1.3-0.35,1.9-0.55c258.1-79.55,374.95-216.2,409.9-374.1c15.4-69.05,15.05-142.2,4-216.4
					c-28.8-193.8-124.2-291.2-186.55-335.3c39.05,55.85,74.3,133.15,90,238.85c11.2,75.1,11.55,149.15-4.05,219.05
					C3110.353,1696.41,2949.303,1856.91,2566.753,1924.36z"/>
			</g>
			<g>
				<path style="fill:#6B1A4E;" d="M2580.59,2035.394c-5.85,0-11.006-4.097-12.227-9.951
					c-2.573-12.339-61.836-304.561,37.119-507.397c41.147-84.341,115.596-139.338,187.593-192.522
					c99.912-73.804,203.223-150.12,227.285-308.274c0-0.003,0-0.003,0-0.003c1.411-9.258,7.266-17.305,15.654-21.526
					c8.491-4.26,18.569-4.155,26.953,0.296c57.363,30.42,194.683,127.429,230.869,370.605
					c23.721,159.421-4.678,293.103-84.404,397.332c-110.186,144.045-321.265,235.342-627.373,271.355
					C2581.566,2035.367,2581.073,2035.394,2580.59,2035.394z M3045.077,1021.009L3045.077,1021.009
					c-25.62,168.367-133.154,247.803-237.144,324.622c-72.778,53.762-141.519,104.541-179.98,183.376
					c-84.629,173.467-47.07,424.265-37.222,480.076c292.842-36.091,494.302-123.65,598.843-260.317
					c75.464-98.652,102.222-225.986,79.536-378.462c-34.512-231.907-163.848-323.56-217.852-352.202
					c-1.743-0.918-3.262-0.42-4.009-0.044C3046.4,1018.485,3045.331,1019.344,3045.077,1021.009z"/>
			</g>
		</g>
		<g>
			<g>
				<path style="fill:#F99121;" d="M2422.903,2673.81c0,0,196.8-211.45,472.45-199.4c196.1,8.6,363.4-24,488.95-131.5
					c50.9-43.5,94.95-99.35,131.25-169.7c98.05-189.95,23.25-411.7-14.7-500.65c-5.9-13.75-25.35-13.95-31.5-0.25
					c-31.4,70-112.75,156.5-247.85,174.45c-5.75,0.75-11.6,1.4-17.55,1.9c-80.4,6.9-159.2,16.85-220.6,25.55
					c-124.6,17.7-243.7,64.65-344.8,139.6C2277.253,2281.56,2422.903,2673.81,2422.903,2673.81z"/>
			</g>
			<g>
				<path style="fill:#FFF3E9;" d="M3273.453,1944.91c0,0-54.35,31.2-75.3,62.4l110.05,9.8c0,0-42.75,32.05-123.85,90
					c0,0,88.2,12.45,175.55,13.35c0,0-31.2,106.05-114.05,154.15c0,0,90,16.95,156.8-29.4c0,0-3.05,50.55-18.35,97.7
					c50.9-43.5,94.95-99.35,131.25-169.7c98.05-189.95,23.25-411.7-14.7-500.65c-5.9-13.75-25.35-13.95-31.5-0.25
					c-31.4,70-112.75,156.5-247.85,174.45c0,0-45.2,11.25-98.65,69.4C3122.853,1916.16,3189.703,1915.51,3273.453,1944.91z"/>
			</g>
			<g style="opacity:0.25;">
				<path style="fill:#6B1A4E;" d="M2413.003,2640.51c58.7-53.4,229.15-187.65,450.35-178c196.1,8.6,363.4-24,488.95-131.5
					c50.9-43.5,94.95-99.35,131.25-169.7c78.7-152.5,46-325.5,10.4-433.85c4.6,79.5-5.85,165.8-47.45,246.35
					c-36.3,70.35-80.35,126.2-131.25,169.7c-125.55,107.5-292.85,140.1-488.95,131.5c-200-8.75-358.5,100.15-430.4,160.6
					C2388.653,2524.91,2402.603,2599.71,2413.003,2640.51z"/>
			</g>
			<g>
				<path style="fill:#6B1A4E;" d="M2422.899,2686.322c-0.811,0-1.631-0.078-2.446-0.242c-4.253-0.85-7.764-3.84-9.272-7.908
					c-1.523-4.106-37.246-102.097-28.423-234.775c8.154-122.642,57.856-298.464,248.33-439.622
					c100.679-74.612,221.89-123.694,350.518-141.938c78.994-11.204,153.442-19.822,221.279-25.618
					c137.412-11.746,221.855-95.015,255.054-169.016l0,0c4.868-10.852,15.234-17.559,27.1-17.559c0.103,0,0.195,0,0.293,0
					c11.973,0.112,22.329,7.021,27.026,18.032c37.847,88.723,115.01,316.15,14.282,511.282
					c-108.467,210.11-291.948,309.224-574.785,309.231c-18.599,0-37.603-0.427-57.07-1.282
					c-266.846-11.746-460.806,193.354-462.734,195.43C2429.662,2684.903,2426.332,2686.322,2422.899,2686.322z M3485.048,1674.644
					c-1.162,0-3.213,0.374-4.297,2.788l0,0c-36.108,80.498-127.505,171.025-275.737,183.694
					c-67.378,5.759-141.362,14.324-219.897,25.461c-124.521,17.664-241.797,65.132-339.146,137.275
					c-146.445,108.53-226.587,249.902-238.198,420.193c-6.436,94.387,11.157,171.992,20.889,206.357
					c51.406-48.958,229.204-198.879,467.217-188.481c304.604,13.325,497.949-80.208,608.545-294.443
					c95.859-185.693,21.401-404.534-15.063-490.002c-1.045-2.449-3.115-2.832-4.258-2.842
					C3485.082,1674.644,3485.067,1674.644,3485.048,1674.644z M3469.344,1672.318h0.049H3469.344z"/>
			</g>
		</g>
		<g>
			<g>
				<path style="fill:#F99121;" d="M2403.853,2862.71c83.55,141.4,498.6,183,498.6,183c61.9,3.85,117.55,2.65,167.55-2.7
					c453.579-48.392,443.266-439.121,432.313-543.204c-1.069-10.164-13.502-14.408-20.68-7.134
					c-153.847,155.911-247.033,64.495-417.933,0.938c-0.05-0.05-0.1-0.05-0.1-0.05c-72.6-27-159.2-48.95-270.45-44.8
					C2410.203,2463.01,2403.853,2862.71,2403.853,2862.71z"/>
			</g>
			<g>
				<path style="fill:#FFF3E9;" d="M3231.553,2873.41c0,0-57,49-188.9,57.95c0,0,19.6,40.9,116.75,49.4c0,0.5-0.35,33.4-89.4,62.25
					c453.579-48.392,443.266-439.121,432.313-543.204c-1.069-10.164-13.502-14.408-20.68-7.134
					c-153.847,155.911-247.033,64.495-417.933,0.938c3.15,1.9,104.2,63.15,139.3,156.1c-2.2-1.6-65.4-45.95-187.95,24.1
					c0,0,84.65,1.8,136.3,40.1c0,0-46.3,4.45-89.1,17.85c0,0,29.4,26.7,79.3,39.2c0,0-55.25,19.6-95.35,23.15
					C3046.203,2794.11,3078.303,2877.01,3231.553,2873.41z"/>
			</g>
			<g style="opacity:0.25;">
				<path style="fill:#6B1A4E;" d="M2403.853,2862.71c3.6,6.1,7.85,12.05,12.65,17.8c132.85,105.3,457.45,137.85,457.45,137.85
					c61.9,3.85,117.55,2.65,167.55-2.7c312.35-33.3,404.7-229,428.35-381.65c-46.8,123.1-151.05,242.8-376.25,268.2
					c-47.25,5.35-99.9,6.55-158.45,2.7c0,0-392.55-41.6-471.55-183c0,0,0.65-43.7,14.65-102.75
					C2405.953,2733.36,2403.853,2862.71,2403.853,2862.71z"/>
			</g>
			<g>
				<path style="fill:#6B1A4E;" d="M2973.031,3060.448c-23.101,0-46.865-0.754-71.343-2.271
					c-17.681-1.763-422.808-43.921-508.604-189.084c-1.172-1.985-1.772-4.253-1.738-6.558c0.068-4.194,2.212-103.887,52.305-206.907
					c46.621-95.879,145.02-211.763,349.038-219.358c162.446-6.079,273.994,42.866,363.579,82.178
					c118.662,52.063,197.056,86.462,316.489-34.568c6.758-6.848,16.597-9.131,25.693-5.952c9.048,3.167,15.288,11.052,16.294,20.579
					c8.237,78.323,12.935,275.593-121.113,415.537C3300.448,3011.326,3159.149,3060.448,2973.031,3060.448z M2416.478,2859.425
					c83.687,131.912,483.174,173.433,487.227,173.84c213.564,13.215,372.441-32.717,471.87-136.514
					c126.45-132.014,122.207-319.712,114.375-394.988c-131.035,132.898-224.897,91.714-343.726,39.578
					c-87.251-38.281-195.835-85.928-352.607-80.09c-153.535,5.718-263.594,74.541-327.119,204.563
					C2423.69,2753.431,2417.352,2841.026,2416.478,2859.425z"/>
			</g>
		</g>
		<g>
			<g>
				<path style="fill:#F99121;" d="M2275.153,2991.41c0,0-2.25,435.35,472.45,440.4c8,0.15,16.15,0.1,24.4-0.05
					c372.763-7.357,456.677-209.073,474.891-282.47c2.689-10.836-7.673-20.359-18.251-16.786
					c-47.206,15.945-158.869,35.128-260.84-86.794c-16.8-20.05-35.6-40.3-56.3-59.75c0-0.05,0-0.05,0-0.05
					C2767.303,2850.06,2532.853,2749.86,2275.153,2991.41z"/>
			</g>
			<g>
				<path style="fill:#FFF3E9;" d="M2747.603,3431.81c8,0.15,16.15,0.1,24.4-0.05c372.763-7.357,456.677-209.073,474.891-282.47
					c2.689-10.836-7.673-20.359-18.251-16.786c-47.206,15.945-158.869,35.128-260.84-86.794
					c-16.788-20.036-35.574-40.272-56.258-59.71c-0.007-0.007-0.029-0.017-0.024-0.008c1.496,2.623,36.936,65.311,49.182,131.567
					c0,0.001,0.001,0.002,0,0.001c-0.018-0.013-27.666-19.601-80.198-24.05c-0.001,0-0.002-0.001-0.002,0
					c0.028,0.032,48.104,55.256,69.499,87.347c0.001,0.001,0.003,0.003,0.002,0.003c-0.071-0.01-63.343-8.893-140.799,4.449
					c0,0-0.002,0-0.001,0c0.03,0.018,85.555,51.305,116.7,80.45c0,0,0,0,0,0c-0.012,0.004-49.007,15.799-129.193,17.55
					c-0.004,0-0.01-0.002-0.007,0c0.14,0.111,72.235,57.052,113.196,62.849c0.002,0,0.005-0.001,0.004,0.001
					C2909.854,3346.244,2876.458,3402.781,2747.603,3431.81z"/>
			</g>
			<g style="opacity:0.25;">
				<path style="fill:#6B1A4E;" d="M2275.153,2991.41c0,0-0.3,59.15,23.1,134.1c49.35,122.2,164.9,265.1,435.7,268
					c8,0.15,16.15,0.1,24.4-0.05c271.8-5.35,390.05-114.05,441.2-201c-59.1,55.05-158.75,104.2-326.5,107.5
					c-7.05,0.15-14.05,0.15-20.95,0.05c-407.8-4.35-405.9-378.35-405.9-378.35c32.1-30.1,63.75-53.95,94.85-72.5
					C2457.503,2861.86,2367.803,2904.56,2275.153,2991.41z"/>
			</g>
			<g>
				<path style="fill:#6B1A4E;" d="M2755.975,3444.412c-151.992,0-272.49-42.864-358.394-127.529
					c-134.395-132.461-134.985-317.71-134.946-325.532c0.02-3.433,1.445-6.707,3.95-9.053
					c113.354-106.27,232.017-156.416,352.476-149.141c171.641,10.405,298.179,132.607,358.335,204.524
					c94.468,112.947,195.464,100.481,247.266,82.996c9.229-3.123,19.409-0.95,26.572,5.645c7.158,6.594,10.151,16.555,7.808,25.996
					l0,0c-9.268,37.336-35.679,109.387-108.447,172.432c-87.817,76.084-215.122,116.292-378.369,119.502
					C2766.781,3444.359,2761.346,3444.412,2755.975,3444.412z M2287.767,2996.737c1.177,30.781,12.832,189.619,127.554,302.529
					c83.955,82.625,203.882,123.005,356.416,119.99c157.246-3.093,279.204-41.248,362.49-113.401
					c67.559-58.533,91.997-125.093,100.547-159.558v-0.002c0.063-0.254,0.234-0.93-0.474-1.582
					c-0.718-0.664-1.387-0.437-1.641-0.349c-46.563,15.723-166.533,38.372-274.443-90.642
					c-57.568-68.831-178.384-185.771-340.664-195.608C2505.487,2851.326,2394.652,2897.962,2287.767,2996.737z"/>
			</g>
		</g>
		<g>
			<g>
				<path style="fill:#F99121;" d="M1731.303,3419.51c-166.95,24.85-239.35-20.35-233.1-67.1c1.95-14.45,9.25-25.7,18.45-34.25
					c0.05-0.05,0.05-0.1,0.05-0.1c20.55-19.15,50.4-25.25,50.4-25.25c-1.6-1.8-3.15-3.65-4.7-5.45c-42.3-50-63.3-99.75-70.2-147.05
					c-9.7-65.6,7.7-126.4,32.7-176.35c39.75-79.45,98.75-131.35,98.75-131.35c22.95,44.2,48.65,95.15,73.25,148.15
					c46.25,99.85,88.5,207.15,101.25,290.8C1810.353,3351.61,1795.503,3409.96,1731.303,3419.51z"/>
			</g>
			<g>
				<path style="fill:#935125;" d="M1731.303,3419.51c-166.95,24.85-239.35-20.35-233.1-67.1c6.25-46.8,68.9-59.6,68.9-59.6
					c-1.6-1.8-3.15-3.65-4.7-5.45c0,0,31.75-36.1,90.7-14.15c58.95,22,83.9-11.2,124.3-7.1c7.5,0.75,14.45,2.7,20.75,5.45
					C1810.353,3351.61,1795.503,3409.96,1731.303,3419.51z"/>
			</g>
			<g>
				<path style="fill:#935125;" d="M1604.853,3164.21c-29.35,28.15-76.85,35.25-112.65-23.9c-9.7-65.6,7.7-126.4,32.7-176.35
					c4.65-6.2,9.65-10.95,14.9-13.3c0,0-26.15,78.5-14.25,137.7c11.85,59.25,56.5,67.25,69,35.2s-19.45-41.8-33.9-22.05
					c0.55-1.6,10.9-29.75,38.1-22.1C1626.653,3087.31,1634.403,3135.81,1604.853,3164.21z"/>
			</g>
			<g style="opacity:0.25;">
				<path style="fill:#6B1A4E;" d="M1731.303,3419.51c-166.95,24.85-239.35-20.35-233.1-67.1c1.95-14.45,9.25-25.7,18.45-34.25
					c-1.15,2.75-23.8,58.35,82.25,60.75c108.7,2.45,189.85-63.85,34.75-88.6l-71.25-2.95c0,0,115.25-94.35,55.85-297.5
					c0,0,33.2-4.55,78.65-9.1c46.25,99.85,88.5,207.15,101.25,290.8C1810.353,3351.61,1795.503,3409.96,1731.303,3419.51z"/>
			</g>
			<g>
				<path style="fill:#6B1A4E;" d="M1564.998,3280.511c26.934-2.132,53.432-0.133,80.082,2.96c8.699,1.05,17.348,2.352,25.964,3.742
					c3.083,0.497,5.18,3.4,4.682,6.484c-0.46,2.856-2.99,4.867-5.806,4.75c-33.546-0.842-67.876-0.054-100.738,6.714
					C1551.918,3308.706,1547.483,3282.886,1564.998,3280.511L1564.998,3280.511z"/>
			</g>
			<g>
				<path style="fill:#6B1A4E;" d="M1571.266,3347.508c-2.657,20.569,1.174,42.105,8.092,61.55
					c5.059,15.814-17.951,23.84-23.805,8.268c-3.558-24.252-1.398-49.528,7.411-72.538
					C1565.007,3339.882,1572.498,3342.379,1571.266,3347.508L1571.266,3347.508z"/>
			</g>
			<g>
				<path style="fill:#6B1A4E;" d="M1657.256,3350.181c-2.657,20.569,1.174,42.105,8.092,61.55
					c5.058,15.814-17.951,23.84-23.805,8.268c-3.557-24.253-1.398-49.528,7.411-72.538
					C1650.997,3342.555,1658.488,3345.052,1657.256,3350.181L1657.256,3350.181z"/>
			</g>
			<g>
				<path style="fill:#6B1A4E;" d="M1644.252,3438.992c-64.761,0-113.936-13.372-140.02-39.07
					c-14.233-14.023-20.776-31.494-18.418-49.189c4.961-37.188,37.939-55.894,59.663-64.29
					c-95.386-119.707-73.775-237.112-37.632-315.815c40.176-87.502,104.829-144.99,107.564-147.395
					c2.881-2.537,6.772-3.611,10.552-2.903c3.779,0.706,7.021,3.11,8.794,6.519c153.301,294.688,207.7,477.383,166.299,558.525
					c-13.345,26.157-36.187,41.809-67.896,46.521C1701.166,3436.654,1671.342,3438.992,1644.252,3438.992z M1620.272,2853.248
					c-20.151,20.417-62.017,67.185-90.02,128.489c-49.839,109.116-34.277,211.011,46.26,302.852c2.935,3.35,3.867,8.01,2.446,12.231
					c-1.421,4.224-4.985,7.368-9.351,8.259c-0.513,0.107-54.038,11.665-59.009,48.958c-1.338,10.007,2.427,19.453,11.177,28.079
					c11.572,11.401,60.737,46.904,207.71,25.054c23.579-3.506,39.707-14.351,49.302-33.157
					C1815.072,3302.886,1761.737,3127.703,1620.272,2853.248z"/>
			</g>
		</g>
		<g>
			<g>
				<path style="fill:#F99121;" d="M2385.403,3419.51c166.95,24.85,239.35-20.35,233.1-67.1c-1.95-14.45-9.25-25.7-18.45-34.25
					c-0.05-0.05-0.05-0.1-0.05-0.1c-20.55-19.15-50.4-25.25-50.4-25.25c1.6-1.8,3.15-3.65,4.7-5.45c42.3-50,63.3-99.75,70.2-147.05
					c9.7-65.6-7.7-126.4-32.7-176.35c-39.75-79.45-98.75-131.35-98.75-131.35c-22.95,44.2-48.65,95.15-73.25,148.15
					c-46.25,99.85-88.5,207.15-101.25,290.8C2306.353,3351.61,2321.203,3409.96,2385.403,3419.51z"/>
			</g>
			<g>
				<path style="fill:#935125;" d="M2385.403,3419.51c166.95,24.85,239.35-20.35,233.1-67.1c-6.25-46.8-68.9-59.6-68.9-59.6
					c1.6-1.8,3.15-3.65,4.7-5.45c0,0-31.75-36.1-90.7-14.15c-58.95,22-83.9-11.2-124.3-7.1c-7.5,0.75-14.45,2.7-20.75,5.45
					C2306.353,3351.61,2321.203,3409.96,2385.403,3419.51z"/>
			</g>
			<g>
				<path style="fill:#935125;" d="M2511.853,3164.21c29.35,28.15,76.85,35.25,112.65-23.9c9.7-65.6-7.7-126.4-32.7-176.35
					c-4.65-6.2-9.65-10.95-14.9-13.3c0,0,26.15,78.5,14.25,137.7c-11.85,59.25-56.5,67.25-69,35.2s19.45-41.8,33.9-22.05
					c-0.55-1.6-10.9-29.75-38.1-22.1C2490.053,3087.31,2482.303,3135.81,2511.853,3164.21z"/>
			</g>
			<g style="opacity:0.25;">
				<path style="fill:#6B1A4E;" d="M2385.403,3419.51c166.95,24.85,239.35-20.35,233.1-67.1c-1.95-14.45-9.25-25.7-18.45-34.25
					c1.15,2.75,23.8,58.35-82.25,60.75c-108.7,2.45-189.85-63.85-34.75-88.6l71.25-2.95c0,0-115.25-94.35-55.85-297.5
					c0,0-33.2-4.55-78.65-9.1c-46.25,99.85-88.5,207.15-101.25,290.8C2306.353,3351.61,2321.203,3409.96,2385.403,3419.51z"/>
			</g>
			<g>
				<path style="fill:#6B1A4E;" d="M2547.473,3305.15c-32.851-6.754-67.155-7.545-100.687-6.702
					c-3.143,0.125-5.791-2.349-5.876-5.495c-0.079-2.869,1.993-5.297,4.752-5.739c8.615-1.39,17.265-2.693,25.964-3.742
					c21.909-2.654,43.992-4.216,66.13-3.734c4.588,0.127,8.816,0.26,13.952,0.773c6.886,0.689,11.91,6.83,11.222,13.716
					C2562.241,3301.746,2554.783,3307,2547.473,3305.15L2547.473,3305.15z"/>
			</g>
			<g>
				<path style="fill:#6B1A4E;" d="M2553.741,3344.787c8.752,22.145,10.235,46.044,8.058,69.537
					c-0.626,6.931-6.752,12.042-13.683,11.416c-6.93-0.626-12.042-6.752-11.416-13.682c6.477-20.631,11.881-42.793,8.738-64.551
					C2544.277,3342.303,2551.656,3339.895,2553.741,3344.787L2553.741,3344.787z"/>
			</g>
			<g>
				<path style="fill:#6B1A4E;" d="M2467.751,3347.46c8.752,22.145,10.235,46.044,8.058,69.538
					c-0.626,6.931-6.752,12.041-13.682,11.416c-6.931-0.626-12.042-6.752-11.416-13.682c6.476-20.631,11.881-42.794,8.738-64.551
					C2458.287,3344.976,2465.666,3342.568,2467.751,3347.46L2467.751,3347.46z"/>
			</g>
			<g>
				<path style="fill:#6B1A4E;" d="M2472.455,3438.992c-27.095,0-56.904-2.339-88.906-7.097
					c-31.709-4.712-54.551-20.364-67.896-46.521c-41.401-81.143,12.998-263.838,166.299-558.525
					c1.772-3.408,5.015-5.813,8.794-6.519c3.779-0.703,7.671,0.369,10.552,2.903c2.734,2.405,67.388,59.893,107.563,147.395
					c36.143,78.704,57.754,196.108-37.637,315.815c21.724,8.396,54.707,27.102,59.668,64.292
					c2.358,17.693-4.185,35.164-18.418,49.187C2586.39,3425.618,2537.211,3438.992,2472.455,3438.992z M2496.434,2853.248
					c-141.465,274.456-194.8,449.639-158.516,520.764c9.595,18.806,25.723,29.651,49.302,33.157
					c146.973,21.833,196.138-13.657,207.71-25.054c8.75-8.625,12.515-18.071,11.177-28.076
					c-4.971-37.292-58.501-48.853-59.038-48.965c-4.355-0.906-7.91-4.058-9.321-8.274s-0.488-8.87,2.441-12.212
					c80.537-91.841,96.104-193.735,46.265-302.852C2558.451,2920.433,2516.586,2873.665,2496.434,2853.248z"/>
			</g>
		</g>
		<g>
			<g>
				<path style="fill:#F99121;" d="M2440.603,3381.36c-17.85,61.15-189.8,68.6-287.85,32.95c0,0-48.6,7.15-94.25,7.15h-0.15
					c-45.6,0-94.1-7.15-94.1-7.15c-98.05,35.65-270,28.2-287.85-32.95c-2.95-10.1-3.1-19.35-1.4-27.7
					c7.25-36.5,49.55-56.1,49.55-56.1c-133.3-232.75-124.05-441.2-94.5-572.2c20.25-89.65,49.95-143,49.95-143l199.85-13.8
					l178.5-12.35h0.3l378.4,26.15c0,0,180,323.15-44.55,715.2C2392.503,3297.56,2456.353,3327.16,2440.603,3381.36z"/>
			</g>
			<g>
				<path style="fill:#935125;" d="M1623.666,2991.416c0,0,28.764,108.345,92.889,135.969s98.877-17.822,76.6-50.792
					s-52.574-8.911-43.218,17.822c0,0-21.832-29.406,4.01-50.792c25.842-21.386,77.079,3.119,84.653,49.901
					c7.574,46.782-17.376,97.129-98.911,91.337c-81.535-5.792-92.891-64.675-92.891-64.675S1617.246,3025.2,1623.666,2991.416z"/>
			</g>
			<g>
				<path style="fill:#935125;" d="M1651.472,2673.821c0,0-27.624,160.396,8.02,225.445c35.644,65.05,79.307,51.683,82.871,10.693
					c0,0,23.168,44.258-5.941,70.99c-29.795,27.363-113.465,3.564-117.624-100.99
					C1614.64,2775.405,1634.244,2732.633,1651.472,2673.821z"/>
			</g>
			<g>
				<path style="fill:#935125;" d="M2493.354,2991.416c0,0-28.764,108.345-92.889,135.969s-98.877-17.822-76.6-50.792
					c22.277-32.97,52.574-8.911,43.218,17.822c0,0,21.832-29.406-4.01-50.792c-25.842-21.386-77.079,3.119-84.653,49.901
					c-7.574,46.782,17.376,97.129,98.911,91.337c81.534-5.792,92.89-64.675,92.89-64.675S2499.774,3025.2,2493.354,2991.416z"/>
			</g>
			<g>
				<path style="fill:#935125;" d="M2465.549,2673.821c0,0,27.624,160.396-8.02,225.445c-35.644,65.05-79.307,51.683-82.871,10.693
					c0,0-23.168,44.258,5.941,70.99c29.795,27.363,113.465,3.564,117.624-100.99
					C2502.381,2775.405,2482.777,2732.633,2465.549,2673.821z"/>
			</g>
			<g>
				<path style="fill:#935125;" d="M1714.555,3279.7c0,0,52.164-46.275,102.659-30.235c50.495,16.04,79.01,24.48,112.871,13.428
					s50.739,3.478,52.107,24.483c1.368,21.006,53.636,141.363-91.018,144.102s-220.099-14.489-214.158-68.548
					c5.941-54.06,47.525-65.347,47.525-65.347L1714.555,3279.7z"/>
			</g>
			<g>
				<path style="fill:#935125;" d="M2402.465,3279.7c0,0-52.164-46.275-102.659-30.235c-50.495,16.04-79.01,24.48-112.871,13.428
					c-33.861-11.052-50.739,3.478-52.107,24.483s-53.636,141.363,91.018,144.102c144.654,2.739,220.099-14.489,214.158-68.548
					c-5.94-54.06-47.525-65.347-47.525-65.347L2402.465,3279.7z"/>
			</g>
			<g style="opacity:0.25;">
				<path style="fill:#6B1A4E;" d="M2200.603,3352.41c-7.3-35.5,38.7-52.8,68.8-60.25c-91.5,12.85-75.7-52.95-72.4-134.5
					c0.788-19.294,3.207-36.867,6.506-52.55c9.818-46.667,38.333-87.496,78.494-113.212
					c170.881-109.419,203.863-262.742,204.649-266.538c-20.25-89.65-49.95-143-49.95-143l-199.85-13.8
					c-0.611,1.577-1.228,3.171-1.85,4.78c-62.409,161.454-290.891,161.454-353.301,0c-0.622-1.609-1.239-3.203-1.85-4.78
					l-199.85,13.8c0,0-29.7,53.35-49.95,143c0.787,3.796,33.76,157.08,204.585,266.497c41.35,26.485,69.872,68.999,79.358,117.179
					c2.889,14.673,4.984,30.925,5.707,48.625c3.3,81.55,19.1,147.35-72.4,134.5c30.1,7.45,76.1,24.75,68.8,60.25
					c-9.7,47.4-225.8,46.55-241.1,1.25c-1.7,8.35-1.55,17.6,1.4,27.7c17.85,61.15,189.8,68.6,287.85,32.95c0,0,48.5,7.15,94.1,7.15
					c45.6,0,94.1-7.15,94.1-7.15c98.05,35.65,270,28.2,287.85-32.95c2.95-10.1,3.1-19.35,1.4-27.7
					C2426.403,3398.96,2210.303,3399.81,2200.603,3352.41z"/>
			</g>
			<g>
				<path style="fill:#6B1A4E;" d="M1946.608,3406.989c28.406-14.768,27.295-52.293,26.02-80.423
					c-1.287-34.777-3.935-69.863-6.445-104.875c-4.738-70.166-12.55-140.094-15.922-210.392c-0.154-3.316,2.409-6.129,5.724-6.283
					c3.062-0.143,5.696,2.045,6.203,4.989c5.957,34.784,10.208,69.736,14.113,104.739c8.31,79.206,18.681,158.09,20.827,237.92
					c0.295,30.306-12.226,65.704-42.635,78.049C1938.714,3435.487,1931.087,3412.611,1946.608,3406.989L1946.608,3406.989z"/>
			</g>
			<g>
				<path style="fill:#6B1A4E;" d="M2162.528,3430.713c-40.98-17.417-45.392-66.621-41.782-105.183
					c2.075-35.521,5.243-70.588,8.712-105.693c7.485-70.107,13.816-140.236,25.375-209.832c0.561-3.271,3.667-5.469,6.939-4.909
					c3.021,0.517,5.125,3.219,4.989,6.203c-1.565,35.188-4.498,70.245-7.533,105.275c-6.024,78.365-14.193,157.159-15.217,235.611
					c0.198,20.871,6.842,45.158,26.403,54.803C2185.893,3412.52,2178.327,3435.542,2162.528,3430.713L2162.528,3430.713z"/>
			</g>
			<g>
				<path style="fill:#6B1A4E;" d="M1710.344,3291.123c51.483-25.104,114.482-16.685,163.277,10.658
					c6.772,3.816,13.171,8.364,19.607,12.696c1.878,1.322,2.329,3.916,1.007,5.794c-1.104,1.568-3.094,2.141-4.814,1.518
					c-20.617-8.068-41.836-16.023-63.675-19.832c-34.249-6.644-71.381-4.279-102.98,10.862
					C1708.085,3321.08,1695.708,3299.61,1710.344,3291.123L1710.344,3291.123z"/>
			</g>
			<g>
				<path style="fill:#6B1A4E;" d="M1755.216,3351.731c-7.984,21.082-6.021,46.354,5.953,65.563
					c8.923,15.962-15.354,27.859-22.462,10.975c-7.964-20.005-9.05-42.679-2.535-63.127c2.112-6.718,4.642-12.804,8.487-19.231
					c1.705-2.851,5.399-3.779,8.25-2.073C1755.68,3345.482,1756.543,3348.936,1755.216,3351.731L1755.216,3351.731z"/>
			</g>
			<g>
				<path style="fill:#6B1A4E;" d="M1849.226,3355.295c-7.984,21.082-6.021,46.354,5.953,65.563
					c8.923,15.962-15.354,27.858-22.462,10.975c-7.964-20.004-9.05-42.68-2.535-63.127c2.112-6.719,4.642-12.804,8.487-19.231
					c1.705-2.851,5.399-3.779,8.25-2.073C1849.69,3349.047,1850.553,3352.5,1849.226,3355.295L1849.226,3355.295z"/>
			</g>
			<g>
				<path style="fill:#6B1A4E;" d="M2394.255,3312.819c-38.374-18.449-83.916-17.602-124.277-5.865
					c-14.328,3.695-28.485,9.624-42.375,14.833c-4.43,1.67-7.752-4.628-3.811-7.31c9.165-6.494,19.824-13.212,30.029-18.127
					c46.737-22.905,105.093-28.571,152.855-5.228C2421.262,3299.578,2409.018,3321.083,2394.255,3312.819L2394.255,3312.819z"/>
			</g>
			<g>
				<path style="fill:#6B1A4E;" d="M2372.362,3345.91c10.872,18.571,14.905,40.08,11.656,61.306
					c-2.324,11.501-5.107,33.781-21.826,28.507c-6.511-2.394-9.848-9.612-7.455-16.123c2.749-5.707,6.287-11.065,8.074-17.279
					c5.54-15.971,4.888-34.85-1.006-50.591C2358.531,3344.819,2368.348,3339.419,2372.362,3345.91L2372.362,3345.91z"/>
			</g>
			<g>
				<path style="fill:#6B1A4E;" d="M2278.352,3349.475c10.871,18.571,14.906,40.08,11.656,61.306
					c-2.324,11.501-5.107,33.78-21.826,28.507c-6.511-2.394-9.848-9.612-7.455-16.123c2.749-5.707,6.288-11.064,8.074-17.278
					c5.54-15.971,4.889-34.85-1.006-50.592C2264.522,3348.383,2274.339,3342.983,2278.352,3349.475L2278.352,3349.475z"/>
			</g>
			<g>
				<path style="fill:#6B1A4E;" d="M1828.573,3448.199c-49.253,0-95.781-7.644-125.854-22.896
					c-20.64-10.466-33.525-24.08-38.296-40.464c-12.739-43.733,17.959-76.274,43.032-92.104
					c-111.704-201.184-117.207-383.247-101.792-501.423c17.046-130.674,61.519-211.675,63.408-215.059
					c2.056-3.694,5.84-6.096,10.059-6.389l378.364-26.138c0.337-0.022,0.645-0.039,1.016-0.029c0.371,0.005,0.684,0.01,1.016,0.029
					l378.369,26.138c4.219,0.293,8.003,2.695,10.059,6.389c1.89,3.384,46.362,84.385,63.408,215.059
					c15.415,118.176,9.907,300.239-101.797,501.423c25.073,15.83,55.771,48.372,43.037,92.107
					c-4.771,16.382-17.656,29.995-38.301,40.461c-58.887,29.861-180.835,30.566-262.832,1.816
					c-11.606,1.584-53.047,6.824-92.959,6.824c-39.912,0-81.353-5.239-92.959-6.824
					C1925.433,3441.185,1875.756,3448.199,1828.573,3448.199z M1687.87,2594.32c-10.278,20.718-43.804,94.573-57.563,201.362
					c-14.985,116.27-8.916,296.646,105.078,495.688c1.743,3.042,2.129,6.672,1.064,10.01c-1.064,3.337-3.476,6.074-6.655,7.546
					c-2.183,1.023-53.916,25.845-41.367,68.923c2.759,9.478,11.372,17.942,25.596,25.156
					c53.496,27.129,170.723,26.919,245.947-0.439c1.948-0.703,4.053-0.913,6.084-0.62c0.479,0.071,48.306,6.997,92.456,6.997
					c44.15,0,91.978-6.926,92.456-6.997c2.041-0.295,4.141-0.088,6.084,0.62c75.225,27.358,192.451,27.568,245.947,0.439
					c14.229-7.214,22.842-15.679,25.601-25.156c12.627-43.352-40.83-68.672-41.372-68.923c-3.179-1.472-5.591-4.209-6.655-7.546
					s-0.679-6.97,1.064-10.01c113.994-199.043,120.063-379.419,105.083-495.688c-13.76-106.79-47.285-180.645-57.563-201.362
					l-370.645-25.603L1687.87,2594.32z"/>
			</g>
		</g>
		<g>
			<g>
				<path style="fill:#FFF3E9;" d="M2482.503,2685.41l-26.75-53.45c0,0,17.8,145.25-116.75,252.15l-8.9-55.25
					c0,0-103.6,156.25-271.6,216.85c-168-60.6-271.6-216.85-271.6-216.85l-8.9,55.25c-134.55-106.9-116.75-252.15-116.75-252.15
					l-26.7,53.45c0,0,0-0.1-0.05-0.3c-45.25-163.7,66.3-221,66.3-221l-45.75-8.9c143.75-134.25,403.45-59.4,403.45-59.4
					s259.7-74.85,403.5,59.4l-45.75,8.9C2416.253,2464.11,2527.903,2521.46,2482.503,2685.41z"/>
			</g>
			<g style="opacity:0.25;">
				<path style="fill:#6B1A4E;" d="M2392.453,2510.76c0,0,33.85,138.1-21.35,214.75c0,0-7.15-58.8-34.8-89.1
					c0,0-45.65,185.95-277.8,314.25c-232.15-128.3-277.8-314.25-277.8-314.25c-27.65,30.3-34.8,89.1-34.8,89.1
					c-55.2-76.65-21.35-214.75-21.35-214.75c-102.95,52.75-90.85,167.7-90.05,174.35c0.05,0.2,0.05,0.3,0.05,0.3l26.7-53.45
					c0,0-17.8,145.25,116.75,252.15l8.9-55.25c0,0,103.6,156.25,271.6,216.85c168-60.6,271.6-216.85,271.6-216.85l8.9,55.25
					c134.55-106.9,116.75-252.15,116.75-252.15l26.7,53.45c0,0,0-0.1,0.05-0.3C2483.303,2678.46,2495.403,2563.51,2392.453,2510.76z
					"/>
			</g>
			<g>
				<path style="fill:#6B1A4E;" d="M2058.51,3058.201c-1.436,0-2.871-0.247-4.243-0.742
					c-131.235-47.329-222.847-149.866-259.761-197.124l-4.16,25.771c-0.703,4.382-3.682,8.062-7.822,9.666
					c-4.136,1.602-8.818,0.898-12.295-1.87c-89.087-70.796-114.092-157.009-120.391-211.138l-4.116,8.232
					c-2.315,4.626-7.212,7.349-12.388,6.851c-5.146-0.498-9.458-4.119-10.84-9.102c-33.608-121.26,15.791-188.484,48.179-217.759
					l-18.027-3.511c-4.609-0.898-8.325-4.307-9.624-8.823c-1.294-4.517,0.054-9.377,3.486-12.583
					c139.844-130.601,379.009-72.129,412.002-63.24c32.993-8.889,272.158-67.363,412.007,63.24c3.433,3.206,4.78,8.066,3.486,12.583
					c-1.299,4.517-5.015,7.925-9.624,8.823l-18.027,3.511c32.388,29.275,81.782,96.499,48.174,217.759
					c-1.382,4.983-5.693,8.604-10.84,9.102c-5.122,0.498-10.068-2.224-12.388-6.851l-4.116-8.232
					c-6.299,54.128-31.304,140.342-120.391,211.138c-3.477,2.769-8.154,3.472-12.295,1.87c-4.141-1.604-7.119-5.283-7.822-9.666
					l-4.16-25.771c-36.914,47.258-128.525,149.795-259.761,197.124C2061.381,3057.955,2059.945,3058.201,2058.51,3058.201z
					 M1786.918,2816.373c4.131,0,8.066,2.051,10.415,5.586c1.006,1.516,101.641,150.918,261.177,210.427
					c159.785-59.6,260.171-208.909,261.172-210.422c2.847-4.287,8.008-6.387,13.062-5.313c5.029,1.089,8.877,5.146,9.697,10.229
					l5.381,33.352c109.224-99.329,95.674-225.471,95.513-226.794c-0.718-6.033,3.008-11.719,8.828-13.462
					c5.811-1.748,12.046,0.94,14.766,6.372l10.894,21.794c19.658-126.555-66.338-172.419-67.285-172.905
					c-4.741-2.432-7.417-7.603-6.67-12.876c0.752-5.273,4.761-9.495,9.985-10.515l20.029-3.901
					c-139.927-105.059-369.497-40.82-371.914-40.132c-2.256,0.649-4.658,0.649-6.914,0c-2.417-0.691-231.992-64.922-371.909,40.132
					l20.029,3.901c5.225,1.021,9.233,5.242,9.985,10.515c0.747,5.273-1.929,10.444-6.67,12.876
					c-3.814,1.995-87.148,47.261-67.319,172.959l10.923-21.848c2.725-5.439,8.955-8.14,14.79-6.377
					c5.825,1.755,9.541,7.451,8.799,13.491c-0.156,1.301-13.706,127.441,95.518,226.77l5.381-33.352
					c0.816-5.081,4.668-9.136,9.697-10.225C1785.155,2816.466,1786.044,2816.373,1786.918,2816.373z"/>
			</g>
		</g>
		<g>
			<g>
				<path style="fill:#F99121;" d="M2835.903,2050.51c0,0,15.6,6.7,41.45,10.25c0,0-177,382.9-813.9,406.15
					c-1.7,0.1-3.4,0.15-5.1,0.2c-636.05-21.25-816.2-400.35-818.95-406.3c-0.05-0.05-0.05-0.05-0.05-0.05
					c25.85-3.55,41.45-10.25,41.45-10.25c-40.55-23.6-51.25-63.7-51.25-63.7c19.15,0,59.7-4.45,59.7-4.45
					c-20.95-17.4-24.5-49.05-24.5-49.05c46.3-20.5,77.5-38.3,77.5-38.3c12.5-128.3,38.35-245.35,38.35-245.35
					c-90.15-430.7-20.25-658.5,29.35-755.9c20.75-40.8,70.3-57.55,111.5-37.6c161.75,78.25,328.75,338.45,328.75,338.45
					c99.8-28.5,208.15-28.5,208.15-28.5s108.35,0,208.15,28.5c0,0,167-260.2,328.75-338.45c41.2-19.95,90.75-3.2,111.5,37.6
					c49.6,97.4,119.5,325.2,29.35,755.9c0,0,25.85,117.05,38.35,245.35c0,0,31.2,17.8,77.5,38.3c0,0-3.55,31.65-24.5,49.05
					c0,0,40.55,4.45,59.7,4.45C2887.153,1986.81,2876.453,2026.91,2835.903,2050.51z"/>
			</g>
			<g>
				<path style="fill:#FFF3E9;" d="M2887.153,1986.81c-19.15,0-59.7-4.45-59.7-4.45c20.95-17.4,24.5-49.05,24.5-49.05
					c-46.3-20.5-77.5-38.3-77.5-38.3s-174.078-28.226-319.9,49.15c-174.665,92.681-197.15-34.1-396.2-34.1
					s-221.535,126.781-396.2,34.1c-145.822-77.376-319.9-49.15-319.9-49.15s-31.2,17.8-77.5,38.3c0,0,3.55,31.65,24.5,49.05
					c0,0-40.55,4.45-59.7,4.45c0,0,10.7,40.1,51.25,63.7c0,0-15.6,6.7-41.45,10.25c0,0,0,0,0.05,0.05
					c2.743,5.934,181.974,382.966,813.849,406.083c0,0.005,0,0.011,0.001,0.017c1.7,0.1,3.4,0.15,5.1,0.2c1.7-0.05,3.4-0.1,5.1-0.2
					c0-0.006,0-0.012,0-0.017c631.875-23.117,811.107-400.149,813.849-406.083c0.05-0.05,0.05-0.05,0.05-0.05
					c-25.85-3.55-41.45-10.25-41.45-10.25C2876.453,2026.91,2887.153,1986.81,2887.153,1986.81z"/>
			</g>
			<g style="opacity:0.25;">
				<path style="fill:#6B1A4E;" d="M2058.353,2365.51c-551.15-37.15-814.85-300.6-818.95-304.7c2.75,5.95,182.9,385.05,818.95,406.3
					c636.05-21.25,816.2-400.35,818.95-406.3C2873.203,2064.91,2609.503,2328.36,2058.353,2365.51z"/>
			</g>
			<g>
				<g>
					<path style="fill:#FFF3E9;" d="M1562.353,1258.76c0,0-92.65,14.7-35.6,96.45c0,0-9.5,16.4-23.3,42.25
						c-23.95,44.9-60.7,118.3-82.75,183.9c0,0-10.4-50.45-14-105.15c-3.55-54.7-15.45-253.1,3.6-379
						c15.15-100.4,39.35-137.35,48.6-148.25c2.3-2.75,3.65-3.85,3.65-3.85s83.5,75.3,160.7,231
						C1623.253,1176.11,1493.753,1147.41,1562.353,1258.76z"/>
				</g>
				<g>
					<path style="fill:#6B1A4E;" d="M1466.176,941.099c19.745,14.452,36.001,31.907,51.461,50.122
						c30.722,36.391,58.424,75.562,82.69,116.551c12.292,20.43,23.448,41.507,34.144,62.796c3.118,6.119,0.685,13.608-5.435,16.724
						c-2.729,1.391-5.683,1.664-8.47,1.035c-18.133-3.419-49.356-6.755-62.225,6.194c-10.737,15.53,6.13,42.556,14.663,57.693
						c3.599,5.927,1.71,13.649-4.217,17.247c-1.417,0.856-2.921,1.407-4.47,1.656c-8.73,1.644-18.449,5.102-26.042,9.705
						c-28.758,15.837-16.38,46.357-1.068,67.574c2.661,4.079,2.62,9.148,0.337,13.094c-10.295,17.708-20.128,36.075-30,54.234
						c-30.069,54.469-55.318,111.062-81.021,167.679c-1.487,3.109-5.212,4.424-8.321,2.938c-2.669-1.275-4.014-4.204-3.402-6.974
						c4.564-20.677,11.385-40.691,19.097-60.255c23.451-58.619,50.83-115.248,82.029-170.178l0.555,13.426
						c-13.993-20.007-26.838-47.19-17.667-72.402c9.538-25.745,36.334-38.612,61.594-43.534c0,0-8.688,18.902-8.688,18.902
						c-49.131-76.844-10.741-118.23,74.262-101.405c-0.003-0.003-13.908,17.767-13.909,17.752
						c-20.755-41.049-44.044-82.85-69.225-121.221c-12.791-19.441-26.178-38.507-40.436-56.886
						c-14.302-18.272-29.007-36.48-43.466-54.451C1454.725,944.615,1460.895,937.143,1466.176,941.099L1466.176,941.099z"/>
				</g>
				<g>
					<path style="fill:#FFF3E9;" d="M2696.026,1581.345c-34.753-103.366-106.055-226.133-106.055-226.133
						c57.014-81.776-35.628-96.441-35.628-96.441c68.614-111.386-60.911-82.646-60.911-82.646
						c77.208-155.715,160.713-231.017,160.713-231.017s33.267,26.139,52.277,152.079c19.01,125.941,7.129,324.313,3.564,379.01
						C2706.422,1530.894,2696.026,1581.345,2696.026,1581.345z"/>
				</g>
				<g style="opacity:0.25;">
					<path style="fill:#6B1A4E;" d="M1562.353,1258.76c0,0-92.65,14.7-35.6,96.45c0,0-9.5,16.4-23.3,42.25
						c-0.55-0.65-1.15-1.35-1.7-2.05c-62.95-78.4,13.1-225.75,8.15-268.5c-4.95-42.8-50.9-177.8-50.9-177.8l-0.1-0.15
						c2.3-2.75,3.65-3.85,3.65-3.85s83.5,75.3,160.7,231C1623.253,1176.11,1493.753,1147.41,1562.353,1258.76z"/>
				</g>
				<g style="opacity:0.25;">
					<path style="fill:#6B1A4E;" d="M2554.353,1258.76c0,0,92.65,14.7,35.6,96.45c0,0,9.5,16.4,23.3,42.25
						c0.55-0.65,1.15-1.35,1.7-2.05c62.95-78.4-13.1-225.75-8.15-268.5c4.95-42.8,50.9-177.8,50.9-177.8l0.1-0.15
						c-2.3-2.75-3.65-3.85-3.65-3.85s-83.5,75.3-160.7,231C2493.453,1176.11,2622.953,1147.41,2554.353,1258.76z"/>
				</g>
				<g>
					<path style="fill:#6B1A4E;" d="M2657.76,949.116c-44.423,53.675-86.428,109.839-120.221,170.965
						c-10.237,17.307-23.464,43.488-32.906,61.593c-0.001,0.015-13.906-17.755-13.908-17.752
						c85.178-16.826,123.314,24.654,74.26,101.405c0.001,0-8.687-18.902-8.687-18.902c6.692,1.21,11.965,2.751,18.116,4.961
						c55.257,19.942,57.38,67.932,25.81,110.975c0.001,0,0.556-13.426,0.556-13.426c20.843,36.69,39.81,73.889,57.297,112.202
						c16.954,38.465,34.571,76.971,43.829,118.232c1.525,6.899-8.579,10.862-11.761,3.953
						c-17.694-37.519-33.316-75.635-52.311-112.499c-18.657-36.797-38.18-73.617-58.672-109.332
						c-2.53-4.352-2.13-9.576,0.572-13.452c8.194-12.027,15.161-24.429,16.222-38.365c1.68-22.744-24.194-34.884-43.689-38.577
						c-8.572-1.318-13.173-11.596-8.566-18.881c6.416-10.57,12.17-21.502,15.641-32.268c2.414-8.631,4.597-18.776-0.977-25.424
						c-12.898-12.948-44.041-9.593-62.224-6.195c-6.823,1.586-13.663-2.8-15.021-9.682c-0.569-2.85-0.109-5.674,1.115-8.078
						c10.696-21.289,21.853-42.366,34.144-62.796c12.069-20.188,25.287-40.87,38.859-60.018
						c13.923-19.363,28.432-38.3,43.831-56.532c15.46-18.215,31.716-35.671,51.461-50.122c2.416-1.768,5.808-1.243,7.576,1.173
						C2659.661,944.396,2659.431,947.239,2657.76,949.116L2657.76,949.116z"/>
				</g>
			</g>
			<g>
				<path style="fill:#6B1A4E;" d="M2058.353,2479.588c-0.137,0-0.278-0.002-0.415-0.007
					c-334.551-11.162-542.07-122.476-657.251-213.892c-125.508-99.612-170.82-195.654-172.69-199.692
					c-1.66-3.596-1.519-7.769,0.381-11.243c1.899-3.477,5.337-5.847,9.258-6.387c5.732-0.791,10.928-1.746,15.513-2.739
					c-27.183-24.81-35.283-54.114-35.688-55.618c-0.996-3.752-0.2-7.756,2.168-10.835c2.368-3.081,6.03-4.885,9.912-4.885
					c9.014,0,23.242-1.057,35.396-2.131c-10.283-17.881-12.495-36.36-12.617-37.434c-0.61-5.427,2.373-10.623,7.363-12.83
					c34.043-15.056,59.932-28.728,70.791-34.644c11.567-114.48,33.506-219.768,37.329-237.634
					c-90.054-432.532-19.273-662.744,31.021-761.548c23.662-46.511,81.108-65.874,128.061-43.162
					c149.204,72.183,299.087,290.425,328.765,335.222c97.651-26.226,198.34-26.533,202.705-26.533s105.054,0.308,202.705,26.533
					c29.678-44.797,179.561-263.04,328.765-335.222c46.938-22.705,104.39-3.352,128.066,43.162
					c50.288,98.804,121.069,329.016,31.016,761.548c3.823,17.866,25.762,123.152,37.329,237.632
					c10.874,5.925,36.812,19.617,70.791,34.646c4.99,2.207,7.974,7.402,7.363,12.83c-0.122,1.072-2.334,19.556-12.617,37.434
					c12.153,1.074,26.387,2.131,35.396,2.131c3.882,0,7.544,1.804,9.912,4.885c2.368,3.079,3.164,7.083,2.168,10.835
					c-0.405,1.504-8.506,30.808-35.688,55.618c4.585,0.994,9.78,1.948,15.513,2.739c3.921,0.54,7.358,2.91,9.258,6.387
					c1.899,3.474,2.041,7.646,0.381,11.243c-1.87,4.038-47.183,100.081-172.69,199.692
					c-115.181,91.416-322.7,202.729-657.251,213.892C2058.632,2479.586,2058.49,2479.588,2058.353,2479.588z M1258.524,2070.047
					c17.466,30.247,65.596,103.259,158.936,177.036c112.104,88.608,314.282,196.514,640.893,207.498
					c326.611-10.984,528.789-118.889,640.894-207.498c93.34-73.777,141.465-146.785,158.936-177.036
					c-16.753-3.638-26.646-7.825-27.183-8.054c-4.341-1.86-7.261-6.011-7.549-10.725s2.104-9.189,6.187-11.565
					c20.596-11.997,32.603-28.999,39.048-41.152c-19.331-1.248-41.348-3.655-42.593-3.792c-4.985-0.547-9.165-4.026-10.605-8.831
					c-1.44-4.807,0.127-10.01,3.989-13.213c10.674-8.855,15.889-22.964,18.271-32.061c-41.265-18.716-68.301-34.104-69.507-34.795
					c-3.521-2.012-5.85-5.605-6.24-9.644c-12.261-126.106-37.822-242.698-38.081-243.86c-0.381-1.731-0.391-3.523-0.029-5.256
					c89.316-426.726,20.615-651.616-28.281-747.69c-17.544-34.473-60.127-48.828-94.897-31.997
					c-156.694,75.806-322.017,331.379-323.672,333.953c-2.979,4.639-8.652,6.785-13.95,5.266
					c-97.002-27.715-203.672-28.035-204.736-28.035s-107.861,0.356-204.736,28.035c-5.303,1.516-10.972-0.627-13.95-5.266
					c-1.655-2.573-166.977-258.147-323.672-333.953c-34.775-16.821-77.349-2.476-94.892,31.995
					c-48.901,96.077-117.603,320.967-28.286,747.693c0.361,1.733,0.352,3.525-0.029,5.256
					c-0.259,1.162-25.825,117.825-38.081,243.86c-0.391,4.038-2.72,7.632-6.24,9.644c-1.206,0.691-28.237,16.079-69.512,34.795
					c2.383,9.087,7.598,23.203,18.271,32.061c3.862,3.206,5.43,8.408,3.989,13.213c-1.445,4.805-5.62,8.284-10.605,8.831
					c-1.245,0.137-23.262,2.544-42.593,3.792c6.445,12.146,18.452,29.153,39.053,41.152c4.082,2.375,6.475,6.851,6.187,11.565
					s-3.208,8.865-7.549,10.725C1285.17,2062.222,1275.277,2066.409,1258.524,2070.047z"/>
			</g>
		</g>
		<g>
			<g>
				<path style="fill:#FFFFFF;" d="M2771.953,1933.11c-4.5,99.3-65.7,439.4-683.7,538.9c-9.85,1.6-19.8,2.4-29.75,2.4
					c-10.05,0-20.1-0.8-30.05-2.4c-618-99.5-679.2-439.6-683.7-538.9c-0.25-5.85,0.6-11.6,2.4-16.95c3.55-10.2,10.6-19.1,20.2-24.8
					c32.55-19.2,76.5-40.9,76.5-40.9c-32.1-86.45,24.05-153.25,24.05-153.25c-7.1-351.85,175.9-560.8,249.65-630.5
					c17.8-16.85,46.1-15.6,62.1,2.9c59.45,68.8,88.35,188.25,88.35,188.25c92.7-25.8,190.35-27.6,190.35-27.6s97.65,1.8,190.35,27.6
					c0,0,28.9-119.45,88.35-188.25c16-18.5,44.3-19.75,62.1-2.9c73.75,69.7,256.75,278.65,249.65,630.5c0,0,56.15,66.8,24.05,153.25
					c0,0,43.95,21.7,76.5,40.9C2764.003,1900.06,2772.703,1916.11,2771.953,1933.11z"/>
			</g>
			<g style="opacity:0.25;">
				<path style="fill:#6B1A4E;" d="M2769.853,1916.16c-16.7,67.25-130.9,418.1-711.35,492.1c-580.45-74-694.65-424.85-711.35-492.1
					c-1.8,5.35-2.65,11.1-2.4,16.95c4.5,99.3,65.7,439.4,683.7,538.9c9.95,1.6,20,2.4,30.05,2.4s20.1-0.8,30.05-2.4
					c618-99.5,679.2-439.6,683.7-538.9C2772.503,1927.26,2771.653,1921.51,2769.853,1916.16z"/>
			</g>
			<g style="opacity:0.25;">
				<path style="fill:#6B1A4E;" d="M2275.45,2173.222c0,0-69.021,20.689-129.263,0c-60.242-20.689-59.351-76.827-59.351-76.827
					h-28.326h-28.326c0,0,0.891,56.139-59.351,76.827s-129.263,0-129.263,0c-12.475,34.946,96.832,67.529,151.062,58.014
					s65.877-103.605,65.877-103.605s11.647,94.09,65.878,103.605C2178.618,2240.751,2287.925,2208.168,2275.45,2173.222z"/>
			</g>
			<g style="opacity:0.25;">
				<path style="fill:#6B1A4E;" d="M1355.123,1901.913c0,0,66.162,29.234,126.901,12.675c6.473-1.765,8.676-9.837,3.925-14.575
					c-14.218-14.178-38.569-42.383-44.774-74.409l2.673,24.849L1355.123,1901.913z"/>
			</g>
			<g style="opacity:0.15;">
				<path style="fill:#6B1A4E;" d="M2761.898,1901.913c0,0-66.162,29.234-126.901,12.675c-6.473-1.765-8.676-9.837-3.925-14.575
					c14.218-14.178,38.569-42.383,44.774-74.409l-2.673,24.849L2761.898,1901.913z"/>
			</g>
			<g>
				<g>
					<path style="fill:#FF365D;" d="M2190.831,1999.966c21.933-145.035,101.855-222.148,233.799-229.78
						c47.581-2.753,80.509-6.766,102.808-10.543c21.594-3.658,42.017-12.867,58.357-27.45c1.312-1.171,2.609-2.384,3.882-3.641
						c4.968-4.904,13.386-2.172,14.262,4.753c2.404,18.992,4.833,48.749,0.406,70.861c-0.042,0.21-0.092,0.365-0.135,0.565
						c-11.92,96.487-103.297,172.934-223.372,182.315c-71.426,5.579-114.681,25.978-134.809,38.249
						c-0.728,0.451-21.295,13.265-37.169,31.226c-4.204,4.756-11.99,3.328-14.11-2.655
						C2190.822,2042.784,2187.098,2024.648,2190.831,1999.966z"/>
				</g>
				<g>
					<path style="fill:#FF365D;" d="M1925.875,1999.966c-21.933-145.035-101.855-222.148-233.799-229.78
						c-47.581-2.753-80.509-6.766-102.808-10.543c-21.594-3.658-42.017-12.867-58.357-27.45c-1.312-1.171-2.609-2.384-3.881-3.641
						c-4.968-4.904-13.386-2.172-14.263,4.753c-2.404,18.992-4.833,48.749-0.406,70.861c0.042,0.21,0.092,0.365,0.135,0.565
						c11.92,96.487,103.297,172.934,223.372,182.315c71.426,5.579,114.681,25.978,134.809,38.249
						c0.728,0.451,21.295,13.265,37.169,31.226c4.203,4.756,11.989,3.328,14.11-2.655
						C1925.884,2042.784,1929.608,2024.648,1925.875,1999.966z"/>
				</g>
				<g>
					<path style="fill:#FF365D;" d="M1799.988,1290.726c-30.38,15.327-115.455,60.056-196.435,119.268
						c-11.792,8.622-27.804-2.605-23.492-16.562c19.462-62.99,65.252-180.458,153.126-258.139
						c7.623-6.739,19.629-3.969,23.755,5.331c10.672,24.051,30.219,70.633,50.543,131.788
						C1809.855,1279.543,1806.697,1287.341,1799.988,1290.726z"/>
				</g>
				<g>
					<path style="fill:#FF365D;" d="M2316.719,1290.726c30.381,15.327,115.455,60.056,196.435,119.268
						c11.792,8.622,27.804-2.605,23.492-16.562c-19.462-62.99-65.252-180.458-153.126-258.139
						c-7.623-6.739-19.629-3.969-23.755,5.331c-10.672,24.051-30.219,70.633-50.543,131.788
						C2306.851,1279.543,2310.009,1287.341,2316.719,1290.726z"/>
				</g>
				<g>
					<path style="fill:#FF365D;" d="M2262.153,1478.71c0,103.95-91.25,188.25-203.8,188.25s-203.8-84.3-203.8-188.25
						c0-74.65,47.05-139.15,115.25-169.6c-32.5,27.2-53.3,69.1-53.3,116.1c0,82.05,63.5,148.6,141.85,148.6
						c78.35,0,141.85-66.55,141.85-148.6c0-47-20.8-88.9-53.3-116.1C2215.103,1339.56,2262.153,1404.06,2262.153,1478.71z"/>
				</g>
				<g>
					<path style="fill:#FF365D;" d="M1756.68,1440.455c11.157,1.575,18.632,12.4,16.267,23.416
						c-6.031,28.093-11.813,90.001,35.321,144.207c76.652,88.153,100.716,141.268,105.319,212.162
						c0.324,4.993-6.031,7.362-8.95,3.298c-18.314-25.497-62.804-80.089-135.687-125.46
						c-98.766-61.485-112.132-160.78-88.964-210.044C1697.654,1450.468,1731.385,1436.885,1756.68,1440.455z"/>
				</g>
				<g>
					<path style="fill:#FF365D;" d="M2360.026,1440.455c-11.157,1.575-18.632,12.4-16.267,23.416
						c6.031,28.093,11.813,90.001-35.321,144.207c-76.652,88.153-100.716,141.268-105.319,212.162
						c-0.324,4.993,6.031,7.362,8.95,3.298c18.314-25.497,62.804-80.089,135.687-125.46
						c98.765-61.485,112.132-160.78,88.964-210.044C2419.052,1450.468,2385.321,1436.885,2360.026,1440.455z"/>
				</g>
				<g>
					<path style="fill:#FF365D;" d="M1923.297,1682.27c-1.55-0.521-2.749,1.467-1.683,2.774
						c7.574,9.284,23.009,32.358,24.485,67.628c1.963,46.92,0.671,95.284,44.749,91.858
						C2040.213,1840.692,2034.356,1719.642,1923.297,1682.27z"/>
				</g>
				<g>
					<path style="fill:#FF365D;" d="M2193.409,1682.27c1.55-0.521,2.749,1.467,1.683,2.774
						c-7.574,9.284-23.009,32.358-24.485,67.628c-1.963,46.92-0.671,95.284-44.749,91.858
						C2076.493,1840.692,2082.35,1719.642,2193.409,1682.27z"/>
				</g>
				<g>
					<path style="fill:#FF365D;" d="M1694.19,2016.348c-24.991,0.483-147.145-1.875-196.205-91.196
						c-0.641-1.167-2.05-1.651-3.231-1.035c-10.558,5.505-56.331,33.262-36.946,92.272c22.279,67.821,178.802,100.532,238.568,3.722
						C1697.398,2018.456,1696.135,2016.311,1694.19,2016.348z"/>
				</g>
				<g>
					<path style="fill:#FF365D;" d="M1549.457,2132.04c22.203,1.032,91.161-1.515,151.733-64.699
						c3.253-3.394,8.947-1.599,9.728,3.037c3.434,20.382,6.072,65.061-26.772,99.681c-44.567,46.976-125.545,32.686-140.539-30.983
						C1542.734,2135.375,1545.659,2131.863,1549.457,2132.04z"/>
				</g>
				<g>
					<path style="fill:#FF365D;" d="M2422.701,2016.348c24.991,0.483,147.145-1.875,196.205-91.196
						c0.641-1.167,2.05-1.651,3.23-1.035c10.558,5.505,56.331,33.262,36.947,92.272c-22.279,67.821-178.802,100.532-238.568,3.722
						C2419.493,2018.456,2420.757,2016.311,2422.701,2016.348z"/>
				</g>
				<g>
					<path style="fill:#FF365D;" d="M2567.435,2132.04c-22.203,1.032-91.161-1.515-151.733-64.699
						c-3.254-3.394-8.947-1.599-9.728,3.037c-3.434,20.382-6.072,65.061,26.772,99.681c44.567,46.976,125.544,32.686,140.539-30.983
						C2574.157,2135.375,2571.232,2131.863,2567.435,2132.04z"/>
				</g>
			</g>
			<g>
				<g>
					<path style="fill:#6B1A4E;" d="M1495.448,1681.573c-34.141,39.545-57.284,93.751-40.768,145.869
						c4.932,17.053,12.813,33.543,22.554,49.215c3.968,6.429-5.062,13.096-10.02,7.327c-49.546-56.049-53.044-135.628-3.375-193.009
						c6.537-7.652,13.461-14.435,21.973-20.65c3.307-2.415,7.946-1.691,10.361,1.616
						C1498.384,1674.957,1497.928,1679.004,1495.448,1681.573L1495.448,1681.573z"/>
				</g>
				<g>
					<path style="fill:#6B1A4E;" d="M2630.894,1670.326c69.526,53.86,76.349,148.454,18.597,213.659
						c-2.232,2.614-6.16,2.924-8.774,0.691c-2.381-2.033-2.85-5.479-1.226-8.048c9.733-15.665,17.606-32.142,22.536-49.185
						c16.514-52.12-6.628-106.323-40.771-145.869C2614.978,1675.101,2623.569,1665.051,2630.894,1670.326L2630.894,1670.326z"/>
				</g>
				<g>
					<path style="fill:#6B1A4E;" d="M1536.141,1780.095c0.08-3.893,3.808-6.661,7.497-5.413
						c14.594,4.937,54.655,15.12,146.996,20.462c141.972,8.213,193.515,102.362,210.555,208.775
						c0.799,4.992-4.761,8.509-8.908,5.617c-20.074-13.997-68.715-40.715-154.464-47.414
						C1623.352,1953.18,1534.118,1878.114,1536.141,1780.095z"/>
				</g>
				<g>
					<path style="fill:#6B1A4E;" d="M2580.564,1780.095c-0.08-3.893-3.808-6.661-7.497-5.413
						c-14.594,4.937-54.655,15.12-146.996,20.462c-141.972,8.213-193.515,102.362-210.555,208.775
						c-0.799,4.992,4.761,8.509,8.908,5.617c20.074-13.997,68.715-40.715,154.464-47.414
						C2493.354,1953.18,2582.588,1878.114,2580.564,1780.095z"/>
				</g>
				<g>
					<path style="fill:#6B1A4E;" d="M2058.353,1989.91c-51.959,0-82.091,15.182-98.123,27.733
						c-11.911,9.324-13.202,26.828-2.99,37.987c10.942,11.958,25.102,17.914,34.253,20.71c5.743,1.755,10.718,5.497,14.003,10.524
						c7.673,11.743,24.877,31.808,52.857,31.808s45.185-20.065,52.857-31.808c3.285-5.027,8.26-8.77,14.003-10.524
						c9.446-2.886,24.23-9.141,35.302-21.887c9.515-10.953,7.416-27.833-4.004-36.783
						C2140.489,2005.115,2110.351,1989.91,2058.353,1989.91z"/>
				</g>
				<g>
					<path style="fill:#6B1A4E;" d="M2064.951,2112.729c6.461,47.928-10.991,108.619-60.744,126.518
						c-16.581,6.17-34.839,5.955-50.345,4.003c-31.414-3.198-63.503-11.604-91.688-27.374
						c-14.099-7.694-27.056-16.635-39.476-25.101c-12.467-8.452-24.678-16.21-38.043-22.387c-3.559-1.619-5.125-5.832-3.483-9.381
						c1.429-3.092,4.816-4.658,8.008-3.911c30.851,6.965,56.345,27.772,83.093,41.948c26.073,13.777,54.625,21.07,83.982,23.957
						c48.372,7.905,76.949-18.805,87.881-64.462c3.649-14.061,6.168-29.072,7.855-43.646
						C2052.832,2105.4,2063.927,2105.262,2064.951,2112.729L2064.951,2112.729z"/>
				</g>
				<g>
					<path style="fill:#6B1A4E;" d="M1928.303,2223.524c0,0-60.932-52.29-108.939-70.56c-48.007-18.27-78.781,4.41-57.855,27.09
						C1782.436,2202.733,1830.443,2218.484,1928.303,2223.524z"/>
				</g>
				<g>
					<path style="fill:#6B1A4E;" d="M2064.951,2113.328c11.543,96.121,42.595,125.916,139.061,99.695
						c45.342-10.147,78.348-46.746,123.7-57.928c8.096-1.876,12.207,9.735,4.567,13.276c-13.383,6.176-25.604,13.945-38.084,22.405
						c-12.42,8.466-25.377,17.407-39.476,25.101c-28.185,15.77-60.274,24.176-91.688,27.374
						c-15.506,1.952-33.764,2.167-50.344-4.003c-49.763-17.914-67.188-78.572-60.745-126.517
						C2053.161,2104.965,2064.468,2105.543,2064.951,2113.328L2064.951,2113.328z"/>
				</g>
				<g>
					<path style="fill:#6B1A4E;" d="M2188.588,2223.524c0,0,60.932-52.29,108.939-70.56c48.007-18.27,78.781,4.41,57.854,27.09
						C2334.456,2202.733,2286.448,2218.484,2188.588,2223.524z"/>
				</g>
				<g>
					<ellipse style="fill:#FFFFFF;" cx="2058.51" cy="2022.894" rx="60.297" ry="12.313"/>
				</g>
			</g>
			<g>
				<path style="fill:#6B1A4E;" d="M2058.353,2486.927c-10.654,0-21.309-0.852-31.89-2.556
					c-625.537-100.737-689.482-446.97-694.18-550.686c-0.986-21.68,10.024-42.014,28.726-53.071
					c23.589-13.94,52.637-28.933,67.534-36.472c-22.949-76.123,15.327-135.62,26.787-151.128
					c-5.586-351.772,175.332-561.406,253.633-635.405c11.011-10.41,25.932-15.969,41.138-15.181
					c15.229,0.767,29.087,7.522,39.028,19.021c50,57.854,78.545,148.198,87.754,181.118c89.146-22.871,177.363-24.736,181.24-24.807
					c4.312,0.071,92.549,1.936,181.699,24.807c9.209-32.92,37.754-123.264,87.754-181.118c9.937-11.497,23.794-18.252,39.019-19.021
					c15.195-0.747,30.132,4.768,41.147,15.181c78.301,74.004,259.219,283.647,253.633,635.405
					c11.46,15.508,49.731,75.005,26.787,151.128c14.897,7.539,43.945,22.532,67.534,36.472
					c18.696,11.052,29.702,31.387,28.726,53.066c-4.697,103.713-68.745,449.929-694.185,550.691l0,0
					C2079.662,2486.075,2069.008,2486.927,2058.353,2486.927z M1747.245,1067.354c-7.886,0-15.327,2.959-21.113,8.423
					c-76.206,72.021-252.7,276.724-245.728,621.157c0.064,3.027-0.976,5.977-2.925,8.293c-2.075,2.498-50.962,62.612-21.914,140.876
					c2.226,6.006-0.444,12.725-6.187,15.559c-0.434,0.215-43.926,21.721-75.644,40.474c-10.728,6.338-17.041,17.993-16.479,30.415
					c4.482,98.95,66.274,429.399,673.184,527.136c18.525,2.983,37.309,2.983,55.825,0l0,0
					c606.914-97.737,668.706-428.186,673.188-527.136c0.557-12.422-5.757-24.077-16.479-30.415
					c-31.719-18.752-75.21-40.259-75.645-40.474c-5.742-2.834-8.413-9.553-6.187-15.557
					c29.043-78.267-19.839-138.381-21.934-140.903c-1.924-2.312-2.969-5.264-2.905-8.269
					c6.973-344.419-169.521-549.131-245.728-621.157c-6.177-5.833-14.292-8.811-22.715-8.381c-8.35,0.42-15.938,4.114-21.367,10.4
					c-56.733,65.642-85.361,181.858-85.645,183.022c-0.796,3.296-2.9,6.125-5.82,7.839c-2.925,1.719-6.411,2.18-9.688,1.262
					c-90.098-25.122-186.255-27.148-187.217-27.166c-0.503,0.017-96.787,2.078-186.758,27.166c-3.276,0.911-6.763,0.452-9.688-1.262
					c-2.92-1.714-5.024-4.543-5.82-7.839c-0.283-1.165-28.911-117.38-85.644-183.022c-5.435-6.287-13.023-9.98-21.372-10.4
					C1748.309,1067.369,1747.777,1067.354,1747.245,1067.354z"/>
			</g>
		</g>
	</g>
</g>
</svg>
