<?xml version="1.0" encoding="utf-8"?>
<!-- Generator: Adobe Illustrator 27.5.0, SVG Export Plug-In . SVG Version: 6.00 Build 0)  -->
<svg version="1.1" id="Layer_1" xmlns="http://www.w3.org/2000/svg" xmlns:xlink="http://www.w3.org/1999/xlink" x="0px" y="0px"
	 viewBox="0 0 4000 4000" style="enable-background:new 0 0 4000 4000;" xml:space="preserve">
<g>
	<g>
		<rect style="fill:#BCFA7B;" width="4000" height="4000"/>
	</g>
	<g>
		<g>
			<path style="fill:#FFCA9F;" d="M1962.603,3305.033c-32.33,31.56-84.353-11.41-84.353-11.41s-117.952,113.746-167.069,100.99
				c-49.111-12.802-1.699-60.705-6.142-64.825c-4.398-4.114-85.081,54.569-101.713,28.612
				c-18.352-28.646,34.66-68.983,35.369-71.481c1.639-5.612-97.358,28.598-88.749-13.486c2.611-12.798,45.287-38.003,84.04-58.507
				c33.168-17.555,63.459-31.655,63.459-31.655l166.975-27.377c0,0,33.099,29.852,61.845,63.469
				C1954.561,3252.546,1978.613,3289.371,1962.603,3305.033z"/>
		</g>
		<g>
			<path style="fill:#650000;" d="M1718.834,3411.47c-4.097,0-7.993-0.449-11.67-1.406c-16.123-4.194-26.777-12.261-31.665-23.975
				c-3.242-7.773-3.335-15.752-1.807-23.345c-30.771,15.63-67.573,29.663-83.833,4.263c-12.583-19.644-4.844-40.684,6.851-57.681
				c-23.105,2.959-43.081,2.021-54.824-9.795c-4.209-4.238-10.796-13.677-7.598-29.282c2.192-10.708,10.644-25.425,83.638-64.844
				c36.265-19.58,72.412-36.46,72.773-36.626l1.997-0.933l176.733-28.97l5.703,5.142c17.964,16.187,107.617,99.336,108.569,146.841
				c0.205,10.186-3.237,19.033-9.951,25.591c-28.823,28.145-68.648,14.546-94.204-2.109
				C1848.302,3343.262,1769.254,3411.466,1718.834,3411.47z M1705.123,3313.409c3.901,0,7.329,1.436,10.815,4.678
				c10.479,9.731,3.32,22.08-1.421,30.249c-3.203,5.527-11.714,20.2-9.526,25.444c0.586,1.396,3.608,3.633,10.22,5.356
				c27.905,7.246,105.62-52.378,151.929-97.031l10.269-9.902l11.001,9.087c0.386,0.308,41.714,33.081,63.008,12.3
				c0.356-0.347,0.332-1.909,0.332-2.085c-0.474-23.716-52.51-81.689-92.373-118.594l-157.158,25.767
				c-59.521,27.876-127.017,65.366-136.646,78.843c6.396,2.837,24.497,1.333,53.892-4.492c16.538-3.271,24.077-4.771,30.947,2.744
				l6.069,6.631l-2.446,8.984c-1.343,4.629-3.906,7.017-8.55,11.353c-30.498,28.467-31.694,41.069-29.126,46.294
				c7.168,1.807,27.417-6.245,60.205-23.965C1689.625,3318.009,1698.135,3313.409,1705.123,3313.409z"/>
		</g>
		<g style="opacity:0.3;">
			<path style="fill:#650000;" d="M1864.42,3155.892c0,0,33.099,29.852,61.845,63.469c-54.903,73.145-163.021,74.819-207.051,56.639
				c-36.011-14.827-63.878-35.775-85.229-61.076c33.168-17.555,63.459-31.655,63.459-31.655L1864.42,3155.892z"/>
		</g>
		<g>
			<path style="fill:#B74729;" d="M2083.032,2690.117c-66.239,103.993-85.176,121.891-124.368,212.66
				c-54.014,125.007,41.27,334.55-186.132,326.48c-61.205-2.157-111.903-35.916-150.416-90.329
				c-58.648-82.858-89.091-213.658-85.575-353.687c2.397-96.362,20.894-197.079,57.33-289.566L2083.032,2690.117z"/>
		</g>
		<g style="opacity:0.3;">
			<path style="fill:#650000;" d="M2083.032,2690.117c-66.239,103.993-85.176,121.891-124.368,212.66
				c-54.014,125.007,41.27,334.55-186.132,326.48c-61.205-2.157-111.903-35.916-150.416-90.329
				c80.462,51.417,170.591,40.51,207.586,11.106c65.4-51.976,43.666-114.979,18.857-135.115
				c-43.986-35.756-211.98-49.14-312.018-229.679c2.397-96.362,20.894-197.079,57.33-289.566L2083.032,2690.117z"/>
		</g>
		<g>
			<path style="fill:#650000;" d="M1784.864,3245.474c-4.199,0-8.477-0.073-12.896-0.229
				c-66.641-2.358-125.264-39.297-169.531-106.831c-99.297-151.499-109.38-430.332-23.452-648.594
				c1.553-3.95,4.619-7.124,8.516-8.809c3.906-1.694,8.301-1.758,12.256-0.186l489.175,194.443c4.424,1.758,7.837,5.4,9.302,9.932
				c1.465,4.536,0.835,9.482-1.729,13.501c-16.958,26.631-30.635,47.344-42.705,65.62c-34.492,52.246-51.812,78.472-80.464,144.79
				c-15.869,36.733-17.998,83.32-20.063,128.374C1948.804,3135.128,1943.726,3245.474,1784.864,3245.474z M1603.013,2516.514
				c-76.304,207.051-65.747,464.17,26.157,604.375c38.33,58.486,88.101,90.439,143.931,92.412
				c139.766,4.956,143.584-75.464,148.247-177.275c2.192-47.93,4.458-97.485,22.651-139.59
				c29.766-68.901,48.721-97.607,83.13-149.722c9.419-14.263,19.819-30.02,31.992-48.901L1603.013,2516.514z"/>
		</g>
		<g>
			<path style="fill:#B74729;" d="M1744.327,2260.083c-60.007,31.122-159.884,52.935-196.799,60.286
				c-9.029,1.838-14.302,2.757-14.302,2.757c-445.415,61.365-572.938-182.736-591.955-240.426
				c-23.931-72.471-15.102-164.718,56.93-190.846c42.029-15.261,91.288-0.479,153.612,21.214
				c83.578,29.124,190.686,70.673,335.349,68.836c40.83-0.479,84.576-4.435,131.679-13.144c12.744-2.317,25.729-4.994,38.952-8.07
				c13.703-3.156,27.686-6.712,41.949-10.707l20.455,142.226L1744.327,2260.083z"/>
		</g>
		<g style="opacity:0.35;">
			<path style="fill:#FFFFFF;" d="M993.201,1926.854c42.029-15.261,91.289-0.479,153.611,21.214
				c83.579,29.125,190.688,70.674,335.352,68.836c40.83-0.479,84.575-4.435,131.677-13.144c12.744-2.317,25.73-4.994,38.953-8.07
				c13.704-3.156,27.686-6.712,41.948-10.707l20.454,142.226l19.766,137.492c3.206-1.517,6.348-3.052,9.365-4.618l-24.131-167.874
				l-20.454-142.226c-14.263,3.995-28.245,7.551-41.948,10.707c-13.223,3.076-26.208,5.753-38.953,8.07
				c-47.102,8.709-90.847,12.664-131.677,13.144c-144.663,1.838-251.772-39.711-335.352-68.836
				c-62.322-21.693-111.582-36.475-153.611-21.214c-46.399,16.83-66.543,61.101-68.63,109.842
				C938.252,1967.741,958.284,1939.52,993.201,1926.854z"/>
		</g>
		<g style="opacity:0.3;">
			<path style="fill:#650000;" d="M1092.885,1749.788l-16.78,7.271C1084.215,1752.186,1091.926,1750.028,1092.885,1749.788z"/>
		</g>
		<g style="opacity:0.3;">
			<path style="fill:#650000;" d="M1744.327,2260.083c-74.669,38.713-211.102,63.043-211.102,63.043
				c-445.415,61.365-572.938-182.736-591.955-240.426c-23.931-72.471-15.102-164.718,56.93-190.846
				c42.029-15.261,91.288-0.479,153.612,21.214c48.181,85.136,68.356,217.654,153.532,279.578
				c50.658,36.795,144.151,29.577,189.655-0.019c79.882-51.956,77.178-169.733,162.793-231.937
				c13.703-3.156,27.686-6.712,41.949-10.707L1744.327,2260.083z"/>
		</g>
		<g>
			<path style="fill:#650000;" d="M1396.197,2349.01c-130.747,0.005-240.601-29.502-327.774-88.203
				c-104.292-70.229-136.87-156.523-142.344-173.11c-27.334-82.842-13.208-181.877,66.68-210.869
				c51.24-18.604,108.906,1.672,181.914,27.346c117.725,41.396,278.941,98.098,520.757,30.425
				c8.496-2.383,17.314,2.583,19.697,11.082c2.378,8.498-2.583,17.317-11.084,19.695c-251.519,70.388-418.237,11.758-539.976-31.05
				c-66.982-23.557-119.893-42.168-160.41-27.453c-60.732,22.041-69.731,102.612-47.227,170.811
				c3.979,12.061,102.817,294.473,574.282,229.648c7.109-1.294,136.265-25.146,206.26-61.436c7.832-4.072,17.48-1.011,21.538,6.831
				c4.063,7.832,1.006,17.476-6.831,21.538c-75.962,39.39-209.985,63.574-215.654,64.585c-0.205,0.039-0.415,0.068-0.62,0.098
				C1486.685,2345.66,1440.245,2349.01,1396.197,2349.01z"/>
		</g>
		<g>
			<g>
				<path style="fill:#B74729;" d="M2343.469,2678.26c0,0,197.211,43.916,297.267-137.812
					c97.831-177.686-81.525-397.242-80.798-560.796c0.984-221.407,155.747-415.648,407.729-345.201
					c255.627,71.465,217.462,384.677,89.223,461.641c-75.543,45.338-139.216,24.53-159.609-58.761
					c-20.394-83.291,86.086-133.885,50.342-199.773c-35.744-65.888-175.37-66.252-207.537,68.989s79.699,371.174,84.738,521.896
					c4.71,140.913-82.13,278.275-206.556,342.931c-148.36,77.093-269.766,57.443-269.766,57.443L2343.469,2678.26z"/>
			</g>
			<g style="opacity:0.35;">
				<path style="fill:#FFFFFF;" d="M3155.209,1914.32c-3.463-99.93-57.133-201.154-188.998-237.998
					c-238.29-66.608-389.589,103.454-406.201,309.336c-0.045-2.013-0.052-4.025-0.061-5.998
					c0.986-221.401,155.724-415.675,407.729-345.221C3118.084,1676.497,3166.756,1802.228,3155.209,1914.32z"/>
			</g>
			<g style="opacity:0.3;">
				<path style="fill:#650000;" d="M2824.931,2432.819c2.816,139.366-83.546,274.564-206.68,338.569
					c-148.351,77.087-269.754,57.438-269.754,57.438l-2.546-76.416c48.556,0.927,147.935-5.573,262.078-60.299
					C2716.234,2640.195,2798.552,2542.032,2824.931,2432.819z"/>
			</g>
			<g style="opacity:0.3;">
				<path style="fill:#650000;" d="M2740.076,1906.548c-0.684,2.955-1.33,5.95-1.901,8.986c-2.926-32.443-1.952-62.429,4.925-88.688
					c35.419-135.358,187.339-135.413,226.04-69.607c18.294,31.047,2.041,58.796-17.867,88.196c-0.992-2.588-2.177-5.222-3.632-7.864
					C2911.884,1771.674,2772.242,1771.308,2740.076,1906.548z"/>
			</g>
			<g style="opacity:0.3;">
				<path style="fill:#650000;" d="M3146.764,1961.027c-15.458,59.189-47.832,109.816-89.878,135.075
					c-75.554,45.323-139.198,24.525-159.607-58.784c-7.618-31.022,2.4-57.48,16.1-81.913c0.096,0.584,0.23,1.169,0.403,1.755
					c21.92,83.245,91.141,103.852,173.474,58.302C3109.978,2002.873,3130.174,1984.044,3146.764,1961.027z"/>
			</g>
			<g>
				<path style="fill:#650000;" d="M2386.983,2847.13c-24.541,0-39.316-2.261-41.035-2.539l-12.979-2.104l-6.162-184.312
					l20.107,4.478c7.588,1.665,186.924,38.809,279.824-129.912c57.275-104.033,12.91-225.522-29.995-343.018
					c-27.295-74.741-53.076-145.342-52.788-210.142c0.586-131.665,53.628-250.068,141.885-316.724
					c78.262-59.109,177.197-74.25,286.128-43.799c111.055,31.047,183.271,112.092,198.13,222.349
					c14.6,108.323-30.537,223.701-104.985,268.384c-43.677,26.221-84.673,32.603-118.55,18.477
					c-31.67-13.203-54.077-43.335-64.805-87.139c-11.65-47.585,11.558-84.624,32.031-117.3
					c20.757-33.12,32.817-54.636,19.785-78.652c-13.33-24.575-46.914-38.53-81.558-33.928c-47.095,6.243-83.125,43.25-96.382,98.994
					c-17.793,74.814,11.924,186.287,40.664,294.084c21.768,81.655,42.329,158.784,44.497,223.584
					c4.834,144.536-81.636,288.262-215.161,357.642C2524.664,2838.023,2436.197,2847.13,2386.983,2847.13z M2364.005,2814.293
					c34.287,2.266,132.734,2.222,246.895-57.1c122.832-63.823,202.383-195.723,197.954-328.218
					c-2.046-61.152-22.148-136.572-43.438-216.416c-29.761-111.626-60.532-227.058-40.874-309.712
					c16.445-69.143,62.529-115.232,123.276-123.284c48.291-6.396,94.038,13.845,113.853,50.374
					c22.588,41.633-0.459,78.413-20.796,110.862c-18.774,29.964-36.514,58.264-28.071,92.732
					c8.213,33.54,24.141,56.099,46.06,65.239c24.141,10.059,55.19,4.39,89.805-16.382c63.115-37.881,102.539-141.855,89.756-236.714
					c-7.681-57.007-40.64-158.255-175.059-195.835c-98.95-27.661-188.271-14.346-258.262,38.521
					c-80.352,60.686-128.643,169.607-129.185,291.362c-0.264,59.072,24.561,127.061,50.85,199.038
					c43.242,118.418,92.251,252.632,27.969,369.395c-85.4,155.117-239.717,154.38-294.658,148.633L2364.005,2814.293z"/>
			</g>
		</g>
		<g>
			<path style="fill:#B74729;" d="M2487.138,2762.548c-2.797,7.551-5.953,14.942-9.508,22.093
				c-148.618,301.031-953.393,255.567-992.545-193.083c-7.75-88.731,26.288-178.222,62.443-271.188
				c32.44-83.258,66.558-169.313,73.87-260.042c2.437-29.963,1.918-60.486-2.557-91.568c-6.072-42.348-19.496-85.815-42.907-130.52
				c-145.302-277.62,635.901-22.772,635.901-22.772s42.588,47.342,96.242,147.02c16.26,30.243,33.559,65.28,50.978,105.271
				c5.793,13.264,11.586,27.127,17.379,41.509c19.736,48.98,38.433,96.482,55.332,142.505c9.388,25.569,18.218,50.698,26.368,75.428
				C2511.548,2489.563,2534.6,2633.306,2487.138,2762.548z"/>
		</g>
		<g style="opacity:0.3;">
			<path style="fill:#650000;" d="M2510.269,2661.552c-3.635,34.637-11.106,68.276-23.132,100.996
				c-109.825,299.154-832.261,291.923-977.962-69.195c179.42,307.224,847.192,264.99,991.335,25.083
				C2510.019,2702.616,2504.277,2678.411,2510.269,2661.552z"/>
		</g>
		<g>
			<path style="fill:#FFCA9F;" d="M2251.683,2565.165c0,161.138-119.483,327.313-351.12,314.653
				c-178.461-9.753-315.81-183.728-315.563-312.975c0.343-178.728,173.308-380.606,337.384-372.633
				C2099.403,2202.813,2251.683,2402.348,2251.683,2565.165z"/>
		</g>
		<g>
			<path style="fill:#650000;" d="M2048.995,2992.432c-36.758,0-74.019-2.441-111.162-7.393
				c-212.5-28.301-447.212-146.162-468.667-392.075c-8.218-94.18,27.647-186.279,65.62-283.789
				c56.538-145.195,115.005-295.337,26.978-463.53c-25.225-48.201-26.431-86.338-3.579-113.357
				c42.168-49.868,163.247-52.793,370.132-8.967c148.179,31.394,287.08,76.509,288.467,76.96c2.661,0.869,5.054,2.422,6.924,4.504
				c3.506,3.896,86.743,97.71,167.549,298.511c105.166,261.357,180.112,476.26,110.898,664.775
				c-30.586,83.32-105.952,148.003-217.944,187.061C2213.536,2979.781,2132.589,2992.432,2048.995,2992.432z M1590.084,1830.826
				c94.766,181.069,30.864,345.166-25.518,489.946c-36.577,93.936-71.128,182.661-63.564,269.419
				c19.814,227.095,240.825,336.504,441.055,363.169c211.66,28.198,469.414-31.025,530.098-196.304
				c65.283-177.822-7.983-386.934-110.547-641.826c-70.483-175.156-144.126-268.149-158.979-285.925
				c-24.287-7.744-149.048-46.79-281.167-74.766c-251.079-53.159-320.088-23.831-338.877-1.614
				C1568.946,1769.053,1571.47,1795.264,1590.084,1830.826z"/>
		</g>
		<g>
			<path style="fill:#B74729;" d="M3025.598,2046.345c-1.998,12.385-4.994,24.61-8.869,36.355
				c-18.537,56.211-140.109,289.486-558.596,244.501c-10.907-1.159-22.053-2.517-33.359-4.075l-29.564-66.199l-78.983-177.063
				l-57.969-129.881c16.979,4.754,33.599,8.909,49.819,12.505c93.446,20.735,174.386,23.012,245.06,15.781
				c201.273-20.535,319.529-118.055,406.622-86.414C3020.165,1913.748,3036.105,1982.104,3025.598,2046.345z"/>
		</g>
		<g style="opacity:0.35;">
			<path style="fill:#FFFFFF;" d="M2308.076,1997.488c93.447,20.735,174.387,23.012,245.061,15.781
				c201.272-20.535,319.529-118.055,406.621-86.414c43.672,15.828,64.011,55.969,68.01,101.254
				c4.854-58.48-13.298-116.425-68.01-136.254c-87.092-31.641-205.349,65.88-406.621,86.414
				c-70.674,7.231-151.614,4.954-245.061-15.781c-16.221-3.596-32.839-7.751-49.819-12.505l17.722,39.703
				C2286.819,1992.499,2297.561,1995.157,2308.076,1997.488z"/>
		</g>
		<g style="opacity:0.3;">
			<path style="fill:#650000;" d="M3025.598,2046.345c-1.998,12.385-4.994,24.61-8.869,36.355
				c-18.537,56.211-140.109,289.486-558.596,244.501c53.414,162.361,76.466,306.105,29.004,435.347
				c-2.797,7.551-5.953,14.942-9.508,22.093c-13.743,8.789-51.083-17.389-51.563-17.109c14.463-32.212,69.509-77.353,39.298-245.169
				c-18.56-103.094-121.891-210.183-99.638-250.773c3.755-6.832,14.063-11.386,29.484-14.662
				c10.108-2.157,22.452-3.795,36.555-5.154c126.845-12.265,396.954-3.835,497.791-186.851
				C2961.157,2007.553,2996.594,2018.18,3025.598,2046.345z"/>
		</g>
		<g>
			<path style="fill:#650000;" d="M2561.788,2349.01c-44.058,0-90.474-3.35-139.209-10.063c-8.74-1.201-14.854-9.268-13.647-18.013
				c1.211-8.745,9.243-14.868,18.013-13.647c471.724,64.956,570.63-217.544,574.609-229.6
				c22.505-68.203,13.506-148.775-47.227-170.815c-40.532-14.7-93.433,3.896-160.41,27.451
				c-121.729,42.81-288.452,101.445-539.976,31.052c-8.501-2.378-13.462-11.196-11.084-19.695
				c2.383-8.499,11.201-13.464,19.697-11.082c241.807,67.668,403.037,10.969,520.762-30.427
				c73.003-25.669,130.679-45.94,181.909-27.344c79.888,28.992,94.014,128.027,66.68,210.874
				c-5.474,16.582-38.052,102.876-142.344,173.105C2802.393,2319.503,2692.52,2349.01,2561.788,2349.01z"/>
		</g>
		<g>
			<path style="fill:#2DC130;" d="M854.048,1858.165c7.108,93.445-343.965,497.409-132.009,757.457
				c176.819,216.938,513.125,92.365,558.268-134.97c68.695-345.939-268.927-542.204-280.651-626.852
				c-4.656-33.621,6.38-51.61,114.585-117.067c30.805-18.635,2.637-53.544-14.706-67.39c-25.15-20.079-66.03-32.609-104.332-28.958
				c-63.494,6.052-58.689,40.743-116.665,45.593c-32.396,2.71-81.431-11.581-130.397,14.688
				c-22.115,11.864-55.868,46.417-40.002,74.807C725.061,1805.752,844.938,1738.407,854.048,1858.165z"/>
		</g>
		<g>
			<path style="fill:#2DC130;" d="M708.156,1775.477c-15.901-28.405,17.858-62.963,39.991-74.828
				c23.531-12.625,47.102-15.861,68.796-16.1c19.057,9.149,33.838,28.285,37.114,67.158c2.837,33.399,2.197,65.6-1.039,96.801
				C838.277,1742.118,724.576,1804.921,708.156,1775.477z"/>
		</g>
		<g>
			<path style="fill:#108C10;" d="M1280.295,2480.653c-45.145,227.322-381.453,351.889-558.276,134.955
				c-190.287-233.434,73.23-582.886,124.008-719.519c-3.4,11.704,72.269,24.995,76.102,40.329
				c7.225,28.903-47.83,37.951-47.83,37.951s29.771,40.725,3.253,72.791c-9.716,11.748-26.373,18.378-43.189,22.088
				c-36.374,8.025-66.228,33.864-78.388,69.072c-32.647,94.524-81.623,268.233-35.193,351.802
				c109.896,197.803,519.204,152.054,520.043-97.84c0.465-137.297-79.937-230.066-215.454-379.486
				c-115.365-127.2-188.715-13.543-193.25-89.531c-3.914-65.585,29.845-98.088,59.861-133.223
				c22.642-26.503,7.511-83.524,20.623-78.897c22.083,7.794,21.635,44.334,66.683,49.796
				c46.083,5.587,131.112-52.023,100.974-103.959c7.072,3.675,13.583,7.83,19.257,12.345c17.379,13.863,45.544,48.78,14.742,67.397
				c-108.227,65.48-119.254,83.458-114.62,117.057C1011.385,1938.437,1349.011,2134.717,1280.295,2480.653z"/>
		</g>
		<g>
			<path style="fill:#2DC130;" d="M846.027,1896.089c2.957-15.581,5.314-31.442,6.991-47.582c0.44,3.076,0.799,6.312,1.039,9.668
				C854.776,1867.724,851.78,1880.548,846.027,1896.089z"/>
		</g>
		<g>
			<path style="fill:#650000;" d="M957.056,2744.278c-95.908,0-184.648-41.563-247.407-118.56
				c-70.073-85.977-88.667-192.783-56.836-326.514c26.357-110.742,82.002-217.061,126.719-302.488
				c30.996-59.216,60.269-115.151,58.584-137.339c-4.531-59.526-35.2-62.271-85.093-59.7c-24.844,1.26-48.281,2.473-58.833-16.411
				c-6.548-11.716-7.871-25.215-3.833-39.033c7.315-25.017,31.162-47.422,50.23-57.651c39.053-20.947,77.109-18.779,107.666-17.043
				c10.747,0.61,20.893,1.187,28.955,0.513c24.063-2.012,34.409-9.446,47.515-18.855c15.161-10.889,32.344-23.23,68.965-26.721
				c40.855-3.899,86.304,8.813,115.82,32.378c3.731,2.978,36.367,29.976,34.37,60.684c-0.615,9.47-4.824,22.859-21.367,32.869
				c-106.938,64.692-110.171,78.484-107.021,101.201c2.744,19.824,34.59,54.739,71.465,95.169
				c96.953,106.301,259.224,284.216,209.028,536.985c-23.686,119.268-123.604,217.393-254.556,249.98
				C1013.013,2740.816,984.732,2744.278,957.056,2744.278z M869.981,1856.951c2.383,31.321-24.678,83.025-62.134,154.587
				c-86.821,165.879-218.032,416.563-73.423,593.984c72.847,89.37,184.732,125.703,299.282,97.207
				c117.168-29.16,209.971-119.658,230.928-225.19c47.051-236.938-102.402-400.796-201.294-509.226
				c-43.779-47.996-75.405-82.676-79.512-112.322c-6.279-45.313,14.268-67.676,122.139-132.932c5.747-3.479,5.938-6.365,6.016-7.595
				c0.601-9.236-11.167-24.651-22.417-33.635c-23.018-18.372-60.307-28.645-92.847-25.537
				c-28.022,2.671-39.761,11.101-53.354,20.864c-14.356,10.31-30.63,21.995-63.491,24.746c-10.317,0.862-21.543,0.217-33.438-0.454
				c-27.949-1.594-59.624-3.391-90.742,13.298c-13.652,7.324-30.352,23.713-34.658,38.455c-1.987,6.802-0.693,11.069,0.688,13.787
				c4.375,2.07,19.521,1.292,29.658,0.771C790.313,1765.74,862.759,1762.042,869.981,1856.951z"/>
		</g>
		<g>
			<path style="fill:#FFCA9F;" d="M783.755,1965.701c0.319,0.472,84.072,9.367,93.244-38.694
				c7.724-40.477-67.678-54.715-86.625-43.343C779.374,1890.266,758.78,1928.773,783.755,1965.701z"/>
		</g>
		<g style="opacity:0.3;">
			<path style="fill:#650000;" d="M876.552,1929.588c-11.066,45.593-92.244,37.32-92.566,36.842
				c-23.523-34.415-7.141-70.443,4.042-80.36c-3.638,17.634-2.596,36.607,10.78,43.979
				C818.152,1940.711,855.133,1946.781,876.552,1929.588z"/>
		</g>
		<g>
			<path style="fill:#FFCA9F;" d="M758.853,2049.838c0.189,0.538,94.725,11.255,103.896-36.806
				c7.724-40.478-59.655-44.53-78.602-33.158C773.148,1986.476,742.967,2004.688,758.853,2049.838z"/>
		</g>
		<g style="opacity:0.3;">
			<path style="fill:#650000;" d="M863.286,2008.272c-0.04,1.518-0.2,3.116-0.519,4.754
				c-9.189,48.061-103.713,37.354-103.913,36.795c-11.746-33.319,1.638-51.976,13.863-62.084c-4.09,16.988,3.28,29.545,8.9,33.226
				C793.85,2028.973,837.042,2023.714,863.286,2008.272z"/>
		</g>
		<g>
			<path style="fill:#650000;" d="M800.469,1979.144c-0.63,0-1.235-0.002-1.821-0.01c-17.705-0.171-21.719-1.194-25.259-6.45
				c-16.04-23.723-15.425-46.692-12.085-61.787c3.721-16.802,12.813-32.053,22.632-37.949c18.145-10.894,60.967-5.012,84.844,11.66
				c16.523,11.533,23.804,27.422,20.498,44.744c-3.198,16.755-15.405,38.45-55.396,46.646
				C821.387,1978.555,809.107,1979.144,800.469,1979.144z M791.197,1953.941c18.35,1.187,68.022-0.42,73.52-29.277
				c0.898-4.697,0.811-11.838-10.249-19.556c-18.403-12.847-50.361-15.105-57.666-10.725c-1.953,1.277-8.584,9.438-11.304,22.947
				C783.673,1926.39,783.365,1939.727,791.197,1953.941z"/>
		</g>
		<g>
			<path style="fill:#650000;" d="M777.388,2064.039c-26.763,0-28.848-5.879-30.317-10.024l-0.01-0.024
				c-12.803-36.396-2.49-64.937,30.65-84.834c17.681-10.613,58.345-10.264,80.596,5.278c13.96,9.744,19.902,24.285,16.724,40.942
				c-3.706,19.404-19.917,43.438-76.113,47.725C790.372,2063.751,783.282,2064.039,777.388,2064.039z M768.448,2038.311
				c21.289,1.382,76.665,0.469,82.021-27.622c1.328-6.948-0.605-11.663-6.47-15.757c-15.073-10.515-45.068-9.358-53.423-4.341
				C780.806,1996.458,761.231,2008.214,768.448,2038.311z"/>
		</g>
		<g>
			<path style="fill:#FFCA9F;" d="M805.008,1879.128c0.408,0.357,76.385,2.987,75.107-46.321
				c-1.076-41.527-70.108-51.913-86.024-35.038C784.852,1807.566,773.071,1851.183,805.008,1879.128z"/>
		</g>
		<g style="opacity:0.3;">
			<path style="fill:#650000;" d="M879.764,1833.131c1.495,49.293-74.503,46.99-74.904,46.632
				c-32.043-27.786-20.449-71.463-11.263-81.292c-0.33,15.902,5.32,46.56,21.108,48.568c15.788,2.008,47.193,4.803,64.518-19.14
				C879.509,1829.576,879.716,1831.333,879.764,1833.131z"/>
		</g>
		<g>
			<path style="fill:#650000;" d="M811.563,1891.739c-6.763,0-12.192-0.947-14.785-3.203l0,0
				c-19.468-17.034-24.38-37.932-25.078-52.461c-0.981-20.486,5.947-39.092,13.301-46.885c14.18-15.039,45.674-14.041,68.086-5.476
				c24.561,9.387,38.965,27.163,39.526,48.77c0.566,21.934-10.615,38.899-32.334,49.063
				C848.716,1886.954,826.773,1891.739,811.563,1891.739z M819.952,1802.581c-8.438,0-14.834,1.716-16.763,3.765
				c-2.212,2.341-7.217,13.872-6.519,28.533c0.605,12.607,5.132,23.318,13.467,31.902c10.771-0.142,37.192-2.485,50.117-14.836
				c5.229-5,7.568-10.977,7.368-18.813c-0.391-15.024-14.868-22.778-23.462-26.062
				C835.611,1803.8,827.056,1802.581,819.952,1802.581z"/>
		</g>
		<g>
			<path style="fill:#FFCA9F;" d="M1135.792,2001.24c-0.639,13.823-1.997,22.492-1.997,22.492l-129.921-142.026
				c0,0-65.999-13.464-84.496-37.634c-7.031-9.189-7.191-19.935,5.753-32.081c36.635-34.358,135.114,0.32,173.987,48.621
				C1134.714,1904.838,1137.311,1967.961,1135.792,2001.24z"/>
		</g>
		<g style="opacity:0.3;">
			<path style="fill:#650000;" d="M1136.188,2000.441c-0.579,13.826-1.899,22.501-1.899,22.501l-130.543-141.455
				c0,0-66.057-13.174-84.661-37.263c13.119,3.538,39.874,9.773,66.123,9.897c36.716,0.159,44.429-17.614,55.631,13.379
				C1048.039,1887.486,1087.369,1964.54,1136.188,2000.441z"/>
		</g>
		<g>
			<path style="fill:#650000;" d="M1144.449,2059.024l-148.931-162.771c-25.449-5.661-86.196-22.502-95.591-55.654
				c-2.744-9.685-2.49-24.534,14.287-40.271c14.424-13.528,36.142-19.709,62.817-17.822c48.164,3.374,105.991,32.646,134.517,68.091
				c54.219,67.38,38.726,171.196,38.037,175.586L1144.449,2059.024z M967.94,1814.141c-14.082,0-25.244,3.296-31.86,9.499
				c-3.657,3.43-5.825,6.741-5.4,8.245c2.905,10.283,39.312,26.56,76.377,34.15l5.083,1.04l107.939,117.969
				c-0.239-32.539-5.986-80.303-33.433-114.409c-23.149-28.77-72.275-53.477-111.846-56.248
				C972.447,1814.224,970.157,1814.141,967.94,1814.141z"/>
		</g>
		<g>
			<path style="fill:#2DC130;" d="M3352.398,2596.032c-176.464,217.214-515.409,129.761-583.765-91.688
				c-89.051-288.567,231.396-568.703,243.102-653.32c4.674-33.639-6.352-51.617-114.58-117.097
				c-11.186-6.752-14.582-15.661-13.583-24.89c1.798-16.26,17.219-33.679,28.285-42.468c25.169-20.095,66.039-32.64,104.352-28.964
				c63.482,6.033,58.688,40.75,116.657,45.584c32.4,2.717,81.42-11.586,130.4,14.702c22.133,11.866,55.852,46.383,39.991,74.789
				c-0.2,0.319-0.399,0.639-0.599,0.959c-18.657,28.165-123.449-22.293-130.6,94.844c-2.917,47.662,19.975,99.878,52.775,155.49
				c19.336,32.8,42.108,66.798,65.08,101.796C3385.558,2271.23,3484.517,2433.391,3352.398,2596.032z"/>
		</g>
		<g>
			<path style="fill:#108C10;" d="M3352.398,2596.032c-176.464,217.214-515.409,129.761-583.765-91.688
				c-89.051-288.567,231.396-568.703,243.102-653.32c4.674-33.639-6.352-51.617-114.58-117.097
				c-11.186-6.752-14.582-15.661-13.583-24.89c99.158-41.909,193.203,70.673,203.151,63.163
				c11.026-8.31,26.008-55.013,35.956-54.134c13.424,1.159,8.31,64.321,20.415,76.746c12.145,12.425,22.173-12.944,43.586-24.77
				c50.778-28.125,93.366-10.907,115.978,3.596c-18.657,28.165-123.449-22.293-130.6,94.844
				c-2.917,47.662,19.975,99.878,52.775,155.49c-15.741,12.025-43.067,24.969-76.786,8.35
				c-53.854-26.568-57.849-89.091-119.414-83.857c-61.564,5.194-146.261,203.91-177.463,322.126
				c-31.162,118.215,12.984,241.624,124.048,318.25c111.064,76.666,316.333,41.589,372.184-106.51
				c38.193-101.236-18.058-263.837-57.49-356.563C3385.558,2271.23,3484.517,2433.391,3352.398,2596.032z"/>
		</g>
		<g>
			<path style="fill:#650000;" d="M3089.454,2737.427c-23.857,0-48.071-2.31-72.417-7.031
				c-128.174-24.844-229.209-109.658-263.682-221.348c-65.649-212.715,79.292-415.366,175.205-549.468
				c34.619-48.399,64.517-90.198,67.363-110.762c3.149-22.717-0.083-36.509-107.026-101.201
				c-16.543-10.01-20.752-23.401-21.367-32.871c-1.992-30.713,30.645-57.705,34.375-60.681
				c29.517-23.562,75.01-36.282,115.815-32.378c36.626,3.491,53.809,15.832,68.97,26.721c13.105,9.409,23.452,16.843,47.515,18.855
				c8.071,0.679,18.218,0.098,28.955-0.513c30.566-1.741,68.608-3.906,107.661,17.043c19.067,10.227,42.92,32.629,50.234,57.649
				c4.038,13.821,2.715,27.319-3.833,39.036c-9.922,17.751-31.768,18.957-52.896,20.125c-37.212,2.056-72.358,3.997-76.318,68.835
				l0,0c-4.063,66.487,49.141,147.197,105.469,232.651c50.532,76.66,102.788,155.933,126.313,239.941
				c27.52,98.271,9.531,184.653-54.99,264.072C3295.914,2690.894,3196.422,2737.427,3089.454,2737.427z M3002.94,1652.957
				c-29.424,0-60.811,9.893-81.094,26.087c-11.25,8.979-23.022,24.392-22.422,33.633c0.083,1.23,0.269,4.116,6.016,7.595
				c107.876,65.256,128.423,87.617,122.144,132.932c-3.931,28.367-32.91,68.887-73.027,124.971
				c-92.241,128.97-231.641,323.867-170.664,521.45c30.986,100.396,122.651,176.802,239.224,199.395
				c121.743,23.594,240.19-18.677,316.88-113.071c129.268-159.116,26.338-315.264-73.203-466.27
				c-59.346-90.029-115.4-175.061-110.688-252.188c5.698-93.235,68.774-96.719,106.46-98.799c8.999-0.498,24.063-1.331,26.914-4.016
				c1.333-2.454,3.066-6.855,0.898-14.263c-4.312-14.744-21.011-31.13-34.663-38.455c-31.113-16.692-62.798-14.893-90.737-13.298
				c-11.895,0.674-23.125,1.316-33.438,0.454c-32.861-2.751-49.136-14.436-63.491-24.746c-13.594-9.763-25.332-18.193-53.359-20.864
				C3010.831,1653.135,3006.9,1652.957,3002.94,1652.957z M3172.056,1868.465h0.049H3172.056z"/>
		</g>
		<g>
			<path style="fill:#FFCA9F;" d="M3232.656,1962.913c-0.319,0.472-84.072,9.367-93.244-38.694
				c-7.724-40.477,67.678-54.715,86.625-43.343C3237.038,1887.478,3257.632,1925.985,3232.656,1962.913z"/>
		</g>
		<g>
			<path style="fill:#FFCA9F;" d="M3252.558,2047.05c-0.189,0.538-94.725,11.255-103.896-36.806
				c-7.724-40.477,59.655-44.53,78.602-33.158C3238.263,1983.688,3268.444,2001.9,3252.558,2047.05z"/>
		</g>
		<g>
			<path style="fill:#650000;" d="M3210.943,1978.856c-8.857,0-21.514-0.61-34.375-3.293c-40.996-8.552-53.564-31.113-56.89-48.533
				c-3.501-18.347,4.146-35.132,21.528-47.263c24.995-17.451,68.364-23.264,87.549-11.751c10.371,6.223,19.932,22.117,23.789,39.548
				c3.452,15.579,4.087,39.285-12.461,63.752l-0.044,0.063c-4.39,6.416-9.487,7.31-27.422,7.468
				C3212.076,1978.853,3211.519,1978.856,3210.943,1978.856z M3227.657,1962.913h0.049H3227.657z M3202.52,1892.073
				c-12.29,0-31.641,3.394-44.453,12.51c-10.679,7.6-9.399,14.302-8.916,16.824c5,26.231,50.859,28.284,69.531,27.315
				c13.926-26.816-0.942-51.741-5.527-55.085C3211.436,1892.65,3207.574,1892.073,3202.52,1892.073z"/>
		</g>
		<g>
			<path style="fill:#650000;" d="M3233.883,2063.741c-5.972,0-13.086-0.288-21.577-0.938
				c-57.773-4.404-74.512-29.482-78.379-49.746c-3.374-17.685,2.93-33.12,17.749-43.464c23.623-16.484,64.883-16.423,83.306-5.369
				c34.307,20.589,44.98,50.127,31.729,87.803l-0.015,0.039C3264.903,2057.125,3262.559,2063.741,3233.883,2063.741z
				 M3252.559,2047.052h0.049H3252.559z M3200.05,1986.583c-10.845,0-23.34,2.124-31.201,7.61c-5.068,3.538-6.597,7.248-5.449,13.24
				c4.839,25.41,55.747,26.826,77.563,25.689c4.98-23.389-7.173-34.624-21.421-43.174
				C3216.148,1987.908,3208.614,1986.583,3200.05,1986.583z"/>
		</g>
		<g>
			<path style="fill:#FFCA9F;" d="M3211.403,1876.34c-0.408,0.357-76.385,2.987-75.107-46.321
				c1.076-41.527,70.108-51.913,86.024-35.038C3231.56,1804.778,3243.341,1848.395,3211.403,1876.34z"/>
		</g>
		<g style="opacity:0.3;">
			<path style="fill:#650000;" d="M3133.954,1924.588c11.066,45.593,92.244,37.32,92.565,36.842
				c23.523-34.415,7.141-70.443-4.042-80.36c3.638,17.634,2.596,36.607-10.78,43.979
				C3192.354,1935.711,3155.372,1941.781,3133.954,1924.588z"/>
		</g>
		<g style="opacity:0.3;">
			<path style="fill:#650000;" d="M3147.22,2003.272c0.04,1.518,0.2,3.116,0.519,4.754c9.189,48.061,103.713,37.354,103.913,36.795
				c11.746-33.319-1.638-51.976-13.863-62.084c4.09,16.988-3.28,29.545-8.9,33.226
				C3216.656,2023.973,3173.463,2018.714,3147.22,2003.272z"/>
		</g>
		<g style="opacity:0.3;">
			<path style="fill:#650000;" d="M3130.741,1828.131c-1.495,49.293,74.503,46.99,74.904,46.632
				c32.043-27.786,20.449-71.463,11.263-81.292c0.33,15.902-5.32,46.56-21.108,48.568c-15.788,2.008-47.193,4.803-64.518-19.14
				C3130.997,1824.576,3130.789,1826.333,3130.741,1828.131z"/>
		</g>
		<g>
			<path style="fill:#650000;" d="M3199.6,1891.473c-16.128,0-38.398-5.244-49.526-10.449
				c-22.363-10.466-34.36-28.716-33.774-51.392c0.591-22.671,15.581-41.272,41.128-51.038c23.174-8.857,55.869-9.739,70.806,6.094
				c9.141,9.695,14.888,29.731,13.975,48.73c-0.723,15.007-5.801,36.589-25.908,54.197c-0.01,0-0.01,0.005-0.02,0.015
				C3213.14,1890.365,3207.017,1891.473,3199.6,1891.473z M3205.914,1876.397h0.049H3205.914z M3191.588,1802.266
				c-7.153,0-16.03,1.272-24.858,4.91c-9.146,3.767-20.117,10.854-20.439,23.235c-0.181,7.056,1.899,12.424,6.548,16.892
				c11.846,11.379,36.362,13.875,47.388,14.16c20.469-22.044,9.688-52.131,6.147-56.228
				C3204.742,1803.68,3199.122,1802.266,3191.588,1802.266z"/>
		</g>
		<g>
			<path style="fill:#FFCA9F;" d="M2896.928,2032.305c0,0-29.075-108.224,15.385-174.476
				c34.548-51.481,137.34-82.967,173.953-48.632c47.009,44.083-78.713,69.708-78.713,69.708L2896.928,2032.305z"/>
		</g>
		<g style="opacity:0.3;">
			<path style="fill:#650000;" d="M2879.318,2000.441c0.579,13.826,1.899,22.501,1.899,22.501l130.543-141.455
				c0,0,66.057-13.174,84.661-37.263c-13.12,3.538-39.875,9.773-66.123,9.897c-36.716,0.159-44.429-17.614-55.631,13.379
				C2967.467,1887.486,2928.136,1964.54,2879.318,2000.441z"/>
		</g>
		<g>
			<path style="fill:#650000;" d="M2890.22,2068.927l-8.726-32.476c-1.265-4.702-30.41-116.065,17.549-187.529
				c23.472-34.971,75.029-63.394,125.391-69.119c31.426-3.569,56.577,2.561,72.764,17.739
				c16.777,15.735,17.031,30.583,14.287,40.269c-9.268,32.71-68.54,49.543-94.561,55.422L2890.22,2068.927z M3040.894,1810.802
				c-4.082,0-8.379,0.249-12.852,0.757c-40.386,4.592-84.434,28.313-102.456,55.173c-24.932,37.148-23.931,90.664-19.634,125.74
				l92.285-127.971l6.118-1.252c37.065-7.59,73.472-23.867,76.377-34.15c0.425-1.504-1.743-4.814-5.4-8.242
				C3068.341,1814.295,3056.134,1810.802,3040.894,1810.802z"/>
		</g>
		<g>
			<g>
				<path style="fill:#FFE35A;" d="M1053.893,2272.102H981.57v-11.994c0-12.77-0.835-21.124-2.506-25.063
					c-1.671-3.938-5.251-5.908-10.741-5.908c-4.416,0-7.728,1.701-9.935,5.102s-3.312,8.503-3.312,15.306
					c0,11.338,2.267,19.274,6.803,23.809c4.416,4.535,17.424,13.367,39.026,26.495c18.379,11.099,30.911,19.603,37.594,25.51
					c6.683,5.908,12.322,14.262,16.917,25.063s6.892,24.257,6.892,40.369c0,25.779-6.206,46.008-18.618,60.687
					c-12.412,14.679-31.03,23.75-55.854,27.211v27.211h-33.297v-28.106c-19.334-1.909-36.221-9.339-50.662-22.288
					s-21.661-35.535-21.661-67.759v-14.142h72.323v17.723c0,19.453,0.746,31.537,2.238,36.251c1.492,4.714,5.102,7.071,10.831,7.071
					c4.893,0,8.533-1.641,10.92-4.923s3.58-8.146,3.58-14.59c0-16.231-1.134-27.837-3.401-34.819
					c-2.268-6.982-10.025-14.59-23.272-22.825c-22.079-13.844-37.087-24.018-45.023-30.522
					c-7.936-6.504-14.799-15.664-20.587-27.479c-5.788-11.815-8.682-25.182-8.682-40.1c0-21.602,6.117-38.549,18.349-50.841
					c12.233-12.292,30.582-19.871,55.048-22.735v-23.093h33.297v23.093c22.318,2.865,39.026,10.353,50.125,22.467
					c11.099,12.114,16.649,28.852,16.649,50.215C1054.609,2261.48,1054.371,2266.015,1053.893,2272.102z"/>
			</g>
		</g>
		<g>
			<g>
				<path style="fill:#FFE35A;" d="M3142.18,2272.937h-67.222v-11.148c0-11.869-0.776-19.634-2.33-23.295
					c-1.553-3.661-4.881-5.491-9.983-5.491c-4.104,0-7.183,1.581-9.235,4.742c-2.052,3.161-3.078,7.904-3.078,14.227
					c0,10.538,2.108,17.915,6.323,22.13c4.104,4.215,16.195,12.424,36.273,24.626c17.083,10.316,28.73,18.22,34.942,23.711
					c6.212,5.491,11.453,13.256,15.724,23.295c4.271,10.039,6.406,22.546,6.406,37.521c0,23.96-5.768,42.763-17.305,56.407
					c-11.537,13.644-28.841,22.075-51.914,25.292v25.292h-30.949v-26.124c-17.97-1.775-33.667-8.68-47.089-20.716
					c-13.422-12.035-20.134-33.029-20.134-62.979v-13.145h67.222v16.473c0,18.081,0.693,29.313,2.08,33.694
					c1.386,4.382,4.742,6.573,10.067,6.573c4.548,0,7.931-1.525,10.15-4.576c2.219-3.051,3.328-7.571,3.328-13.561
					c0-15.086-1.054-25.874-3.162-32.363c-2.107-6.489-9.318-13.561-21.631-21.215c-20.522-12.868-34.471-22.324-41.847-28.37
					c-7.377-6.045-13.755-14.559-19.135-25.541c-5.38-10.982-8.07-23.406-8.07-37.272c0-20.078,5.685-35.83,17.055-47.255
					s28.425-18.469,51.165-21.132v-21.464h30.949v21.464c20.743,2.662,36.273,9.623,46.59,20.882
					c10.316,11.259,15.475,26.817,15.475,46.673C3142.845,2263.065,3142.623,2267.28,3142.18,2272.937z"/>
			</g>
		</g>
		<g style="opacity:0.3;">
			<path style="fill:#FFFFFF;" d="M787.612,2160.606c-45.394,57.927-77.803,241.223,23.492,232.491
				c45.402-3.914,21.821-53.23,20.353-117.42C829.425,2186.817,851.045,2079.66,787.612,2160.606z"/>
		</g>
		<g style="opacity:0.3;">
			<path style="fill:#FFFFFF;" d="M783.474,2440.065c3.099-41.1,39.372-41.684,59.921-26.419
				c20.548,15.265,24.596,47.946,19.766,56.166C841.788,2506.182,779.401,2494.078,783.474,2440.065z"/>
		</g>
		<g style="opacity:0.3;">
			<path style="fill:#FFFFFF;" d="M3235.718,2177.135c50.434,46.601,107.566,210.615,12.962,217.647
				c-42.403,3.152-28.021-45.783-36.222-105.128C3201.104,2207.501,3165.242,2112.015,3235.718,2177.135z"/>
		</g>
		<g style="opacity:0.3;">
			<path style="fill:#FFFFFF;" d="M3285.338,2455.017c-8.971-37.396-42.47-32.536-59.126-15.417
				c-16.656,17.119-15.52,47.825-9.847,54.677C3241.464,2524.597,3297.128,2504.163,3285.338,2455.017z"/>
		</g>
		<g>
			<path style="fill:#FFCA9F;" d="M2179.407,3209.675c0,0-113.427,50.753-94.178,101.525c15.362,40.521,104.197,4.676,104.197,4.676
				s39.947,87.248,84.159,86.148c51.24-1.274,38.861-70.495,42.474-75.316s55.892,54.99,94.427,41.729
				c42.104-14.489-0.943-80.456-2.097-82.774c-2.609-5.242,71.095,38.112,82.083-3.406c10.019-37.858-141.36-94.947-141.36-94.947
				L2179.407,3209.675z"/>
		</g>
		<g>
			<path style="fill:#650000;" d="M2272.774,3418.013c-42.383,0-77.056-55.542-91.304-82.31
				c-21.309,6.938-61.299,17.002-87.666,5.469c-11.216-4.907-19.351-13.311-23.516-24.307
				c-23.901-63.052,89.57-115.952,102.588-121.777c1.411-0.635,2.91-1.055,4.438-1.26l169.707-22.363
				c2.612-0.327,5.264-0.039,7.729,0.894c1.582,0.596,39.155,14.824,76.162,34.048c58.467,30.366,81.602,55.02,75.01,79.937
				c-3.066,11.582-9.937,20.342-19.863,25.332c-13.926,7.002-31.25,5.215-46.797,1.108c5.488,15.703,7.871,32.007,2.837,45.815
				c-4.321,11.86-13.452,20.488-26.411,24.951c-30.522,10.488-63.579-10.908-85.522-27.637
				c-2.681,25.337-13.149,61.016-56.187,62.085C2273.58,3418.009,2273.175,3418.013,2272.774,3418.013z M2189.415,3299.893
				c6.074,0,11.86,3.481,14.541,9.326c11.567,25.181,43.491,76.831,68.77,76.831c0.156,0,0.308,0,0.459-0.005
				c18.633-0.464,25.439-13.389,26.001-49.404c0.142-8.955,0.225-14.365,4.087-19.517c2.715-3.623,6.704-5.947,11.226-6.533
				c8.452-1.05,13.892,3.232,25.811,12.681c14.961,11.865,46.099,36.563,64.98,30.054c4.751-1.636,6.094-3.784,6.782-5.669
				c2.593-7.109-0.225-25.146-16.685-52.578c-0.728-1.216-1.162-2.012-1.304-2.29c-2.954-5.938-1.958-13.438,2.534-18.315
				c7.891-8.545,17.349-4.771,26.494-1.108c9.375,3.75,37.9,15.156,48.589,9.756c0.815-0.41,2.324-1.167,3.325-4.956
				c-1.191-13.721-61.606-49.033-127.827-74.482l-163.335,21.523c-31.919,14.785-93.838,53.56-83.691,80.332
				c0.796,2.095,2.178,4.482,6.431,6.348c17.402,7.637,56.367-2.603,76.855-10.835
				C2185.406,3300.269,2187.427,3299.893,2189.415,3299.893z"/>
		</g>
		<g>
			<path style="fill:#B74729;" d="M2472.635,2750.163c-36.236,99.239-54.373,161.882-60.286,254.249
				c-7.591,118.295-11.066,222.368-125.366,246.858c-123.729,26.528-200.914-36.515-241.864-153.692
				c-18.657-53.414-29.764-118.055-34.358-190.567c0,0,142.865-114.659,281.176-171.79c82.978-34.278,131.439-22.093,156.888-6.832
				c6.552,3.955,11.586,8.07,15.301,11.666C2470.079,2745.809,2472.635,2750.163,2472.635,2750.163z"/>
		</g>
		<g style="opacity:0.3;">
			<path style="fill:#650000;" d="M2472.635,2750.163c-36.236,99.239-54.373,161.882-60.286,254.249
				c-7.591,118.295-11.066,222.368-125.366,246.858c-123.729,26.528-200.914-36.515-241.864-153.692
				c85.136,106.43,163.04,123.209,235.791,89.73c120.413-55.412,109.106-236.231,97.72-282.694
				c-15.461-62.883-55.971-68.716-50.099-81.061c6.073-12.824,79.703-0.879,120.293-95.124v-0.04
				c6.552,3.955,11.586,8.07,15.301,11.666C2470.079,2745.809,2472.635,2750.163,2472.635,2750.163z"/>
		</g>
		<g>
			<path style="fill:#650000;" d="M2016.062,2906.687c9.675,21.789,13.901,43.503,17.625,65.271
				c3.955,21.711,7.163,43.412,11.401,64.897c4.219,21.484,10.339,42.486,17.839,62.765c7.517,20.266,16.599,39.812,27.729,57.804
				c22.019,36.004,53.987,65.08,93.164,76.679c19.375,6.2,40.232,7.854,61.091,6.765l7.839-0.45l7.852-0.965l7.852-0.992
				l7.832-1.454c10.618-1.714,20.327-4.421,29.849-7.92c18.936-6.977,35.405-18.123,47.615-33.425
				c12.322-15.224,20.542-34.234,26.138-54.511c10.972-40.896,13.049-85.643,16.042-130.385
				c2.578-45.358,8.718-91.558,20.032-136.092c2.81-11.135,5.83-22.199,9.038-33.172c3.24-10.961,5.95-22.068,9.185-32.989
				c3.269-10.912,7.312-21.539,12.412-31.75c5.237-10.161,11.558-19.897,21.018-28.431c2.473-2.23,6.284-2.033,8.513,0.439
				c0.835,0.927,1.331,2.041,1.492,3.189l0.002,0.024c1.797,12.6,0.476,24.005-1.721,35.059
				c-2.327,11.006-5.586,21.641-9.302,32.096c-3.787,10.435-7.795,20.784-10.903,31.386c-3.167,10.585-6.016,21.224-8.723,31.881
				c-10.808,42.676-16.599,85.999-19.146,130.388c-1.428,22.418-2.825,45.043-5.144,67.869
				c-2.434,22.824-5.667,45.921-11.985,68.984c-6.34,22.928-16.042,46.222-32.08,66.091c-7.959,9.891-17.422,18.736-27.871,25.987
				c-10.444,7.277-21.797,12.96-33.401,17.291c-11.548,4.285-23.635,7.531-35.21,9.412l-8.748,1.61l-8.872,1.135l-8.884,1.076
				l-8.992,0.533c-23.928,1.26-48.657-0.644-72.202-8.126c-23.521-7.267-45.779-19.32-64.287-35.334
				c-18.657-15.85-34.209-34.741-46.633-55.016c-12.532-20.255-22.439-41.703-30.554-63.564
				c-8.123-21.882-14.297-44.223-20.076-66.562c-5.718-22.354-10.308-44.988-12.107-67.865c-2.107-22.813-2.063-45.883,4.648-68.956
				c0.874-3.003,4.016-4.729,7.019-3.856c1.658,0.482,2.927,1.656,3.584,3.116L2016.062,2906.687z"/>
		</g>
		<g>
			<path style="fill:#FCD200;" d="M2383.102,1944.482c0,0-151.401,381.954-388.842,398.035
				c-275.576,18.664-342.531-426.141-342.531-426.141l-29.561-2.817c0,0,37.298,487.679,371.687,473.513
				c301.115-12.757,429.419-453.794,429.419-453.794L2383.102,1944.482z"/>
			<path style="fill:#000072;" d="M1980.059,2389.976c-131.309,0.005-234.771-80.391-299.844-233.325
				c-50.708-119.165-60.557-241.667-60.649-242.891l-0.234-3.093l34.673,3.303l0.308,2.017
				c0.166,1.108,17.29,112.163,67.749,219.443c44.541,94.702,124.619,205.024,255.786,205.034c5.332,0,10.732-0.181,16.235-0.552
				c233.071-15.786,385.083-392.588,386.592-396.392l0.479-1.204l45.933-12.813l-1.309,4.504
				c-0.322,1.106-32.974,111.885-102.08,222.764c-63.94,102.588-173.047,226.27-329.732,232.905
				C1989.302,2389.874,1984.654,2389.976,1980.059,2389.976z M1625.05,1916.456c1.88,19.736,14.097,130.396,60.015,238.257
				c46.318,108.813,137.573,236.963,308.677,229.751c154.375-6.538,262.197-128.877,325.464-230.352
				c60.864-97.622,93.306-195.171,100.176-217.036l-34.341,9.575c-4.663,11.418-42.314,101.553-105.176,192.305
				c-61.938,89.429-161.738,197.788-285.43,206.162c-113.936,7.71-209.678-64.063-277.144-207.563
				c-47.007-99.976-65.244-203.167-67.817-218.772L1625.05,1916.456z"/>
		</g>
		<g style="opacity:0.3;">
			<path style="fill:#650000;" d="M2423.256,1933.284c0,0-128.283,441.02-429.394,453.804
				c-334.39,14.143-371.705-473.54-371.705-473.54l14.263,1.358c10.907,100.836,69.914,459.637,357.442,447.492
				c253.65-10.787,378.976-325.442,412.215-424.32L2423.256,1933.284z"/>
		</g>
		<g>
			<path style="fill:#650000;" d="M1622.169,1913.56l29.561,2.815c0,0,64.204,426.714,325.806,426.714
				c5.474,0,11.074-0.188,16.724-0.571c237.441-16.082,388.843-398.035,388.843-398.035l40.171-11.204
				c0,0-128.301,441.035-429.419,453.792c-4.795,0.203-9.507,0.303-14.18,0.303
				C1658.428,2387.374,1622.169,1913.56,1622.169,1913.56 M2423.272,1933.28h0.024 M1622.169,1888.56
				c-6.519,0-12.817,2.549-17.515,7.158c-5.264,5.168-7.974,12.395-7.412,19.749c0.381,5,9.946,123.833,60.127,244.592
				c68.589,165.066,180.039,252.314,322.305,252.314c5.015,0,10.142-0.11,15.239-0.325c74.067-3.137,144.253-30.62,208.608-81.68
				c50.356-39.954,97.183-94.375,139.175-161.755c68.027-109.141,100.693-215.286,104.287-227.363
				c0.845-2.502,1.304-5.183,1.304-7.971c0-13.657-10.942-24.758-24.541-24.995c-0.161-0.005-0.317-0.005-0.474-0.005
				c-0.444,0-0.889,0.012-1.333,0.034c-2.056,0.11-4.043,0.464-5.938,1.04l-39.614,11.047c-7.534,2.102-13.647,7.602-16.528,14.871
				c-1.455,3.664-148.423,367.48-367.29,382.302c-5.039,0.342-10.098,0.515-15.034,0.515
				c-236.978,0-300.474-401.389-301.084-405.444c-1.719-11.34-10.933-20.071-22.354-21.157l-29.561-2.815
				C1623.746,1888.597,1622.955,1888.56,1622.169,1888.56L1622.169,1888.56z"/>
		</g>
		<g>
			<g>
				<path style="fill:#FFCA9F;" d="M2663.302,1358.157c0,0,20.469-123.181,152.791-123.894
					c127.101-0.684,184.887,122.412,170.831,215.306c-14.768,97.602-65.613,149.778-141.791,174.04
					c-79.573,25.343-162.697,6.833-162.697,6.833"/>
			</g>
			<g>
				<path style="fill:#F28475;" d="M2663.541,1412.602c0,0,11.819-66.863,88.105-67.27c73.276-0.39,106.572,66.416,98.455,116.838
					c-8.529,52.979-37.849,81.306-81.77,94.486c-45.879,13.768-93.798,3.733-93.798,3.733"/>
			</g>
			<g>
				<path style="fill:#650000;" d="M2714.62,1579.908c-24.375,0-42.124-3.618-43.364-3.877
					c-8.638-1.809-14.175-10.281-12.363-18.918c1.812-8.635,10.278-14.155,18.916-12.366c0.42,0.085,44.707,8.979,85.928-3.396
					c41.172-12.354,63.604-38.32,70.586-81.719c3.97-24.67-3.799-51.948-20.278-71.189c-10.62-12.4-29.937-27.131-61.763-27.131
					c-0.181,0-0.366,0-0.552,0c-62.241,0.332-72.065,51.875-72.451,54.07c-1.538,8.689-9.829,14.478-18.521,12.957
					c-8.687-1.536-14.487-9.827-12.954-18.518c4.893-27.668,32.866-80.09,103.76-80.466c0.244-0.002,0.498-0.002,0.742-0.002
					c43.96,0,71.021,20.796,86.016,38.301c22.422,26.182,32.979,63.371,27.554,97.061c-8.901,55.33-40.176,91.414-92.949,107.248
					C2752.51,1578.089,2731.9,1579.908,2714.62,1579.908z"/>
			</g>
			<g>
				<path style="fill:#650000;" d="M2752.061,1652.996c-41.074,0-71.011-6.489-73.096-6.956
					c-8.618-1.919-14.043-10.456-12.129-19.072c1.924-8.613,10.483-14.043,19.072-12.124c0.776,0.169,80.078,17.207,154.375-6.462
					c76.299-24.302,117.876-75.525,130.84-161.201c7.71-50.972-8.643-108.577-41.66-146.758
					c-28.398-32.839-67.231-50.183-112.334-50.183c-0.317,0-0.63,0.002-0.947,0.005c-116.826,0.628-136.353,106.089-137.124,110.579
					c-1.494,8.682-9.766,14.521-18.418,13.066c-8.687-1.47-14.546-9.663-13.105-18.352c0.229-1.365,24.346-136.477,168.472-137.256
					c0.381,0,0.762-0.002,1.143-0.002c54.653,0,101.831,21.16,136.489,61.238c39.463,45.635,58.276,111.711,49.087,172.444
					c-14.79,97.722-64.751,158.85-152.744,186.875C2815.719,1649.749,2781.099,1652.996,2752.061,1652.996z"/>
			</g>
			<g>
				<path style="fill:#FFCA9F;" d="M1362.078,1363.865c0,0-21.548-122.997-153.872-122.548
					c-127.102,0.431-183.806,124.03-168.936,216.796c15.624,97.469,66.924,149.196,143.312,172.789
					c79.792,24.644,162.751,5.405,162.751,5.405"/>
			</g>
			<g style="opacity:0.3;">
				<path style="fill:#650000;" d="M1039.276,1458.1c15.627,97.491,66.922,149.225,143.297,172.814
					c79.792,24.621,162.765,5.374,162.765,5.374l3.583-58.334c-31.582,4.558-95.539,9.764-157.741-9.467
					c-77.579-23.972-131.504-74.415-152.461-166.842C1036.204,1420.851,1036.366,1440.083,1039.276,1458.1z"/>
			</g>
			<g style="opacity:0.3;">
				<path style="fill:#650000;" d="M2986.92,1449.557c-14.771,97.625-65.61,149.807-141.775,174.065
					c-79.573,25.32-162.711,6.802-162.711,6.802l-4.094-58.301c31.621,4.281,95.621,8.925,157.652-10.85
					c77.366-24.652,130.846-75.566,150.991-168.173C2989.665,1412.282,2989.671,1431.515,2986.92,1449.557z"/>
			</g>
			<g>
				<path style="fill:#F28475;" d="M1362.317,1418.31c0,0-12.405-66.757-88.691-66.494c-73.277,0.253-105.985,67.348-97.426,117.698
					c8.993,52.902,38.561,80.971,82.596,93.765c45.998,13.365,93.827,2.91,93.827,2.91"/>
			</g>
			<g>
				<path style="fill:#F28475;" d="M1176.203,1469.521c8.995,52.889,38.549,80.949,82.576,93.746
					c5.047,1.451,10.093,2.631,15.099,3.578c40.825,7.615,78.75-0.656,78.75-0.656l9.704-147.893c0,0-3.256-17.551-16.748-34.631
					c-12.789-16.229-34.767-31.992-71.952-31.867C1200.349,1352.08,1167.645,1419.15,1176.203,1469.521z"/>
			</g>
			<g style="opacity:0.3;">
				<path style="fill:#650000;" d="M1263.558,1518.344c4.825,21.528,15.714,37.555,31.662,49.25
					c40.817,5.674,78.751-0.579,78.751-0.579l9.866-111.081c0,0-3.237-13.178-16.71-25.99c-1.978-0.078-3.956-0.099-6.01-0.089
					C1287.832,1430.119,1255.055,1480.554,1263.558,1518.344z"/>
			</g>
			<g style="opacity:0.3;">
				<path style="fill:#650000;" d="M2782.129,1511.683c-4.636,21.569-15.384,37.691-31.229,49.526
					c-40.765,6.032-78.753,0.112-78.753,0.112l-10.84-110.99c0,0,3.122-13.206,16.481-26.136c1.977-0.095,3.955-0.133,6.009-0.142
					C2757.082,1423.673,2790.3,1473.819,2782.129,1511.683z"/>
			</g>
			<g>
				<path style="fill:#650000;" d="M1310.552,1586.068c-16.826,0-36.592-1.741-56.216-7.441
					c-52.91-15.376-84.502-51.187-93.892-106.436c-5.723-33.638,4.512-70.92,26.704-97.295
					c14.922-17.734,42.026-38.906,86.421-39.06c0.161,0,0.332,0,0.498,0c70.527,0,98.838,51.995,103.96,79.553
					c1.611,8.679-4.116,17.019-12.793,18.63c-8.594,1.638-16.968-4.075-18.618-12.713c-1.113-5.581-12.481-53.511-72.544-53.511
					c-0.137,0-0.259,0-0.396,0.002c-32.148,0.11-51.499,15.11-62.07,27.673c-16.313,19.385-23.843,46.731-19.658,71.362
					c7.368,43.335,30.025,69.104,71.304,81.099c41.343,12.007,85.537,2.732,85.981,2.637c8.604-1.848,17.119,3.611,18.994,12.232
					c1.87,8.616-3.579,17.114-12.192,18.999C1354.761,1582.078,1336.026,1586.068,1310.552,1586.068z"/>
			</g>
			<g>
				<path style="fill:#650000;" d="M1272.501,1659.486c-28.325,0.002-61.602-3.113-94.634-13.316
					c-88.237-27.248-138.731-87.934-154.38-185.527c-9.717-60.647,8.511-126.885,47.573-172.864
					c34.546-40.664,81.948-62.256,137.09-62.444c0.254,0,0.527,0,0.781,0c143.452,0,168.647,134.412,168.887,135.774
					c1.523,8.691-4.292,16.975-12.983,18.496c-8.662,1.533-16.953-4.27-18.491-12.949c-0.85-4.666-21.304-109.36-137.427-109.36
					c-0.22,0-0.439,0-0.659,0.002c-45.508,0.154-84.531,17.849-112.842,51.174c-32.681,38.469-48.525,96.213-40.366,147.112
					c13.716,85.564,55.737,136.421,132.251,160.049c74.502,23.008,153.638,5.283,154.438,5.103
					c8.574-1.973,17.173,3.384,19.155,11.978c1.987,8.594-3.359,17.168-11.953,19.16
					C1346.802,1652.371,1315.313,1659.486,1272.501,1659.486z"/>
			</g>
			<g>
				<path style="fill:#B17E4F;" d="M2192.458,618.414l-29.124-5.673C2173.082,614.458,2182.79,616.296,2192.458,618.414z"/>
			</g>
			<g>
				<path style="fill:#B74729;" d="M2749.456,1284.518c-5.313,107.149-33.958,221.089-87.812,297.915
					c34.198,6.112,56.451,30.722,69.395,61.684c16.899,40.51,17.898,91.927,8.709,127.244
					c-22.652,87.213-97.121,137.591-202.112,172.549l-1038.648,4.554c-105.311-34.038-180.179-83.738-203.591-170.791
					c-8.669-32.241-8.989-78.025,3.716-116.697c11.746-35.916,34.757-65.76,72.711-72.871
					c-54.493-76.346-84.177-190.047-90.409-297.156c-15.421-265.834,147.659-497.551,383.171-612.37l0.04-0.04
					c-2.797-75.188,15.421-128.403,26.607-153.532c3.795-8.47,14.502-11.186,21.853-5.553c21.254,16.26,43.826,44.146,58.489,52.336
					c8.03,4.515,18.098,0.439,20.774-8.35c12.025-39.472,32.241-89.41,44.985-109.426c5.274-8.31,17.139-8.989,23.332-1.319
					c22.373,27.726,77.066,81.62,153.532,111.623c70.234,27.566,119.494,41.469,148.618,48.301c0.08,0.04,0.16,0.04,0.24,0.04
					c0.04,0.04,0.12,0.04,0.16,0.04c0.04,0,0.08,0,0.12,0.04c18.417,4.315,28.605,5.753,30.762,5.993c0.08,0.04,0.12,0.04,0.2,0.04
					c0.04,0.04,0.04,0.04,0.08,0.04c0.12,0,0.16,0,0.16,0C2515.623,688.088,2765.437,959.676,2749.456,1284.518z"/>
			</g>
			<g style="opacity:0.3;">
				<path style="fill:#650000;" d="M2739.748,1771.362c-22.652,87.213-97.121,137.591-202.112,172.549l-1038.648,4.554
					c-105.311-34.038-180.179-83.738-203.591-170.791c-8.669-32.241-8.989-78.025,3.716-116.697
					c12.185,34.877,37.274,78.144,87.573,123.009c109.825,97.92,1087.029,233.874,1274.639-16.779
					c37.035-49.46,57.969-81.54,69.715-123.089C2747.938,1684.628,2748.937,1736.045,2739.748,1771.362z"/>
			</g>
			<g style="opacity:0.35;">
				<path style="fill:#FFFFFF;" d="M1281.432,1290.962c0.001,0.233,0.041,0.427,0.042,0.66
					c11.905-238.561,170.008-456.319,411.669-568.296c-2.811-75.212-0.66-116.62,6.231-133.396
					c3.508-8.541,6.628-11.16,13.982-5.531c21.282,16.271,43.855,44.129,58.509,52.362c8.007,4.462,18.11,0.425,20.786-8.351
					c12.002-39.487,32.218-89.441,44.965-109.428c5.276-8.321,17.138-8.993,23.298-1.342
					c22.418,27.742,75.869,84.973,153.576,111.62c65.319,22.435,114.245,38.197,144.531,47.641c0,0.039,0.039,0.039,0.078,0.038
					c316.329,52.588,572.289,300.676,590.312,608.281c-0.001-0.233,0.037-0.466,0.036-0.699
					c16.553-336.838-252.573-616.315-590.633-672.53c-0.039,0-0.078,0-0.078-0.038c-30.286-9.445-79.212-25.206-144.531-47.641
					c-77.707-26.647-131.158-83.878-153.576-111.62c-6.16-7.65-18.022-6.978-23.298,1.342
					c-12.747,19.987-32.963,69.941-44.965,109.428c-2.676,8.776-12.779,12.813-20.786,8.351
					c-14.655-8.233-37.228-36.091-58.509-52.362c-7.353-5.629-18.044-2.907-21.807,5.525
					c-11.212,25.176-29.474,78.378-26.663,153.59C1429.079,793.406,1265.997,1025.108,1281.432,1290.962z"/>
			</g>
			<g>
				<path style="fill:#650000;" d="M1498.985,1964.439c-1.631,0-3.281-0.249-4.917-0.776
					c-123.418-39.856-191.455-97.632-214.102-181.821c-11.704-43.423-10.43-112.249,20.034-160.737
					c12.129-19.309,28.047-33.486,46.758-41.833c-45.464-72.871-74.829-176.096-81.279-287.383
					c-7.598-130.808,26.987-259.595,100.01-372.437c68.008-105.088,165.679-191.594,282.891-250.679
					c-0.962-73.018,17.08-125.134,28.271-150.281c3.789-8.513,11.147-14.717,20.19-17.024c9.048-2.314,18.511-0.381,25.932,5.291
					c10.742,8.208,21.162,18.528,31.231,28.511c8.696,8.613,17.656,17.495,23.667,21.531c11.523-37.346,31.67-88.56,46.162-111.357
					c5.234-8.235,14.175-13.482,23.911-14.033c9.81-0.547,19.204,3.652,25.332,11.243c9.702,12.009,62.383,73.606,146.953,106.794
					c69.409,27.239,118.159,40.938,146.553,47.6l0.288,0.068c0.088,0.02,0.176,0.039,0.264,0.061
					c10.127,1.775,19.497,3.601,28.535,5.569l1.914,0.371l-0.005,0.02l0.308,0.061c161.978,34.946,308.516,120.969,412.622,242.222
					c107.676,125.408,162.686,281.628,154.897,439.89c-5.513,111.389-33.97,214.868-78.755,288.086
					c18.76,8.179,34.78,22.202,47.075,41.382c30.894,48.208,32.798,117.039,21.499,160.591
					c-21.909,84.377-89.448,142.747-212.544,183.696c-8.398,2.786-17.422-1.748-20.205-10.12
					c-2.788-8.374,1.743-17.422,10.117-20.208c113.384-37.72,172.505-87.495,191.694-161.399
					c9.678-37.283,6.841-97.38-17.471-135.318c-12.139-18.94-28.286-30.332-47.988-33.857l-24.629-4.409l14.36-20.493
					c48.271-68.882,79.229-174.412,84.922-289.529c14.995-304.661-212.314-577.324-540.679-648.933h-0.034l-1.484-0.303
					c-3.667-0.5-14.082-2.1-31.455-6.15l-0.879-0.205c-29.858-7.009-79.731-21.13-150.601-48.943
					c-88.525-34.741-145.083-98.237-158.711-114.719c-11.636,19.392-30.503,65.825-42.002,103.625
					c-2.686,8.833-9.136,15.879-17.7,19.324c-8.574,3.447-18.105,2.839-26.167-1.68c-9.722-5.442-20.166-15.794-32.261-27.776
					c-8.799-8.721-17.876-17.717-26.509-24.548c-10.64,24.536-27.036,74.417-24.419,144.539l0.259,6.965l-6.821,6.821l-2.417,1.182
					c-241.548,117.778-388.438,352.156-374.219,597.107c6.572,113.308,39.268,221.26,87.466,288.769l14.541,20.369l-24.6,4.622
					c-19.692,3.701-35.752,15.244-47.729,34.309c-23.97,38.154-26.255,98.252-16.235,135.425
					c19.844,73.75,79.385,123.005,193.066,159.717c8.398,2.712,13.008,11.719,10.293,20.117
					C1512.003,1960.132,1505.728,1964.439,1498.985,1964.439z"/>
			</g>
			<g style="opacity:0.3;">
				<path style="fill:#650000;" d="M2553.137,1978.269c-52.775,37.155-120.013,66.918-194.083,89.49
					c-14.023,4.275-28.325,8.31-42.828,12.105c-107.388,27.886-225.484,41.589-332.872,41.589
					c-94.524,0-183.376-9.428-263.158-29.244c-34.757-8.629-67.797-19.216-98.799-31.881
					c-50.498-20.575-95.643-46.623-134.235-78.424c40.83-0.479,84.576-4.435,131.679-13.144
					c-6.072-42.348-19.496-85.815-42.907-130.52c-145.302-277.62,635.901-22.772,635.901-22.772s42.588,47.342,96.242,147.02
					C2401.522,1983.223,2482.463,1985.5,2553.137,1978.269z"/>
			</g>
			<g>
				<path style="fill:#FFCA9F;" d="M2013.199,1146.964c-0.761-173.44-347.761-323.181-541.771-17.437
					c-1.194,1.828-2.311,3.732-3.465,5.599c-141.834,231.414,1.371,498.027,1.371,498.027s-108.946,29.676-106.862,133.624
					c1.24,61.725,58.931,148.484,136.518,183.236c41.301,18.664,94.339,34.833,150.662,48.545
					c240.395,58.661,491.771,57.325,731.878-2.434c57.906-14.408,112.893-31.284,156.121-50.667
					c77.279-35.431,134.246-122.693,134.906-184.426c1.172-103.963-107.99-132.682-107.99-132.682s140.821-267.859-3.039-498.02
					c-1.132-1.856-2.304-3.751-3.514-5.568c-196.646-304.03-542.358-151.25-541.597,22.189"/>
			</g>
			<g>
				<path style="fill:#650000;" d="M2009.82,2057.579c-122.685,0-245.098-14.492-363.955-43.496
					c-63.145-15.371-114.775-32.029-153.457-49.507c-85.659-38.367-144.619-133.091-145.913-197.478
					c-1.606-80.037,57.608-125.173,100.601-143.096c-11.953-26.001-34.141-80.339-47.334-150.115
					c-24.399-129.023-5.522-249.053,54.58-347.114l1.089-1.785c0.854-1.409,1.714-2.815,2.607-4.185
					c50.757-79.993,114.536-134.927,189.453-163.115c64.37-24.226,133.355-26.958,199.502-7.896
					c79.106,22.793,140.703,73.108,167.529,132.28c26.313-59.407,87.476-110.261,166.387-133.745
					c65.986-19.631,134.99-17.502,199.561,6.148c75.161,27.532,139.409,81.904,190.962,161.606c1.206,1.807,2.495,3.884,3.735,5.918
					c60.874,97.388,80.806,217.246,57.554,346.477c-12.573,69.888-34.277,124.424-45.996,150.525
					c43.135,17.546,102.715,62.161,101.816,142.209c-0.688,64.368-58.809,159.607-144.229,198.772
					c-40.298,18.071-93.73,35.43-158.926,51.648C2262.335,2042.257,2135.933,2057.579,2009.82,2057.579z M1758.721,969.661
					c-76.304,0-185.523,29.309-273.804,168.428c-0.811,1.252-1.494,2.375-2.173,3.496l-1.186,1.938
					c-135.439,220.984,0.469,479.483,1.855,482.068l9.507,17.7l-19.385,5.281c-3.921,1.086-96.89,27.939-95.088,117.886
					c1.074,53.481,53.525,136.028,127.075,168.97c36.929,16.687,86.675,32.695,147.91,47.603
					c236.055,57.605,486.479,56.765,724.238-2.415c63.364-15.764,114.99-32.497,153.442-49.741
					c73.179-33.55,124.893-116.545,125.464-170.015c1.016-89.966-92.148-116.003-96.113-117.068l-19.307-5.181l9.263-17.7
					c1.357-2.593,134.722-262.659-2.441-482.114c-1.113-1.819-2.168-3.53-3.262-5.171
					c-130.986-202.507-304.604-169.58-354.692-154.666c-91.641,27.273-157.935,97.893-157.627,167.917
					c0.039,8.826-7.085,16.013-15.913,16.052c-0.43-0.024-1.074-0.024-1.607-0.073c-0.542,0.056-0.923,0.098-1.68,0.088
					c-8.794,0-15.942-7.109-15.981-15.911c-0.308-70.024-67.207-140.059-159.077-166.528
					C1822.261,975.931,1794.014,969.661,1758.721,969.661z"/>
			</g>
			<g>
				
					<ellipse transform="matrix(1 -0.0044 0.0044 1 -7.7057 9.9666)" style="fill:#F28475;" cx="2267.692" cy="1761.235" rx="81.174" ry="45.109"/>
			</g>
			<g>
				
					<ellipse transform="matrix(1 -0.0044 0.0044 1 -7.7172 7.7451)" style="fill:#F28475;" cx="1762.089" cy="1763.453" rx="81.174" ry="45.109"/>
			</g>
			<g>
				
					<ellipse transform="matrix(1 -0.0044 0.0044 1 -6.8361 7.7451)" style="fill:#650000;" cx="1761.202" cy="1561.378" rx="117.255" ry="121.273"/>
			</g>
			<g>
				
					<ellipse transform="matrix(1 -0.0044 0.0044 1 -6.9882 7.6857)" style="fill:#FFFFFF;" cx="1746.033" cy="1594.588" rx="53.387" ry="55.217"/>
			</g>
			<g>
				
					<ellipse transform="matrix(1 -0.0044 0.0044 1 -6.5747 7.8795)" style="fill:#FFFFFF;" cx="1796.865" cy="1506.004" rx="32.045" ry="33.144"/>
			</g>
			<g>
				
					<ellipse transform="matrix(1 -0.0044 0.0044 1 -6.8172 9.9409)" style="fill:#650000;" cx="2262.955" cy="1559.177" rx="110.951" ry="121.273"/>
			</g>
			<g>
				<path style="fill:#650000;" d="M2044.244,1711.12c-3.474,1.013-6.799-1.885-6.308-5.47c1.474-10.756,6.275-29.266,21.892-31.794
					c20.685-3.349,23.006,14.609,21.172,19.976c-2.137,6.255-7.366,10.191-17.682,12.402
					C2056.987,1707.589,2049.605,1709.556,2044.244,1711.12z"/>
			</g>
			<g>
				<path style="fill:#650000;" d="M1987.54,1711.369c3.483,0.983,6.782-1.944,6.26-5.525c-1.568-10.743-6.531-29.209-22.17-31.601
					c-20.714-3.168-22.877,14.81-20.996,20.161c2.192,6.236,7.456,10.126,17.791,12.246
					C1974.766,1707.95,1982.165,1709.852,1987.54,1711.369z"/>
			</g>
			<g>
				<path style="fill:#650000;" d="M2106.364,1783.986c0,0-2.837,49.38-28.365,84.736c-14.223,19.736-35.476,35.117-67.277,35.117
					c-28.286,0-47.622-13.703-60.845-31.881c-25.888-35.477-28.365-87.972-28.365-87.972
					C1971.969,1807.558,2086.029,1798.609,2106.364,1783.986z"/>
			</g>
			<g>
				<path style="fill:#F28475;" d="M2077.999,1868.723c-14.223,19.736-35.476,35.117-67.277,35.117
					c-28.286,0-47.622-13.703-60.845-31.881c14.223-19.736,35.516-35.117,67.318-35.117
					C2045.439,1836.842,2064.775,1850.545,2077.999,1868.723z"/>
			</g>
			<g>
				<path style="fill:#650000;" d="M2010.714,1921.812c-79.673,0-104.932-89.607-107.158-136.987
					c-0.293-6.289,2.72-12.275,7.954-15.779c5.229-3.506,11.914-4.014,17.612-1.355c45.64,21.323,150.942,12.341,166.787,1.675
					c5.62-4.04,13.057-4.495,19.141-1.152c6.074,3.337,9.673,9.88,9.277,16.799
					C2121.602,1832.327,2094.356,1921.812,2010.714,1921.812z M1943.355,1809.781c6.523,30.447,23.599,76.074,67.358,76.074
					c47.808,0,66.387-45.251,73.481-75.791C2046.075,1817.828,1986.934,1819.405,1943.355,1809.781z"/>
			</g>
			<g>
				
					<ellipse transform="matrix(1 -0.0044 0.0044 1 -6.9419 9.8285)" style="fill:#FFFFFF;" cx="2244.136" cy="1592.403" rx="53.387" ry="55.217"/>
			</g>
			<g>
				
					<ellipse transform="matrix(1 -0.0044 0.0044 1 -6.5771 10.0855)" style="fill:#FFFFFF;" cx="2294.969" cy="1503.819" rx="32.045" ry="33.144"/>
			</g>
			<g>
				<g>
					<path style="fill:#650000;" d="M1907.99,1657.952c-38.256,53.253-87.061,92.891-134.733,119.641
						c-27.086,15.196-52.947,27.77-93.842,29.731c-6.063,0.258-12.452,0.321-19.24,0.113c-12.911-0.395-25.591-2.297-38.008-5.556
						l-0.037-0.001c-14.213-3.684-28.003-9.127-41.155-16.102c-6.033-3.138-11.981-6.643-17.736-10.438
						c-24.468-16.071-43.732-34.457-58.636-54.186c-78.885-104.355-36.115-246.045-2.588-279.911
						c49.606-50.136,103.042-51.64,130.228-50.809l121.212,3.708c8.337,0.255,13.501,0.413,13.501,0.413
						c10.882,0.333,21.82,1.222,32.664,2.808c18.309,2.554,36.375,7.02,53.556,13.859c7.443,2.923,14.724,6.284,21.806,10.156
						c30.759,16.781,68.786,44.638,78.211,66.046C1964.758,1513.736,1970.006,1571.495,1907.99,1657.952z"/>
				</g>
				<g>
					<path style="fill:#650000;" d="M2467.463,1803.002c-30.44,17.419-64.263,27.166-98.716,26.112
						c-12.578-0.385-23.803-1.577-33.973-3.476c-20.451-3.727-36.722-10.169-51.69-18.122c-8.721-4.587-17.019-9.714-25.384-15.102
						c-4.2-2.713-8.398-5.5-12.554-8.433c-26.104-18.115-51.931-40.431-75.379-66.919c-14.06-15.937-27.298-33.363-39.236-52.3
						c-56.652-90.088-47.883-147.418-34.695-172.97c10.716-20.791,50.337-46.274,82.065-61.143
						c34.201-16.049,72.207-21.31,109.463-20.171c0,0,6.455,0.197,16.563,0.507l118.151,3.614
						c8.447,0.258,19.394,0.889,31.839,3.226c15.418,2.909,33.122,8.361,51.332,18.961c14.584,8.458,29.474,20.175,43.744,36.488
						C2586.274,1515.875,2627.367,1711.453,2467.463,1803.002z"/>
				</g>
				<g style="opacity:0.5;">
					<path style="fill:#FFFFFF;" d="M2407.287,1414.144l-162.14,369.835c-26.104-18.115-51.931-40.431-75.379-66.919l134.16-306.078
						L2407.287,1414.144z"/>
				</g>
				<g style="opacity:0.5;">
					<path style="fill:#FFFFFF;" d="M2505.25,1436.783l-170.476,388.854c-20.451-3.727-36.722-10.169-51.69-18.122l170.833-389.692
						L2505.25,1436.783z"/>
				</g>
				<g style="opacity:0.5;">
					<path style="fill:#FFFFFF;" d="M1753.456,1394.143l-172.48,391.635c-6.033-3.138-11.981-6.643-17.736-10.438
						c-24.468-16.071-43.732-34.457-58.636-54.186l145.493-330.173L1753.456,1394.143z"/>
				</g>
				<g style="opacity:0.5;">
					<path style="fill:#FFFFFF;" d="M1853.177,1411.224l-173.762,396.101c-6.063,0.258-12.452,0.321-19.24,0.113
						c-12.911-0.395-25.591-2.297-38.008-5.556l177.453-404.517C1817.93,1399.918,1835.996,1404.385,1853.177,1411.224z"/>
				</g>
				<g>
					<path style="fill:#650000;" d="M1668.385,1823.536c-2.837,0-5.732-0.044-8.701-0.134
						c-35.957-1.101-72.344-13.101-105.234-34.702c-80.151-52.654-103.525-125.996-109.023-178.252
						c-7.91-75.237,17.31-152.244,45.21-180.447c57.505-58.115,121.191-56.152,142.104-55.525l134.707,4.121
						c43.984,1.345,82.744,11.016,115.195,28.745c32.041,17.5,73.569,47.285,85.161,73.63
						c9.932,22.554,25.249,85.857-46.846,186.294c-45.513,63.403-101.201,102.576-139.907,124.275
						C1749.859,1809.027,1719.615,1823.533,1668.385,1823.536z M1624.493,1406.307c-30.039,0-71.665,6.277-111.133,46.174
						c-19.36,19.568-43.374,85.891-36.147,154.624c4.771,45.386,25.093,109.099,94.785,154.88
						c27.949,18.359,58.608,28.55,88.662,29.468c48.496,1.475,75.049-11.138,104.766-27.793
						c35.874-20.112,87.48-56.396,129.565-115.032c64.248-89.504,49.59-141.096,43.565-154.778
						c-6.46-14.673-37.085-39.805-71.235-58.462c-28.003-15.295-61.934-23.655-100.849-24.844l-134.707-4.121
						C1629.425,1406.351,1626.998,1406.307,1624.493,1406.307z"/>
				</g>
				<g>
					<path style="fill:#650000;" d="M2373.731,1845.162c-1.836,0-3.662-0.029-5.488-0.083
						c-56.587-1.733-87.461-18.789-119.199-39.224c-37.305-24.019-90.493-66.521-132.041-132.59
						c-65.825-104.658-46.665-166.907-35.376-188.811c13.179-25.579,56.45-52.773,89.502-68.286l0.005-0.003
						c33.477-15.708,72.803-22.979,116.733-21.648l134.707,4.121c20.923,0.64,84.604,2.583,138.442,64.106
						c26.128,29.856,46.592,108.264,34.097,182.876c-8.677,51.819-36.494,123.596-119.717,171.25
						C2442.989,1835.43,2407.955,1845.162,2373.731,1845.162z M2184.713,1445.098c-35.234,16.538-67.339,39.751-74.678,53.996
						c-6.851,13.289-24.634,63.889,34.019,157.153c38.428,61.104,87.715,100.471,122.295,122.737
						c28.638,18.44,54.399,32.663,102.871,34.146c30.078,0.94,61.274-7.378,90.298-23.994
						c72.363-41.435,96.538-103.786,104.072-148.796c11.416-68.164-8.496-135.83-26.626-156.546
						c-40.044-45.759-85.02-52.283-115.366-53.208l-134.707-4.121c-38.926-1.184-73.291,5.078-102.183,18.635L2184.713,1445.098z"/>
				</g>
				<g>
					<path style="fill:#650000;" d="M2268.687,1425.899c-0.166,0-0.332-0.002-0.498-0.007l-501.719-15.347
						c-8.823-0.271-15.757-7.642-15.483-16.462c0.269-8.823,7.847-15.661,16.46-15.486l501.719,15.347
						c8.823,0.271,15.757,7.642,15.483,16.462C2284.385,1419.061,2277.286,1425.899,2268.687,1425.899z"/>
				</g>
				<g>
					<path style="fill:#650000;" d="M2086.763,1567.901c-3.618,0-7.256-1.223-10.244-3.726
						c-31.177-26.089-75.786-27.444-108.501-3.32c-7.109,5.247-17.109,3.73-22.349-3.372c-5.239-7.102-3.725-17.107,3.374-22.346
						c44.619-32.913,105.469-31.045,147.983,4.526c6.768,5.664,7.666,15.742,2.002,22.51
						C2095.87,1565.953,2091.334,1567.901,2086.763,1567.901z"/>
				</g>
			</g>
			<g style="opacity:0.3;">
				<path style="fill:#650000;" d="M2672.551,1761.015c-7.705,389.96-1394.589,369.23-1306.32-28.925
					c73.544,350.986,1266.483,310.767,1302.525-4.594C2671.312,1737.683,2672.71,1748.829,2672.551,1761.015z"/>
			</g>
		</g>
		<g>
			
				<ellipse transform="matrix(0.7071 -0.7071 0.7071 0.7071 -1187.5486 2125.5364)" style="fill:#FCD200;" cx="1971.975" cy="2496.266" rx="153.734" ry="153.734"/>
			<path style="fill:#000072;" d="M1971.973,2652.613c-86.206,0-156.343-70.137-156.343-156.348s70.137-156.348,156.343-156.348
				c86.211,0,156.348,70.137,156.348,156.348S2058.184,2652.613,1971.973,2652.613z M1971.973,2345.142
				c-83.33,0-151.118,67.793-151.118,151.123s67.788,151.123,151.118,151.123s151.123-67.793,151.123-151.123
				S2055.303,2345.142,1971.973,2345.142z"/>
		</g>
		<g>
			<path style="fill:#FC9E17;" d="M2093.585,2494.702c0,67.175-54.444,121.619-121.619,121.619
				c-67.175,0-121.619-54.444-121.619-121.619c0-11.25,1.528-22.083,4.398-32.407c14.213,51.435,61.296,89.166,117.221,89.166
				c55.925,0,103.008-37.731,117.221-89.166C2092.057,2472.619,2093.585,2483.452,2093.585,2494.702z"/>
		</g>
		<g>
			<path style="fill:#650000;" d="M1971.973,2667.559c-94.448,0-171.289-76.841-171.289-171.294s76.841-171.294,171.289-171.294
				c94.453,0,171.294,76.841,171.294,171.294S2066.427,2667.559,1971.973,2667.559z M1971.973,2360.089
				c-75.088,0-136.172,61.089-136.172,136.177s61.084,136.177,136.172,136.177c75.088,0,136.177-61.089,136.177-136.177
				S2047.061,2360.089,1971.973,2360.089z"/>
		</g>
	</g>
</g>
</svg>
