<?xml version="1.0" encoding="UTF-8" standalone="no"?>
<!DOCTYPE svg PUBLIC "-//W3C//DTD SVG 1.1//EN" "http://www.w3.org/Graphics/SVG/1.1/DTD/svg11.dtd">
<svg xmlns="http://www.w3.org/2000/svg" version="1.1" viewBox="0 0 360 360" width="360.0pt" height="360.0pt" xmlns:xlink="http://www.w3.org/1999/xlink">
<defs>
<path d="M 0.00 0.00 L 360.00 0.00 L 360.00 360.00 L 0.00 360.00 L 0.00 0.00 Z M 112.63 140.37 C 112.92 141.89 112.33 143.47 112.63 145.01 C 113.05 148.94 116.80 152.01 120.55 152.58 L 120.51 153.46 C 114.02 156.47 107.84 161.90 105.91 169.02 C 104.81 172.14 105.03 175.30 105.60 178.51 C 106.33 180.03 107.21 181.43 106.13 183.06 C 102.96 187.95 102.40 194.15 105.94 199.02 C 106.78 200.45 108.61 201.42 109.07 202.98 C 108.39 204.25 107.03 205.02 106.21 206.22 C 103.31 211.14 107.50 215.72 103.72 220.69 C 102.59 221.15 101.16 220.33 99.99 220.17 C 95.76 219.86 91.22 221.16 87.14 222.22 C 84.02 223.48 84.05 226.82 85.43 229.43 C 84.27 232.24 83.67 234.87 83.54 237.93 C 82.75 240.85 82.48 243.99 83.08 246.97 C 84.31 249.97 86.31 251.26 89.52 251.55 C 92.78 253.44 96.36 254.88 100.09 253.42 C 103.17 253.89 105.72 255.08 108.97 253.93 C 114.84 252.16 121.29 247.90 122.55 241.48 C 125.01 237.34 127.61 233.46 131.42 230.43 C 132.62 229.85 133.69 231.84 134.41 232.55 C 135.62 233.92 134.00 235.14 133.36 236.32 C 130.02 241.98 126.95 247.47 125.23 253.85 C 124.29 256.64 124.22 259.61 124.60 262.51 C 125.38 265.07 123.35 267.30 124.10 269.99 C 124.98 274.14 124.09 278.30 124.57 282.52 C 124.79 283.31 125.18 283.87 125.75 284.20 C 125.73 287.59 129.97 292.76 126.78 295.79 C 122.32 301.31 115.32 299.68 110.90 305.26 C 105.77 306.57 101.07 307.68 96.45 310.39 C 95.78 311.61 94.36 312.65 94.10 314.01 C 94.42 316.47 96.57 317.37 98.46 318.51 C 108.02 322.71 117.57 323.87 127.81 325.41 C 134.53 326.39 141.21 327.03 148.00 327.20 C 164.54 328.72 181.40 328.38 198.00 328.14 C 213.98 327.24 228.53 326.74 244.34 323.46 C 248.64 323.10 252.55 321.62 256.69 320.60 C 259.95 319.26 263.05 318.29 265.62 315.72 C 266.68 313.08 265.36 311.07 263.04 309.86 C 258.35 307.52 252.99 306.47 248.00 304.85 C 243.80 304.61 239.84 302.56 235.77 303.34 C 233.27 300.57 231.23 296.69 233.02 292.98 C 234.81 289.10 236.23 285.33 236.10 280.98 C 237.09 276.96 241.46 272.40 240.74 267.98 C 240.80 266.00 239.09 264.94 239.38 262.98 C 240.96 263.09 242.53 263.14 244.10 262.83 C 248.78 262.52 253.39 258.82 257.01 256.07 C 261.81 252.69 266.12 247.57 272.08 246.37 C 273.92 245.91 275.73 245.34 275.11 243.01 C 273.38 239.65 268.99 237.43 265.46 236.48 C 261.41 234.88 257.32 234.70 253.00 234.51 C 247.70 234.46 242.51 234.49 237.52 236.48 C 236.16 236.79 234.73 237.82 233.34 237.70 C 232.52 233.06 231.74 228.46 230.25 223.98 C 230.08 222.90 231.68 222.08 232.26 221.28 C 234.31 218.93 236.21 216.37 237.59 213.56 L 238.75 213.18 C 241.48 217.62 248.69 218.74 253.10 216.21 C 255.44 214.57 258.36 215.30 260.98 214.09 C 269.34 211.53 274.89 205.11 278.40 197.34 C 281.39 195.54 284.38 194.92 285.96 191.24 C 287.01 191.28 287.82 192.73 288.66 193.33 C 292.01 196.51 296.56 197.35 300.90 195.81 C 305.33 194.51 310.30 195.10 313.29 191.28 C 315.27 189.70 315.20 186.49 317.34 185.45 C 323.04 183.82 324.68 176.64 324.52 171.48 C 326.55 170.72 328.10 170.19 328.86 167.96 C 329.98 163.87 329.01 158.23 325.32 155.67 C 324.00 154.54 322.54 155.67 321.27 154.78 C 319.03 150.58 315.35 145.09 310.00 145.14 C 307.00 145.59 305.97 142.61 303.05 141.75 C 300.71 140.15 297.35 140.07 294.81 141.19 C 290.57 142.49 285.39 142.13 282.36 145.35 C 279.61 147.65 279.40 150.87 277.73 153.57 C 276.14 153.06 274.81 151.92 273.01 151.82 C 269.61 151.45 266.39 154.09 264.94 156.98 C 264.30 158.12 264.04 159.68 263.01 160.50 C 262.03 160.54 261.05 160.56 260.07 160.57 C 258.89 160.48 257.66 161.95 256.48 161.52 C 255.38 160.99 254.31 160.46 253.35 159.70 C 251.81 155.63 254.15 150.33 254.40 146.06 C 254.45 144.57 255.85 143.77 257.09 143.30 C 261.03 141.70 264.92 139.36 269.07 138.41 C 275.58 137.53 282.47 138.50 289.01 138.11 C 290.95 137.81 293.59 137.20 294.20 135.02 C 294.55 133.07 294.36 130.95 294.13 128.99 C 291.79 116.75 286.27 104.45 277.85 95.15 C 269.11 85.37 256.69 79.43 243.90 77.22 C 240.49 76.02 236.81 76.60 233.27 75.70 C 230.50 73.48 228.11 69.37 224.65 68.36 C 223.96 66.73 222.61 65.82 221.28 64.73 C 213.28 58.53 203.76 52.62 193.89 50.18 C 187.36 46.42 180.50 45.32 173.09 46.65 C 165.51 43.65 156.94 43.40 149.07 45.34 C 146.67 45.77 145.38 47.53 143.08 45.84 C 135.59 43.45 127.38 47.88 122.60 53.59 C 121.13 55.67 119.24 55.35 116.98 55.49 C 114.86 55.39 113.12 56.57 111.02 56.62 C 106.99 56.91 102.98 57.86 99.02 58.62 C 93.55 59.17 88.05 60.66 82.92 62.58 C 79.49 63.33 75.88 64.96 73.15 67.17 C 70.45 69.27 69.70 72.75 69.55 76.00 C 69.52 79.99 70.06 84.07 71.27 87.88 C 76.29 103.59 85.37 118.33 97.25 129.79 C 101.94 134.02 106.81 137.80 112.63 140.37 Z" id="p0" />
<path d="M 173.09 46.65 C 180.50 45.32 187.36 46.42 193.89 50.18 C 203.76 52.62 213.28 58.53 221.28 64.73 C 222.61 65.82 223.96 66.73 224.65 68.36 C 228.11 69.37 230.50 73.48 233.27 75.70 C 236.81 76.60 240.49 76.02 243.90 77.22 C 256.69 79.43 269.11 85.37 277.85 95.15 C 286.27 104.45 291.79 116.75 294.13 128.99 C 294.36 130.95 294.55 133.07 294.20 135.02 C 293.59 137.20 290.95 137.81 289.01 138.11 C 282.47 138.50 275.58 137.53 269.07 138.41 C 264.92 139.36 261.03 141.70 257.09 143.30 C 255.85 143.77 254.45 144.57 254.40 146.06 C 254.15 150.33 251.81 155.63 253.35 159.70 C 254.31 160.46 255.38 160.99 256.48 161.52 C 257.66 161.95 258.89 160.48 260.07 160.57 C 261.05 160.56 262.03 160.54 263.01 160.50 C 264.04 159.68 264.30 158.12 264.94 156.98 C 266.39 154.09 269.61 151.45 273.01 151.82 C 274.81 151.92 276.14 153.06 277.73 153.57 C 279.40 150.87 279.61 147.65 282.36 145.35 C 285.39 142.13 290.57 142.49 294.81 141.19 C 294.98 143.23 296.42 142.95 298.00 143.02 C 299.87 143.19 301.38 142.46 303.05 141.75 C 305.97 142.61 307.00 145.59 310.00 145.14 C 315.35 145.09 319.03 150.58 321.27 154.78 C 322.54 155.67 324.00 154.54 325.32 155.67 C 329.01 158.23 329.98 163.87 328.86 167.96 C 328.10 170.19 326.55 170.72 324.52 171.48 C 324.68 176.64 323.04 183.82 317.34 185.45 C 315.20 186.49 315.27 189.70 313.29 191.28 C 310.30 195.10 305.33 194.51 300.90 195.81 C 296.56 197.35 292.01 196.51 288.66 193.33 C 287.82 192.73 287.01 191.28 285.96 191.24 L 285.25 190.85 C 284.92 189.81 287.22 187.23 285.31 187.06 C 287.58 182.14 289.14 176.43 288.34 170.99 C 287.43 167.22 285.14 163.59 282.23 161.04 C 280.78 159.66 278.08 159.63 276.29 160.27 C 276.60 161.07 277.14 161.78 277.94 162.41 C 279.55 164.09 280.10 166.61 280.70 168.82 C 279.18 169.57 278.97 167.55 278.33 166.66 C 277.31 164.70 275.76 163.44 274.11 162.04 C 272.84 160.49 266.80 160.05 266.44 162.62 C 267.15 163.48 268.00 164.18 268.81 164.94 C 269.44 166.36 270.56 167.98 270.56 169.56 C 269.02 171.07 267.98 166.64 266.79 165.96 C 264.98 164.46 263.55 162.94 260.98 163.29 C 257.91 163.41 255.37 165.79 255.41 168.92 C 255.25 170.16 256.90 170.62 257.79 171.00 C 260.40 173.46 260.18 177.57 258.56 180.49 C 257.30 185.29 258.73 188.55 262.51 191.52 C 262.66 192.01 262.58 192.57 262.25 193.18 C 260.80 192.24 259.30 191.06 257.66 190.48 L 257.44 190.43 C 257.33 191.62 257.17 192.80 256.95 193.98 C 256.04 195.29 256.54 197.30 255.84 198.78 C 254.11 202.32 252.07 205.87 248.01 207.01 C 244.41 207.53 240.85 208.45 237.33 209.39 C 237.62 209.92 238.14 210.37 238.90 210.76 C 238.13 211.09 238.08 211.90 238.75 213.18 L 237.59 213.56 C 236.21 216.37 234.31 218.93 232.26 221.28 C 231.68 222.08 230.08 222.90 230.25 223.98 C 231.74 228.46 232.52 233.06 233.34 237.70 C 234.73 237.82 236.16 236.79 237.52 236.48 C 242.51 234.49 247.70 234.46 253.00 234.51 C 257.32 234.70 261.41 234.88 265.46 236.48 C 268.99 237.43 273.38 239.65 275.11 243.01 C 275.73 245.34 273.92 245.91 272.08 246.37 C 266.12 247.57 261.81 252.69 257.01 256.07 C 253.39 258.82 248.78 262.52 244.10 262.83 C 243.90 261.43 240.15 261.48 239.42 262.35 L 239.38 262.98 C 239.09 264.94 240.80 266.00 240.74 267.98 C 241.46 272.40 237.09 276.96 236.10 280.98 C 236.23 285.33 234.81 289.10 233.02 292.98 C 231.23 296.69 233.27 300.57 235.77 303.34 C 236.30 305.94 237.43 308.35 237.83 311.00 C 238.33 315.55 235.46 319.66 231.35 321.41 C 227.39 323.34 223.32 323.40 219.00 323.49 C 214.18 323.45 209.67 323.64 205.11 321.81 C 201.42 320.76 197.41 318.87 196.21 314.90 C 195.50 313.16 195.98 311.52 196.86 309.96 C 198.28 307.19 201.63 306.80 203.00 303.98 C 203.77 302.22 204.78 300.63 205.72 298.97 L 205.25 298.03 C 202.53 294.72 199.40 292.55 197.51 288.53 C 197.11 287.16 197.07 285.70 196.64 284.34 C 195.04 282.90 194.38 281.26 193.60 279.31 C 191.86 278.06 189.76 277.35 187.96 276.18 C 183.20 273.03 179.92 268.72 176.96 263.94 L 176.01 263.44 C 173.74 264.67 173.33 268.63 171.67 270.66 C 169.80 273.99 166.38 275.51 163.96 278.03 C 164.38 281.41 163.93 284.51 162.59 287.62 C 161.22 290.28 159.11 292.01 157.27 294.27 C 155.42 295.91 157.09 298.49 158.24 300.02 C 160.60 304.66 158.16 308.66 154.61 311.65 C 147.25 316.96 138.85 317.89 130.00 317.33 C 124.16 317.09 116.74 315.87 112.43 311.57 C 110.42 309.86 110.73 307.64 110.90 305.26 C 115.32 299.68 122.32 301.31 126.78 295.79 C 129.97 292.76 125.73 287.59 125.75 284.20 C 126.12 283.40 126.54 282.64 127.00 281.91 C 128.68 285.05 130.29 289.02 130.52 292.58 C 134.34 292.40 137.56 291.65 141.06 293.89 C 142.02 294.71 143.89 295.02 143.58 296.58 C 140.98 296.38 139.06 293.80 136.00 294.19 C 130.37 294.04 129.28 298.56 124.97 300.93 C 121.86 302.92 116.55 303.26 114.15 306.09 C 112.55 309.44 116.33 310.90 118.50 312.38 C 122.20 313.00 125.31 314.29 129.00 314.39 C 134.93 314.47 141.91 314.70 147.51 312.38 C 148.80 311.44 150.00 310.88 151.53 310.41 C 153.42 308.72 156.04 306.57 156.58 304.00 C 155.93 301.95 154.69 299.96 153.75 298.02 C 153.56 295.79 153.43 293.83 155.22 292.20 C 158.50 288.88 161.54 286.12 161.28 281.00 C 161.50 278.07 159.22 278.26 157.17 278.95 C 156.40 278.34 153.63 278.24 154.04 277.01 C 155.56 276.30 157.51 276.88 159.03 276.22 C 165.38 274.78 170.66 269.69 171.71 263.27 C 169.12 262.09 166.29 261.61 163.72 260.34 C 162.63 259.94 161.35 258.93 160.16 259.21 C 157.71 262.23 155.33 264.84 152.04 266.99 C 150.13 267.95 147.33 269.40 145.18 268.87 L 145.24 268.26 C 149.04 266.83 152.20 264.59 155.25 261.96 C 156.54 260.83 157.63 259.53 158.44 258.02 C 157.14 255.85 153.97 254.80 152.88 252.42 C 154.87 252.31 155.82 253.67 157.41 254.59 C 168.94 261.86 184.95 263.44 197.07 256.78 L 197.79 257.11 L 197.80 257.87 C 195.61 259.80 192.24 260.69 189.52 261.67 C 186.58 262.82 183.56 263.37 180.41 263.50 C 180.63 265.22 183.27 268.34 184.82 269.13 C 186.36 272.98 192.37 275.40 195.91 277.13 C 196.73 278.94 196.30 280.41 198.19 281.72 C 200.12 283.12 198.98 284.99 199.99 286.99 C 201.46 291.67 207.61 294.00 208.42 299.00 C 208.01 301.22 206.26 303.24 205.37 305.34 C 204.01 308.31 201.22 308.92 199.28 311.24 C 198.59 312.46 199.12 314.29 199.49 315.57 C 202.32 318.08 205.46 319.54 209.08 320.48 C 215.78 320.64 223.74 321.64 229.96 318.85 C 232.28 317.53 235.39 314.96 235.15 312.00 C 235.13 307.16 231.19 302.66 229.73 298.02 C 229.06 294.21 231.37 290.39 232.67 286.94 C 232.90 284.04 233.01 280.83 232.32 277.99 C 231.90 277.30 231.48 276.61 231.05 275.93 C 230.63 272.51 227.22 271.35 227.71 268.00 C 229.15 259.66 231.39 250.29 230.21 241.82 C 230.87 237.06 229.55 229.90 227.62 225.46 C 226.05 225.98 224.00 228.34 222.27 227.82 C 223.49 225.24 226.72 223.94 227.99 220.99 C 230.61 219.21 232.43 216.75 234.19 214.17 C 234.68 213.57 234.82 212.98 234.61 212.41 C 230.78 210.55 226.99 209.14 223.71 206.28 C 221.48 204.28 218.66 203.69 216.69 201.34 C 215.05 199.99 214.22 197.34 212.41 196.37 C 210.71 201.04 208.81 205.35 205.09 208.80 C 202.39 211.25 199.24 213.43 195.78 214.67 C 194.10 215.31 192.16 215.70 190.80 216.96 L 191.21 219.07 C 192.86 223.19 193.66 227.66 189.71 230.71 C 183.60 234.04 174.81 232.32 168.52 230.30 C 167.06 229.05 164.11 228.15 163.43 226.34 C 164.17 226.08 164.86 226.14 165.50 226.53 C 171.73 229.58 179.09 230.54 185.92 229.52 C 189.77 228.34 191.27 224.73 189.93 220.96 C 189.60 219.69 189.27 218.43 188.78 217.21 C 182.85 217.32 176.99 218.08 171.06 216.66 C 166.43 215.44 161.95 213.74 157.81 211.31 C 156.40 210.52 155.46 211.66 154.32 212.30 C 151.96 213.72 149.06 214.33 146.51 215.38 C 144.80 215.79 140.24 214.83 142.01 218.05 C 140.87 221.49 141.00 226.39 144.30 228.67 C 147.87 230.66 152.35 228.31 155.53 226.51 C 156.19 226.05 156.88 225.99 157.60 226.35 C 156.15 228.19 154.17 229.67 152.50 231.33 C 151.58 231.40 150.68 231.57 149.81 231.85 C 149.11 233.43 150.22 235.14 149.52 237.00 C 149.35 240.02 148.88 243.52 152.49 244.61 C 156.56 245.95 158.71 243.45 161.96 242.11 C 162.89 243.76 159.78 245.28 158.83 246.24 C 156.12 247.60 153.04 248.00 150.22 246.73 C 148.07 245.38 147.33 243.52 146.75 241.15 C 146.68 238.40 148.80 235.22 148.24 232.77 C 146.80 232.11 145.05 232.48 143.47 232.39 C 142.17 231.01 141.24 229.45 139.63 228.38 C 139.43 225.73 138.74 222.47 139.73 219.96 C 140.08 220.92 139.12 225.02 140.77 224.72 C 140.91 222.89 141.56 219.36 140.35 217.92 L 140.09 216.11 C 136.65 215.54 133.68 215.57 130.33 214.34 C 129.67 216.64 131.07 219.88 131.76 222.11 C 133.25 227.14 136.56 231.66 139.50 235.97 L 139.05 236.96 C 138.20 236.77 137.38 236.62 136.57 236.50 L 136.23 237.00 C 135.04 238.86 133.97 240.75 133.01 242.74 C 130.07 246.88 129.11 251.60 127.00 256.06 C 126.58 255.04 125.99 254.30 125.23 253.85 C 126.95 247.47 130.02 241.98 133.36 236.32 C 134.00 235.14 135.62 233.92 134.41 232.55 C 133.69 231.84 132.62 229.85 131.42 230.43 C 127.61 233.46 125.01 237.34 122.55 241.48 C 121.29 247.90 114.84 252.16 108.97 253.93 C 105.72 255.08 103.17 253.89 100.09 253.42 C 96.36 254.88 92.78 253.44 89.52 251.55 C 86.31 251.26 84.31 249.97 83.08 246.97 C 82.48 243.99 82.75 240.85 83.54 237.93 C 83.67 234.87 84.27 232.24 85.43 229.43 C 84.05 226.82 84.02 223.48 87.14 222.22 C 91.22 221.16 95.76 219.86 99.99 220.17 C 101.16 220.33 102.59 221.15 103.72 220.69 C 107.50 215.72 103.31 211.14 106.21 206.22 C 107.03 205.02 108.39 204.25 109.07 202.98 C 108.61 201.42 106.78 200.45 105.94 199.02 C 102.40 194.15 102.96 187.95 106.13 183.06 C 107.21 181.43 106.33 180.03 105.60 178.51 C 105.03 175.30 104.81 172.14 105.91 169.02 C 107.84 161.90 114.02 156.47 120.51 153.46 L 120.55 152.58 C 116.80 152.01 113.05 148.94 112.63 145.01 C 112.33 143.47 112.92 141.89 112.63 140.37 C 106.81 137.80 101.94 134.02 97.25 129.79 C 85.37 118.33 76.29 103.59 71.27 87.88 C 70.06 84.07 69.52 79.99 69.55 76.00 C 69.70 72.75 70.45 69.27 73.15 67.17 C 75.88 64.96 79.49 63.33 82.92 62.58 C 88.05 60.66 93.55 59.17 99.02 58.62 C 102.98 57.86 106.99 56.91 111.02 56.62 C 113.12 56.57 114.86 55.39 116.98 55.49 C 119.24 55.35 121.13 55.67 122.60 53.59 C 127.38 47.88 135.59 43.45 143.08 45.84 C 145.38 47.53 146.67 45.77 149.07 45.34 C 156.94 43.40 165.51 43.65 173.09 46.65 Z M 145.83 49.27 C 142.98 50.54 140.30 51.95 137.76 53.76 C 136.91 54.45 136.32 54.22 136.00 53.07 C 137.43 51.37 139.65 50.58 141.05 49.01 L 140.91 48.22 C 134.35 47.02 129.34 50.57 124.96 54.98 C 123.59 56.24 123.10 58.03 121.02 57.99 C 115.26 58.27 109.72 59.59 104.01 60.27 C 95.22 61.88 85.58 63.62 77.47 67.51 C 76.58 68.15 74.57 69.39 74.82 70.64 C 73.79 71.23 72.61 71.72 72.49 73.07 C 71.57 78.50 72.82 84.36 74.62 89.48 C 78.53 100.56 84.53 110.93 91.91 120.05 C 98.37 127.20 106.45 135.75 115.98 138.45 C 122.03 139.03 127.72 138.13 133.50 136.44 C 147.73 130.62 157.98 116.85 172.90 111.86 C 175.73 111.06 179.02 111.16 181.92 111.53 C 187.16 113.00 192.03 116.90 194.04 122.04 C 196.40 127.25 195.72 133.80 192.55 138.55 C 190.03 142.49 185.97 146.61 181.00 146.80 C 175.47 147.39 171.01 145.88 165.89 144.21 C 158.94 141.54 152.26 139.00 144.93 137.48 C 141.67 137.19 138.56 137.07 135.54 138.54 C 128.98 141.46 122.40 141.14 115.46 141.43 C 114.09 145.97 117.71 148.90 121.38 150.58 C 126.02 152.18 131.45 153.70 135.49 156.55 C 136.50 157.64 138.62 158.94 138.54 160.55 L 137.43 160.57 C 134.51 157.44 129.25 154.72 125.02 154.96 C 116.73 162.42 113.52 174.13 114.16 185.00 C 114.03 190.89 115.83 197.10 119.24 201.90 C 122.88 207.73 129.03 212.21 136.00 212.84 C 139.33 213.08 142.70 213.06 146.02 212.67 C 149.28 212.24 152.39 209.70 155.57 209.52 C 152.35 207.19 150.62 204.13 148.47 200.87 C 147.99 199.41 147.02 197.72 147.17 196.14 C 149.30 195.78 148.87 199.28 150.77 200.32 C 151.60 202.44 152.73 204.04 154.49 205.49 C 161.60 211.37 170.71 214.85 180.00 214.57 C 188.76 214.81 198.31 211.98 204.19 205.19 C 206.86 202.16 208.99 198.28 209.70 194.30 C 209.27 193.83 208.82 193.38 208.37 192.93 C 206.24 189.61 204.68 183.70 207.21 180.23 C 210.12 178.36 209.27 174.78 207.73 172.28 C 201.09 161.35 186.89 157.06 174.98 161.15 C 172.39 161.50 170.72 164.22 168.36 164.66 C 168.03 163.80 168.19 163.19 168.85 162.82 C 171.66 160.03 175.19 158.77 178.91 157.69 C 179.08 156.98 178.43 156.45 176.97 156.11 C 180.84 155.60 185.13 156.07 189.06 156.17 L 189.50 157.53 C 195.69 158.37 201.40 161.12 206.05 165.28 L 206.96 165.03 C 207.46 162.74 207.16 160.32 207.62 158.00 C 207.92 162.58 206.05 166.65 209.99 170.04 C 211.14 169.91 211.58 168.14 212.34 167.37 C 213.62 165.53 215.46 164.99 217.52 164.45 C 219.70 160.60 221.11 156.91 225.84 155.63 C 229.82 154.86 233.95 153.57 238.00 153.49 C 240.76 153.29 243.30 154.79 245.75 155.93 C 248.14 159.08 250.42 162.16 252.52 165.52 C 253.88 165.82 253.95 164.44 254.63 163.57 C 253.49 162.94 252.30 162.42 251.15 161.82 C 249.60 156.39 246.65 151.28 241.73 148.26 C 236.49 144.87 230.51 144.61 224.50 145.60 C 222.91 146.36 221.27 146.83 219.55 146.15 C 220.25 144.55 223.04 144.60 224.48 143.58 C 229.54 142.59 235.73 142.10 240.49 144.45 C 243.84 145.61 246.08 147.88 248.77 150.04 C 249.12 150.97 249.61 152.21 250.61 152.61 C 251.62 149.46 251.71 146.26 252.00 143.00 C 252.93 138.50 252.50 133.59 252.52 129.00 C 252.70 125.26 251.36 121.73 251.04 117.99 C 246.50 90.64 226.61 67.82 202.07 55.94 C 198.13 53.96 193.73 53.41 189.92 51.25 C 184.29 48.60 176.60 47.83 170.82 50.25 C 166.73 51.60 163.93 54.61 160.38 56.53 L 159.87 56.01 C 161.86 52.32 165.45 50.90 168.57 48.65 L 168.61 48.25 C 167.50 47.09 165.51 47.36 164.00 47.10 C 158.09 46.67 151.27 46.64 145.83 49.27 Z M 239.91 83.96 C 242.85 88.78 245.78 93.48 248.43 98.48 C 249.93 103.01 251.69 107.39 252.80 112.03 C 254.10 118.72 255.34 125.14 255.17 132.00 C 255.31 134.88 254.89 137.88 255.29 140.73 C 256.86 140.82 258.50 139.48 259.98 138.97 C 262.92 137.44 266.18 136.67 269.05 135.07 C 276.55 133.96 284.20 135.94 291.57 134.58 C 292.23 130.73 290.57 127.82 290.52 124.07 C 287.61 113.69 282.35 103.95 275.08 95.96 C 265.10 85.73 250.48 79.46 236.28 79.22 C 236.89 80.91 238.96 82.32 239.91 83.96 Z M 152.84 134.72 C 154.72 131.62 155.69 128.26 157.05 124.94 L 157.99 124.48 C 160.56 127.23 162.77 131.12 164.60 134.49 C 165.34 134.74 165.76 134.56 165.85 133.95 C 167.53 129.66 169.40 125.62 170.07 121.03 C 170.18 120.28 170.73 120.03 171.73 120.27 C 172.58 121.41 171.25 123.62 171.27 125.01 C 169.58 129.06 168.42 134.36 165.90 137.92 L 165.13 137.91 C 162.56 135.09 160.82 131.49 158.55 128.41 L 157.54 128.43 C 157.12 131.47 154.45 134.48 154.45 137.44 C 162.95 139.29 170.67 144.56 180.00 144.20 C 185.18 143.98 188.42 140.06 190.88 135.95 C 191.39 134.01 189.57 131.85 188.72 130.18 C 187.43 128.39 186.52 126.18 185.02 124.59 L 184.30 125.03 C 183.18 129.35 181.77 133.79 179.77 137.78 L 178.99 138.18 L 178.14 137.88 C 175.72 133.38 173.64 128.63 171.51 123.99 C 172.26 121.31 173.58 123.82 174.01 125.04 C 175.41 128.26 177.23 131.27 178.51 134.55 L 179.45 134.55 C 180.12 131.65 181.47 128.99 182.18 126.10 C 182.85 124.17 182.52 122.04 183.18 120.15 C 183.90 120.02 184.50 120.30 184.96 120.98 C 187.42 124.26 190.06 127.69 191.54 131.54 L 192.59 131.62 C 194.67 122.77 186.08 112.89 177.00 114.19 C 173.55 114.03 171.08 115.75 168.01 117.02 C 161.14 120.82 155.34 125.34 149.30 130.29 C 148.82 130.88 152.23 135.32 152.84 134.72 Z M 147.40 132.52 C 146.70 133.01 144.81 133.75 145.15 134.81 C 146.60 135.11 148.41 136.27 149.87 135.80 C 150.47 134.50 148.46 133.17 147.62 132.43 L 147.40 132.52 Z M 295.13 144.05 C 296.17 146.40 299.57 148.17 300.85 150.89 C 303.92 155.44 305.87 160.85 307.16 166.16 C 307.36 167.89 307.34 169.55 308.12 171.15 C 308.43 177.63 308.34 183.69 305.69 189.73 C 305.11 190.74 304.30 191.32 304.42 192.58 C 306.52 192.36 308.81 191.79 310.49 190.47 C 315.37 185.22 316.10 176.81 314.92 170.09 C 315.01 168.18 314.82 166.87 314.09 165.12 C 314.16 162.77 313.52 160.63 312.55 158.52 C 311.34 154.99 309.55 151.42 307.04 148.65 C 304.04 144.53 300.32 142.12 295.13 144.05 Z M 289.32 186.40 C 288.34 187.21 287.68 188.19 288.69 189.32 C 291.09 192.00 294.05 194.65 297.94 193.77 C 301.66 192.64 303.72 188.30 304.63 184.82 C 306.41 176.31 305.19 167.05 302.07 158.98 C 300.04 154.32 297.37 149.81 293.16 146.80 C 291.20 145.51 288.77 144.75 286.45 145.50 C 282.93 147.96 281.01 151.82 280.33 155.99 C 280.14 156.73 281.39 157.99 282.12 157.35 C 283.42 155.84 283.68 153.74 285.42 152.42 C 287.74 150.32 291.04 150.86 293.34 152.68 C 297.20 155.72 299.05 159.88 300.55 164.43 C 302.04 170.39 302.93 176.06 301.32 182.14 C 300.31 185.09 298.49 188.27 295.00 188.43 C 292.61 188.68 291.27 187.39 289.32 186.40 Z M 318.07 169.12 C 318.39 173.77 318.09 178.06 317.33 182.60 C 319.76 181.79 320.94 178.16 321.62 175.93 C 322.06 171.79 322.08 167.07 321.26 163.00 C 319.36 156.56 317.08 150.18 310.31 147.50 C 311.01 150.28 313.24 152.23 314.02 155.04 C 316.39 159.72 316.67 164.46 318.07 169.12 Z M 267.42 158.58 C 268.12 158.61 268.70 158.42 269.14 157.99 C 272.08 159.15 273.77 158.80 276.55 157.46 C 276.81 156.15 275.93 155.89 275.08 155.15 C 272.57 152.79 267.41 155.46 267.42 158.58 Z M 295.88 174.87 C 294.92 176.82 293.25 177.48 291.47 178.49 C 290.99 180.20 289.79 182.33 291.10 183.93 C 292.33 185.57 295.15 186.60 296.71 184.72 C 299.13 182.31 298.98 179.14 298.93 175.96 C 299.09 173.34 298.77 170.68 298.55 168.07 C 297.80 165.03 296.41 162.40 295.40 159.47 C 293.24 157.27 292.57 154.21 289.00 154.28 C 286.79 154.13 286.34 155.83 285.51 157.47 C 284.36 159.91 287.60 162.90 290.02 162.25 C 292.18 162.04 293.38 164.05 294.35 165.64 C 296.13 168.64 295.70 171.54 295.88 174.87 Z M 234.40 156.44 C 234.16 157.25 234.35 157.79 234.97 158.08 C 236.87 159.44 238.22 161.18 239.69 162.97 C 242.68 167.65 244.90 172.67 246.15 178.09 C 247.65 183.78 247.52 189.39 247.40 195.21 C 246.71 197.78 245.77 200.25 245.00 202.79 C 244.32 203.41 244.03 204.07 244.15 204.78 C 245.81 205.51 249.61 203.87 250.16 202.07 C 253.28 199.58 253.65 195.55 254.59 191.93 C 254.77 188.35 254.85 184.54 254.35 180.99 C 254.08 179.93 253.68 178.96 253.14 178.07 L 253.41 177.05 C 251.96 171.09 250.01 165.62 245.97 160.89 C 242.81 156.89 239.60 155.19 234.40 156.44 Z M 107.21 196.17 C 108.80 198.36 112.10 202.23 115.01 201.92 C 115.51 200.67 114.42 199.14 114.03 197.93 C 112.28 193.63 111.66 188.48 110.92 183.98 C 111.20 181.58 111.34 180.22 110.52 177.93 C 110.78 175.11 109.72 171.41 111.38 169.01 C 111.57 164.44 118.08 161.58 118.64 157.41 C 113.02 160.89 107.53 166.98 107.86 174.00 C 107.56 177.87 110.32 180.84 108.36 184.35 C 106.11 188.13 104.87 192.05 107.21 196.17 Z M 324.49 168.57 C 326.50 168.97 326.68 165.31 326.57 164.00 C 326.90 161.03 324.97 156.91 321.44 157.39 C 323.41 159.02 322.95 160.94 323.88 163.08 C 324.75 164.80 324.42 166.71 324.49 168.57 Z M 222.03 162.95 C 225.29 163.41 228.29 161.56 231.73 163.33 C 237.93 167.12 240.93 175.09 242.30 181.88 C 243.18 188.14 243.08 194.83 239.19 200.11 C 236.79 202.94 233.84 203.03 230.41 203.45 C 229.81 205.10 231.94 205.33 232.92 206.15 C 236.59 208.19 240.50 205.35 242.09 202.02 C 245.88 194.26 245.41 185.11 243.02 177.00 C 241.22 170.81 238.25 163.99 233.00 159.97 C 230.35 158.11 227.16 157.24 224.34 159.34 C 223.52 160.22 221.57 161.62 222.03 162.95 Z M 232.23 183.18 C 232.91 187.66 233.23 192.67 231.85 197.04 C 231.45 198.11 230.54 199.58 230.53 200.65 C 232.67 201.28 236.20 199.95 237.32 197.95 C 239.22 195.96 239.74 192.64 239.86 190.00 C 239.85 186.83 240.30 184.01 239.34 181.01 C 238.28 175.82 235.82 169.83 231.56 166.47 C 228.87 164.60 226.46 165.55 223.43 165.54 L 223.53 166.43 C 228.54 170.94 230.67 176.80 232.23 183.18 Z M 292.70 174.74 C 293.26 171.84 293.56 167.99 291.28 165.72 C 290.72 164.96 290.04 164.76 289.23 165.11 C 290.80 168.32 291.72 170.90 291.49 174.59 L 292.70 174.74 Z M 211.37 177.64 C 213.08 176.42 212.76 173.87 214.22 172.25 C 216.60 168.91 220.92 170.04 223.19 172.84 C 226.30 176.85 228.19 181.92 228.40 187.00 C 228.58 190.55 228.50 194.38 226.35 197.39 C 224.71 199.74 221.02 200.06 219.02 197.98 C 217.86 197.07 217.01 195.31 215.44 195.31 C 217.30 198.08 220.24 202.28 224.02 202.12 C 227.33 201.58 228.98 197.84 229.61 194.93 C 230.55 188.18 229.86 181.32 226.69 175.22 C 225.03 171.92 222.62 168.38 218.96 167.15 C 216.40 166.63 214.81 168.60 213.51 170.47 C 212.47 172.73 212.09 175.25 211.37 177.64 Z M 216.01 177.00 C 221.03 177.02 223.20 181.56 223.30 186.00 C 223.53 189.54 223.07 192.43 219.18 193.32 C 218.37 194.22 221.64 197.13 222.61 196.56 C 226.15 194.47 225.42 189.51 225.33 186.00 C 224.84 181.66 223.22 176.20 219.54 173.51 C 217.40 172.16 215.23 175.20 216.01 177.00 Z M 255.16 173.99 C 254.70 174.85 255.65 177.04 256.76 176.73 C 257.67 175.51 257.03 172.75 255.16 173.99 Z M 214.41 180.47 C 213.53 181.62 214.73 182.88 215.10 184.00 C 215.79 186.02 215.59 188.47 215.50 190.59 C 216.80 190.80 219.27 190.93 220.21 189.88 C 221.25 188.05 220.95 184.93 220.21 182.99 C 218.91 179.72 217.62 179.88 214.41 180.47 Z M 209.14 188.03 C 209.40 189.25 210.99 192.46 212.59 191.61 C 213.13 189.12 213.26 185.49 211.71 183.30 C 210.97 182.39 210.91 181.23 209.50 181.46 C 208.11 183.58 208.17 185.75 209.14 188.03 Z M 109.83 206.71 C 106.80 208.74 108.29 211.98 108.18 215.00 C 108.32 217.62 107.34 219.75 106.29 222.05 C 106.19 223.67 108.80 224.96 109.39 226.47 C 109.96 228.18 110.29 228.48 111.91 229.19 C 115.36 231.63 117.54 234.50 115.79 238.90 C 114.36 239.83 113.60 241.79 112.00 242.30 C 111.29 240.70 110.94 236.19 111.27 234.47 C 111.79 234.54 112.31 234.66 112.82 234.81 C 113.18 232.75 109.88 230.70 108.00 231.00 C 105.59 230.82 104.35 232.37 102.83 233.94 C 101.21 236.52 101.50 239.07 100.88 241.87 L 99.71 241.04 C 99.79 238.20 99.50 235.58 100.84 232.96 C 101.09 231.48 103.69 230.90 102.74 229.28 C 100.30 228.65 97.29 228.26 95.83 230.80 C 95.03 231.31 94.25 231.85 93.49 232.43 C 92.88 234.55 92.59 236.73 92.53 238.94 C 92.63 239.71 92.19 240.03 91.21 239.90 C 90.55 237.09 91.15 233.87 91.91 231.12 C 92.74 230.23 93.91 229.68 93.73 228.29 C 92.00 228.12 88.62 229.42 87.66 231.04 C 86.01 234.31 86.64 237.68 85.45 241.07 C 85.30 243.49 84.71 245.46 86.84 247.15 L 87.53 248.55 C 89.49 249.09 91.26 248.71 92.85 250.16 C 96.08 252.67 99.34 249.85 102.87 251.31 C 107.29 252.85 112.65 249.72 116.00 247.00 C 119.49 244.33 120.38 240.10 119.27 235.98 C 118.65 232.88 115.88 229.55 112.79 228.73 L 113.14 227.98 C 115.73 226.55 119.45 230.41 120.95 232.31 C 121.33 233.46 121.73 234.59 122.31 235.65 C 123.33 235.54 124.27 233.72 125.00 233.00 C 126.52 230.76 128.46 229.22 130.61 227.65 C 130.56 225.42 128.63 223.46 128.58 221.06 C 128.60 220.44 128.16 220.07 127.26 219.97 C 127.23 217.79 127.35 214.75 125.91 212.98 C 123.58 210.39 120.48 208.57 118.29 205.70 C 115.05 204.38 112.19 203.24 109.83 206.71 Z M 107.97 228.06 L 107.88 227.24 C 105.54 225.68 102.83 223.57 100.02 223.11 C 96.08 222.97 90.76 223.27 87.39 225.35 C 86.33 227.99 89.19 226.89 90.50 226.43 C 94.39 224.42 96.97 226.57 101.02 226.17 C 103.36 226.02 106.00 229.34 107.97 228.06 Z M 233.03 241.20 C 232.40 240.85 231.77 240.53 231.12 240.24 C 230.86 243.84 230.39 247.93 231.47 251.42 C 231.67 252.40 232.14 253.00 232.86 253.20 L 232.78 254.99 C 232.01 259.54 230.49 264.42 230.72 269.03 C 232.11 271.11 233.42 273.46 235.00 275.36 C 236.49 274.64 237.10 272.28 237.68 270.83 C 238.91 267.38 236.23 264.29 234.24 261.78 C 233.58 259.30 236.70 260.36 238.01 260.36 C 245.74 261.37 251.16 257.38 256.74 252.73 C 260.12 250.04 263.35 247.27 267.01 244.97 C 268.55 244.38 270.14 244.07 271.72 243.64 C 271.84 242.89 271.61 242.35 271.02 242.03 C 265.30 237.81 256.91 236.72 250.00 237.00 C 244.20 236.66 238.19 238.69 233.03 241.20 Z" id="p1" />
<path d="M 164.00 47.10 C 165.51 47.36 167.50 47.09 168.61 48.25 L 168.57 48.65 C 165.45 50.90 161.86 52.32 159.87 56.01 C 157.87 53.91 163.52 52.18 162.92 50.06 C 158.86 47.39 152.53 48.94 148.01 49.74 C 146.97 49.98 146.24 49.82 145.83 49.27 C 151.27 46.64 158.09 46.67 164.00 47.10 Z" id="p2" />
<path d="M 140.91 48.22 L 141.05 49.01 C 139.65 50.58 137.43 51.37 136.00 53.07 C 135.44 52.37 134.77 51.92 134.00 51.72 C 130.57 53.43 128.41 56.20 125.86 58.91 C 124.79 60.30 122.58 59.87 121.00 60.08 C 110.36 60.96 100.32 62.12 89.92 64.73 C 86.99 65.98 83.14 65.93 80.68 67.92 C 79.67 68.13 76.41 68.26 77.12 69.97 C 79.92 70.34 83.30 70.21 86.12 69.91 C 87.13 70.89 88.72 71.31 90.00 71.85 C 87.88 71.77 85.92 71.80 83.99 70.78 C 80.99 70.37 77.85 70.65 74.82 70.64 C 74.57 69.39 76.58 68.15 77.47 67.51 C 85.58 63.62 95.22 61.88 104.01 60.27 C 109.72 59.59 115.26 58.27 121.02 57.99 C 123.10 58.03 123.59 56.24 124.96 54.98 C 129.34 50.57 134.35 47.02 140.91 48.22 Z" id="p3" />
<path d="M 145.83 49.27 C 146.24 49.82 146.97 49.98 148.01 49.74 C 152.53 48.94 158.86 47.39 162.92 50.06 C 163.52 52.18 157.87 53.91 159.87 56.01 L 160.38 56.53 C 163.93 54.61 166.73 51.60 170.82 50.25 C 171.54 51.43 173.82 50.73 175.00 50.86 C 180.85 50.57 186.56 52.30 191.46 55.46 C 197.98 57.65 204.17 60.35 210.01 64.01 C 214.01 65.98 217.30 68.39 220.53 71.45 C 233.25 81.41 241.75 95.35 246.41 110.71 C 250.01 123.02 250.79 135.84 249.42 148.54 L 248.77 150.04 C 246.08 147.88 243.84 145.61 240.49 144.45 C 235.73 142.10 229.54 142.59 224.48 143.58 C 223.04 144.60 220.25 144.55 219.55 146.15 L 218.61 146.49 C 221.86 146.83 225.61 146.20 229.00 146.76 C 231.18 148.06 233.62 147.17 235.88 148.25 C 238.58 149.49 241.19 150.52 243.24 152.77 C 244.29 153.99 245.68 154.13 245.75 155.93 C 243.30 154.79 240.76 153.29 238.00 153.49 C 233.95 153.57 229.82 154.86 225.84 155.63 C 221.11 156.91 219.70 160.60 217.52 164.45 C 215.46 164.99 213.62 165.53 212.34 167.37 C 211.58 168.14 211.14 169.91 209.99 170.04 C 206.05 166.65 207.92 162.58 207.62 158.00 C 210.89 144.87 217.39 134.04 215.22 119.87 C 212.95 112.47 209.34 105.52 202.55 101.37 C 199.61 98.60 195.48 98.97 192.49 96.61 C 180.63 95.60 168.86 97.03 157.00 96.19 C 146.24 94.69 135.92 92.62 125.86 88.32 C 120.56 86.71 116.10 82.71 110.51 81.33 C 108.59 80.76 107.52 79.10 105.64 78.41 C 100.61 75.85 95.11 74.21 90.00 71.85 C 88.72 71.31 87.13 70.89 86.12 69.91 C 84.91 68.41 81.63 69.58 80.68 67.92 C 83.14 65.93 86.99 65.98 89.92 64.73 C 100.32 62.12 110.36 60.96 121.00 60.08 C 122.58 59.87 124.79 60.30 125.86 58.91 C 128.41 56.20 130.57 53.43 134.00 51.72 C 134.77 51.92 135.44 52.37 136.00 53.07 C 136.32 54.22 136.91 54.45 137.76 53.76 C 140.30 51.95 142.98 50.54 145.83 49.27 Z M 165.42 67.51 C 166.74 67.39 167.92 67.55 168.97 67.98 C 169.73 73.01 173.44 77.48 178.96 76.71 C 185.23 75.63 187.84 67.53 184.51 62.50 C 184.02 61.32 182.09 60.38 182.19 59.11 C 182.93 58.54 183.45 57.90 183.74 57.21 C 181.42 56.48 178.49 58.43 176.58 59.63 C 173.32 62.68 169.73 65.08 165.47 66.49 L 165.42 67.51 Z" id="p4" />
<path d="M 189.92 51.25 C 193.73 53.41 198.13 53.96 202.07 55.94 C 226.61 67.82 246.50 90.64 251.04 117.99 C 251.36 121.73 252.70 125.26 252.52 129.00 C 252.50 133.59 252.93 138.50 252.00 143.00 C 251.71 146.26 251.62 149.46 250.61 152.61 C 249.61 152.21 249.12 150.97 248.77 150.04 L 249.42 148.54 C 250.79 135.84 250.01 123.02 246.41 110.71 C 241.75 95.35 233.25 81.41 220.53 71.45 C 217.30 68.39 214.01 65.98 210.01 64.01 C 204.17 60.35 197.98 57.65 191.46 55.46 C 186.56 52.30 180.85 50.57 175.00 50.86 C 173.82 50.73 171.54 51.43 170.82 50.25 C 176.60 47.83 184.29 48.60 189.92 51.25 Z" id="p5" />
<path d="M 183.74 57.21 C 183.45 57.90 182.93 58.54 182.19 59.11 C 182.09 60.38 184.02 61.32 184.51 62.50 C 187.84 67.53 185.23 75.63 178.96 76.71 C 173.44 77.48 169.73 73.01 168.97 67.98 C 167.92 67.55 166.74 67.39 165.42 67.51 L 165.47 66.49 C 169.73 65.08 173.32 62.68 176.58 59.63 C 178.49 58.43 181.42 56.48 183.74 57.21 Z M 180.26 62.27 C 177.58 64.24 178.14 67.52 180.47 69.47 C 184.31 69.96 184.43 61.06 180.26 62.27 Z M 172.16 70.04 C 171.41 71.77 173.80 74.61 175.64 73.64 C 176.35 72.34 173.50 68.81 172.16 70.04 Z" id="p6" />
<path d="M 180.26 62.27 C 184.43 61.06 184.31 69.96 180.47 69.47 C 178.14 67.52 177.58 64.24 180.26 62.27 Z" id="p7" />
<path d="M 80.68 67.92 C 81.63 69.58 84.91 68.41 86.12 69.91 C 83.30 70.21 79.92 70.34 77.12 69.97 C 76.41 68.26 79.67 68.13 80.68 67.92 Z" id="p8" />
<path d="M 172.16 70.04 C 173.50 68.81 176.35 72.34 175.64 73.64 C 173.80 74.61 171.41 71.77 172.16 70.04 Z" id="p9" />
<path d="M 74.82 70.64 C 77.85 70.65 80.99 70.37 83.99 70.78 C 85.92 71.80 87.88 71.77 90.00 71.85 C 95.11 74.21 100.61 75.85 105.64 78.41 C 107.52 79.10 108.59 80.76 110.51 81.33 C 116.10 82.71 120.56 86.71 125.86 88.32 C 135.92 92.62 146.24 94.69 157.00 96.19 C 168.86 97.03 180.63 95.60 192.49 96.61 C 195.48 98.97 199.61 98.60 202.55 101.37 C 209.34 105.52 212.95 112.47 215.22 119.87 C 217.39 134.04 210.89 144.87 207.62 158.00 C 207.16 160.32 207.46 162.74 206.96 165.03 L 206.05 165.28 C 201.40 161.12 195.69 158.37 189.50 157.53 L 189.06 156.17 C 194.45 156.50 199.69 150.38 200.55 145.45 C 199.67 144.85 199.08 145.00 198.77 145.91 C 196.09 151.32 190.84 154.16 184.99 154.79 C 182.56 154.85 179.98 154.73 177.56 154.48 C 175.52 153.37 173.19 153.23 170.99 152.49 C 170.32 152.25 170.03 152.71 170.10 153.84 C 172.27 154.85 174.60 155.78 176.97 156.11 C 178.43 156.45 179.08 156.98 178.91 157.69 C 175.19 158.77 171.66 160.03 168.85 162.82 C 168.19 163.19 168.03 163.80 168.36 164.66 C 170.72 164.22 172.39 161.50 174.98 161.15 C 186.89 157.06 201.09 161.35 207.73 172.28 C 209.27 174.78 210.12 178.36 207.21 180.23 C 204.68 183.70 206.24 189.61 208.37 192.93 L 208.28 193.95 C 205.59 196.06 203.60 198.87 200.73 200.75 C 194.81 204.13 188.82 206.98 182.01 207.98 C 177.01 208.33 172.05 208.40 167.07 207.73 C 163.46 206.44 159.94 204.89 156.32 203.64 C 154.57 201.92 153.10 201.08 150.77 200.32 C 148.87 199.28 149.30 195.78 147.17 196.14 C 147.02 197.72 147.99 199.41 148.47 200.87 C 148.61 204.20 146.34 205.42 143.71 206.63 C 137.53 207.70 131.37 207.30 125.70 204.42 C 123.26 203.66 121.70 201.61 119.24 201.90 C 115.83 197.10 114.03 190.89 114.16 185.00 C 113.52 174.13 116.73 162.42 125.02 154.96 C 129.25 154.72 134.51 157.44 137.43 160.57 L 138.54 160.55 C 138.62 158.94 136.50 157.64 135.49 156.55 C 131.45 153.70 126.02 152.18 121.38 150.58 C 117.71 148.90 114.09 145.97 115.46 141.43 C 122.40 141.14 128.98 141.46 135.54 138.54 C 138.56 137.07 141.67 137.19 144.93 137.48 C 152.26 139.00 158.94 141.54 165.89 144.21 C 171.01 145.88 175.47 147.39 181.00 146.80 C 185.97 146.61 190.03 142.49 192.55 138.55 C 195.72 133.80 196.40 127.25 194.04 122.04 C 192.03 116.90 187.16 113.00 181.92 111.53 C 179.02 111.16 175.73 111.06 172.90 111.86 C 157.98 116.85 147.73 130.62 133.50 136.44 C 127.72 138.13 122.03 139.03 115.98 138.45 C 106.45 135.75 98.37 127.20 91.91 120.05 C 84.53 110.93 78.53 100.56 74.62 89.48 C 72.82 84.36 71.57 78.50 72.49 73.07 C 72.61 71.72 73.79 71.23 74.82 70.64 Z M 107.09 102.04 C 106.38 103.73 107.36 106.81 109.55 106.55 C 111.51 105.69 111.09 104.15 110.51 102.47 C 109.20 101.38 108.06 101.23 107.09 102.04 Z M 89.48 112.48 C 90.16 112.53 90.85 112.54 91.54 112.51 C 92.82 110.66 91.90 107.12 89.32 107.34 C 87.01 108.61 88.34 110.92 89.48 112.48 Z M 151.69 120.30 C 148.86 119.56 145.98 121.66 143.02 121.77 C 138.05 122.84 133.07 123.40 128.00 123.78 C 121.40 123.52 115.17 122.08 108.81 120.41 C 106.10 119.93 102.71 118.90 100.00 119.71 C 98.30 120.14 98.78 122.49 99.37 123.64 C 101.91 127.01 105.53 129.61 109.14 131.73 C 112.38 132.80 115.66 134.32 118.98 135.02 C 123.16 134.68 127.32 135.72 130.86 133.76 C 132.30 133.14 133.96 132.99 135.42 132.43 C 141.85 128.70 145.89 124.60 151.69 120.30 Z M 130.37 149.68 C 131.36 150.82 132.82 151.01 134.23 151.69 C 136.86 152.77 138.04 155.23 140.61 156.41 C 142.73 157.42 144.53 158.60 147.00 158.41 C 150.98 158.32 156.19 158.88 159.73 156.80 C 160.82 153.80 158.43 152.09 156.16 150.77 C 149.56 145.99 139.96 144.51 132.32 147.37 C 131.41 147.96 130.20 148.38 130.37 149.68 Z" id="p10" />
<path d="M 236.28 79.22 C 250.48 79.46 265.10 85.73 275.08 95.96 C 282.35 103.95 287.61 113.69 290.52 124.07 C 290.57 127.82 292.23 130.73 291.57 134.58 C 284.20 135.94 276.55 133.96 269.05 135.07 L 269.50 134.54 C 271.73 134.27 273.97 134.64 276.20 134.12 C 277.15 133.93 278.08 133.70 279.01 133.43 C 281.60 134.84 284.17 134.34 287.00 134.39 C 288.78 134.57 289.88 133.11 290.90 131.90 C 289.28 121.68 284.97 112.46 279.01 103.98 C 275.16 100.20 271.66 95.61 267.05 92.94 C 260.41 87.28 251.48 84.02 243.03 82.21 C 241.23 82.11 239.47 81.26 239.91 83.96 C 238.96 82.32 236.89 80.91 236.28 79.22 Z" id="p11" />
<path d="M 243.03 82.21 C 251.48 84.02 260.41 87.28 267.05 92.94 C 271.66 95.61 275.16 100.20 279.01 103.98 C 284.97 112.46 289.28 121.68 290.90 131.90 C 289.88 133.11 288.78 134.57 287.00 134.39 C 284.17 134.34 281.60 134.84 279.01 133.43 C 278.08 133.70 277.15 133.93 276.20 134.12 C 275.57 132.36 271.66 132.87 270.02 132.10 C 266.75 130.56 263.48 128.51 261.78 125.20 C 258.06 119.61 255.94 113.44 253.68 107.19 L 253.01 107.15 C 252.29 108.55 252.77 110.50 252.80 112.03 C 251.69 107.39 249.93 103.01 248.43 98.48 C 245.78 93.48 242.85 88.78 239.91 83.96 C 239.47 81.26 241.23 82.11 243.03 82.21 Z" id="p12" />
<path d="M 107.09 102.04 C 108.06 101.23 109.20 101.38 110.51 102.47 C 111.09 104.15 111.51 105.69 109.55 106.55 C 107.36 106.81 106.38 103.73 107.09 102.04 Z" id="p13" />
<path d="M 89.32 107.34 C 91.90 107.12 92.82 110.66 91.54 112.51 C 90.85 112.54 90.16 112.53 89.48 112.48 C 88.34 110.92 87.01 108.61 89.32 107.34 Z" id="p14" />
<path d="M 253.01 107.15 L 253.68 107.19 C 255.94 113.44 258.06 119.61 261.78 125.20 C 263.48 128.51 266.75 130.56 270.02 132.10 C 271.66 132.87 275.57 132.36 276.20 134.12 C 273.97 134.64 271.73 134.27 269.50 134.54 L 269.05 135.07 C 266.18 136.67 262.92 137.44 259.98 138.97 C 258.50 139.48 256.86 140.82 255.29 140.73 C 254.89 137.88 255.31 134.88 255.17 132.00 C 255.34 125.14 254.10 118.72 252.80 112.03 C 252.77 110.50 252.29 108.55 253.01 107.15 Z" id="p15" />
<path d="M 177.00 114.19 C 186.08 112.89 194.67 122.77 192.59 131.62 L 191.54 131.54 C 190.06 127.69 187.42 124.26 184.96 120.98 C 184.50 120.30 183.90 120.02 183.18 120.15 C 182.52 122.04 182.85 124.17 182.18 126.10 C 181.47 128.99 180.12 131.65 179.45 134.55 L 178.51 134.55 C 177.23 131.27 175.41 128.26 174.01 125.04 C 173.58 123.82 172.26 121.31 171.51 123.99 C 173.64 128.63 175.72 133.38 178.14 137.88 L 178.99 138.18 L 179.77 137.78 C 181.77 133.79 183.18 129.35 184.30 125.03 L 185.02 124.59 C 186.52 126.18 187.43 128.39 188.72 130.18 C 189.57 131.85 191.39 134.01 190.88 135.95 C 188.42 140.06 185.18 143.98 180.00 144.20 C 170.67 144.56 162.95 139.29 154.45 137.44 C 154.45 134.48 157.12 131.47 157.54 128.43 L 158.55 128.41 C 160.82 131.49 162.56 135.09 165.13 137.91 L 165.90 137.92 C 168.42 134.36 169.58 129.06 171.27 125.01 C 171.25 123.62 172.58 121.41 171.73 120.27 C 170.73 120.03 170.18 120.28 170.07 121.03 C 169.40 125.62 167.53 129.66 165.85 133.95 C 165.76 134.56 165.34 134.74 164.60 134.49 C 162.77 131.12 160.56 127.23 157.99 124.48 L 157.05 124.94 C 155.69 128.26 154.72 131.62 152.84 134.72 C 152.23 135.32 148.82 130.88 149.30 130.29 C 155.34 125.34 161.14 120.82 168.01 117.02 C 171.08 115.75 173.55 114.03 177.00 114.19 Z" id="p16" />
<path d="M 108.81 120.41 C 115.17 122.08 121.40 123.52 128.00 123.78 C 133.07 123.40 138.05 122.84 143.02 121.77 C 145.98 121.66 148.86 119.56 151.69 120.30 C 145.89 124.60 141.85 128.70 135.42 132.43 C 133.96 132.99 132.30 133.14 130.86 133.76 C 127.32 135.72 123.16 134.68 118.98 135.02 C 115.66 134.32 112.38 132.80 109.14 131.73 C 105.53 129.61 101.91 127.01 99.37 123.64 C 98.78 122.49 98.30 120.14 100.00 119.71 C 102.71 118.90 106.10 119.93 108.81 120.41 Z" id="p17" />
<path d="M 147.40 132.52 L 147.62 132.43 C 148.46 133.17 150.47 134.50 149.87 135.80 C 148.41 136.27 146.60 135.11 145.15 134.81 C 144.81 133.75 146.70 133.01 147.40 132.52 Z" id="p18" />
<path d="M 303.05 141.75 C 301.38 142.46 299.87 143.19 298.00 143.02 C 296.42 142.95 294.98 143.23 294.81 141.19 C 297.35 140.07 300.71 140.15 303.05 141.75 Z" id="p19" />
<path d="M 295.13 144.05 C 300.32 142.12 304.04 144.53 307.04 148.65 C 305.47 148.71 301.46 149.26 300.85 150.89 C 299.57 148.17 296.17 146.40 295.13 144.05 Z" id="p20" />
<path d="M 200.55 145.45 C 199.69 150.38 194.45 156.50 189.06 156.17 C 185.13 156.07 180.84 155.60 176.97 156.11 C 174.60 155.78 172.27 154.85 170.10 153.84 C 170.03 152.71 170.32 152.25 170.99 152.49 C 173.19 153.23 175.52 153.37 177.56 154.48 C 179.98 154.73 182.56 154.85 184.99 154.79 C 190.84 154.16 196.09 151.32 198.77 145.91 C 199.08 145.00 199.67 144.85 200.55 145.45 Z" id="p21" />
<path d="M 224.50 145.60 C 230.51 144.61 236.49 144.87 241.73 148.26 C 246.65 151.28 249.60 156.39 251.15 161.82 C 252.30 162.42 253.49 162.94 254.63 163.57 C 253.95 164.44 253.88 165.82 252.52 165.52 C 250.42 162.16 248.14 159.08 245.75 155.93 C 245.68 154.13 244.29 153.99 243.24 152.77 C 241.19 150.52 238.58 149.49 235.88 148.25 C 233.62 147.17 231.18 148.06 229.00 146.76 C 225.61 146.20 221.86 146.83 218.61 146.49 L 219.55 146.15 C 221.27 146.83 222.91 146.36 224.50 145.60 Z" id="p22" />
<path d="M 286.45 145.50 C 288.77 144.75 291.20 145.51 293.16 146.80 C 297.37 149.81 300.04 154.32 302.07 158.98 C 305.19 167.05 306.41 176.31 304.63 184.82 C 303.72 188.30 301.66 192.64 297.94 193.77 C 294.05 194.65 291.09 192.00 288.69 189.32 C 287.68 188.19 288.34 187.21 289.32 186.40 C 291.27 187.39 292.61 188.68 295.00 188.43 C 298.49 188.27 300.31 185.09 301.32 182.14 C 302.93 176.06 302.04 170.39 300.55 164.43 C 299.05 159.88 297.20 155.72 293.34 152.68 C 291.04 150.86 287.74 150.32 285.42 152.42 C 283.68 153.74 283.42 155.84 282.12 157.35 C 281.39 157.99 280.14 156.73 280.33 155.99 C 281.01 151.82 282.93 147.96 286.45 145.50 Z" id="p23" />
<path d="M 156.16 150.77 C 158.43 152.09 160.82 153.80 159.73 156.80 C 156.19 158.88 150.98 158.32 147.00 158.41 C 144.53 158.60 142.73 157.42 140.61 156.41 C 138.04 155.23 136.86 152.77 134.23 151.69 C 132.82 151.01 131.36 150.82 130.37 149.68 C 130.20 148.38 131.41 147.96 132.32 147.37 C 139.96 144.51 149.56 145.99 156.16 150.77 Z" id="p24" />
<path d="M 310.31 147.50 C 317.08 150.18 319.36 156.56 321.26 163.00 C 320.88 166.14 321.54 167.95 318.07 169.12 C 316.67 164.46 316.39 159.72 314.02 155.04 C 313.24 152.23 311.01 150.28 310.31 147.50 Z" id="p25" />
<path d="M 307.04 148.65 C 309.55 151.42 311.34 154.99 312.55 158.52 C 313.52 160.63 314.16 162.77 314.09 165.12 C 311.90 165.51 309.34 166.61 307.16 166.16 C 305.87 160.85 303.92 155.44 300.85 150.89 C 301.46 149.26 305.47 148.71 307.04 148.65 Z" id="p26" />
<path d="M 275.08 155.15 L 274.89 155.98 C 272.34 156.20 271.09 156.07 269.14 157.99 C 268.70 158.42 268.12 158.61 267.42 158.58 C 267.41 155.46 272.57 152.79 275.08 155.15 Z" id="p27" />
<path d="M 289.00 154.28 C 292.57 154.21 293.24 157.27 295.40 159.47 C 296.41 162.40 297.80 165.03 298.55 168.07 C 298.77 170.68 299.09 173.34 298.93 175.96 C 298.42 176.48 298.14 178.77 297.46 178.60 C 296.99 177.33 296.53 176.07 295.88 174.87 C 295.70 171.54 296.13 168.64 294.35 165.64 C 293.38 164.05 292.18 162.04 290.02 162.25 C 287.60 162.90 284.36 159.91 285.51 157.47 C 286.34 155.83 286.79 154.13 289.00 154.28 Z" id="p28" />
<path d="M 275.08 155.15 C 275.93 155.89 276.81 156.15 276.55 157.46 C 273.77 158.80 272.08 159.15 269.14 157.99 C 271.09 156.07 272.34 156.20 274.89 155.98 L 275.08 155.15 Z" id="p29" />
<path d="M 234.40 156.44 C 239.60 155.19 242.81 156.89 245.97 160.89 C 244.22 162.43 241.06 161.46 239.69 162.97 C 238.22 161.18 236.87 159.44 234.97 158.08 C 234.35 157.79 234.16 157.25 234.40 156.44 Z" id="p30" />
<path d="M 118.64 157.41 C 118.08 161.58 111.57 164.44 111.38 169.01 C 109.72 171.41 110.78 175.11 110.52 177.93 C 111.34 180.22 111.20 181.58 110.92 183.98 C 109.54 186.76 107.68 188.68 107.93 192.00 C 107.76 193.07 108.58 195.80 107.21 196.17 C 104.87 192.05 106.11 188.13 108.36 184.35 C 110.32 180.84 107.56 177.87 107.86 174.00 C 107.53 166.98 113.02 160.89 118.64 157.41 Z" id="p31" />
<path d="M 321.44 157.39 C 324.97 156.91 326.90 161.03 326.57 164.00 C 326.68 165.31 326.50 168.97 324.49 168.57 C 324.42 166.71 324.75 164.80 323.88 163.08 C 322.95 160.94 323.41 159.02 321.44 157.39 Z" id="p32" />
<path d="M 233.00 159.97 C 238.25 163.99 241.22 170.81 243.02 177.00 C 245.41 185.11 245.88 194.26 242.09 202.02 C 240.50 205.35 236.59 208.19 232.92 206.15 C 231.94 205.33 229.81 205.10 230.41 203.45 C 233.84 203.03 236.79 202.94 239.19 200.11 C 243.08 194.83 243.18 188.14 242.30 181.88 C 240.93 175.09 237.93 167.12 231.73 163.33 C 228.29 161.56 225.29 163.41 222.03 162.95 C 221.57 161.62 223.52 160.22 224.34 159.34 C 227.16 157.24 230.35 158.11 233.00 159.97 Z" id="p33" />
<path d="M 276.29 160.27 C 278.08 159.63 280.78 159.66 282.23 161.04 C 281.96 162.43 279.04 162.14 277.94 162.41 C 277.14 161.78 276.60 161.07 276.29 160.27 Z" id="p34" />
<path d="M 245.97 160.89 C 250.01 165.62 251.96 171.09 253.41 177.05 L 253.14 178.07 C 251.08 178.03 247.50 180.20 246.15 178.09 C 244.90 172.67 242.68 167.65 239.69 162.97 C 241.06 161.46 244.22 162.43 245.97 160.89 Z" id="p35" />
<path d="M 274.11 162.04 C 272.45 163.50 269.26 161.43 268.81 164.94 C 268.00 164.18 267.15 163.48 266.44 162.62 C 266.80 160.05 272.84 160.49 274.11 162.04 Z" id="p36" />
<path d="M 282.23 161.04 C 285.14 163.59 287.43 167.22 288.34 170.99 C 289.14 176.43 287.58 182.14 285.31 187.06 C 284.85 188.89 283.65 189.94 282.26 191.09 C 282.00 190.49 281.53 190.39 280.85 190.79 C 276.05 191.67 270.15 191.08 266.19 187.87 C 261.82 184.87 261.87 177.74 261.85 173.02 C 260.96 170.76 259.41 168.62 257.77 166.84 C 259.56 164.56 264.25 165.77 266.79 165.96 C 267.98 166.64 269.02 171.07 270.56 169.56 C 270.56 167.98 269.44 166.36 268.81 164.94 C 269.26 161.43 272.45 163.50 274.11 162.04 C 275.76 163.44 277.31 164.70 278.33 166.66 C 278.97 167.55 279.18 169.57 280.70 168.82 C 280.10 166.61 279.55 164.09 277.94 162.41 C 279.04 162.14 281.96 162.43 282.23 161.04 Z" id="p37" />
<path d="M 260.98 163.29 C 263.55 162.94 264.98 164.46 266.79 165.96 C 264.25 165.77 259.56 164.56 257.77 166.84 C 257.11 167.16 256.52 167.57 256.01 168.06 C 256.03 169.21 257.15 170.09 257.79 171.00 C 256.90 170.62 255.25 170.16 255.41 168.92 C 255.37 165.79 257.91 163.41 260.98 163.29 Z" id="p38" />
<path d="M 321.26 163.00 C 322.08 167.07 322.06 171.79 321.62 175.93 C 320.94 178.16 319.76 181.79 317.33 182.60 C 318.09 178.06 318.39 173.77 318.07 169.12 C 321.54 167.95 320.88 166.14 321.26 163.00 Z" id="p39" />
<path d="M 223.43 165.54 C 226.46 165.55 228.87 164.60 231.56 166.47 C 235.82 169.83 238.28 175.82 239.34 181.01 C 238.56 183.06 234.12 183.71 232.23 183.18 C 230.67 176.80 228.54 170.94 223.53 166.43 L 223.43 165.54 Z" id="p40" />
<path d="M 289.23 165.11 C 290.04 164.76 290.72 164.96 291.28 165.72 C 293.56 167.99 293.26 171.84 292.70 174.74 L 291.49 174.59 C 291.72 170.90 290.80 168.32 289.23 165.11 Z" id="p41" />
<path d="M 314.09 165.12 C 314.82 166.87 315.01 168.18 314.92 170.09 C 312.56 170.14 310.46 171.32 308.12 171.15 C 307.34 169.55 307.36 167.89 307.16 166.16 C 309.34 166.61 311.90 165.51 314.09 165.12 Z" id="p42" />
<path d="M 218.96 167.15 C 222.62 168.38 225.03 171.92 226.69 175.22 C 229.86 181.32 230.55 188.18 229.61 194.93 C 228.98 197.84 227.33 201.58 224.02 202.12 C 220.24 202.28 217.30 198.08 215.44 195.31 C 217.01 195.31 217.86 197.07 219.02 197.98 C 221.02 200.06 224.71 199.74 226.35 197.39 C 228.50 194.38 228.58 190.55 228.40 187.00 C 228.19 181.92 226.30 176.85 223.19 172.84 C 220.92 170.04 216.60 168.91 214.22 172.25 C 212.76 173.87 213.08 176.42 211.37 177.64 C 212.09 175.25 212.47 172.73 213.51 170.47 C 214.81 168.60 216.40 166.63 218.96 167.15 Z" id="p43" />
<path d="M 257.77 166.84 C 259.41 168.62 260.96 170.76 261.85 173.02 C 261.87 177.74 261.82 184.87 266.19 187.87 C 270.15 191.08 276.05 191.67 280.85 190.79 C 281.53 190.39 282.00 190.49 282.26 191.09 C 280.23 195.04 276.05 194.68 272.34 195.29 C 272.41 196.14 274.20 196.53 274.78 197.14 L 274.92 197.98 C 271.39 205.66 264.58 211.50 255.98 212.36 C 253.21 212.27 251.68 214.63 249.03 214.75 C 244.95 215.31 242.02 212.94 238.90 210.76 C 238.14 210.37 237.62 209.92 237.33 209.39 C 240.85 208.45 244.41 207.53 248.01 207.01 C 252.07 205.87 254.11 202.32 255.84 198.78 C 256.54 197.30 256.04 195.29 256.95 193.98 C 257.60 196.54 256.96 198.80 255.70 201.03 L 256.36 202.64 C 259.32 200.63 260.80 196.33 262.25 193.18 C 262.58 192.57 262.66 192.01 262.51 191.52 C 258.73 188.55 257.30 185.29 258.56 180.49 C 260.18 177.57 260.40 173.46 257.79 171.00 C 257.15 170.09 256.03 169.21 256.01 168.06 C 256.52 167.57 257.11 167.16 257.77 166.84 Z" id="p44" />
<path d="M 314.92 170.09 C 316.10 176.81 315.37 185.22 310.49 190.47 C 308.81 191.79 306.52 192.36 304.42 192.58 C 304.30 191.32 305.11 190.74 305.69 189.73 C 308.34 183.69 308.43 177.63 308.12 171.15 C 310.46 171.32 312.56 170.14 314.92 170.09 Z" id="p45" />
<path d="M 219.54 173.51 C 223.22 176.20 224.84 181.66 225.33 186.00 C 225.42 189.51 226.15 194.47 222.61 196.56 C 221.64 197.13 218.37 194.22 219.18 193.32 C 223.07 192.43 223.53 189.54 223.30 186.00 C 223.20 181.56 221.03 177.02 216.01 177.00 C 215.23 175.20 217.40 172.16 219.54 173.51 Z" id="p46" />
<path d="M 255.16 173.99 C 257.03 172.75 257.67 175.51 256.76 176.73 C 255.65 177.04 254.70 174.85 255.16 173.99 Z" id="p47" />
<path d="M 295.88 174.87 C 296.53 176.07 296.99 177.33 297.46 178.60 C 298.14 178.77 298.42 176.48 298.93 175.96 C 298.98 179.14 299.13 182.31 296.71 184.72 C 295.15 186.60 292.33 185.57 291.10 183.93 C 289.79 182.33 290.99 180.20 291.47 178.49 C 293.25 177.48 294.92 176.82 295.88 174.87 Z" id="p48" />
<path d="M 246.15 178.09 C 247.50 180.20 251.08 178.03 253.14 178.07 C 253.68 178.96 254.08 179.93 254.35 180.99 L 253.96 182.86 C 251.95 183.25 249.99 183.41 248.10 184.26 C 247.32 187.76 248.46 191.80 247.40 195.21 C 247.52 189.39 247.65 183.78 246.15 178.09 Z" id="p49" />
<path d="M 214.41 180.47 C 217.62 179.88 218.91 179.72 220.21 182.99 L 219.94 184.81 C 216.98 185.41 214.32 186.09 216.13 189.79 C 217.29 189.79 219.43 188.75 220.21 189.88 C 219.27 190.93 216.80 190.80 215.50 190.59 C 215.59 188.47 215.79 186.02 215.10 184.00 C 214.73 182.88 213.53 181.62 214.41 180.47 Z" id="p50" />
<path d="M 209.50 181.46 C 210.91 181.23 210.97 182.39 211.71 183.30 C 213.26 185.49 213.13 189.12 212.59 191.61 C 210.99 192.46 209.40 189.25 209.14 188.03 C 208.17 185.75 208.11 183.58 209.50 181.46 Z" id="p51" />
<path d="M 239.34 181.01 C 240.30 184.01 239.85 186.83 239.86 190.00 C 239.74 192.64 239.22 195.96 237.32 197.95 C 236.64 196.62 235.14 198.26 233.99 198.17 C 233.20 198.06 232.49 197.68 231.85 197.04 C 233.23 192.67 232.91 187.66 232.23 183.18 C 234.12 183.71 238.56 183.06 239.34 181.01 Z" id="p52" />
<path d="M 254.35 180.99 C 254.85 184.54 254.77 188.35 254.59 191.93 C 253.65 195.55 253.28 199.58 250.16 202.07 C 248.39 201.90 246.81 202.86 245.00 202.79 C 245.77 200.25 246.71 197.78 247.40 195.21 C 248.46 191.80 247.32 187.76 248.10 184.26 C 249.99 183.41 251.95 183.25 253.96 182.86 L 254.35 180.99 Z" id="p53" />
<path d="M 220.21 182.99 C 220.95 184.93 221.25 188.05 220.21 189.88 C 219.43 188.75 217.29 189.79 216.13 189.79 C 214.32 186.09 216.98 185.41 219.94 184.81 L 220.21 182.99 Z" id="p54" />
<path d="M 110.92 183.98 C 111.66 188.48 112.28 193.63 114.03 197.93 C 114.42 199.14 115.51 200.67 115.01 201.92 C 112.10 202.23 108.80 198.36 107.21 196.17 C 108.58 195.80 107.76 193.07 107.93 192.00 C 107.68 188.68 109.54 186.76 110.92 183.98 Z" id="p55" />
<path d="M 285.31 187.06 C 287.22 187.23 284.92 189.81 285.25 190.85 L 285.96 191.24 C 284.38 194.92 281.39 195.54 278.40 197.34 C 274.89 205.11 269.34 211.53 260.98 214.09 C 258.36 215.30 255.44 214.57 253.10 216.21 C 248.69 218.74 241.48 217.62 238.75 213.18 C 238.08 211.90 238.13 211.09 238.90 210.76 C 242.02 212.94 244.95 215.31 249.03 214.75 C 251.68 214.63 253.21 212.27 255.98 212.36 C 264.58 211.50 271.39 205.66 274.92 197.98 L 274.78 197.14 C 274.20 196.53 272.41 196.14 272.34 195.29 C 276.05 194.68 280.23 195.04 282.26 191.09 C 283.65 189.94 284.85 188.89 285.31 187.06 Z" id="p56" />
<path d="M 257.44 190.43 L 257.66 190.48 C 259.30 191.06 260.80 192.24 262.25 193.18 C 260.80 196.33 259.32 200.63 256.36 202.64 L 255.70 201.03 C 256.96 198.80 257.60 196.54 256.95 193.98 C 257.17 192.80 257.33 191.62 257.44 190.43 Z" id="p57" />
<path d="M 208.37 192.93 C 208.82 193.38 209.27 193.83 209.70 194.30 C 208.99 198.28 206.86 202.16 204.19 205.19 C 198.31 211.98 188.76 214.81 180.00 214.57 C 170.71 214.85 161.60 211.37 154.49 205.49 C 152.73 204.04 151.60 202.44 150.77 200.32 C 153.10 201.08 154.57 201.92 156.32 203.64 C 159.94 204.89 163.46 206.44 167.07 207.73 C 172.05 208.40 177.01 208.33 182.01 207.98 C 188.82 206.98 194.81 204.13 200.73 200.75 C 203.60 198.87 205.59 196.06 208.28 193.95 L 208.37 192.93 Z" id="p58" />
<path d="M 212.41 196.37 C 214.22 197.34 215.05 199.99 216.69 201.34 C 218.66 203.69 221.48 204.28 223.71 206.28 C 226.99 209.14 230.78 210.55 234.61 212.41 C 234.82 212.98 234.68 213.57 234.19 214.17 C 232.43 216.75 230.61 219.21 227.99 220.99 C 226.72 223.94 223.49 225.24 222.27 227.82 C 224.00 228.34 226.05 225.98 227.62 225.46 C 229.55 229.90 230.87 237.06 230.21 241.82 L 229.44 242.22 C 228.76 246.29 227.00 249.99 226.27 254.03 C 225.89 255.95 225.32 257.78 224.57 259.59 C 222.56 258.90 224.58 252.13 223.16 251.18 C 222.31 251.05 221.82 251.96 221.70 253.91 C 219.28 254.96 217.70 257.14 215.34 258.36 C 209.93 261.87 204.41 264.92 198.06 266.33 C 193.69 267.73 189.48 269.10 184.82 269.13 C 183.27 268.34 180.63 265.22 180.41 263.50 C 183.56 263.37 186.58 262.82 189.52 261.67 C 192.24 260.69 195.61 259.80 197.80 257.87 L 197.79 257.11 L 197.07 256.78 C 202.99 252.17 207.65 244.64 207.85 237.05 C 208.35 235.72 208.71 234.35 209.16 233.00 C 211.68 232.95 212.88 229.89 214.18 228.10 C 217.29 223.14 216.02 217.71 215.90 211.99 C 215.30 209.60 214.97 205.78 212.65 204.44 C 209.82 205.91 208.23 209.37 206.07 211.15 C 205.98 210.06 205.65 209.28 205.09 208.80 C 208.81 205.35 210.71 201.04 212.41 196.37 Z" id="p59" />
<path d="M 231.85 197.04 C 232.49 197.68 233.20 198.06 233.99 198.17 C 235.14 198.26 236.64 196.62 237.32 197.95 C 236.20 199.95 232.67 201.28 230.53 200.65 C 230.54 199.58 231.45 198.11 231.85 197.04 Z" id="p60" />
<path d="M 148.47 200.87 C 150.62 204.13 152.35 207.19 155.57 209.52 C 152.39 209.70 149.28 212.24 146.02 212.67 C 142.70 213.06 139.33 213.08 136.00 212.84 C 129.03 212.21 122.88 207.73 119.24 201.90 C 121.70 201.61 123.26 203.66 125.70 204.42 C 131.37 207.30 137.53 207.70 143.71 206.63 C 146.34 205.42 148.61 204.20 148.47 200.87 Z" id="p61" />
<path d="M 250.16 202.07 C 249.61 203.87 245.81 205.51 244.15 204.78 C 244.03 204.07 244.32 203.41 245.00 202.79 C 246.81 202.86 248.39 201.90 250.16 202.07 Z" id="p62" />
<path d="M 118.29 205.70 C 120.48 208.57 123.58 210.39 125.91 212.98 C 120.64 211.52 114.30 210.01 109.83 206.71 C 112.19 203.24 115.05 204.38 118.29 205.70 Z" id="p63" />
<path d="M 212.65 204.44 C 214.97 205.78 215.30 209.60 215.90 211.99 C 216.02 217.71 217.29 223.14 214.18 228.10 C 212.88 229.89 211.68 232.95 209.16 233.00 C 208.33 228.45 209.23 223.56 207.85 219.00 C 207.63 216.47 206.89 214.20 205.98 211.85 L 206.07 211.15 C 208.23 209.37 209.82 205.91 212.65 204.44 Z" id="p64" />
<path d="M 109.83 206.71 C 114.30 210.01 120.64 211.52 125.91 212.98 C 127.35 214.75 127.23 217.79 127.26 219.97 C 125.89 221.77 126.16 224.05 124.94 225.98 C 123.87 227.94 122.99 231.21 120.95 232.31 C 119.45 230.41 115.73 226.55 113.14 227.98 L 112.79 228.73 L 111.91 229.19 C 110.29 228.48 109.96 228.18 109.39 226.47 C 108.80 224.96 106.19 223.67 106.29 222.05 C 107.34 219.75 108.32 217.62 108.18 215.00 C 108.29 211.98 106.80 208.74 109.83 206.71 Z M 110.28 224.72 C 110.88 224.62 111.47 224.40 112.03 224.06 L 112.93 224.33 L 113.27 225.74 C 114.28 225.99 114.94 224.08 115.51 223.46 C 116.20 222.14 118.02 220.72 117.92 219.18 C 117.23 219.19 116.57 219.48 115.95 220.07 C 115.14 219.21 115.02 217.81 114.13 217.09 L 113.29 217.16 C 112.79 219.87 110.65 222.12 110.28 224.72 Z" id="p65" />
<path d="M 205.09 208.80 C 205.65 209.28 205.98 210.06 206.07 211.15 L 205.98 211.85 C 201.44 215.33 197.16 218.52 191.21 219.07 L 190.80 216.96 C 192.16 215.70 194.10 215.31 195.78 214.67 C 199.24 213.43 202.39 211.25 205.09 208.80 Z" id="p66" />
<path d="M 157.81 211.31 C 161.95 213.74 166.43 215.44 171.06 216.66 C 176.99 218.08 182.85 217.32 188.78 217.21 C 189.27 218.43 189.60 219.69 189.93 220.96 C 188.67 219.22 185.90 220.69 184.00 220.43 C 179.30 220.24 174.24 221.05 169.92 219.38 C 166.67 218.85 164.12 217.03 161.06 216.00 C 159.86 215.69 159.05 214.72 158.09 213.97 C 157.70 213.50 157.16 213.34 156.47 213.49 C 155.99 214.14 155.72 214.96 155.67 215.96 C 154.34 214.18 152.41 216.86 150.94 217.24 C 147.91 217.84 145.04 218.85 142.01 218.05 C 140.24 214.83 144.80 215.79 146.51 215.38 C 149.06 214.33 151.96 213.72 154.32 212.30 C 155.46 211.66 156.40 210.52 157.81 211.31 Z" id="p67" />
<path d="M 205.98 211.85 C 206.89 214.20 207.63 216.47 207.85 219.00 C 209.23 223.56 208.33 228.45 209.16 233.00 C 208.71 234.35 208.35 235.72 207.85 237.05 C 205.39 237.81 204.18 239.79 201.98 240.94 C 200.47 241.81 199.34 243.10 197.46 242.37 C 196.78 240.84 196.33 239.86 194.81 239.00 C 194.17 237.73 193.01 233.57 191.19 234.17 C 192.20 238.01 193.93 241.11 190.52 244.44 C 186.48 246.35 181.26 245.86 177.00 245.00 C 173.94 244.58 171.25 242.85 168.29 242.29 C 168.10 243.72 169.27 244.08 170.09 245.02 C 170.20 246.17 170.95 247.51 170.64 248.63 C 167.55 249.12 164.09 248.31 161.05 247.70 C 160.18 247.57 159.44 247.08 158.83 246.24 C 159.78 245.28 162.89 243.76 161.96 242.11 C 158.71 243.45 156.56 245.95 152.49 244.61 C 148.88 243.52 149.35 240.02 149.52 237.00 C 150.22 235.14 149.11 233.43 149.81 231.85 C 150.68 231.57 151.58 231.40 152.50 231.33 C 154.17 229.67 156.15 228.19 157.60 226.35 C 156.88 225.99 156.19 226.05 155.53 226.51 C 152.35 228.31 147.87 230.66 144.30 228.67 C 141.00 226.39 140.87 221.49 142.01 218.05 C 145.04 218.85 147.91 217.84 150.94 217.24 C 152.41 216.86 154.34 214.18 155.67 215.96 C 155.08 218.75 156.53 223.92 159.93 223.95 L 160.18 222.98 C 158.69 220.02 157.47 217.42 158.09 213.97 C 159.05 214.72 159.86 215.69 161.06 216.00 C 164.12 217.03 166.67 218.85 169.92 219.38 C 174.24 221.05 179.30 220.24 184.00 220.43 C 185.90 220.69 188.67 219.22 189.93 220.96 C 191.27 224.73 189.77 228.34 185.92 229.52 C 179.09 230.54 171.73 229.58 165.50 226.53 C 164.86 226.14 164.17 226.08 163.43 226.34 C 164.11 228.15 167.06 229.05 168.52 230.30 C 174.81 232.32 183.60 234.04 189.71 230.71 C 193.66 227.66 192.86 223.19 191.21 219.07 C 197.16 218.52 201.44 215.33 205.98 211.85 Z M 164.93 239.97 C 164.13 237.09 162.92 234.36 162.60 231.29 C 161.77 230.97 161.20 231.19 160.89 231.95 C 159.79 234.73 161.25 238.97 164.00 240.30 L 164.93 239.97 Z" id="p68" />
<path d="M 156.47 213.49 C 157.16 213.34 157.70 213.50 158.09 213.97 C 157.47 217.42 158.69 220.02 160.18 222.98 L 159.93 223.95 C 156.53 223.92 155.08 218.75 155.67 215.96 C 155.72 214.96 155.99 214.14 156.47 213.49 Z" id="p69" />
<path d="M 130.33 214.34 C 133.68 215.57 136.65 215.54 140.09 216.11 L 140.35 217.92 L 139.73 219.96 C 138.74 222.47 139.43 225.73 139.63 228.38 C 141.24 229.45 142.17 231.01 143.47 232.39 C 145.05 232.48 146.80 232.11 148.24 232.77 C 148.80 235.22 146.68 238.40 146.75 241.15 C 144.11 240.14 141.88 237.58 139.50 235.97 C 136.56 231.66 133.25 227.14 131.76 222.11 C 131.07 219.88 129.67 216.64 130.33 214.34 Z" id="p70" />
<path d="M 113.29 217.16 L 114.13 217.09 C 114.73 219.50 112.79 221.80 112.03 224.06 C 111.47 224.40 110.88 224.62 110.28 224.72 C 110.65 222.12 112.79 219.87 113.29 217.16 Z" id="p71" />
<path d="M 114.13 217.09 C 115.02 217.81 115.14 219.21 115.95 220.07 C 115.00 221.61 114.28 223.11 112.93 224.33 L 112.03 224.06 C 112.79 221.80 114.73 219.50 114.13 217.09 Z" id="p72" />
<path d="M 140.35 217.92 C 141.56 219.36 140.91 222.89 140.77 224.72 C 139.12 225.02 140.08 220.92 139.73 219.96 L 140.35 217.92 Z" id="p73" />
<path d="M 117.92 219.18 C 118.02 220.72 116.20 222.14 115.51 223.46 C 114.94 224.08 114.28 225.99 113.27 225.74 L 112.93 224.33 C 114.28 223.11 115.00 221.61 115.95 220.07 C 116.57 219.48 117.23 219.19 117.92 219.18 Z" id="p74" />
<path d="M 127.26 219.97 C 128.16 220.07 128.60 220.44 128.58 221.06 C 128.63 223.46 130.56 225.42 130.61 227.65 C 128.46 229.22 126.52 230.76 125.00 233.00 C 124.27 233.72 123.33 235.54 122.31 235.65 C 121.73 234.59 121.33 233.46 120.95 232.31 C 122.99 231.21 123.87 227.94 124.94 225.98 C 126.16 224.05 125.89 221.77 127.26 219.97 Z" id="p75" />
<path d="M 100.02 223.11 C 102.83 223.57 105.54 225.68 107.88 227.24 L 107.97 228.06 C 106.00 229.34 103.36 226.02 101.02 226.17 C 96.97 226.57 94.39 224.42 90.50 226.43 C 89.19 226.89 86.33 227.99 87.39 225.35 C 90.76 223.27 96.08 222.97 100.02 223.11 Z" id="p76" />
<path d="M 93.73 228.29 C 93.91 229.68 92.74 230.23 91.91 231.12 C 90.78 231.00 88.29 232.31 87.66 231.04 C 88.62 229.42 92.00 228.12 93.73 228.29 Z" id="p77" />
<path d="M 102.74 229.28 C 103.69 230.90 101.09 231.48 100.84 232.96 C 99.50 235.58 99.79 238.20 99.71 241.04 C 98.89 237.95 99.52 234.22 99.86 231.11 C 98.68 230.66 97.34 230.56 95.83 230.80 C 97.29 228.26 100.30 228.65 102.74 229.28 Z" id="p78" />
<path d="M 111.91 229.19 L 112.79 228.73 C 115.88 229.55 118.65 232.88 119.27 235.98 C 119.36 237.62 119.24 239.23 118.79 240.81 C 117.99 241.16 117.13 241.14 116.21 240.76 L 115.79 238.90 C 117.54 234.50 115.36 231.63 111.91 229.19 Z" id="p79" />
<path d="M 87.66 231.04 C 88.29 232.31 90.78 231.00 91.91 231.12 C 91.15 233.87 90.55 237.09 91.21 239.90 C 92.19 240.03 92.63 239.71 92.53 238.94 C 92.59 236.73 92.88 234.55 93.49 232.43 C 94.25 231.85 95.03 231.31 95.83 230.80 C 97.34 230.56 98.68 230.66 99.86 231.11 C 99.52 234.22 98.89 237.95 99.71 241.04 L 100.88 241.87 C 101.50 239.07 101.21 236.52 102.83 233.94 C 104.35 232.37 105.59 230.82 108.00 231.00 C 109.88 230.70 113.18 232.75 112.82 234.81 C 112.31 234.66 111.79 234.54 111.27 234.47 C 110.94 236.19 111.29 240.70 112.00 242.30 C 111.80 245.35 110.57 248.67 107.02 248.73 C 104.58 249.13 103.01 248.33 100.87 247.40 C 99.02 247.71 97.82 249.08 95.83 248.37 C 92.77 247.72 89.83 244.63 86.84 247.15 C 84.71 245.46 85.30 243.49 85.45 241.07 C 86.64 237.68 86.01 234.31 87.66 231.04 Z" id="p80" />
<path d="M 162.60 231.29 C 162.92 234.36 164.13 237.09 164.93 239.97 L 164.00 240.30 C 161.25 238.97 159.79 234.73 160.89 231.95 C 161.20 231.19 161.77 230.97 162.60 231.29 Z" id="p81" />
<path d="M 191.19 234.17 C 193.01 233.57 194.17 237.73 194.81 239.00 C 194.69 241.83 194.56 244.33 192.21 246.27 C 187.71 248.96 182.89 248.24 177.98 247.49 C 175.20 247.54 172.76 244.80 170.09 245.02 C 169.27 244.08 168.10 243.72 168.29 242.29 C 171.25 242.85 173.94 244.58 177.00 245.00 C 181.26 245.86 186.48 246.35 190.52 244.44 C 193.93 241.11 192.20 238.01 191.19 234.17 Z" id="p82" />
<path d="M 119.27 235.98 C 120.38 240.10 119.49 244.33 116.00 247.00 C 112.65 249.72 107.29 252.85 102.87 251.31 C 99.34 249.85 96.08 252.67 92.85 250.16 C 91.26 248.71 89.49 249.09 87.53 248.55 L 86.84 247.15 C 89.83 244.63 92.77 247.72 95.83 248.37 C 97.82 249.08 99.02 247.71 100.87 247.40 C 103.01 248.33 104.58 249.13 107.02 248.73 C 110.57 248.67 111.80 245.35 112.00 242.30 C 113.60 241.79 114.36 239.83 115.79 238.90 L 116.21 240.76 C 117.13 241.14 117.99 241.16 118.79 240.81 C 119.24 239.23 119.36 237.62 119.27 235.98 Z" id="p83" />
<path d="M 136.57 236.50 C 137.38 236.62 138.20 236.77 139.05 236.96 L 139.50 235.97 C 141.88 237.58 144.11 240.14 146.75 241.15 C 147.33 243.52 148.07 245.38 150.22 246.73 C 153.04 248.00 156.12 247.60 158.83 246.24 C 159.44 247.08 160.18 247.57 161.05 247.70 C 164.09 248.31 167.55 249.12 170.64 248.63 C 170.95 247.51 170.20 246.17 170.09 245.02 C 172.76 244.80 175.20 247.54 177.98 247.49 C 182.89 248.24 187.71 248.96 192.21 246.27 C 194.56 244.33 194.69 241.83 194.81 239.00 C 196.33 239.86 196.78 240.84 197.46 242.37 C 199.34 243.10 200.47 241.81 201.98 240.94 C 204.18 239.79 205.39 237.81 207.85 237.05 C 207.65 244.64 202.99 252.17 197.07 256.78 C 184.95 263.44 168.94 261.86 157.41 254.59 C 155.82 253.67 154.87 252.31 152.88 252.42 C 148.12 248.42 142.56 243.74 139.78 238.08 C 138.71 237.49 137.41 237.35 136.23 237.00 L 136.57 236.50 Z" id="p84" />
<path d="M 136.23 237.00 C 137.41 237.35 138.71 237.49 139.78 238.08 C 142.56 243.74 148.12 248.42 152.88 252.42 C 153.97 254.80 157.14 255.85 158.44 258.02 C 157.63 259.53 156.54 260.83 155.25 261.96 C 155.29 260.15 153.54 259.71 152.47 258.52 C 149.79 255.55 146.88 252.80 144.19 249.83 C 141.62 246.61 137.68 244.43 134.02 242.66 L 133.01 242.74 C 133.97 240.75 135.04 238.86 136.23 237.00 Z" id="p85" />
<path d="M 250.00 237.00 C 256.91 236.72 265.30 237.81 271.02 242.03 C 271.61 242.35 271.84 242.89 271.72 243.64 C 270.14 244.07 268.55 244.38 267.01 244.97 L 264.91 244.82 C 265.87 244.42 266.88 244.09 267.94 243.82 C 268.00 243.15 267.69 242.54 267.01 241.98 C 264.12 239.88 261.16 240.27 257.93 239.47 C 251.73 238.84 245.54 239.00 239.49 240.55 C 238.09 241.45 235.72 241.72 234.75 243.02 C 234.08 247.14 235.23 251.68 234.10 255.68 L 232.78 254.99 L 232.86 253.20 C 233.38 249.31 233.70 245.09 233.03 241.20 C 238.19 238.69 244.20 236.66 250.00 237.00 Z" id="p86" />
<path d="M 257.93 239.47 C 261.16 240.27 264.12 239.88 267.01 241.98 C 267.69 242.54 268.00 243.15 267.94 243.82 C 266.88 244.09 265.87 244.42 264.91 244.82 C 262.07 245.48 260.34 247.31 257.98 248.93 C 251.40 253.97 242.43 257.21 234.10 255.68 C 235.23 251.68 234.08 247.14 234.75 243.02 C 235.72 241.72 238.09 241.45 239.49 240.55 C 245.54 239.00 251.73 238.84 257.93 239.47 Z" id="p87" />
<path d="M 231.12 240.24 C 231.77 240.53 232.40 240.85 233.03 241.20 C 233.70 245.09 233.38 249.31 232.86 253.20 C 232.14 253.00 231.67 252.40 231.47 251.42 C 230.39 247.93 230.86 243.84 231.12 240.24 Z" id="p88" />
<path d="M 229.44 242.22 L 230.21 241.82 C 231.39 250.29 229.15 259.66 227.71 268.00 C 227.22 271.35 230.63 272.51 231.05 275.93 C 230.20 275.44 229.33 274.60 228.37 274.40 C 227.39 276.74 228.83 278.68 229.12 280.99 C 229.27 282.87 229.21 284.74 229.43 286.61 C 230.80 286.77 231.40 285.90 232.22 284.97 C 232.60 282.69 232.45 280.29 232.32 277.99 C 233.01 280.83 232.90 284.04 232.67 286.94 C 231.37 290.39 229.06 294.21 229.73 298.02 C 231.19 302.66 235.13 307.16 235.15 312.00 C 235.39 314.96 232.28 317.53 229.96 318.85 C 223.74 321.64 215.78 320.64 209.08 320.48 C 205.46 319.54 202.32 318.08 199.49 315.57 C 199.12 314.29 198.59 312.46 199.28 311.24 C 201.22 308.92 204.01 308.31 205.37 305.34 C 206.26 303.24 208.01 301.22 208.42 299.00 C 207.61 294.00 201.46 291.67 199.99 286.99 C 198.98 284.99 200.12 283.12 198.19 281.72 C 196.30 280.41 196.73 278.94 195.91 277.13 C 192.37 275.40 186.36 272.98 184.82 269.13 C 189.48 269.10 193.69 267.73 198.06 266.33 C 204.41 264.92 209.93 261.87 215.34 258.36 C 217.70 257.14 219.28 254.96 221.70 253.91 C 222.13 255.85 221.32 258.05 221.07 260.00 C 220.38 264.85 216.84 267.89 213.32 270.74 C 215.35 271.66 217.72 269.32 219.25 268.21 C 224.01 263.37 223.85 257.50 223.16 251.18 C 224.58 252.13 222.56 258.90 224.57 259.59 C 225.32 257.78 225.89 255.95 226.27 254.03 C 227.00 249.99 228.76 246.29 229.44 242.22 Z M 208.73 273.30 C 206.12 273.03 204.56 274.88 201.98 275.17 C 201.09 275.52 198.63 275.59 199.07 277.02 C 202.03 277.88 205.63 276.92 208.00 274.89 C 208.54 274.62 208.79 274.09 208.73 273.30 Z M 220.78 276.92 C 219.17 277.46 220.06 280.69 219.89 282.02 C 219.83 283.12 220.12 283.83 220.75 284.13 C 220.93 285.58 222.12 288.96 223.89 288.87 C 223.81 286.87 222.38 285.09 222.29 283.03 C 221.56 279.67 223.36 276.37 222.98 273.15 C 221.66 272.83 220.89 275.97 220.78 276.92 Z M 209.66 281.45 C 207.40 283.51 205.10 283.56 202.32 284.34 C 201.67 286.52 206.42 287.34 207.78 286.67 C 209.10 285.96 211.80 282.54 209.66 281.45 Z M 210.29 298.74 C 212.08 299.05 213.06 297.17 214.97 297.23 C 218.15 296.63 220.10 297.98 222.90 298.80 C 223.63 297.45 221.58 296.84 220.78 296.18 C 217.85 293.96 211.48 295.11 210.29 298.74 Z" id="p89" />
<path d="M 133.01 242.74 L 134.02 242.66 C 137.68 244.43 141.62 246.61 144.19 249.83 C 146.88 252.80 149.79 255.55 152.47 258.52 C 153.54 259.71 155.29 260.15 155.25 261.96 C 152.20 264.59 149.04 266.83 145.24 268.26 L 145.18 268.87 C 147.33 269.40 150.13 267.95 152.04 266.99 C 155.23 267.29 158.56 265.68 161.56 266.45 C 162.27 267.72 163.09 269.07 162.52 270.57 C 161.47 272.14 160.18 273.65 158.60 274.70 C 157.57 274.98 157.09 275.41 157.14 275.99 L 159.03 276.22 C 157.51 276.88 155.56 276.30 154.04 277.01 C 153.63 278.24 156.40 278.34 157.17 278.95 C 157.17 280.62 157.22 282.32 157.05 283.98 C 155.89 287.22 153.22 289.81 152.21 293.04 C 152.75 294.69 153.20 296.37 153.75 298.02 C 154.69 299.96 155.93 301.95 156.58 304.00 C 156.04 306.57 153.42 308.72 151.53 310.41 C 150.00 310.88 148.80 311.44 147.51 312.38 C 141.91 314.70 134.93 314.47 129.00 314.39 C 125.31 314.29 122.20 313.00 118.50 312.38 C 116.33 310.90 112.55 309.44 114.15 306.09 C 116.55 303.26 121.86 302.92 124.97 300.93 C 129.28 298.56 130.37 294.04 136.00 294.19 C 139.06 293.80 140.98 296.38 143.58 296.58 C 143.89 295.02 142.02 294.71 141.06 293.89 C 137.56 291.65 134.34 292.40 130.52 292.58 C 130.29 289.02 128.68 285.05 127.00 281.91 C 127.15 279.96 126.99 277.99 127.25 276.05 C 128.79 275.26 130.77 276.38 132.56 275.54 C 134.22 274.98 137.31 274.01 135.07 271.91 C 134.34 268.57 131.52 271.19 129.28 269.65 C 127.04 268.67 127.84 266.88 127.77 264.93 C 127.34 261.91 126.96 259.20 127.00 256.06 C 129.11 251.60 130.07 246.88 133.01 242.74 Z M 130.36 259.64 C 131.72 260.35 133.34 260.52 134.24 259.04 C 136.10 256.94 136.43 254.75 136.45 252.00 C 136.43 250.45 136.23 248.18 134.05 249.05 C 130.94 250.96 128.83 256.21 130.36 259.64 Z M 147.03 287.86 C 147.79 286.15 147.03 283.93 147.41 282.07 C 147.53 280.42 149.29 278.75 148.89 277.17 C 147.70 276.86 146.94 278.60 146.38 279.39 C 144.72 282.07 145.04 285.04 146.20 287.84 L 147.03 287.86 Z" id="p90" />
<path d="M 264.91 244.82 L 267.01 244.97 C 263.35 247.27 260.12 250.04 256.74 252.73 C 251.16 257.38 245.74 261.37 238.01 260.36 C 236.70 260.36 233.58 259.30 234.24 261.78 C 236.23 264.29 238.91 267.38 237.68 270.83 C 237.10 272.28 236.49 274.64 235.00 275.36 C 233.42 273.46 232.11 271.11 230.72 269.03 C 230.49 264.42 232.01 259.54 232.78 254.99 L 234.10 255.68 C 242.43 257.21 251.40 253.97 257.98 248.93 C 260.34 247.31 262.07 245.48 264.91 244.82 Z" id="p91" />
<path d="M 134.05 249.05 C 136.23 248.18 136.43 250.45 136.45 252.00 C 136.43 254.75 136.10 256.94 134.24 259.04 C 133.34 260.52 131.72 260.35 130.36 259.64 C 128.83 256.21 130.94 250.96 134.05 249.05 Z" id="p92" />
<path d="M 223.16 251.18 C 223.85 257.50 224.01 263.37 219.25 268.21 C 217.72 269.32 215.35 271.66 213.32 270.74 C 216.84 267.89 220.38 264.85 221.07 260.00 C 221.32 258.05 222.13 255.85 221.70 253.91 C 221.82 251.96 222.31 251.05 223.16 251.18 Z" id="p93" />
<path d="M 125.23 253.85 C 125.99 254.30 126.58 255.04 127.00 256.06 C 126.96 259.20 127.34 261.91 127.77 264.93 C 126.80 266.87 127.25 269.55 127.43 271.65 C 127.94 274.14 134.59 274.13 135.07 271.91 C 137.31 274.01 134.22 274.98 132.56 275.54 C 130.77 276.38 128.79 275.26 127.25 276.05 C 126.99 277.99 127.15 279.96 127.00 281.91 C 126.54 282.64 126.12 283.40 125.75 284.20 C 125.18 283.87 124.79 283.31 124.57 282.52 C 124.09 278.30 124.98 274.14 124.10 269.99 C 123.35 267.30 125.38 265.07 124.60 262.51 C 124.22 259.61 124.29 256.64 125.23 253.85 Z" id="p94" />
<path d="M 160.16 259.21 C 161.35 258.93 162.63 259.94 163.72 260.34 C 166.29 261.61 169.12 262.09 171.71 263.27 C 170.66 269.69 165.38 274.78 159.03 276.22 L 157.14 275.99 C 157.09 275.41 157.57 274.98 158.60 274.70 C 160.18 273.65 161.47 272.14 162.52 270.57 C 163.09 269.07 162.27 267.72 161.56 266.45 C 158.56 265.68 155.23 267.29 152.04 266.99 C 155.33 264.84 157.71 262.23 160.16 259.21 Z" id="p95" />
<path d="M 239.42 262.35 C 240.15 261.48 243.90 261.43 244.10 262.83 C 242.53 263.14 240.96 263.09 239.38 262.98 L 239.42 262.35 Z" id="p96" />
<path d="M 176.01 263.44 L 176.96 263.94 C 179.92 268.72 183.20 273.03 187.96 276.18 C 189.76 277.35 191.86 278.06 193.60 279.31 C 194.38 281.26 195.04 282.90 196.64 284.34 C 197.07 285.70 197.11 287.16 197.51 288.53 C 199.40 292.55 202.53 294.72 205.25 298.03 C 204.82 299.34 204.08 299.98 203.01 299.94 C 192.71 299.38 182.35 299.64 172.00 299.59 C 167.36 299.66 162.85 299.37 158.24 300.02 C 157.09 298.49 155.42 295.91 157.27 294.27 C 159.11 292.01 161.22 290.28 162.59 287.62 C 163.93 284.51 164.38 281.41 163.96 278.03 C 166.38 275.51 169.80 273.99 171.67 270.66 C 173.33 268.63 173.74 264.67 176.01 263.44 Z" id="p97" />
<path d="M 127.77 264.93 C 127.84 266.88 127.04 268.67 129.28 269.65 C 131.52 271.19 134.34 268.57 135.07 271.91 C 134.59 274.13 127.94 274.14 127.43 271.65 C 127.25 269.55 126.80 266.87 127.77 264.93 Z" id="p98" />
<path d="M 208.73 273.30 C 208.79 274.09 208.54 274.62 208.00 274.89 C 205.63 276.92 202.03 277.88 199.07 277.02 C 198.63 275.59 201.09 275.52 201.98 275.17 C 204.56 274.88 206.12 273.03 208.73 273.30 Z" id="p99" />
<path d="M 222.98 273.15 C 223.36 276.37 221.56 279.67 222.29 283.03 C 222.38 285.09 223.81 286.87 223.89 288.87 C 222.12 288.96 220.93 285.58 220.75 284.13 C 221.01 281.98 221.03 279.06 220.78 276.92 C 220.89 275.97 221.66 272.83 222.98 273.15 Z" id="p100" />
<path d="M 228.37 274.40 C 229.33 274.60 230.20 275.44 231.05 275.93 C 231.48 276.61 231.90 277.30 232.32 277.99 C 232.45 280.29 232.60 282.69 232.22 284.97 C 231.40 285.90 230.80 286.77 229.43 286.61 C 229.21 284.74 229.27 282.87 229.12 280.99 C 228.83 278.68 227.39 276.74 228.37 274.40 Z" id="p101" />
<path d="M 148.89 277.17 C 149.29 278.75 147.53 280.42 147.41 282.07 C 147.03 283.93 147.79 286.15 147.03 287.86 L 146.20 287.84 C 145.04 285.04 144.72 282.07 146.38 279.39 C 146.94 278.60 147.70 276.86 148.89 277.17 Z" id="p102" />
<path d="M 220.78 276.92 C 221.03 279.06 221.01 281.98 220.75 284.13 C 220.12 283.83 219.83 283.12 219.89 282.02 C 220.06 280.69 219.17 277.46 220.78 276.92 Z" id="p103" />
<path d="M 157.17 278.95 C 159.22 278.26 161.50 278.07 161.28 281.00 C 161.54 286.12 158.50 288.88 155.22 292.20 C 153.43 293.83 153.56 295.79 153.75 298.02 C 153.20 296.37 152.75 294.69 152.21 293.04 C 153.22 289.81 155.89 287.22 157.05 283.98 C 157.22 282.32 157.17 280.62 157.17 278.95 Z" id="p104" />
<path d="M 209.66 281.45 C 211.80 282.54 209.10 285.96 207.78 286.67 C 206.42 287.34 201.67 286.52 202.32 284.34 C 205.10 283.56 207.40 283.51 209.66 281.45 Z" id="p105" />
<path d="M 220.78 296.18 C 221.58 296.84 223.63 297.45 222.90 298.80 C 220.10 297.98 218.15 296.63 214.97 297.23 C 213.06 297.17 212.08 299.05 210.29 298.74 C 211.48 295.11 217.85 293.96 220.78 296.18 Z" id="p106" />
<path d="M 205.25 298.03 L 205.72 298.97 C 204.78 300.63 203.77 302.22 203.00 303.98 C 201.63 306.80 198.28 307.19 196.86 309.96 C 195.98 311.52 195.50 313.16 196.21 314.90 C 197.41 318.87 201.42 320.76 205.11 321.81 C 209.67 323.64 214.18 323.45 219.00 323.49 C 223.32 323.40 227.39 323.34 231.35 321.41 C 235.46 319.66 238.33 315.55 237.83 311.00 C 237.43 308.35 236.30 305.94 235.77 303.34 C 239.84 302.56 243.80 304.61 248.00 304.85 C 252.99 306.47 258.35 307.52 263.04 309.86 C 265.36 311.07 266.68 313.08 265.62 315.72 C 263.05 318.29 259.95 319.26 256.69 320.60 C 252.55 321.62 248.64 323.10 244.34 323.46 C 228.53 326.74 213.98 327.24 198.00 328.14 C 181.40 328.38 164.54 328.72 148.00 327.20 C 141.21 327.03 134.53 326.39 127.81 325.41 C 117.57 323.87 108.02 322.71 98.46 318.51 C 96.57 317.37 94.42 316.47 94.10 314.01 C 94.36 312.65 95.78 311.61 96.45 310.39 C 101.07 307.68 105.77 306.57 110.90 305.26 C 110.73 307.64 110.42 309.86 112.43 311.57 C 116.74 315.87 124.16 317.09 130.00 317.33 C 138.85 317.89 147.25 316.96 154.61 311.65 C 158.16 308.66 160.60 304.66 158.24 300.02 C 162.85 299.37 167.36 299.66 172.00 299.59 C 182.35 299.64 192.71 299.38 203.01 299.94 C 204.08 299.98 204.82 299.34 205.25 298.03 Z" id="p107" />
</defs>
<g stroke-width="10pt">
<use stroke="#67e9ff" xlink:href="#p0" />
<use stroke="#2a126d" xlink:href="#p1" />
<use stroke="#9bd7ff" xlink:href="#p2" />
<use stroke="#97d7fd" xlink:href="#p3" />
<use stroke="#33aef2" xlink:href="#p4" />
<use stroke="#a1d7ff" xlink:href="#p5" />
<use stroke="#370873" xlink:href="#p6" />
<use stroke="#fffcff" xlink:href="#p7" />
<use stroke="#3ba3da" xlink:href="#p8" />
<use stroke="#774bb0" xlink:href="#p9" />
<use stroke="#fefefe" xlink:href="#p10" />
<use stroke="#7cb3ec" xlink:href="#p11" />
<use stroke="#33aef2" xlink:href="#p12" />
<use stroke="#32266b" xlink:href="#p13" />
<use stroke="#30246a" xlink:href="#p14" />
<use stroke="#2c7ee0" xlink:href="#p15" />
<use stroke="#fefcfd" xlink:href="#p16" />
<use stroke="#d5dee8" xlink:href="#p17" />
<use stroke="#b7a6d5" xlink:href="#p18" />
<use stroke="#03194b" xlink:href="#p19" />
<use stroke="#b4b3b6" xlink:href="#p20" />
<use stroke="#3f3161" xlink:href="#p21" />
<use stroke="#c1e9ff" xlink:href="#p22" />
<use stroke="#7d7b82" xlink:href="#p23" />
<use stroke="#d3dee7" xlink:href="#p24" />
<use stroke="#e6e7ed" xlink:href="#p25" />
<use stroke="#e9eaeb" xlink:href="#p26" />
<use stroke="#879ad3" xlink:href="#p27" />
<use stroke="#7a797f" xlink:href="#p28" />
<use stroke="#4778c1" xlink:href="#p29" />
<use stroke="#b5b4bc" xlink:href="#p30" />
<use stroke="#9fc0ef" xlink:href="#p31" />
<use stroke="#ccc6de" xlink:href="#p32" />
<use stroke="#918c98" xlink:href="#p33" />
<use stroke="#a8bcef" xlink:href="#p34" />
<use stroke="#e9e8eb" xlink:href="#p35" />
<use stroke="#8eb4e8" xlink:href="#p36" />
<use stroke="#32adf2" xlink:href="#p37" />
<use stroke="#9fd7ff" xlink:href="#p38" />
<use stroke="#978ea0" xlink:href="#p39" />
<use stroke="#e6e7ea" xlink:href="#p40" />
<use stroke="#a18fc6" xlink:href="#p41" />
<use stroke="#b5b4bb" xlink:href="#p42" />
<use stroke="#938ba0" xlink:href="#p43" />
<use stroke="#2d7ee1" xlink:href="#p44" />
<use stroke="#939297" xlink:href="#p45" />
<use stroke="#7a707f" xlink:href="#p46" />
<use stroke="#8565b8" xlink:href="#p47" />
<use stroke="#615e67" xlink:href="#p48" />
<use stroke="#b6b4bd" xlink:href="#p49" />
<use stroke="#fef8fe" xlink:href="#p50" />
<use stroke="#dbd7de" xlink:href="#p51" />
<use stroke="#939398" xlink:href="#p52" />
<use stroke="#939196" xlink:href="#p53" />
<use stroke="#a19ca8" xlink:href="#p54" />
<use stroke="#35aaed" xlink:href="#p55" />
<use stroke="#1a156d" xlink:href="#p56" />
<use stroke="#3ca7ee" xlink:href="#p57" />
<use stroke="#d5dfe7" xlink:href="#p58" />
<use stroke="#2c7ee1" xlink:href="#p59" />
<use stroke="#9889b3" xlink:href="#p60" />
<use stroke="#d3dde7" xlink:href="#p61" />
<use stroke="#a497c2" xlink:href="#p62" />
<use stroke="#307ae1" xlink:href="#p63" />
<use stroke="#34adf4" xlink:href="#p64" />
<use stroke="#35adf1" xlink:href="#p65" />
<use stroke="#dedbee" xlink:href="#p66" />
<use stroke="#dedef5" xlink:href="#p67" />
<use stroke="#fefdfe" xlink:href="#p68" />
<use stroke="#383165" xlink:href="#p69" />
<use stroke="#fbfcfc" xlink:href="#p70" />
<use stroke="#0c438d" xlink:href="#p71" />
<use stroke="#529ce3" xlink:href="#p72" />
<use stroke="#0c092c" xlink:href="#p73" />
<use stroke="#0c4490" xlink:href="#p74" />
<use stroke="#2e7fdb" xlink:href="#p75" />
<use stroke="#55aaf5" xlink:href="#p76" />
<use stroke="#89a0dd" xlink:href="#p77" />
<use stroke="#6da7e8" xlink:href="#p78" />
<use stroke="#4aa8f3" xlink:href="#p79" />
<use stroke="#34acf2" xlink:href="#p80" />
<use stroke="#110a37" xlink:href="#p81" />
<use stroke="#100540" xlink:href="#p82" />
<use stroke="#337dde" xlink:href="#p83" />
<use stroke="#d4dde6" xlink:href="#p84" />
<use stroke="#2e80de" xlink:href="#p85" />
<use stroke="#82b3eb" xlink:href="#p86" />
<use stroke="#32aff2" xlink:href="#p87" />
<use stroke="#07186c" xlink:href="#p88" />
<use stroke="#33adf3" xlink:href="#p89" />
<use stroke="#33aef2" xlink:href="#p90" />
<use stroke="#2d7cde" xlink:href="#p91" />
<use stroke="#9cd8fa" xlink:href="#p92" />
<use stroke="#0e3387" xlink:href="#p93" />
<use stroke="#131868" xlink:href="#p94" />
<use stroke="#2c7ee0" xlink:href="#p95" />
<use stroke="#04135c" xlink:href="#p96" />
<use stroke="#67e9fe" xlink:href="#p97" />
<use stroke="#94dfff" xlink:href="#p98" />
<use stroke="#114491" xlink:href="#p99" />
<use stroke="#0d327f" xlink:href="#p100" />
<use stroke="#90dcff" xlink:href="#p101" />
<use stroke="#0c3a85" xlink:href="#p102" />
<use stroke="#344896" xlink:href="#p103" />
<use stroke="#2c7edb" xlink:href="#p104" />
<use stroke="#2c81df" xlink:href="#p105" />
<use stroke="#093981" xlink:href="#p106" />
<use stroke="#5ebae3" xlink:href="#p107" />
</g>
<g>
<use fill="#67e9ff" xlink:href="#p0" />
<use fill="#2a126d" xlink:href="#p1" />
<use fill="#9bd7ff" xlink:href="#p2" />
<use fill="#97d7fd" xlink:href="#p3" />
<use fill="#33aef2" xlink:href="#p4" />
<use fill="#a1d7ff" xlink:href="#p5" />
<use fill="#370873" xlink:href="#p6" />
<use fill="#fffcff" xlink:href="#p7" />
<use fill="#3ba3da" xlink:href="#p8" />
<use fill="#774bb0" xlink:href="#p9" />
<use fill="#fefefe" xlink:href="#p10" />
<use fill="#7cb3ec" xlink:href="#p11" />
<use fill="#33aef2" xlink:href="#p12" />
<use fill="#32266b" xlink:href="#p13" />
<use fill="#30246a" xlink:href="#p14" />
<use fill="#2c7ee0" xlink:href="#p15" />
<use fill="#fefcfd" xlink:href="#p16" />
<use fill="#d5dee8" xlink:href="#p17" />
<use fill="#b7a6d5" xlink:href="#p18" />
<use fill="#03194b" xlink:href="#p19" />
<use fill="#b4b3b6" xlink:href="#p20" />
<use fill="#3f3161" xlink:href="#p21" />
<use fill="#c1e9ff" xlink:href="#p22" />
<use fill="#7d7b82" xlink:href="#p23" />
<use fill="#d3dee7" xlink:href="#p24" />
<use fill="#e6e7ed" xlink:href="#p25" />
<use fill="#e9eaeb" xlink:href="#p26" />
<use fill="#879ad3" xlink:href="#p27" />
<use fill="#7a797f" xlink:href="#p28" />
<use fill="#4778c1" xlink:href="#p29" />
<use fill="#b5b4bc" xlink:href="#p30" />
<use fill="#9fc0ef" xlink:href="#p31" />
<use fill="#ccc6de" xlink:href="#p32" />
<use fill="#918c98" xlink:href="#p33" />
<use fill="#a8bcef" xlink:href="#p34" />
<use fill="#e9e8eb" xlink:href="#p35" />
<use fill="#8eb4e8" xlink:href="#p36" />
<use fill="#32adf2" xlink:href="#p37" />
<use fill="#9fd7ff" xlink:href="#p38" />
<use fill="#978ea0" xlink:href="#p39" />
<use fill="#e6e7ea" xlink:href="#p40" />
<use fill="#a18fc6" xlink:href="#p41" />
<use fill="#b5b4bb" xlink:href="#p42" />
<use fill="#938ba0" xlink:href="#p43" />
<use fill="#2d7ee1" xlink:href="#p44" />
<use fill="#939297" xlink:href="#p45" />
<use fill="#7a707f" xlink:href="#p46" />
<use fill="#8565b8" xlink:href="#p47" />
<use fill="#615e67" xlink:href="#p48" />
<use fill="#b6b4bd" xlink:href="#p49" />
<use fill="#fef8fe" xlink:href="#p50" />
<use fill="#dbd7de" xlink:href="#p51" />
<use fill="#939398" xlink:href="#p52" />
<use fill="#939196" xlink:href="#p53" />
<use fill="#a19ca8" xlink:href="#p54" />
<use fill="#35aaed" xlink:href="#p55" />
<use fill="#1a156d" xlink:href="#p56" />
<use fill="#3ca7ee" xlink:href="#p57" />
<use fill="#d5dfe7" xlink:href="#p58" />
<use fill="#2c7ee1" xlink:href="#p59" />
<use fill="#9889b3" xlink:href="#p60" />
<use fill="#d3dde7" xlink:href="#p61" />
<use fill="#a497c2" xlink:href="#p62" />
<use fill="#307ae1" xlink:href="#p63" />
<use fill="#34adf4" xlink:href="#p64" />
<use fill="#35adf1" xlink:href="#p65" />
<use fill="#dedbee" xlink:href="#p66" />
<use fill="#dedef5" xlink:href="#p67" />
<use fill="#fefdfe" xlink:href="#p68" />
<use fill="#383165" xlink:href="#p69" />
<use fill="#fbfcfc" xlink:href="#p70" />
<use fill="#0c438d" xlink:href="#p71" />
<use fill="#529ce3" xlink:href="#p72" />
<use fill="#0c092c" xlink:href="#p73" />
<use fill="#0c4490" xlink:href="#p74" />
<use fill="#2e7fdb" xlink:href="#p75" />
<use fill="#55aaf5" xlink:href="#p76" />
<use fill="#89a0dd" xlink:href="#p77" />
<use fill="#6da7e8" xlink:href="#p78" />
<use fill="#4aa8f3" xlink:href="#p79" />
<use fill="#34acf2" xlink:href="#p80" />
<use fill="#110a37" xlink:href="#p81" />
<use fill="#100540" xlink:href="#p82" />
<use fill="#337dde" xlink:href="#p83" />
<use fill="#d4dde6" xlink:href="#p84" />
<use fill="#2e80de" xlink:href="#p85" />
<use fill="#82b3eb" xlink:href="#p86" />
<use fill="#32aff2" xlink:href="#p87" />
<use fill="#07186c" xlink:href="#p88" />
<use fill="#33adf3" xlink:href="#p89" />
<use fill="#33aef2" xlink:href="#p90" />
<use fill="#2d7cde" xlink:href="#p91" />
<use fill="#9cd8fa" xlink:href="#p92" />
<use fill="#0e3387" xlink:href="#p93" />
<use fill="#131868" xlink:href="#p94" />
<use fill="#2c7ee0" xlink:href="#p95" />
<use fill="#04135c" xlink:href="#p96" />
<use fill="#67e9fe" xlink:href="#p97" />
<use fill="#94dfff" xlink:href="#p98" />
<use fill="#114491" xlink:href="#p99" />
<use fill="#0d327f" xlink:href="#p100" />
<use fill="#90dcff" xlink:href="#p101" />
<use fill="#0c3a85" xlink:href="#p102" />
<use fill="#344896" xlink:href="#p103" />
<use fill="#2c7edb" xlink:href="#p104" />
<use fill="#2c81df" xlink:href="#p105" />
<use fill="#093981" xlink:href="#p106" />
<use fill="#5ebae3" xlink:href="#p107" />
</g>
</svg>